<svg xmlns="http://www.w3.org/2000/svg" xmlns:xlink="http://www.w3.org/1999/xlink" version="1.1" width="393.24pt" height="110.96pt" viewBox="0 0 393.24 110.96">
<path transform="matrix(.1,0,0,-.1,0,110.96)" stroke-width="5" stroke-linecap="round" stroke-linejoin="round" fill="none" stroke="#000000" d="M3599.81 385.703 591.191 430.117"/>
<path transform="matrix(.1,0,0,-.1,0,110.96)" d="M3674.8 384.594 3600.11 405.797 3599.52 365.609 3674.8 384.594Z"/>
<path transform="matrix(.1,0,0,-.1,0,110.96)" stroke-width="5" stroke-linecap="round" stroke-linejoin="round" fill="none" stroke="#000000" d="M3674.8 384.594 3600.11 405.797 3599.52 365.609 3674.8 384.594Z"/>
<path transform="matrix(.1,0,0,-.1,0,110.96)" d="M3728.7 392.367H3745.54V395.836H3728.7V417.82H3726.05C3725.95 406.586 3721.65 395.117 3710.77 394.758V392.367H3720.93V359.148C3720.93 345.883 3729.77 343.148 3736.1 343.148 3743.63 343.148 3747.57 350.555 3747.57 359.148V365.961H3744.95V359.398C3744.95 350.789 3741.48 345.773 3736.82 345.773 3728.7 345.773 3728.7 356.883 3728.7 358.914V392.367ZM3775.01 417.945C3775.01 421.039 3772.5 423.789 3769.15 423.789 3766.04 423.789 3763.42 421.289 3763.42 418.055 3763.42 414.477 3766.28 412.195 3769.15 412.195 3772.86 412.195 3775.01 415.305 3775.01 417.945ZM3758.51 395.711V392.242C3766.17 392.242 3767.25 391.539 3767.25 385.68V353.18C3767.25 347.805 3765.92 347.805 3758.15 347.805V344.336C3761.5 344.57 3767.25 344.57 3770.7 344.57 3772.01 344.57 3778.95 344.57 3783.01 344.336V347.805C3775.25 347.805 3774.76 348.398 3774.76 353.055V397.023L3758.51 395.711ZM3872.29 373.367C3872.29 384.477 3872.29 387.82 3869.54 391.648 3866.07 396.305 3860.46 397.023 3856.39 397.023 3846.47 397.023 3841.46 389.852 3839.55 385.195 3837.88 394.398 3831.43 397.023 3823.89 397.023 3812.3 397.023 3807.77 387.117 3806.8 384.727H3806.69V397.023L3790.44 395.711V392.242C3798.57 392.242 3799.52 391.414 3799.52 385.555V353.18C3799.52 347.805 3798.21 347.805 3790.44 347.805V344.336C3793.55 344.57 3799.99 344.57 3803.35 344.57 3806.8 344.57 3813.25 344.57 3816.36 344.336V347.805C3808.72 347.805 3807.29 347.805 3807.29 353.18V375.398C3807.29 387.945 3815.54 394.633 3822.94 394.633 3830.35 394.633 3832.02 388.539 3832.02 381.258V353.18C3832.02 347.805 3830.71 347.805 3822.94 347.805V344.336C3826.04 344.57 3832.49 344.57 3835.85 344.57 3839.3 344.57 3845.75 344.57 3848.86 344.336V347.805C3841.22 347.805 3839.79 347.805 3839.79 353.18V375.398C3839.79 387.945 3848.04 394.633 3855.44 394.633 3862.85 394.633 3864.52 388.539 3864.52 381.258V353.18C3864.52 347.805 3863.21 347.805 3855.44 347.805V344.336C3858.54 344.57 3864.99 344.57 3868.35 344.57 3871.8 344.57 3878.25 344.57 3881.36 344.336V347.805C3875.39 347.805 3872.41 347.805 3872.29 351.383V373.367ZM3929.58 372.055C3932.2 372.055 3932.44 372.055 3932.44 374.32 3932.44 386.398 3925.98 397.633 3911.53 397.633 3897.91 397.633 3887.39 385.32 3887.39 370.508 3887.39 354.727 3899.58 343.148 3912.84 343.148 3927.06 343.148 3932.44 356.039 3932.44 358.555 3932.44 359.273 3931.84 359.742 3931.13 359.742 3930.17 359.742 3929.94 359.148 3929.69 358.555 3926.59 348.523 3918.58 345.773 3913.56 345.773 3908.55 345.773 3896.48 349.117 3896.48 369.789V372.055H3929.58ZM3896.59 374.32C3897.55 393.086 3908.06 395.242 3911.41 395.242 3924.2 395.242 3924.92 378.383 3925.03 374.32H3896.59"/>
<path transform="matrix(.1,0,0,-.1,0,110.96)" stroke-width="5" stroke-linecap="round" stroke-linejoin="round" fill="none" stroke="#000000" d="M591.191 1032.13V430.117"/>
<path transform="matrix(.1,0,0,-.1,0,110.96)" d="M591.191 1107.13 571.094 1032.13H611.285L591.191 1107.13Z"/>
<path transform="matrix(.1,0,0,-.1,0,110.96)" stroke-width="5" stroke-linecap="round" stroke-linejoin="round" fill="none" stroke="#000000" d="M591.191 1107.13 571.094 1032.13H611.285L591.191 1107.13Z"/>
<path transform="matrix(.1,0,0,-.1,0,110.96)" stroke-width="5" stroke-linecap="round" stroke-linejoin="round" fill="none" stroke="#000000" d="M65.207 85.0234 591.191 430.117"/>
<path transform="matrix(.1,0,0,-.1,0,110.96)" d="M2.5 43.8828 76.2305 68.2227 54.1836 101.828 2.5 43.8828Z"/>
<path transform="matrix(.1,0,0,-.1,0,110.96)" stroke-width="5" stroke-linecap="round" stroke-linejoin="round" fill="none" stroke="#000000" d="M2.5 43.8828 76.2305 68.2227 54.1836 101.828 2.5 43.8828Z"/>
<path transform="matrix(.1,0,0,-.1,0,110.96)" stroke-width="5" stroke-linecap="round" stroke-linejoin="round" fill="none" stroke="#000000" d="M1151.85 421.84 563.156 35.6055V712.617L1151.85 1098.85V421.84Z"/>
<path transform="matrix(.1,0,0,-.1,0,110.96)" d="M869.051 194.875C869.91 195.441 869.922 195.504 870.02 195.809 870.113 196.113 869.891 196.734 869.727 196.98 869.262 197.688 868.645 197.281 867.953 196.828 868.316 196.176 868.684 195.523 869.051 194.875"/>
<path transform="matrix(.1,0,0,-.1,0,110.96)" d="M855.02 188.34C854.195 187.801 853.578 187.395 854.34 186.234 854.805 185.527 855.383 185.906 856.113 186.387 855.75 187.039 855.383 187.691 855.02 188.34"/>
<path transform="matrix(.1,0,0,-.1,0,110.96)" d="M877.344 185.906C876.957 186.496 876.262 186.039 876.094 185.93 875.438 185.5 875.473 185.277 875.617 184.609 876.191 185.043 876.77 185.473 877.344 185.906"/>
<path transform="matrix(.1,0,0,-.1,0,110.96)" d="M864.227 191.711 869.051 194.875 867.953 196.828 863.453 193.875 864.227 191.711"/>
<path transform="matrix(.1,0,0,-.1,0,110.96)" d="M859.891 191.539 855.02 188.34 856.113 186.387 860.668 189.375 859.891 191.539"/>
<path transform="matrix(.1,0,0,-.1,0,110.96)" d="M873.582 174.227C878.535 177.477 877.883 185.082 877.344 185.906 876.77 185.473 876.191 185.043 875.617 184.609 876.23 180.73 874.945 177.141 872.824 175.75 873.078 175.242 873.332 174.734 873.582 174.227"/>
<path transform="matrix(.1,0,0,-.1,0,110.96)" d="M862.051 197.891C861.582 199.133 860.848 201.32 860.676 201.582 860.211 202.289 859.184 202.68 858.207 202.039 857.512 201.582 856.836 200.484 857.238 199.141 858.844 198.723 860.445 198.305 862.051 197.891"/>
<path transform="matrix(.1,0,0,-.1,0,110.96)" d="M865.895 174.957C867.453 172.582 870.715 172.348 873.582 174.227 873.332 174.734 873.078 175.242 872.824 175.75 871.512 174.887 870.477 175.57 869.652 176.824 868.402 176.203 867.148 175.582 865.895 174.957"/>
<path transform="matrix(.1,0,0,-.1,0,110.96)" d="M857.465 198.414C857.695 197.75 858.293 196.059 859.891 191.539 861.078 192.316 862.266 193.094 863.453 193.875 862.984 195.211 862.52 196.551 862.051 197.891 860.523 198.063 858.992 198.238 857.465 198.414"/>
<path transform="matrix(.1,0,0,-.1,0,110.96)" d="M862.051 197.891C860.891 198.191 859.734 198.492 858.574 198.793 858.203 198.668 857.832 198.543 857.465 198.414 858.992 198.238 860.523 198.063 862.051 197.891"/>
<path transform="matrix(.1,0,0,-.1,0,110.96)" d="M857.313 198.871C857.324 198.824 857.348 198.75 857.465 198.414 857.832 198.543 858.203 198.668 858.574 198.793 858.32 198.859 858.07 198.926 857.816 198.992 857.648 198.949 857.48 198.91 857.313 198.871"/>
<path transform="matrix(.1,0,0,-.1,0,110.96)" d="M857.816 198.992C857.625 199.039 857.43 199.09 857.238 199.141 857.301 198.93 857.301 198.918 857.313 198.871 857.48 198.91 857.648 198.949 857.816 198.992"/>
<path transform="matrix(.1,0,0,-.1,0,110.96)" d="M864.66 178.016C865.055 176.969 865.57 175.453 865.895 174.957 867.148 175.582 868.402 176.203 869.652 176.824 869.215 177.492 869.176 177.637 869.02 178.074 867.566 178.055 866.113 178.035 864.66 178.016"/>
<path transform="matrix(.1,0,0,-.1,0,110.96)" d="M864.227 191.711 863.453 193.875 859.891 191.539 860.668 189.375 864.227 191.711"/>
<path transform="matrix(.1,0,0,-.1,0,110.96)" d="M860.668 189.375 864.66 178.016 869.02 178.074 864.227 191.711 860.668 189.375"/>
<path transform="matrix(.1,0,0,-.1,0,110.96)" d="M928.566 231.25C929.129 231.621 930.16 232.297 929.395 233.457 928.633 234.621 927.449 233.844 926.832 233.441 927.41 232.711 927.988 231.98 928.566 231.25"/>
<path transform="matrix(.1,0,0,-.1,0,110.96)" d="M896.336 213.434C895.719 213.027 894.535 212.25 895.301 211.09 896.063 209.926 897.129 210.625 897.656 210.973 897.219 211.793 896.777 212.613 896.336 213.434"/>
<path transform="matrix(.1,0,0,-.1,0,110.96)" d="M897.656 210.973 928.566 231.25 926.832 233.441 896.336 213.434 897.656 210.973"/>
<path transform="matrix(.1,0,0,-.1,0,110.96)" d="M934.855 221.211C935.473 221.617 936.656 222.395 935.895 223.555 935.129 224.719 934.102 224.043 933.535 223.672 933.977 222.852 934.418 222.031 934.855 221.211"/>
<path transform="matrix(.1,0,0,-.1,0,110.96)" d="M902.629 203.395C902.051 203.016 901.035 202.348 901.797 201.184 902.559 200.023 903.742 200.797 904.359 201.203 903.781 201.934 903.207 202.664 902.629 203.395"/>
<path transform="matrix(.1,0,0,-.1,0,110.96)" d="M904.359 201.203 934.855 221.211 933.535 223.672 902.629 203.395 904.359 201.203"/>
<path transform="matrix(.1,0,0,-.1,0,110.96)" d="M950.754 261.34 950.063 260.883 951.262 259.055 951.957 259.508 950.754 261.34"/>
<path transform="matrix(.1,0,0,-.1,0,110.96)" d="M967.633 239.203C966.953 238.758 966.27 238.309 965.59 237.863 965.988 237.254 966.391 236.645 966.789 236.035 967.07 237.09 967.352 238.148 967.633 239.203"/>
<path transform="matrix(.1,0,0,-.1,0,110.96)" d="M983.324 246.879C982.922 247.492 982.523 248.102 982.121 248.711 981.441 248.262 980.758 247.816 980.078 247.367 981.16 247.207 982.242 247.043 983.324 246.879"/>
<path transform="matrix(.1,0,0,-.1,0,110.96)" d="M957.297 269.422C956.117 264.855 951.578 261.879 950.754 261.34 951.156 260.73 951.555 260.121 951.957 259.508 952.906 260.133 955.492 261.996 957.172 264.594 957.215 266.203 957.254 267.813 957.297 269.422"/>
<path transform="matrix(.1,0,0,-.1,0,110.96)" d="M971.168 242.082C970.809 241.449 969.801 240.625 967.633 239.203 967.352 238.148 967.07 237.09 966.789 236.035 968.535 237.379 971.281 239.215 973.523 240.695 972.738 241.156 971.953 241.617 971.168 242.082"/>
<path transform="matrix(.1,0,0,-.1,0,110.96)" d="M973.523 240.695C974.031 241.027 974.508 241.34 974.945 241.625 973.57 242.352 972.191 243.074 970.816 243.797 971.242 243.148 971.527 242.711 971.168 242.082 971.953 241.617 972.738 241.156 973.523 240.695"/>
<path transform="matrix(.1,0,0,-.1,0,110.96)" d="M979.137 244.348C980.641 245.301 982.141 246.227 983.324 246.879 982.242 247.043 981.16 247.207 980.078 247.367 979.262 246.832 978.586 246.414 978.023 246.094 978.395 245.512 978.766 244.93 979.137 244.348"/>
<path transform="matrix(.1,0,0,-.1,0,110.96)" d="M978.023 246.094C975.602 244.719 975.273 245.219 974.586 246.27 974.703 244.723 974.824 243.176 974.945 241.625 976.129 242.402 977.633 243.391 979.137 244.348 978.766 244.93 978.395 245.512 978.023 246.094"/>
<path transform="matrix(.1,0,0,-.1,0,110.96)" d="M959.574 269.145C958.762 270.383 958.645 270.309 957.297 269.422 957.254 267.813 957.215 266.203 957.172 264.594 957.973 266.109 958.773 267.629 959.574 269.145"/>
<path transform="matrix(.1,0,0,-.1,0,110.96)" d="M970.816 243.797C972.191 243.074 973.57 242.352 974.945 241.625 974.824 243.176 974.703 244.723 974.586 246.27 973.328 245.445 972.074 244.621 970.816 243.797"/>
<path transform="matrix(.1,0,0,-.1,0,110.96)" d="M974.586 246.27 959.574 269.145 957.172 264.594 970.816 243.797 974.586 246.27"/>
<path transform="matrix(.1,0,0,-.1,0,110.96)" d="M1151.85 421.84 563.156 35.6055V712.617L1151.85 1098.85V421.84" fill="#ffffff"/>
<path transform="matrix(.1,0,0,-.1,0,110.96)" stroke-width="5" stroke-linecap="round" stroke-linejoin="round" fill="none" stroke="#000000" d="M647.254 528.977V90.7813"/>
<path transform="matrix(.1,0,0,-.1,0,110.96)" stroke-width="30" stroke-linecap="round" stroke-linejoin="round" fill="none" stroke="#000000" d="M647.254 528.977V528.977"/>
<path transform="matrix(.1,0,0,-.1,0,110.96)" stroke-width="5" stroke-linecap="round" stroke-linejoin="round" fill="none" stroke="#000000" d="M731.355 648.238V145.957"/>
<path transform="matrix(.1,0,0,-.1,0,110.96)" stroke-width="30" stroke-linecap="round" stroke-linejoin="round" fill="none" stroke="#000000" d="M731.355 648.238V648.238"/>
<path transform="matrix(.1,0,0,-.1,0,110.96)" stroke-width="5" stroke-linecap="round" stroke-linejoin="round" fill="none" stroke="#ff4040" d="M815.453 724.23V201.133"/>
<path transform="matrix(.1,0,0,-.1,0,110.96)" stroke-width="30" stroke-linecap="round" stroke-linejoin="round" fill="none" stroke="#ff4040" d="M815.453 724.23V724.23"/>
<path transform="matrix(.1,0,0,-.1,0,110.96)" stroke-width="5" stroke-linecap="round" stroke-linejoin="round" fill="none" stroke="#ff4040" d="M899.551 793.102V256.313"/>
<path transform="matrix(.1,0,0,-.1,0,110.96)" stroke-width="30" stroke-linecap="round" stroke-linejoin="round" fill="none" stroke="#ff4040" d="M899.551 793.102V793.102"/>
<path transform="matrix(.1,0,0,-.1,0,110.96)" stroke-width="5" stroke-linecap="round" stroke-linejoin="round" fill="none" stroke="#ff4040" d="M983.648 861.969V311.488"/>
<path transform="matrix(.1,0,0,-.1,0,110.96)" stroke-width="30" stroke-linecap="round" stroke-linejoin="round" fill="none" stroke="#ff4040" d="M983.648 861.969V861.969"/>
<path transform="matrix(.1,0,0,-.1,0,110.96)" stroke-width="5" stroke-linecap="round" stroke-linejoin="round" fill="none" stroke="#ff4040" d="M1067.75 930.84V366.664"/>
<path transform="matrix(.1,0,0,-.1,0,110.96)" stroke-width="30" stroke-linecap="round" stroke-linejoin="round" fill="none" stroke="#ff4040" d="M1067.75 930.84V930.84"/>
<path transform="matrix(.1,0,0,-.1,0,110.96)" stroke-width="5" stroke-linecap="round" stroke-linejoin="round" fill="none" stroke="#000000" d="M1712.5 413.563 1123.81 27.3281V704.34L1712.5 1090.57V413.563Z"/>
<path transform="matrix(.1,0,0,-.1,0,110.96)" d="M1430.65 180.586C1431.52 181.148 1431.53 181.215 1431.62 181.52 1431.71 181.824 1431.49 182.445 1431.33 182.691 1430.87 183.398 1430.25 182.992 1429.55 182.539 1429.92 181.887 1430.29 181.234 1430.65 180.586"/>
<path transform="matrix(.1,0,0,-.1,0,110.96)" d="M1416.62 174.051C1415.8 173.512 1415.18 173.105 1415.95 171.945 1416.41 171.238 1416.98 171.617 1417.72 172.098 1417.35 172.75 1416.99 173.402 1416.62 174.051"/>
<path transform="matrix(.1,0,0,-.1,0,110.96)" d="M1438.95 171.617C1438.56 172.207 1437.87 171.75 1437.7 171.641 1437.04 171.211 1437.08 170.988 1437.22 170.32 1437.8 170.75 1438.37 171.184 1438.95 171.617"/>
<path transform="matrix(.1,0,0,-.1,0,110.96)" d="M1425.83 177.422 1430.65 180.586 1429.55 182.539 1425.05 179.586 1425.83 177.422"/>
<path transform="matrix(.1,0,0,-.1,0,110.96)" d="M1421.5 177.25 1416.62 174.051 1417.72 172.098 1422.27 175.086 1421.5 177.25"/>
<path transform="matrix(.1,0,0,-.1,0,110.96)" d="M1435.19 159.938C1440.14 163.188 1439.48 170.793 1438.95 171.617 1438.37 171.184 1437.8 170.75 1437.22 170.32 1437.84 166.441 1436.55 162.852 1434.43 161.461 1434.68 160.953 1434.93 160.445 1435.19 159.938"/>
<path transform="matrix(.1,0,0,-.1,0,110.96)" d="M1423.66 183.598C1423.19 184.844 1422.45 187.031 1422.28 187.293 1421.82 188 1420.79 188.391 1419.81 187.75 1419.12 187.293 1418.44 186.195 1418.84 184.852 1420.45 184.434 1422.05 184.016 1423.66 183.598"/>
<path transform="matrix(.1,0,0,-.1,0,110.96)" d="M1427.5 160.668C1429.06 158.293 1432.32 158.059 1435.19 159.938 1434.93 160.445 1434.68 160.953 1434.43 161.461 1433.12 160.598 1432.08 161.281 1431.26 162.535 1430 161.914 1428.75 161.293 1427.5 160.668"/>
<path transform="matrix(.1,0,0,-.1,0,110.96)" d="M1419.07 184.125C1419.3 183.461 1419.9 181.77 1421.5 177.25 1422.68 178.027 1423.87 178.805 1425.05 179.586 1424.59 180.922 1424.12 182.262 1423.66 183.598 1422.13 183.773 1420.6 183.949 1419.07 184.125"/>
<path transform="matrix(.1,0,0,-.1,0,110.96)" d="M1423.66 183.598C1422.5 183.902 1421.34 184.203 1420.18 184.504 1419.81 184.379 1419.44 184.254 1419.07 184.125 1420.6 183.949 1422.13 183.773 1423.66 183.598"/>
<path transform="matrix(.1,0,0,-.1,0,110.96)" d="M1418.91 184.582C1418.93 184.535 1418.95 184.461 1419.07 184.125 1419.44 184.254 1419.81 184.379 1420.18 184.504 1419.93 184.57 1419.68 184.637 1419.42 184.699 1419.25 184.66 1419.09 184.621 1418.91 184.582"/>
<path transform="matrix(.1,0,0,-.1,0,110.96)" d="M1419.42 184.699C1419.23 184.75 1419.04 184.801 1418.84 184.852 1418.91 184.641 1418.91 184.625 1418.91 184.582 1419.09 184.621 1419.25 184.66 1419.42 184.699"/>
<path transform="matrix(.1,0,0,-.1,0,110.96)" d="M1426.27 163.727C1426.66 162.68 1427.17 161.164 1427.5 160.668 1428.75 161.293 1430 161.914 1431.26 162.535 1430.82 163.203 1430.78 163.348 1430.62 163.785 1429.17 163.766 1427.72 163.746 1426.27 163.727"/>
<path transform="matrix(.1,0,0,-.1,0,110.96)" d="M1425.83 177.422 1425.05 179.586 1421.5 177.25 1422.27 175.086 1425.83 177.422"/>
<path transform="matrix(.1,0,0,-.1,0,110.96)" d="M1422.27 175.086 1426.27 163.727 1430.62 163.785 1425.83 177.422 1422.27 175.086"/>
<path transform="matrix(.1,0,0,-.1,0,110.96)" d="M1490.17 216.961C1490.73 217.332 1491.76 218.008 1491 219.168 1490.24 220.332 1489.05 219.555 1488.44 219.152 1489.02 218.422 1489.59 217.691 1490.17 216.961"/>
<path transform="matrix(.1,0,0,-.1,0,110.96)" d="M1457.94 199.141C1457.32 198.738 1456.14 197.961 1456.9 196.797 1457.67 195.637 1458.73 196.336 1459.26 196.684 1458.82 197.504 1458.38 198.32 1457.94 199.141"/>
<path transform="matrix(.1,0,0,-.1,0,110.96)" d="M1459.26 196.684 1490.17 216.961 1488.44 219.152 1457.94 199.141 1459.26 196.684"/>
<path transform="matrix(.1,0,0,-.1,0,110.96)" d="M1496.46 206.922C1497.08 207.328 1498.26 208.105 1497.5 209.266 1496.73 210.43 1495.71 209.754 1495.14 209.383 1495.58 208.563 1496.02 207.742 1496.46 206.922"/>
<path transform="matrix(.1,0,0,-.1,0,110.96)" d="M1464.23 189.105C1463.65 188.727 1462.64 188.059 1463.4 186.895 1464.16 185.734 1465.35 186.508 1465.96 186.914 1465.39 187.645 1464.81 188.375 1464.23 189.105"/>
<path transform="matrix(.1,0,0,-.1,0,110.96)" d="M1465.96 186.914 1496.46 206.922 1495.14 209.383 1464.23 189.105 1465.96 186.914"/>
<path transform="matrix(.1,0,0,-.1,0,110.96)" d="M1512.61 240.539C1514.03 238.371 1516.07 239.184 1516.63 239.555 1517.74 240.281 1518.56 241.887 1517.44 243.598 1516.46 245.086 1514.85 245.223 1513.5 244.527 1513.2 243.199 1512.9 241.867 1512.61 240.539"/>
<path transform="matrix(.1,0,0,-.1,0,110.96)" d="M1525.21 222.387C1525.04 221.75 1525 221.727 1525.15 221.414 1525.43 220.996 1525.7 220.574 1525.98 220.156 1525.72 220.902 1525.47 221.645 1525.21 222.387"/>
<path transform="matrix(.1,0,0,-.1,0,110.96)" d="M1517.38 254.137C1511.86 250.512 1509.93 244.613 1512.61 240.539 1512.9 241.867 1513.2 243.199 1513.5 244.527 1513.42 247.145 1514.98 249.945 1517.72 251.746 1517.61 252.543 1517.5 253.34 1517.38 254.137"/>
<path transform="matrix(.1,0,0,-.1,0,110.96)" d="M1545 232.641C1543.7 235.613 1542.39 238.582 1541.09 241.551 1540.52 241.176 1539.95 240.801 1539.38 240.426 1539.77 239.559 1541.04 236.715 1540.66 235.867 1542.11 234.793 1543.56 233.719 1545 232.641"/>
<path transform="matrix(.1,0,0,-.1,0,110.96)" d="M1533.61 252.953C1530.12 258.273 1523.23 257.977 1517.38 254.137 1517.5 253.34 1517.61 252.543 1517.72 251.746 1521.7 254.352 1526.59 254.125 1529.26 250.047 1530.71 251.016 1532.16 251.984 1533.61 252.953"/>
<path transform="matrix(.1,0,0,-.1,0,110.96)" d="M1545 232.641C1543.56 233.719 1542.11 234.793 1540.66 235.867 1540.5 235.41 1537.06 233.148 1536.45 232.75 1539.3 232.715 1542.15 232.68 1545 232.641"/>
<path transform="matrix(.1,0,0,-.1,0,110.96)" d="M1532.66 238.875C1534.65 243.883 1536.5 248.539 1533.61 252.953 1532.16 251.984 1530.71 251.016 1529.26 250.047 1531.56 246.547 1530.93 242.32 1529.55 237.551 1530.59 237.992 1531.62 238.434 1532.66 238.875"/>
<path transform="matrix(.1,0,0,-.1,0,110.96)" d="M1525.98 220.156 1545 232.641 1536.45 232.75 1528.43 227.488 1525.98 220.156"/>
<path transform="matrix(.1,0,0,-.1,0,110.96)" d="M1528.43 227.488C1529.79 231.297 1531.29 235.605 1532.66 238.875 1531.62 238.434 1530.59 237.992 1529.55 237.551 1528.11 232.496 1526.66 227.441 1525.21 222.387 1526.29 224.086 1527.36 225.785 1528.43 227.488"/>
<path transform="matrix(.1,0,0,-.1,0,110.96)" d="M1525.21 222.387C1525.47 221.645 1525.72 220.902 1525.98 220.156 1526.79 222.602 1527.61 225.043 1528.43 227.488 1527.36 225.785 1526.29 224.086 1525.21 222.387"/>
<path transform="matrix(.1,0,0,-.1,0,110.96)" d="M1712.5 413.563 1123.81 27.3281V704.34L1712.5 1090.57V413.563" fill="#ffffff"/>
<path transform="matrix(.1,0,0,-.1,0,110.96)" stroke-width="5" stroke-linecap="round" stroke-linejoin="round" fill="none" stroke="#000000" d="M1207.91 427.586V82.5039"/>
<path transform="matrix(.1,0,0,-.1,0,110.96)" stroke-width="30" stroke-linecap="round" stroke-linejoin="round" fill="none" stroke="#000000" d="M1207.91 427.586V427.586"/>
<path transform="matrix(.1,0,0,-.1,0,110.96)" stroke-width="5" stroke-linecap="round" stroke-linejoin="round" fill="none" stroke="#000000" d="M1292.01 537.535V137.684"/>
<path transform="matrix(.1,0,0,-.1,0,110.96)" stroke-width="30" stroke-linecap="round" stroke-linejoin="round" fill="none" stroke="#000000" d="M1292.01 537.535V537.535"/>
<path transform="matrix(.1,0,0,-.1,0,110.96)" stroke-width="5" stroke-linecap="round" stroke-linejoin="round" fill="none" stroke="#ff4040" d="M1376.11 625.578V192.859"/>
<path transform="matrix(.1,0,0,-.1,0,110.96)" stroke-width="30" stroke-linecap="round" stroke-linejoin="round" fill="none" stroke="#ff4040" d="M1376.11 625.578V625.578"/>
<path transform="matrix(.1,0,0,-.1,0,110.96)" stroke-width="5" stroke-linecap="round" stroke-linejoin="round" fill="none" stroke="#ff4040" d="M1460.21 694.445V248.035"/>
<path transform="matrix(.1,0,0,-.1,0,110.96)" stroke-width="30" stroke-linecap="round" stroke-linejoin="round" fill="none" stroke="#ff4040" d="M1460.21 694.445V694.445"/>
<path transform="matrix(.1,0,0,-.1,0,110.96)" stroke-width="5" stroke-linecap="round" stroke-linejoin="round" fill="none" stroke="#ff4040" d="M1544.3 763.316V303.211"/>
<path transform="matrix(.1,0,0,-.1,0,110.96)" stroke-width="30" stroke-linecap="round" stroke-linejoin="round" fill="none" stroke="#ff4040" d="M1544.3 763.316V763.316"/>
<path transform="matrix(.1,0,0,-.1,0,110.96)" stroke-width="5" stroke-linecap="round" stroke-linejoin="round" fill="none" stroke="#ff4040" d="M1628.41 832.188V358.387"/>
<path transform="matrix(.1,0,0,-.1,0,110.96)" stroke-width="30" stroke-linecap="round" stroke-linejoin="round" fill="none" stroke="#ff4040" d="M1628.41 832.188V832.188"/>
<path transform="matrix(.1,0,0,-.1,0,110.96)" stroke-width="5" stroke-linecap="round" stroke-linejoin="round" fill="none" stroke="#000000" d="M2273.16 405.285 1684.47 19.0547V696.066L2273.16 1082.3V405.285Z"/>
<path transform="matrix(.1,0,0,-.1,0,110.96)" d="M1992.6 166.844C1993.46 167.41 1993.47 167.473 1993.56 167.781 1993.66 168.086 1993.44 168.703 1993.27 168.953 1992.81 169.656 1992.19 169.254 1991.5 168.797 1991.86 168.148 1992.23 167.496 1992.6 166.844"/>
<path transform="matrix(.1,0,0,-.1,0,110.96)" d="M1978.57 160.313C1977.74 159.773 1977.13 159.367 1977.89 158.203 1978.35 157.5 1978.93 157.879 1979.66 158.359 1979.3 159.012 1978.93 159.66 1978.57 160.313"/>
<path transform="matrix(.1,0,0,-.1,0,110.96)" d="M2000.89 157.879C2000.5 158.465 1999.81 158.012 1999.64 157.898 1998.98 157.469 1999.02 157.25 1999.16 156.578 1999.74 157.012 2000.31 157.445 2000.89 157.879"/>
<path transform="matrix(.1,0,0,-.1,0,110.96)" d="M1987.77 163.68 1992.6 166.844 1991.5 168.797 1987 165.844 1987.77 163.68"/>
<path transform="matrix(.1,0,0,-.1,0,110.96)" d="M1983.44 163.508 1978.57 160.313 1979.66 158.359 1984.21 161.344 1983.44 163.508"/>
<path transform="matrix(.1,0,0,-.1,0,110.96)" d="M1997.13 146.199C2002.08 149.445 2001.43 157.055 2000.89 157.879 2000.31 157.445 1999.74 157.012 1999.16 156.578 1999.78 152.703 1998.49 149.109 1996.37 147.719 1996.63 147.211 1996.88 146.707 1997.13 146.199"/>
<path transform="matrix(.1,0,0,-.1,0,110.96)" d="M1985.6 169.859C1985.13 171.105 1984.39 173.293 1984.22 173.555 1983.76 174.258 1982.73 174.648 1981.75 174.008 1981.06 173.555 1980.38 172.453 1980.79 171.113 1982.39 170.695 1983.99 170.277 1985.6 169.859"/>
<path transform="matrix(.1,0,0,-.1,0,110.96)" d="M1989.44 146.93C1991 144.551 1994.26 144.316 1997.13 146.199 1996.88 146.707 1996.63 147.211 1996.37 147.719 1995.06 146.859 1994.02 147.543 1993.2 148.797 1991.95 148.176 1990.7 147.551 1989.44 146.93"/>
<path transform="matrix(.1,0,0,-.1,0,110.96)" d="M1981.01 170.387C1981.24 169.723 1981.84 168.031 1983.44 163.508 1984.63 164.289 1985.81 165.066 1987 165.844 1986.53 167.184 1986.06 168.52 1985.6 169.859 1984.07 170.035 1982.54 170.211 1981.01 170.387"/>
<path transform="matrix(.1,0,0,-.1,0,110.96)" d="M1985.6 169.859C1984.44 170.16 1983.28 170.461 1982.12 170.766 1981.75 170.637 1981.38 170.512 1981.01 170.387 1982.54 170.211 1984.07 170.035 1985.6 169.859"/>
<path transform="matrix(.1,0,0,-.1,0,110.96)" d="M1980.86 170.84C1980.87 170.797 1980.89 170.719 1981.01 170.387 1981.38 170.512 1981.75 170.637 1982.12 170.766 1981.87 170.828 1981.62 170.895 1981.36 170.961 1981.2 170.922 1981.03 170.883 1980.86 170.84"/>
<path transform="matrix(.1,0,0,-.1,0,110.96)" d="M1981.36 170.961C1981.17 171.012 1980.98 171.063 1980.79 171.113 1980.85 170.902 1980.85 170.887 1980.86 170.84 1981.03 170.883 1981.2 170.922 1981.36 170.961"/>
<path transform="matrix(.1,0,0,-.1,0,110.96)" d="M1988.21 149.988C1988.6 148.938 1989.12 147.426 1989.44 146.93 1990.7 147.551 1991.95 148.176 1993.2 148.797 1992.76 149.461 1992.72 149.605 1992.57 150.043 1991.11 150.023 1989.66 150.008 1988.21 149.988"/>
<path transform="matrix(.1,0,0,-.1,0,110.96)" d="M1987.77 163.68 1987 165.844 1983.44 163.508 1984.21 161.344 1987.77 163.68"/>
<path transform="matrix(.1,0,0,-.1,0,110.96)" d="M1984.21 161.344 1988.21 149.988 1992.57 150.043 1987.77 163.68 1984.21 161.344"/>
<path transform="matrix(.1,0,0,-.1,0,110.96)" d="M2052.11 203.219C2052.68 203.59 2053.71 204.266 2052.94 205.43 2052.18 206.59 2051 205.816 2050.38 205.41 2050.96 204.68 2051.54 203.949 2052.11 203.219"/>
<path transform="matrix(.1,0,0,-.1,0,110.96)" d="M2019.88 185.402C2019.27 184.996 2018.08 184.223 2018.85 183.059 2019.61 181.895 2020.68 182.598 2021.2 182.941 2020.76 183.762 2020.32 184.582 2019.88 185.402"/>
<path transform="matrix(.1,0,0,-.1,0,110.96)" d="M2021.2 182.941 2052.11 203.219 2050.38 205.41 2019.88 185.402 2021.2 182.941"/>
<path transform="matrix(.1,0,0,-.1,0,110.96)" d="M2058.4 193.184C2059.02 193.586 2060.2 194.363 2059.44 195.527 2058.68 196.688 2057.65 196.016 2057.08 195.645 2057.52 194.824 2057.96 194.004 2058.4 193.184"/>
<path transform="matrix(.1,0,0,-.1,0,110.96)" d="M2026.18 175.363C2025.6 174.984 2024.58 174.32 2025.34 173.156 2026.11 171.992 2027.29 172.77 2027.91 173.176 2027.33 173.902 2026.75 174.633 2026.18 175.363"/>
<path transform="matrix(.1,0,0,-.1,0,110.96)" d="M2027.91 173.176 2058.4 193.184 2057.08 195.645 2026.18 175.363 2027.91 173.176"/>
<path transform="matrix(.1,0,0,-.1,0,110.96)" d="M2074.6 228.852C2075.88 226.902 2077.77 227.414 2078.55 227.93 2079.73 228.707 2080.3 230.332 2079.32 231.832 2078.69 232.789 2077.44 233.629 2075.8 232.906 2075.4 231.555 2075 230.203 2074.6 228.852"/>
<path transform="matrix(.1,0,0,-.1,0,110.96)" d="M2087.08 227.77C2085.97 226.965 2085.83 226.816 2084.79 226.078 2084.36 225.742 2083.94 225.41 2084.35 224.781 2084.81 224.074 2085.22 224.348 2085.97 224.836 2086.34 225.813 2086.71 226.789 2087.08 227.77"/>
<path transform="matrix(.1,0,0,-.1,0,110.96)" d="M2079.81 240.719C2074.77 237.414 2072.14 232.598 2074.6 228.852 2075 230.203 2075.4 231.555 2075.8 232.906 2076.3 235.984 2079.88 238.496 2080.72 239.055 2080.42 239.609 2080.12 240.164 2079.81 240.719"/>
<path transform="matrix(.1,0,0,-.1,0,110.96)" d="M2087.08 227.77C2086.71 226.789 2086.34 225.813 2085.97 224.836 2086.87 225.426 2087.77 226.016 2088.67 226.605 2088.14 226.996 2087.61 227.383 2087.08 227.77"/>
<path transform="matrix(.1,0,0,-.1,0,110.96)" d="M2088.4 210.957C2089.91 212.301 2089.55 213.914 2088.89 214.906 2087.88 216.449 2086.09 216.691 2084.74 215.805 2083.43 214.945 2082.77 213.281 2083.92 211.531 2085.41 211.34 2086.91 211.148 2088.4 210.957"/>
<path transform="matrix(.1,0,0,-.1,0,110.96)" d="M2093.05 240.898C2090.81 244.309 2084.97 244.102 2079.81 240.719 2080.12 240.164 2080.42 239.609 2080.72 239.055 2083.72 241.02 2086.84 240.883 2088.7 238.047 2090.15 238.996 2091.6 239.949 2093.05 240.898"/>
<path transform="matrix(.1,0,0,-.1,0,110.96)" d="M2097.23 213.645C2096.78 213.352 2091.9 210.152 2088.4 210.957 2086.91 211.148 2085.41 211.34 2083.92 211.531 2086.76 207.207 2092.89 208.371 2098.46 212.023 2098.05 212.566 2097.64 213.105 2097.23 213.645"/>
<path transform="matrix(.1,0,0,-.1,0,110.96)" d="M2091.49 229.707C2095.34 234.551 2094.57 238.574 2093.05 240.898 2091.6 239.949 2090.15 238.996 2088.7 238.047 2090.29 235.629 2091.21 230.836 2087.08 227.77 2088.55 228.414 2090.02 229.063 2091.49 229.707"/>
<path transform="matrix(.1,0,0,-.1,0,110.96)" d="M2099.19 224.223C2101.98 219.977 2100.87 216.035 2097.23 213.645 2097.64 213.105 2098.05 212.566 2098.46 212.023 2105.18 216.438 2106.65 223.285 2104 227.32 2102.39 226.289 2100.79 225.254 2099.19 224.223"/>
<path transform="matrix(.1,0,0,-.1,0,110.96)" d="M2091.49 229.707C2090.02 229.063 2088.55 228.414 2087.08 227.77 2087.61 227.383 2088.14 226.996 2088.67 226.605 2089.61 227.641 2090.55 228.676 2091.49 229.707"/>
<path transform="matrix(.1,0,0,-.1,0,110.96)" d="M2088.67 226.605C2092.44 229.078 2096.49 228.336 2099.19 224.223 2100.79 225.254 2102.39 226.289 2104 227.32 2101.76 230.73 2096.87 231.688 2091.49 229.707 2090.55 228.676 2089.61 227.641 2088.67 226.605"/>
<path transform="matrix(.1,0,0,-.1,0,110.96)" d="M2273.16 405.285 1684.47 19.0547V696.066L2273.16 1082.3V405.285" fill="#ffffff"/>
<path transform="matrix(.1,0,0,-.1,0,110.96)" stroke-width="5" stroke-linecap="round" stroke-linejoin="round" fill="none" stroke="#000000" d="M1768.57 328.93V74.2305"/>
<path transform="matrix(.1,0,0,-.1,0,110.96)" stroke-width="30" stroke-linecap="round" stroke-linejoin="round" fill="none" stroke="#000000" d="M1768.57 328.93V328.93"/>
<path transform="matrix(.1,0,0,-.1,0,110.96)" stroke-width="5" stroke-linecap="round" stroke-linejoin="round" fill="none" stroke="#000000" d="M1852.67 425.188V129.406"/>
<path transform="matrix(.1,0,0,-.1,0,110.96)" stroke-width="30" stroke-linecap="round" stroke-linejoin="round" fill="none" stroke="#000000" d="M1852.67 425.188V425.188"/>
<path transform="matrix(.1,0,0,-.1,0,110.96)" stroke-width="5" stroke-linecap="round" stroke-linejoin="round" fill="none" stroke="#000000" d="M1936.77 521.445V184.582"/>
<path transform="matrix(.1,0,0,-.1,0,110.96)" stroke-width="30" stroke-linecap="round" stroke-linejoin="round" fill="none" stroke="#000000" d="M1936.77 521.445V521.445"/>
<path transform="matrix(.1,0,0,-.1,0,110.96)" stroke-width="5" stroke-linecap="round" stroke-linejoin="round" fill="none" stroke="#ff4040" d="M2020.86 598.531V239.758"/>
<path transform="matrix(.1,0,0,-.1,0,110.96)" stroke-width="30" stroke-linecap="round" stroke-linejoin="round" fill="none" stroke="#ff4040" d="M2020.86 598.531V598.531"/>
<path transform="matrix(.1,0,0,-.1,0,110.96)" stroke-width="5" stroke-linecap="round" stroke-linejoin="round" fill="none" stroke="#ff4040" d="M2104.96 667.402V294.934"/>
<path transform="matrix(.1,0,0,-.1,0,110.96)" stroke-width="30" stroke-linecap="round" stroke-linejoin="round" fill="none" stroke="#ff4040" d="M2104.96 667.402V667.402"/>
<path transform="matrix(.1,0,0,-.1,0,110.96)" stroke-width="5" stroke-linecap="round" stroke-linejoin="round" fill="none" stroke="#ff4040" d="M2189.06 736.27V350.109"/>
<path transform="matrix(.1,0,0,-.1,0,110.96)" stroke-width="30" stroke-linecap="round" stroke-linejoin="round" fill="none" stroke="#ff4040" d="M2189.06 736.27V736.27"/>
<path transform="matrix(.1,0,0,-.1,0,110.96)" stroke-width="5" stroke-linecap="round" stroke-linejoin="round" fill="none" stroke="#000000" d="M2833.82 397.012 2245.13 10.7773V687.789L2833.82 1074.02V397.012Z"/>
<path transform="matrix(.1,0,0,-.1,0,110.96)" d="M2644.6 197.941C2649.14 200.922 2653.68 203.902 2658.22 206.883 2657.93 207.563 2657.64 208.242 2657.35 208.922 2653.1 205.262 2648.85 201.602 2644.6 197.941"/>
<path transform="matrix(.1,0,0,-.1,0,110.96)" d="M2554.87 152.34C2555.73 152.902 2555.74 152.969 2555.84 153.273 2555.93 153.578 2555.71 154.199 2555.54 154.445 2555.08 155.152 2554.46 154.746 2553.77 154.293 2554.14 153.641 2554.5 152.988 2554.87 152.34"/>
<path transform="matrix(.1,0,0,-.1,0,110.96)" d="M2540.84 145.805C2540.01 145.266 2539.39 144.859 2540.16 143.699 2540.62 142.992 2541.2 143.371 2541.93 143.852 2541.57 144.504 2541.2 145.156 2540.84 145.805"/>
<path transform="matrix(.1,0,0,-.1,0,110.96)" d="M2563.16 143.371C2562.77 143.961 2562.08 143.504 2561.91 143.395 2561.26 142.965 2561.29 142.742 2561.44 142.074 2562.01 142.504 2562.59 142.938 2563.16 143.371"/>
<path transform="matrix(.1,0,0,-.1,0,110.96)" d="M2550.05 149.176 2554.87 152.34 2553.77 154.293 2549.27 151.34 2550.05 149.176"/>
<path transform="matrix(.1,0,0,-.1,0,110.96)" d="M2545.71 149.004 2540.84 145.805 2541.93 143.852 2546.48 146.84 2545.71 149.004"/>
<path transform="matrix(.1,0,0,-.1,0,110.96)" d="M2559.4 131.691C2564.35 134.941 2563.7 142.547 2563.16 143.371 2562.59 142.938 2562.01 142.504 2561.44 142.074 2562.05 138.195 2560.76 134.605 2558.64 133.215 2558.89 132.707 2559.15 132.199 2559.4 131.691"/>
<path transform="matrix(.1,0,0,-.1,0,110.96)" d="M2547.87 155.352C2547.4 156.598 2546.66 158.785 2546.49 159.047 2546.03 159.754 2545 160.145 2544.02 159.504 2543.33 159.047 2542.65 157.949 2543.05 156.605 2544.66 156.188 2546.27 155.77 2547.87 155.352"/>
<path transform="matrix(.1,0,0,-.1,0,110.96)" d="M2551.71 132.422C2553.27 130.047 2556.54 129.813 2559.4 131.691 2559.15 132.199 2558.89 132.707 2558.64 133.215 2557.33 132.352 2556.29 133.035 2555.47 134.289 2554.22 133.668 2552.96 133.047 2551.71 132.422"/>
<path transform="matrix(.1,0,0,-.1,0,110.96)" d="M2543.28 155.879C2543.51 155.215 2544.11 153.523 2545.71 149.004 2546.89 149.781 2548.08 150.559 2549.27 151.34 2548.8 152.676 2548.34 154.016 2547.87 155.352 2546.34 155.527 2544.81 155.703 2543.28 155.879"/>
<path transform="matrix(.1,0,0,-.1,0,110.96)" d="M2547.87 155.352C2546.71 155.656 2545.55 155.957 2544.39 156.258 2544.02 156.133 2543.65 156.008 2543.28 155.879 2544.81 155.703 2546.34 155.527 2547.87 155.352"/>
<path transform="matrix(.1,0,0,-.1,0,110.96)" d="M2543.13 156.336C2543.14 156.289 2543.16 156.215 2543.28 155.879 2543.65 156.008 2544.02 156.133 2544.39 156.258 2544.14 156.324 2543.89 156.391 2543.64 156.453 2543.46 156.414 2543.3 156.375 2543.13 156.336"/>
<path transform="matrix(.1,0,0,-.1,0,110.96)" d="M2543.64 156.453C2543.44 156.504 2543.25 156.555 2543.05 156.605 2543.12 156.395 2543.12 156.379 2543.13 156.336 2543.3 156.375 2543.46 156.414 2543.64 156.453"/>
<path transform="matrix(.1,0,0,-.1,0,110.96)" d="M2550.48 135.48C2550.87 134.434 2551.39 132.918 2551.71 132.422 2552.96 133.047 2554.22 133.668 2555.47 134.289 2555.04 134.957 2555 135.102 2554.84 135.539 2553.38 135.52 2551.93 135.5 2550.48 135.48"/>
<path transform="matrix(.1,0,0,-.1,0,110.96)" d="M2550.05 149.176 2549.27 151.34 2545.71 149.004 2546.48 146.84 2550.05 149.176"/>
<path transform="matrix(.1,0,0,-.1,0,110.96)" d="M2546.48 146.84 2550.48 135.48 2554.84 135.539 2550.05 149.176 2546.48 146.84"/>
<path transform="matrix(.1,0,0,-.1,0,110.96)" d="M2614.38 188.715C2614.95 189.086 2615.98 189.762 2615.21 190.922 2614.45 192.086 2613.27 191.309 2612.65 190.906 2613.23 190.176 2613.8 189.445 2614.38 188.715"/>
<path transform="matrix(.1,0,0,-.1,0,110.96)" d="M2582.15 170.895C2581.54 170.492 2580.36 169.715 2581.12 168.551 2581.88 167.391 2582.95 168.09 2583.47 168.438 2583.04 169.258 2582.59 170.074 2582.15 170.895"/>
<path transform="matrix(.1,0,0,-.1,0,110.96)" d="M2583.47 168.438 2614.38 188.715 2612.65 190.906 2582.15 170.895 2583.47 168.438"/>
<path transform="matrix(.1,0,0,-.1,0,110.96)" d="M2620.67 178.676C2621.29 179.082 2622.47 179.859 2621.71 181.02 2620.95 182.184 2619.92 181.508 2619.36 181.137 2619.79 180.316 2620.23 179.496 2620.67 178.676"/>
<path transform="matrix(.1,0,0,-.1,0,110.96)" d="M2588.45 160.859C2587.87 160.48 2586.85 159.813 2587.61 158.648 2588.38 157.488 2589.56 158.262 2590.18 158.668 2589.6 159.398 2589.02 160.129 2588.45 160.859"/>
<path transform="matrix(.1,0,0,-.1,0,110.96)" d="M2590.18 158.668 2620.67 178.676 2619.36 181.137 2588.45 160.859 2590.18 158.668"/>
<path transform="matrix(.1,0,0,-.1,0,110.96)" d="M2657.91 199.594C2657.43 199.281 2656.95 198.965 2656.47 198.648 2656.87 198.039 2657.27 197.43 2657.67 196.82 2657.75 197.746 2657.83 198.672 2657.91 199.594"/>
<path transform="matrix(.1,0,0,-.1,0,110.96)" d="M2671.59 205.957C2671.2 206.566 2670.8 207.176 2670.39 207.785 2669.91 207.469 2669.43 207.156 2668.96 206.84 2669.84 206.547 2670.71 206.25 2671.59 205.957"/>
<path transform="matrix(.1,0,0,-.1,0,110.96)" d="M2662.14 209.457 2667.26 212.813 2666.06 214.641 2660.95 211.285 2662.14 209.457"/>
<path transform="matrix(.1,0,0,-.1,0,110.96)" d="M2648.94 229.586C2648.29 230.582 2648.09 230.805 2647.02 230.105 2646.21 229.57 2646.2 229.508 2646.12 228.637 2647.06 228.953 2648 229.27 2648.94 229.586"/>
<path transform="matrix(.1,0,0,-.1,0,110.96)" d="M2643.39 199.77 2644.6 197.941 2657.35 208.922 2645.31 201.027 2643.39 199.77"/>
<path transform="matrix(.1,0,0,-.1,0,110.96)" d="M2657.35 208.922C2657.64 208.242 2657.93 207.563 2658.22 206.883 2658.93 205.805 2659.64 204.723 2660.35 203.645 2659.35 205.402 2658.35 207.164 2657.35 208.922"/>
<path transform="matrix(.1,0,0,-.1,0,110.96)" d="M2660.79 202.012C2660.52 201.453 2659.69 200.762 2657.91 199.594 2657.83 198.672 2657.75 197.746 2657.67 196.82 2659.23 197.938 2661.29 199.391 2663.3 200.746 2662.46 201.168 2661.63 201.59 2660.79 202.012"/>
<path transform="matrix(.1,0,0,-.1,0,110.96)" d="M2663.3 200.746C2663.71 201.023 2664.13 201.297 2664.53 201.563 2663.14 202.258 2661.74 202.949 2660.35 203.645 2660.77 202.996 2661.05 202.57 2660.79 202.012 2661.63 201.59 2662.46 201.168 2663.3 200.746"/>
<path transform="matrix(.1,0,0,-.1,0,110.96)" d="M2668.19 203.887C2669.41 204.641 2670.59 205.352 2671.59 205.957 2670.71 206.25 2669.84 206.547 2668.96 206.84 2668.19 206.336 2667.57 205.961 2667.07 205.695 2667.45 205.094 2667.82 204.488 2668.19 203.887"/>
<path transform="matrix(.1,0,0,-.1,0,110.96)" d="M2667.07 205.695C2665.25 204.727 2664.94 205.199 2664.27 206.215 2664.36 204.664 2664.44 203.113 2664.53 201.563 2665.71 202.34 2666.97 203.133 2668.19 203.887 2667.82 204.488 2667.45 205.094 2667.07 205.695"/>
<path transform="matrix(.1,0,0,-.1,0,110.96)" d="M2646.12 228.637 2643.39 199.77 2645.31 201.027 2647.46 223.984 2646.12 228.637"/>
<path transform="matrix(.1,0,0,-.1,0,110.96)" d="M2657.35 208.922 2660.35 203.645 2664.53 201.563 2664.27 206.215 2657.35 208.922"/>
<path transform="matrix(.1,0,0,-.1,0,110.96)" d="M2648.94 229.586C2648 229.27 2647.06 228.953 2646.12 228.637 2646.57 227.086 2647.02 225.535 2647.46 223.984 2647.95 225.852 2648.45 227.719 2648.94 229.586"/>
<path transform="matrix(.1,0,0,-.1,0,110.96)" d="M2657.35 208.922 2664.27 206.215 2662.14 209.457 2660.95 211.285 2657.35 208.922"/>
<path transform="matrix(.1,0,0,-.1,0,110.96)" d="M2660.95 211.285 2648.94 229.586 2647.46 223.984 2657.35 208.922 2660.95 211.285"/>
<path transform="matrix(.1,0,0,-.1,0,110.96)" d="M2833.82 397.012 2245.13 10.7773V687.789L2833.82 1074.02V397.012" fill="#ffffff"/>
<path transform="matrix(.1,0,0,-.1,0,110.96)" stroke-width="5" stroke-linecap="round" stroke-linejoin="round" fill="none" stroke="#000000" d="M2329.23 233.016V65.9531"/>
<path transform="matrix(.1,0,0,-.1,0,110.96)" stroke-width="30" stroke-linecap="round" stroke-linejoin="round" fill="none" stroke="#000000" d="M2329.23 233.016V233.016"/>
<path transform="matrix(.1,0,0,-.1,0,110.96)" stroke-width="5" stroke-linecap="round" stroke-linejoin="round" fill="none" stroke="#000000" d="M2413.32 315.578V121.129"/>
<path transform="matrix(.1,0,0,-.1,0,110.96)" stroke-width="30" stroke-linecap="round" stroke-linejoin="round" fill="none" stroke="#000000" d="M2413.32 315.578V315.578"/>
<path transform="matrix(.1,0,0,-.1,0,110.96)" stroke-width="5" stroke-linecap="round" stroke-linejoin="round" fill="none" stroke="#000000" d="M2497.42 398.141V176.305"/>
<path transform="matrix(.1,0,0,-.1,0,110.96)" stroke-width="30" stroke-linecap="round" stroke-linejoin="round" fill="none" stroke="#000000" d="M2497.42 398.141V398.141"/>
<path transform="matrix(.1,0,0,-.1,0,110.96)" stroke-width="5" stroke-linecap="round" stroke-linejoin="round" fill="none" stroke="#000000" d="M2581.52 480.707V231.48"/>
<path transform="matrix(.1,0,0,-.1,0,110.96)" stroke-width="30" stroke-linecap="round" stroke-linejoin="round" fill="none" stroke="#000000" d="M2581.52 480.707V480.707"/>
<path transform="matrix(.1,0,0,-.1,0,110.96)" stroke-width="5" stroke-linecap="round" stroke-linejoin="round" fill="none" stroke="#000000" d="M2665.62 563.27V286.656"/>
<path transform="matrix(.1,0,0,-.1,0,110.96)" stroke-width="30" stroke-linecap="round" stroke-linejoin="round" fill="none" stroke="#000000" d="M2665.62 563.27V563.27"/>
<path transform="matrix(.1,0,0,-.1,0,110.96)" stroke-width="5" stroke-linecap="round" stroke-linejoin="round" fill="none" stroke="#000000" d="M2749.72 643.094V341.832"/>
<path transform="matrix(.1,0,0,-.1,0,110.96)" stroke-width="30" stroke-linecap="round" stroke-linejoin="round" fill="none" stroke="#000000" d="M2749.72 643.094V643.094"/>
<path transform="matrix(.1,0,0,-.1,0,110.96)" stroke-width="5" stroke-linecap="round" stroke-linejoin="round" fill="none" stroke="#000000" d="M3394.47 388.734 2805.79 2.5V679.512L3394.47 1065.75V388.734Z"/>
<path transform="matrix(.1,0,0,-.1,0,110.96)" d="M3117.46 139.352C3118.32 139.914 3118.33 139.98 3118.43 140.285 3118.52 140.59 3118.3 141.211 3118.13 141.457 3117.67 142.164 3117.05 141.758 3116.36 141.305 3116.73 140.652 3117.09 140 3117.46 139.352"/>
<path transform="matrix(.1,0,0,-.1,0,110.96)" d="M3103.43 132.816C3102.6 132.277 3101.98 131.871 3102.75 130.711 3103.21 130.004 3103.79 130.383 3104.52 130.863 3104.16 131.516 3103.79 132.168 3103.43 132.816"/>
<path transform="matrix(.1,0,0,-.1,0,110.96)" d="M3125.75 130.383C3125.36 130.973 3124.67 130.516 3124.5 130.406 3123.85 129.977 3123.88 129.754 3124.03 129.086 3124.6 129.516 3125.18 129.949 3125.75 130.383"/>
<path transform="matrix(.1,0,0,-.1,0,110.96)" d="M3112.64 136.188 3117.46 139.352 3116.36 141.305 3111.86 138.352 3112.64 136.188"/>
<path transform="matrix(.1,0,0,-.1,0,110.96)" d="M3108.3 136.016 3103.43 132.816 3104.52 130.863 3109.07 133.852 3108.3 136.016"/>
<path transform="matrix(.1,0,0,-.1,0,110.96)" d="M3121.99 118.703C3126.94 121.953 3126.29 129.559 3125.75 130.383 3125.18 129.949 3124.6 129.516 3124.03 129.086 3124.64 125.207 3123.35 121.617 3121.23 120.227 3121.48 119.719 3121.74 119.211 3121.99 118.703"/>
<path transform="matrix(.1,0,0,-.1,0,110.96)" d="M3110.46 142.363C3109.99 143.609 3109.25 145.797 3109.08 146.059 3108.62 146.766 3107.59 147.156 3106.61 146.516 3105.92 146.059 3105.24 144.961 3105.64 143.617 3107.25 143.199 3108.86 142.781 3110.46 142.363"/>
<path transform="matrix(.1,0,0,-.1,0,110.96)" d="M3114.3 119.434C3115.86 117.055 3119.13 116.824 3121.99 118.703 3121.74 119.211 3121.48 119.719 3121.23 120.227 3119.92 119.363 3118.88 120.047 3118.06 121.301 3116.81 120.68 3115.55 120.059 3114.3 119.434"/>
<path transform="matrix(.1,0,0,-.1,0,110.96)" d="M3105.87 142.891C3106.1 142.227 3106.7 140.535 3108.3 136.016 3109.48 136.793 3110.67 137.57 3111.86 138.352 3111.39 139.688 3110.93 141.027 3110.46 142.363 3108.93 142.539 3107.4 142.715 3105.87 142.891"/>
<path transform="matrix(.1,0,0,-.1,0,110.96)" d="M3110.46 142.363C3109.3 142.668 3108.14 142.969 3106.98 143.27 3106.61 143.145 3106.24 143.02 3105.87 142.891 3107.4 142.715 3108.93 142.539 3110.46 142.363"/>
<path transform="matrix(.1,0,0,-.1,0,110.96)" d="M3105.72 143.348C3105.73 143.301 3105.75 143.223 3105.87 142.891 3106.24 143.02 3106.61 143.145 3106.98 143.27 3106.73 143.336 3106.48 143.402 3106.23 143.465 3106.05 143.426 3105.89 143.387 3105.72 143.348"/>
<path transform="matrix(.1,0,0,-.1,0,110.96)" d="M3106.23 143.465C3106.03 143.516 3105.84 143.566 3105.64 143.617 3105.71 143.406 3105.71 143.391 3105.72 143.348 3105.89 143.387 3106.05 143.426 3106.23 143.465"/>
<path transform="matrix(.1,0,0,-.1,0,110.96)" d="M3113.07 122.492C3113.46 121.445 3113.98 119.93 3114.3 119.434 3115.55 120.059 3116.81 120.68 3118.06 121.301 3117.63 121.969 3117.59 122.113 3117.43 122.551 3115.97 122.531 3114.52 122.512 3113.07 122.492"/>
<path transform="matrix(.1,0,0,-.1,0,110.96)" d="M3112.64 136.188 3111.86 138.352 3108.3 136.016 3109.07 133.852 3112.64 136.188"/>
<path transform="matrix(.1,0,0,-.1,0,110.96)" d="M3109.07 133.852 3113.07 122.492 3117.43 122.551 3112.64 136.188 3109.07 133.852"/>
<path transform="matrix(.1,0,0,-.1,0,110.96)" d="M3176.97 175.727C3177.54 176.098 3178.57 176.773 3177.8 177.934 3177.04 179.098 3175.86 178.32 3175.24 177.918 3175.82 177.188 3176.39 176.457 3176.97 175.727"/>
<path transform="matrix(.1,0,0,-.1,0,110.96)" d="M3144.74 157.906C3144.13 157.504 3142.95 156.727 3143.71 155.563 3144.47 154.402 3145.54 155.102 3146.06 155.449 3145.63 156.27 3145.18 157.086 3144.74 157.906"/>
<path transform="matrix(.1,0,0,-.1,0,110.96)" d="M3146.06 155.449 3176.97 175.727 3175.24 177.918 3144.74 157.906 3146.06 155.449"/>
<path transform="matrix(.1,0,0,-.1,0,110.96)" d="M3183.26 165.688C3183.88 166.094 3185.06 166.871 3184.3 168.031 3183.54 169.195 3182.51 168.52 3181.95 168.148 3182.38 167.328 3182.82 166.508 3183.26 165.688"/>
<path transform="matrix(.1,0,0,-.1,0,110.96)" d="M3151.04 147.871C3150.46 147.492 3149.44 146.824 3150.2 145.66 3150.97 144.5 3152.15 145.273 3152.77 145.68 3152.19 146.41 3151.61 147.141 3151.04 147.871"/>
<path transform="matrix(.1,0,0,-.1,0,110.96)" d="M3152.77 145.68 3183.26 165.688 3181.95 168.148 3151.04 147.871 3152.77 145.68"/>
<path transform="matrix(.1,0,0,-.1,0,110.96)" d="M3213.48 217.992C3213.07 218.621 3212.57 218.402 3212.45 218.328 3212.36 218.27 3212.29 218.219 3211.97 217.715 3212.48 217.809 3212.98 217.902 3213.48 217.992"/>
<path transform="matrix(.1,0,0,-.1,0,110.96)" d="M3198.39 208.875C3197.84 208.738 3197.76 208.688 3197.68 208.637 3197.1 208.258 3197.43 207.758 3197.86 207.094 3198.04 207.688 3198.21 208.281 3198.39 208.875"/>
<path transform="matrix(.1,0,0,-.1,0,110.96)" d="M3206.05 194.617C3206.51 193.91 3206.86 193.375 3207.64 193.883 3208.09 194.176 3208.09 194.289 3208.14 194.984 3207.45 194.859 3206.75 194.738 3206.05 194.617"/>
<path transform="matrix(.1,0,0,-.1,0,110.96)" d="M3212.18 184.828C3213.82 186.09 3213.56 187.715 3212.93 188.668 3212.06 190 3210.43 190.352 3209.12 189.492 3208.22 188.902 3207.18 187.453 3208.44 185.535 3209.69 185.297 3210.93 185.063 3212.18 184.828"/>
<path transform="matrix(.1,0,0,-.1,0,110.96)" d="M3221.47 185.746C3218.81 184 3215.05 183.219 3212.18 184.828 3210.93 185.063 3209.69 185.297 3208.44 185.535 3211.12 181.457 3217.3 180.582 3222.66 184.098 3222.27 184.648 3221.87 185.199 3221.47 185.746"/>
<path transform="matrix(.1,0,0,-.1,0,110.96)" d="M3211.83 212.328C3212.48 213.469 3214.08 217.078 3213.48 217.992 3212.98 217.902 3212.48 217.809 3211.97 217.715 3210.77 216.156 3208.62 213.906 3205.92 212.137 3207.89 212.199 3209.86 212.266 3211.83 212.328"/>
<path transform="matrix(.1,0,0,-.1,0,110.96)" d="M3206.85 207.047C3209.64 208.879 3211.14 211.055 3211.83 212.328 3209.86 212.266 3207.89 212.199 3205.92 212.137 3206.23 210.441 3206.54 208.742 3206.85 207.047"/>
<path transform="matrix(.1,0,0,-.1,0,110.96)" d="M3202.04 204.656C3204.56 205.547 3206.4 206.75 3206.85 207.047 3206.54 208.742 3206.23 210.441 3205.92 212.137 3203.58 210.602 3201.06 209.543 3198.39 208.875 3199.61 207.469 3200.82 206.063 3202.04 204.656"/>
<path transform="matrix(.1,0,0,-.1,0,110.96)" d="M3202.04 204.656C3200.82 206.063 3199.61 207.469 3198.39 208.875 3198.21 208.281 3198.04 207.688 3197.86 207.094 3199.26 206.281 3200.65 205.469 3202.04 204.656"/>
<path transform="matrix(.1,0,0,-.1,0,110.96)" d="M3206.95 197.168 3202.04 204.656 3197.86 207.094 3206.05 194.617 3206.95 197.168"/>
<path transform="matrix(.1,0,0,-.1,0,110.96)" d="M3206.95 197.168C3206.65 196.32 3206.35 195.469 3206.05 194.617 3206.75 194.738 3207.45 194.859 3208.14 194.984 3207.75 195.711 3207.35 196.441 3206.95 197.168"/>
<path transform="matrix(.1,0,0,-.1,0,110.96)" d="M3212.04 203.426C3209.46 201.73 3207.81 199.699 3206.95 197.168 3207.35 196.441 3207.75 195.711 3208.14 194.984 3208.5 197.832 3210.07 200.172 3212.85 201.996 3212.58 202.473 3212.31 202.949 3212.04 203.426"/>
<path transform="matrix(.1,0,0,-.1,0,110.96)" d="M3225.21 191.117C3224.63 188.004 3222.37 186.336 3221.47 185.746 3221.87 185.199 3222.27 184.648 3222.66 184.098 3228.77 188.105 3231.03 195.535 3227.64 200.695 3226.84 197.5 3226.02 194.309 3225.21 191.117"/>
<path transform="matrix(.1,0,0,-.1,0,110.96)" d="M3227.64 200.695C3224.56 205.398 3217.72 207.152 3212.04 203.426 3212.31 202.949 3212.58 202.473 3212.85 201.996 3215.23 203.555 3217.47 203.004 3218.62 202.508 3221.63 201.902 3224.64 201.301 3227.64 200.695"/>
<path transform="matrix(.1,0,0,-.1,0,110.96)" d="M3218.62 202.508C3220.48 201.715 3221.93 199.969 3223.23 197.98 3224.38 196.23 3225.73 193.797 3225.21 191.117 3226.02 194.309 3226.84 197.5 3227.64 200.695 3224.64 201.301 3221.63 201.902 3218.62 202.508"/>
<path transform="matrix(.1,0,0,-.1,0,110.96)" d="M3394.47 388.734 2805.79 2.5V679.512L3394.47 1065.75V388.734" fill="#ffffff"/>
<path transform="matrix(.1,0,0,-.1,0,110.96)" stroke-width="5" stroke-linecap="round" stroke-linejoin="round" fill="none" stroke="#000000" d="M2889.88 139.84V57.6758"/>
<path transform="matrix(.1,0,0,-.1,0,110.96)" stroke-width="30" stroke-linecap="round" stroke-linejoin="round" fill="none" stroke="#000000" d="M2889.88 139.84V139.84"/>
<path transform="matrix(.1,0,0,-.1,0,110.96)" stroke-width="5" stroke-linecap="round" stroke-linejoin="round" fill="none" stroke="#000000" d="M2973.98 208.707V112.852"/>
<path transform="matrix(.1,0,0,-.1,0,110.96)" stroke-width="30" stroke-linecap="round" stroke-linejoin="round" fill="none" stroke="#000000" d="M2973.98 208.707V208.707"/>
<path transform="matrix(.1,0,0,-.1,0,110.96)" stroke-width="5" stroke-linecap="round" stroke-linejoin="round" fill="none" stroke="#000000" d="M3058.08 277.578V168.027"/>
<path transform="matrix(.1,0,0,-.1,0,110.96)" stroke-width="30" stroke-linecap="round" stroke-linejoin="round" fill="none" stroke="#000000" d="M3058.08 277.578V277.578"/>
<path transform="matrix(.1,0,0,-.1,0,110.96)" stroke-width="5" stroke-linecap="round" stroke-linejoin="round" fill="none" stroke="#000000" d="M3142.18 346.449V223.203"/>
<path transform="matrix(.1,0,0,-.1,0,110.96)" stroke-width="30" stroke-linecap="round" stroke-linejoin="round" fill="none" stroke="#000000" d="M3142.18 346.449V346.449"/>
<path transform="matrix(.1,0,0,-.1,0,110.96)" stroke-width="5" stroke-linecap="round" stroke-linejoin="round" fill="none" stroke="#000000" d="M3226.28 415.316V278.383"/>
<path transform="matrix(.1,0,0,-.1,0,110.96)" stroke-width="30" stroke-linecap="round" stroke-linejoin="round" fill="none" stroke="#000000" d="M3226.28 415.316V415.316"/>
<path transform="matrix(.1,0,0,-.1,0,110.96)" stroke-width="5" stroke-linecap="round" stroke-linejoin="round" fill="none" stroke="#000000" d="M3310.38 484.188V333.559"/>
<path transform="matrix(.1,0,0,-.1,0,110.96)" stroke-width="30" stroke-linecap="round" stroke-linejoin="round" fill="none" stroke="#000000" d="M3310.38 484.188V484.188"/>
</svg>
