<svg xmlns="http://www.w3.org/2000/svg" xmlns:xlink="http://www.w3.org/1999/xlink" version="1.1" width="382.4355pt" height="140.8857pt" viewBox="0 0 382.4355 140.8857">
<defs>
<path id="font_0_1" d="M.45999146 .31976319C.45999146 .39982606 .45498658 .47988893 .41999818 .5539398 .37399293 .65000918 .2919922 .6660156 .25 .6660156 .18998719 .6660156 .116989139 .64001467 .07598877 .54693606 .04399109 .47789 .038986207 .39982606 .038986207 .31976319 .038986207 .24472046 .042999269 .15464783 .083999637 .07859802 .1269989-.0024719239 .19999695-.022460938 .24899292-.022460938 .30299378-.022460938 .3789978-.0014648438 .4229889 .09359741 .45498658 .16265869 .45999146 .2407074 .45999146 .31976319M.3769989 .3317871C.3769989 .25672914 .3769989 .18867493 .3659973 .12461853 .35099793 .029556275 .2939911-.00047302247 .24899292-.00047302247 .20999146-.00047302247 .15098572 .024551392 .1329956 .12062073 .12199402 .18066406 .12199402 .2727356 .12199402 .3317871 .12199402 .39582826 .12199402 .46188355 .12998963 .5159149 .14898682 .63500979 .22399903 .64401248 .24899292 .64401248 .28199769 .64401248 .34799195 .6259918 .36698915 .52693179 .3769989 .47088624 .3769989 .39482118 .3769989 .3317871Z"/>
<path id="font_0_2" d="M.4189911 0V.0309906H.3869934C.29699708 .0309906 .2939911 .041992189 .2939911 .07902527V.64027407C.2939911 .6642761 .2939911 .666275 .2709961 .666275 .20899964 .60227969 .12098694 .60227969 .08898926 .60227969V.57128909C.10899353 .57128909 .16799927 .57128909 .21998596 .5972748V.07902527C.21998596 .042999269 .21699524 .0309906 .1269989 .0309906H.09498596V0C.12998963 .0029907227 .21699524 .0029907227 .25698854 .0029907227 .29699708 .0029907227 .38398744 .0029907227 .4189911 0Z"/>
<path id="font_0_3" d="M.44898988 .17404175H.42399598C.4189911 .14402771 .4119873 .1000061 .4019928 .084991458 .394989 .07699585 .32899476 .07699585 .30699159 .07699585H.1269989L.23298645 .18003845C.3889923 .31811524 .44898988 .3721466 .44898988 .47216798 .44898988 .5860901 .35899354 .6660156 .23699951 .6660156 .12399292 .6660156 .049987794 .57411196 .049987794 .48516847 .049987794 .4291687 .099990848 .4291687 .102996829 .4291687 .11999512 .4291687 .15499878 .44117738 .15499878 .48217774 .15499878 .5081787 .13699341 .5341797 .101989749 .5341797 .09399414 .5341797 .09199524 .5341797 .08898926 .5331726 .11199951 .59806826 .1659851 .63500979 .22399903 .63500979 .31498719 .63500979 .35798646 .5541382 .35798646 .47216798 .35798646 .39215089 .30799867 .31311036 .25299073 .25108338L.06098938 .036987306C.049987794 .025985718 .049987794 .023986817 .049987794 0H.42099L.44898988 .17404175Z"/>
<path id="font_0_4" d="M.45700074 .17037964C.45700074 .252594 .3939972 .33088685 .2899933 .35191346 .37199403 .37893678 .42999269 .4490509 .42999269 .52809146 .42999269 .6100464 .34199525 .6660156 .24598694 .6660156 .14498902 .6660156 .068984989 .60606387 .068984989 .53009036 .068984989 .49710084 .09098816 .47808839 .11999512 .47808839 .15098572 .47808839 .17098999 .50009158 .17098999 .5290985 .17098999 .57910159 .12399292 .57910159 .10899353 .57910159 .13999939 .62802127 .20599365 .64100649 .24198914 .64100649 .2829895 .64100649 .33799745 .6190338 .33799745 .5290985 .33799745 .51708987 .33599855 .45906068 .30999757 .4149933 .27999879 .36691285 .24598694 .36390687 .22099304 .36289979 .21299744 .36190797 .18899536 .35990907 .18199158 .35990907 .17399597 .35890199 .16699219 .35791017 .16699219 .3479004 .16699219 .33691407 .17399597 .33691407 .19099427 .33691407H.23498535C.31698609 .33691407 .35398866 .2686615 .35398866 .17037964 .35398866 .034469606 .2849884 .0055389406 .24099732 .0055389406 .19799805 .0055389406 .12298584 .022491456 .08799744 .08137512 .12298584 .0763855 .1539917 .09837341 .1539917 .1363678 .1539917 .17237854 .1269989 .19238281 .09799194 .19238281 .07398987 .19238281 .041992189 .17837525 .041992189 .1343689 .041992189 .04345703 .1349945-.022460938 .24398804-.022460938 .3659973-.022460938 .45700074 .06840515 .45700074 .17037964Z"/>
<path id="font_0_5" d="M.47099305 .16503906V.19602967H.37098695V.6510315C.37098695 .67103579 .37098695 .6770325 .35499574 .6770325 .34599305 .6770325 .34298707 .6770325 .33499146 .66503909L.027999878 .19602967V.16503906H.2939911V.07800293C.2939911 .041992189 .2919922 .0309906 .21798706 .0309906H.19699097V0C.23799134 .0029907227 .2899933 .0029907227 .33198548 .0029907227 .37399293 .0029907227 .4269867 .0029907227 .46798707 0V.0309906H.44699098C.37298585 .0309906 .37098695 .041992189 .37098695 .07800293V.16503906H.47099305M.2999878 .19602967H.055999757L.2999878 .56903079V.19602967Z"/>
<path id="font_0_6" d="M.44898988 .20022583C.44898988 .3193512 .36698915 .41944886 .25898744 .41944886 .21099854 .41944886 .16799927 .40345765 .13198853 .36842347V.5637665C.1519928 .5577698 .18499756 .55078127 .21699524 .55078127 .33999635 .55078127 .4099884 .6417694 .4099884 .6547699 .4099884 .6607666 .40699769 .6657715 .3999939 .6657715 .3999939 .6657715 .39698792 .6657715 .3919983 .66278079 .37199403 .6537781 .32299806 .6337738 .2559967 .6337738 .21598816 .6337738 .16999817 .6407776 .12298584 .6617737 .114990238 .66477969 .11099243 .66477969 .11099243 .66477969 .100997928 .66477969 .100997928 .6567688 .100997928 .6407776V.34439088C.100997928 .32637025 .100997928 .31835938 .114990238 .31835938 .12199402 .31835938 .12399292 .32136537 .12799073 .32736207 .13899231 .3433838 .17599488 .39746095 .25698854 .39746095 .30899049 .39746095 .33399964 .35139466 .34199525 .33337403 .35798646 .29632569 .3600006 .25727845 .3600006 .20722962 .3600006 .17222595 .3600006 .11222839 .33599855 .07035828 .31199647 .031463624 .2749939 .0055389406 .22898865 .0055389406 .1559906 .0055389406 .09899902 .058380128 .08198547 .11723328 .084991458 .1162262 .08799744 .115234378 .09899902 .115234378 .13198853 .115234378 .14898682 .14022827 .14898682 .16423035 .14898682 .18823242 .13198853 .21322632 .09899902 .21322632 .084991458 .21322632 .049987794 .20622254 .049987794 .16023255 .049987794 .07434082 .11898804-.022460938 .23098755-.022460938 .34700013-.022460938 .44898988 .073349 .44898988 .20022583Z"/>
<path id="font_0_7" d="M.48999024 .28233338C.48999024 .37635804 .43299867 .4423828 .35699464 .4423828 .30699159 .4423828 .25898744 .40637208 .22599793 .36735536 .21598816 .42137147 .17298889 .4423828 .13598633 .4423828 .08999634 .4423828 .070999149 .4033661 .06199646 .38536073 .04399109 .35134889 .0309906 .29133607 .0309906 .28833009 .0309906 .27833558 .042999269 .27833558 .042999269 .27833558 .052993776 .27833558 .053985597 .2793274 .05999756 .30133058 .07699585 .37236024 .09700012 .42037965 .1329956 .42037965 .1499939 .42037965 .1639862 .41236878 .1639862 .37435914 .1639862 .35134889 .16099549 .3403473 .15699768 .323349L.04499817-.12199402C.036987306-.15608216 .034988405-.16308594-.009002686-.16308594-.021011353-.16308594-.03201294-.16308594-.03201294-.18209839-.03201294-.190094-.027008057-.1940918-.019012452-.1940918 .0079956059-.1940918 .036987306-.19110108 .06498718-.19110108 .09799194-.19110108 .13198853-.1940918 .1639862-.1940918 .16899109-.1940918 .18199158-.1940918 .18199158-.17408753 .18199158-.16308594 .17199707-.16308594 .1579895-.16308594 .10798645-.16308594 .10798645-.15608216 .10798645-.14706421 .10798645-.13502503 .1499939 .028259278 .15699768 .053268434 .16999817 .024261475 .19799805-.0107421879 .24899292-.0107421879 .36499024-.0107421879 .48999024 .13528443 .48999024 .28233338M.41799928 .32633973C.41799928 .26733399 .3849945 .15229798 .36698915 .11428833 .33299256 .044265748 .2849884 .011245728 .24798584 .011245728 .18199158 .011245728 .16899109 .0942688 .16899109 .10028076 .16899109 .10028076 .16899109 .104278568 .17199707 .11628723L.22099304 .3123474C.22799683 .33935548 .25498963 .36735536 .272995 .38235475 .30799867 .41337586 .33699037 .42037965 .35398866 .42037965 .3939972 .42037965 .41799928 .38536073 .41799928 .32633973Z"/>
<path id="font_0_8" d="M.7220001 .25045777C.7220001 .26145936 .71299746 .27046205 .70199587 .27046205H.07598877C.06498718 .27046205 .055999757 .26145936 .055999757 .25045777 .055999757 .23945618 .06498718 .23046875 .07598877 .23046875H.70199587C.71299746 .23046875 .7220001 .23945618 .7220001 .25045777Z"/>
</defs>
<path transform="matrix(1,0,0,-1,25.73718,65.968257)" d="M17.92313 0C17.92313 9.89879 9.89879 17.92313 0 17.92313-9.89879 17.92313-17.92313 9.89879-17.92313 0-17.92313-9.89879-9.89879-17.92313 0-17.92313 9.89879-17.92313 17.92313-9.89879 17.92313 0ZM0 0" fill="#bfbfff"/>
<path transform="matrix(1,0,0,-1,25.73718,65.968257)" stroke-width="2.00002" stroke-linecap="butt" stroke-miterlimit="10" stroke-linejoin="miter" fill="none" stroke="#2626ff" d="M17.92313 0C17.92313 9.89879 9.89879 17.92313 0 17.92313-9.89879 17.92313-17.92313 9.89879-17.92313 0-17.92313-9.89879-9.89879-17.92313 0-17.92313 9.89879-17.92313 17.92313-9.89879 17.92313 0ZM0 0"/>
<use data-text="0" xlink:href="#font_0_1" transform="matrix(11.95517,0,0,-11.95517,22.75003,69.815708)"/>
<path transform="matrix(1,0,0,-1,25.73718,65.968257)" d="M84.1162 0C84.1162 9.89879 76.09187 17.92313 66.19307 17.92313 56.29427 17.92313 48.26994 9.89879 48.26994 0 48.26994-9.89879 56.29427-17.92313 66.19307-17.92313 76.09187-17.92313 84.1162-9.89879 84.1162 0ZM66.19307 0" fill="#bfbfff"/>
<path transform="matrix(1,0,0,-1,25.73718,65.968257)" stroke-width="2.00002" stroke-linecap="butt" stroke-miterlimit="10" stroke-linejoin="miter" fill="none" stroke="#2626ff" d="M84.1162 0C84.1162 9.89879 76.09187 17.92313 66.19307 17.92313 56.29427 17.92313 48.26994 9.89879 48.26994 0 48.26994-9.89879 56.29427-17.92313 66.19307-17.92313 76.09187-17.92313 84.1162-9.89879 84.1162 0ZM66.19307 0"/>
<use data-text="1" xlink:href="#font_0_2" transform="matrix(11.95517,0,0,-11.95517,88.94225,69.94713)"/>
<path transform="matrix(1,0,0,-1,25.73718,65.968257)" d="M150.30928 0C150.30928 9.89879 142.28495 17.92313 132.38616 17.92313 122.48735 17.92313 114.46301 9.89879 114.46301 0 114.46301-9.89879 122.48735-17.92313 132.38616-17.92313 142.28495-17.92313 150.30928-9.89879 150.30928 0ZM132.38616 0" fill="#bfbfff"/>
<path transform="matrix(1,0,0,-1,25.73718,65.968257)" stroke-width="2.00002" stroke-linecap="butt" stroke-miterlimit="10" stroke-linejoin="miter" fill="none" stroke="#2626ff" d="M150.30928 0C150.30928 9.89879 142.28495 17.92313 132.38616 17.92313 122.48735 17.92313 114.46301 9.89879 114.46301 0 114.46301-9.89879 122.48735-17.92313 132.38616-17.92313 142.28495-17.92313 150.30928-9.89879 150.30928 0ZM132.38616 0"/>
<use data-text="2" xlink:href="#font_0_3" transform="matrix(11.95517,0,0,-11.95517,155.13448,69.94713)"/>
<path transform="matrix(1,0,0,-1,25.73718,65.968257)" d="M216.50237 0C216.50237 9.89879 208.47803 17.92313 198.57923 17.92313 188.68042 17.92313 180.6561 9.89879 180.6561 0 180.6561-9.89879 188.68042-17.92313 198.57923-17.92313 208.47803-17.92313 216.50237-9.89879 216.50237 0ZM198.57923 0" fill="#bfbfff"/>
<path transform="matrix(1,0,0,-1,25.73718,65.968257)" stroke-width="2.00002" stroke-linecap="butt" stroke-miterlimit="10" stroke-linejoin="miter" fill="none" stroke="#2626ff" d="M216.50237 0C216.50237 9.89879 208.47803 17.92313 198.57923 17.92313 188.68042 17.92313 180.6561 9.89879 180.6561 0 180.6561-9.89879 188.68042-17.92313 198.57923-17.92313 208.47803-17.92313 216.50237-9.89879 216.50237 0ZM198.57923 0"/>
<use data-text="3" xlink:href="#font_0_4" transform="matrix(11.95517,0,0,-11.95517,221.3267,69.815708)"/>
<path transform="matrix(1,0,0,-1,25.73718,65.968257)" d="M282.69544 0C282.69544 9.89879 274.6711 17.92313 264.7723 17.92313 254.8735 17.92313 246.84917 9.89879 246.84917 0 246.84917-9.89879 254.8735-17.92313 264.7723-17.92313 274.6711-17.92313 282.69544-9.89879 282.69544 0ZM264.7723 0" fill="#bfbfff"/>
<path transform="matrix(1,0,0,-1,25.73718,65.968257)" stroke-width="2.00002" stroke-linecap="butt" stroke-miterlimit="10" stroke-linejoin="miter" fill="none" stroke="#2626ff" d="M282.69544 0C282.69544 9.89879 274.6711 17.92313 264.7723 17.92313 254.8735 17.92313 246.84917 9.89879 246.84917 0 246.84917-9.89879 254.8735-17.92313 264.7723-17.92313 274.6711-17.92313 282.69544-9.89879 282.69544 0ZM264.7723 0"/>
<use data-text="4" xlink:href="#font_0_5" transform="matrix(11.95517,0,0,-11.95517,287.51893,70.012859)"/>
<path transform="matrix(1,0,0,-1,25.73718,65.968257)" d="M348.88853 0C348.88853 9.89879 340.86418 17.92313 330.9654 17.92313 321.06657 17.92313 313.04225 9.89879 313.04225 0 313.04225-9.89879 321.06657-17.92313 330.9654-17.92313 340.86418-17.92313 348.88853-9.89879 348.88853 0ZM330.9654 0" fill="#bfbfff"/>
<path transform="matrix(1,0,0,-1,25.73718,65.968257)" stroke-width="2.00002" stroke-linecap="butt" stroke-miterlimit="10" stroke-linejoin="miter" fill="none" stroke="#2626ff" d="M348.88853 0C348.88853 9.89879 340.86418 17.92313 330.9654 17.92313 321.06657 17.92313 313.04225 9.89879 313.04225 0 313.04225-9.89879 321.06657-17.92313 330.9654-17.92313 340.86418-17.92313 348.88853-9.89879 348.88853 0ZM330.9654 0"/>
<use data-text="5" xlink:href="#font_0_6" transform="matrix(11.95517,0,0,-11.95517,353.71116,69.815708)"/>
<path transform="matrix(1,0,0,-1,25.73718,65.968257)" stroke-width="1" stroke-linecap="butt" stroke-miterlimit="10" stroke-linejoin="miter" fill="none" stroke="#000000" d=""/>
<path transform="matrix(1,0,0,-1,25.73718,65.968257)" stroke-width="1" stroke-linecap="butt" stroke-miterlimit="10" stroke-linejoin="miter" fill="none" stroke="#000000" d="M16.38765 9.46126C27.67368 15.97723 38.5194 15.97723 48.22018 10.37651"/>
<path transform="matrix(.86601,.5,.5,-.86601,73.95736,55.591745)" stroke-width=".8" stroke-linecap="round" stroke-linejoin="round" fill="none" stroke="#000000" d="M-1.73685 2.3158C-1.59212 1.44737 0 .14473 .4342 0 0-.14473-1.59212-1.44737-1.73685-2.3158"/>
<use data-text="&#x1d45d;" xlink:href="#font_0_7" transform="matrix(11.95517,0,0,-11.95517,55.92976,44.819749)"/>
<path transform="matrix(1,0,0,-1,25.73718,65.968257)" stroke-width="1" stroke-linecap="butt" stroke-miterlimit="10" stroke-linejoin="miter" fill="none" stroke="#000000" d="M82.58073 9.46126C93.86674 15.97723 104.71246 15.97723 114.41325 10.37651"/>
<path transform="matrix(.86601,.5,.5,-.86601,140.15044,55.591745)" stroke-width=".8" stroke-linecap="round" stroke-linejoin="round" fill="none" stroke="#000000" d="M-1.73685 2.3158C-1.59212 1.44737 0 .14473 .4342 0 0-.14473-1.59212-1.44737-1.73685-2.3158"/>
<use data-text="&#x1d45d;" xlink:href="#font_0_7" transform="matrix(11.95517,0,0,-11.95517,122.12199,44.819749)"/>
<path transform="matrix(1,0,0,-1,25.73718,65.968257)" stroke-width="1" stroke-linecap="butt" stroke-miterlimit="10" stroke-linejoin="miter" fill="none" stroke="#000000" d="M148.7738 9.46126C160.05983 15.97723 170.90555 15.97723 180.60634 10.37651"/>
<path transform="matrix(.86601,.5,.5,-.86601,206.34352,55.591745)" stroke-width=".8" stroke-linecap="round" stroke-linejoin="round" fill="none" stroke="#000000" d="M-1.73685 2.3158C-1.59212 1.44737 0 .14473 .4342 0 0-.14473-1.59212-1.44737-1.73685-2.3158"/>
<use data-text="&#x1d45d;" xlink:href="#font_0_7" transform="matrix(11.95517,0,0,-11.95517,188.31421,44.819749)"/>
<path transform="matrix(1,0,0,-1,25.73718,65.968257)" stroke-width="1" stroke-linecap="butt" stroke-miterlimit="10" stroke-linejoin="miter" fill="none" stroke="#000000" d="M214.96689 9.46126C226.2529 15.97723 237.09862 15.97723 246.79941 10.37651"/>
<path transform="matrix(.86601,.5,.5,-.86601,272.5366,55.591745)" stroke-width=".8" stroke-linecap="round" stroke-linejoin="round" fill="none" stroke="#000000" d="M-1.73685 2.3158C-1.59212 1.44737 0 .14473 .4342 0 0-.14473-1.59212-1.44737-1.73685-2.3158"/>
<use data-text="&#x1d45d;" xlink:href="#font_0_7" transform="matrix(11.95517,0,0,-11.95517,254.50646,44.819749)"/>
<path transform="matrix(1,0,0,-1,25.73718,65.968257)" stroke-width="1" stroke-linecap="butt" stroke-miterlimit="10" stroke-linejoin="miter" fill="none" stroke="#000000" d="M281.15998 9.46126C292.44599 15.97723 303.2917 15.97723 312.9925 10.37651"/>
<path transform="matrix(.86601,.5,.5,-.86601,338.72969,55.591745)" stroke-width=".8" stroke-linecap="round" stroke-linejoin="round" fill="none" stroke="#000000" d="M-1.73685 2.3158C-1.59212 1.44737 0 .14473 .4342 0 0-.14473-1.59212-1.44737-1.73685-2.3158"/>
<use data-text="&#x1d45d;" xlink:href="#font_0_7" transform="matrix(11.95517,0,0,-11.95517,320.69868,44.819749)"/>
<path transform="matrix(1,0,0,-1,25.73718,65.968257)" stroke-width="1" stroke-linecap="butt" stroke-miterlimit="10" stroke-linejoin="miter" fill="none" stroke="#000000" d="M-4.89708 18.27835C-12.8054 47.79231 12.8054 47.79231 5.37079 20.04648"/>
<path transform="matrix(-.25879,.96593,.96593,.25879,31.107972,45.921777)" stroke-width=".8" stroke-linecap="round" stroke-linejoin="round" fill="none" stroke="#000000" d="M-1.73685 2.3158C-1.59212 1.44737 0 .14473 .4342 0 0-.14473-1.59212-1.44737-1.73685-2.3158"/>
<use data-text="1" xlink:href="#font_0_2" transform="matrix(11.95517,0,0,-11.95517,12.159434,18.754502)"/>
<use data-text="&#x2212;" xlink:href="#font_0_8" transform="matrix(11.95517,0,0,-11.95517,20.791068,18.754502)"/>
<use data-text="&#x1d45d;" xlink:href="#font_0_7" transform="matrix(11.95517,0,0,-11.95517,33.128805,18.754502)"/>
<path transform="matrix(1,0,0,-1,25.73718,65.968257)" stroke-width="1" stroke-linecap="butt" stroke-miterlimit="10" stroke-linejoin="miter" fill="none" stroke="#000000" d="M61.29597 18.27835C53.38765 47.79231 78.99849 47.79231 71.56387 20.04648"/>
<path transform="matrix(-.25879,.96593,.96593,.25879,97.301059,45.921777)" stroke-width=".8" stroke-linecap="round" stroke-linejoin="round" fill="none" stroke="#000000" d="M-1.73685 2.3158C-1.59212 1.44737 0 .14473 .4342 0 0-.14473-1.59212-1.44737-1.73685-2.3158"/>
<use data-text="1" xlink:href="#font_0_2" transform="matrix(11.95517,0,0,-11.95517,78.35165,18.754502)"/>
<use data-text="&#x2212;" xlink:href="#font_0_8" transform="matrix(11.95517,0,0,-11.95517,86.98328,18.754502)"/>
<use data-text="&#x1d45d;" xlink:href="#font_0_7" transform="matrix(11.95517,0,0,-11.95517,99.321018,18.754502)"/>
<path transform="matrix(1,0,0,-1,25.73718,65.968257)" stroke-width="1" stroke-linecap="butt" stroke-miterlimit="10" stroke-linejoin="miter" fill="none" stroke="#000000" d="M127.48906 18.27835C119.58073 47.79231 145.19156 47.79231 137.75695 20.04648"/>
<path transform="matrix(-.25879,.96593,.96593,.25879,163.49413,45.921777)" stroke-width=".8" stroke-linecap="round" stroke-linejoin="round" fill="none" stroke="#000000" d="M-1.73685 2.3158C-1.59212 1.44737 0 .14473 .4342 0 0-.14473-1.59212-1.44737-1.73685-2.3158"/>
<use data-text="1" xlink:href="#font_0_2" transform="matrix(11.95517,0,0,-11.95517,144.54387,18.754502)"/>
<use data-text="&#x2212;" xlink:href="#font_0_8" transform="matrix(11.95517,0,0,-11.95517,153.1755,18.754502)"/>
<use data-text="&#x1d45d;" xlink:href="#font_0_7" transform="matrix(11.95517,0,0,-11.95517,165.51323,18.754502)"/>
<path transform="matrix(1,0,0,-1,25.73718,65.968257)" stroke-width="1" stroke-linecap="butt" stroke-miterlimit="10" stroke-linejoin="miter" fill="none" stroke="#000000" d="M193.68213 18.27835C185.7738 47.79231 211.38465 47.79231 203.95003 20.04648"/>
<path transform="matrix(-.25879,.96593,.96593,.25879,229.68721,45.921777)" stroke-width=".8" stroke-linecap="round" stroke-linejoin="round" fill="none" stroke="#000000" d="M-1.73685 2.3158C-1.59212 1.44737 0 .14473 .4342 0 0-.14473-1.59212-1.44737-1.73685-2.3158"/>
<use data-text="1" xlink:href="#font_0_2" transform="matrix(11.95517,0,0,-11.95517,210.7361,18.754502)"/>
<use data-text="&#x2212;" xlink:href="#font_0_8" transform="matrix(11.95517,0,0,-11.95517,219.36774,18.754502)"/>
<use data-text="&#x1d45d;" xlink:href="#font_0_7" transform="matrix(11.95517,0,0,-11.95517,231.70546,18.754502)"/>
<path transform="matrix(1,0,0,-1,25.73718,65.968257)" stroke-width="1" stroke-linecap="butt" stroke-miterlimit="10" stroke-linejoin="miter" fill="none" stroke="#000000" d="M259.8752 18.27835C251.96689 47.79231 277.5777 47.79231 270.1431 20.04648"/>
<path transform="matrix(-.25879,.96593,.96593,.25879,295.88029,45.921777)" stroke-width=".8" stroke-linecap="round" stroke-linejoin="round" fill="none" stroke="#000000" d="M-1.73685 2.3158C-1.59212 1.44737 0 .14473 .4342 0 0-.14473-1.59212-1.44737-1.73685-2.3158"/>
<use data-text="1" xlink:href="#font_0_2" transform="matrix(11.95517,0,0,-11.95517,276.9283,18.754502)"/>
<use data-text="&#x2212;" xlink:href="#font_0_8" transform="matrix(11.95517,0,0,-11.95517,285.55995,18.754502)"/>
<use data-text="&#x1d45d;" xlink:href="#font_0_7" transform="matrix(11.95517,0,0,-11.95517,297.89768,18.754502)"/>
<path transform="matrix(1,0,0,-1,25.73718,65.968257)" stroke-width="1" stroke-linecap="butt" stroke-miterlimit="10" stroke-linejoin="miter" fill="none" stroke="#000000" d="M326.0683 18.27835C318.15998 47.79231 343.7708 47.79231 336.33619 20.04648"/>
<path transform="matrix(-.25879,.96593,.96593,.25879,362.07337,45.921777)" stroke-width=".8" stroke-linecap="round" stroke-linejoin="round" fill="none" stroke="#000000" d="M-1.73685 2.3158C-1.59212 1.44737 0 .14473 .4342 0 0-.14473-1.59212-1.44737-1.73685-2.3158"/>
<use data-text="1" xlink:href="#font_0_2" transform="matrix(11.95517,0,0,-11.95517,353.71116,21.072518)"/>
</svg>
