<svg xmlns="http://www.w3.org/2000/svg" xmlns:xlink="http://www.w3.org/1999/xlink" version="1.1" width="384.83pt" height="105.44pt" viewBox="0 0 384.83 105.44">
<path transform="matrix(.1,0,0,-.1,0,105.44)" stroke-width="5" stroke-linecap="round" stroke-linejoin="round" fill="none" stroke="#000000" d="M3515.71 330.527 507.09 374.941"/>
<path transform="matrix(.1,0,0,-.1,0,105.44)" d="M3590.7 329.418 3516.01 350.621 3515.41 310.434 3590.7 329.418Z"/>
<path transform="matrix(.1,0,0,-.1,0,105.44)" stroke-width="5" stroke-linecap="round" stroke-linejoin="round" fill="none" stroke="#000000" d="M3590.7 329.418 3516.01 350.621 3515.41 310.434 3590.7 329.418Z"/>
<path transform="matrix(.1,0,0,-.1,0,105.44)" d="M3644.6 337.191H3661.44V340.66H3644.6V362.645H3641.96C3641.85 351.41 3637.55 339.941 3626.68 339.582V337.191H3636.83V303.973C3636.83 290.707 3645.68 287.973 3652 287.973 3659.54 287.973 3663.47 295.379 3663.47 303.973V310.785H3660.85V304.223C3660.85 295.613 3657.38 290.598 3652.72 290.598 3644.6 290.598 3644.6 301.707 3644.6 303.738V337.191ZM3690.91 362.77C3690.91 365.863 3688.4 368.613 3685.05 368.613 3681.95 368.613 3679.32 366.113 3679.32 362.879 3679.32 359.301 3682.18 357.02 3685.05 357.02 3688.76 357.02 3690.91 360.129 3690.91 362.77ZM3674.41 340.535V337.066C3682.07 337.066 3683.15 336.363 3683.15 330.504V298.004C3683.15 292.629 3681.82 292.629 3674.05 292.629V289.16C3677.4 289.395 3683.15 289.395 3686.6 289.395 3687.91 289.395 3694.85 289.395 3698.91 289.16V292.629C3691.15 292.629 3690.66 293.223 3690.66 297.879V341.848L3674.41 340.535ZM3788.19 318.191C3788.19 329.301 3788.19 332.645 3785.44 336.473 3781.97 341.129 3776.36 341.848 3772.3 341.848 3762.38 341.848 3757.36 334.676 3755.45 330.02 3753.78 339.223 3747.32 341.848 3739.8 341.848 3728.2 341.848 3723.67 331.941 3722.7 329.551H3722.59V341.848L3706.34 340.535V337.066C3714.47 337.066 3715.42 336.238 3715.42 330.379V298.004C3715.42 292.629 3714.11 292.629 3706.34 292.629V289.16C3709.45 289.395 3715.89 289.395 3719.25 289.395 3722.7 289.395 3729.16 289.395 3732.27 289.16V292.629C3724.63 292.629 3723.19 292.629 3723.19 298.004V320.223C3723.19 332.77 3731.44 339.457 3738.84 339.457 3746.25 339.457 3747.92 333.363 3747.92 326.082V298.004C3747.92 292.629 3746.61 292.629 3738.84 292.629V289.16C3741.94 289.395 3748.39 289.395 3751.75 289.395 3755.2 289.395 3761.66 289.395 3764.77 289.16V292.629C3757.13 292.629 3755.69 292.629 3755.69 298.004V320.223C3755.69 332.77 3763.94 339.457 3771.34 339.457 3778.75 339.457 3780.42 333.363 3780.42 326.082V298.004C3780.42 292.629 3779.11 292.629 3771.34 292.629V289.16C3774.44 289.395 3780.89 289.395 3784.25 289.395 3787.7 289.395 3794.16 289.395 3797.27 289.16V292.629C3791.3 292.629 3788.31 292.629 3788.19 296.207V318.191ZM3845.48 316.879C3848.11 316.879 3848.34 316.879 3848.34 319.145 3848.34 331.223 3841.89 342.457 3827.43 342.457 3813.81 342.457 3803.29 330.145 3803.29 315.332 3803.29 299.551 3815.48 287.973 3828.75 287.973 3842.96 287.973 3848.34 300.863 3848.34 303.379 3848.34 304.098 3847.75 304.566 3847.03 304.566 3846.07 304.566 3845.84 303.973 3845.59 303.379 3842.5 293.348 3834.48 290.598 3829.46 290.598 3824.45 290.598 3812.39 293.941 3812.39 314.613V316.879H3845.48ZM3812.5 319.145C3813.45 337.91 3823.96 340.066 3827.31 340.066 3840.11 340.066 3840.82 323.207 3840.93 319.145H3812.5"/>
<path transform="matrix(.1,0,0,-.1,0,105.44)" stroke-width="5" stroke-linecap="round" stroke-linejoin="round" fill="none" stroke="#000000" d="M507.09 976.953V374.941"/>
<path transform="matrix(.1,0,0,-.1,0,105.44)" d="M507.09 1051.95 486.996 976.953H527.188L507.09 1051.95Z"/>
<path transform="matrix(.1,0,0,-.1,0,105.44)" stroke-width="5" stroke-linecap="round" stroke-linejoin="round" fill="none" stroke="#000000" d="M507.09 1051.95 486.996 976.953H527.188L507.09 1051.95Z"/>
<path transform="matrix(.1,0,0,-.1,0,105.44)" stroke-width="5" stroke-linecap="round" stroke-linejoin="round" fill="none" stroke="#000000" d="M65.207 85.0234 507.09 374.941"/>
<path transform="matrix(.1,0,0,-.1,0,105.44)" d="M2.5 43.8828 76.2305 68.2227 54.1836 101.828 2.5 43.8828Z"/>
<path transform="matrix(.1,0,0,-.1,0,105.44)" stroke-width="5" stroke-linecap="round" stroke-linejoin="round" fill="none" stroke="#000000" d="M2.5 43.8828 76.2305 68.2227 54.1836 101.828 2.5 43.8828Z"/>
<path transform="matrix(.1,0,0,-.1,0,105.44)" stroke-width="5" stroke-linecap="round" stroke-linejoin="round" fill="none" stroke="#000000" d="M1067.75 366.664 563.156 35.6055V712.617L1067.75 1043.68V366.664Z"/>
<path transform="matrix(.1,0,0,-.1,0,105.44)" d="M827 167.285C827.859 167.852 827.875 167.914 827.969 168.223 828.063 168.527 827.84 169.145 827.676 169.395 827.215 170.098 826.598 169.695 825.902 169.238 826.27 168.59 826.633 167.938 827 167.285"/>
<path transform="matrix(.1,0,0,-.1,0,105.44)" d="M812.969 160.754C812.145 160.215 811.527 159.809 812.293 158.645 812.754 157.941 813.332 158.32 814.066 158.801 813.699 159.453 813.336 160.102 812.969 160.754"/>
<path transform="matrix(.1,0,0,-.1,0,105.44)" d="M835.293 158.32C834.906 158.906 834.211 158.453 834.047 158.34 833.391 157.91 833.426 157.691 833.57 157.02 834.145 157.453 834.719 157.887 835.293 158.32"/>
<path transform="matrix(.1,0,0,-.1,0,105.44)" d="M822.18 164.125 827 167.285 825.902 169.238 821.402 166.285 822.18 164.125"/>
<path transform="matrix(.1,0,0,-.1,0,105.44)" d="M817.84 163.949 812.969 160.754 814.066 158.801 818.617 161.785 817.84 163.949"/>
<path transform="matrix(.1,0,0,-.1,0,105.44)" d="M831.535 146.641C836.484 149.887 835.832 157.496 835.293 158.32 834.719 157.887 834.145 157.453 833.57 157.02 834.184 153.145 832.898 149.551 830.777 148.16 831.027 147.652 831.281 147.148 831.535 146.641"/>
<path transform="matrix(.1,0,0,-.1,0,105.44)" d="M820 170.301C819.535 171.547 818.797 173.734 818.625 173.996 818.164 174.699 817.133 175.09 816.156 174.449 815.461 173.996 814.785 172.895 815.188 171.555 816.793 171.137 818.398 170.719 820 170.301"/>
<path transform="matrix(.1,0,0,-.1,0,105.44)" d="M823.844 147.371C825.406 144.992 828.668 144.758 831.535 146.641 831.281 147.148 831.027 147.652 830.777 148.16 829.465 147.301 828.426 147.984 827.605 149.238 826.352 148.617 825.098 147.992 823.844 147.371"/>
<path transform="matrix(.1,0,0,-.1,0,105.44)" d="M815.414 170.828C815.645 170.164 816.246 168.473 817.84 163.949 819.027 164.73 820.215 165.508 821.402 166.285 820.938 167.625 820.469 168.961 820 170.301 818.473 170.477 816.941 170.652 815.414 170.828"/>
<path transform="matrix(.1,0,0,-.1,0,105.44)" d="M820 170.301C818.844 170.602 817.684 170.902 816.523 171.207 816.156 171.078 815.785 170.953 815.414 170.828 816.941 170.652 818.473 170.477 820 170.301"/>
<path transform="matrix(.1,0,0,-.1,0,105.44)" d="M815.262 171.281C815.273 171.238 815.297 171.16 815.414 170.828 815.785 170.953 816.156 171.078 816.523 171.207 816.273 171.27 816.02 171.336 815.77 171.402 815.602 171.363 815.43 171.324 815.262 171.281"/>
<path transform="matrix(.1,0,0,-.1,0,105.44)" d="M815.77 171.402C815.574 171.453 815.383 171.504 815.188 171.555 815.254 171.344 815.25 171.328 815.262 171.281 815.43 171.324 815.602 171.363 815.77 171.402"/>
<path transform="matrix(.1,0,0,-.1,0,105.44)" d="M822.613 150.43C823.004 149.379 823.52 147.867 823.844 147.371 825.098 147.992 826.352 148.617 827.605 149.238 827.168 149.902 827.129 150.047 826.969 150.484 825.516 150.465 824.063 150.449 822.613 150.43"/>
<path transform="matrix(.1,0,0,-.1,0,105.44)" d="M822.18 164.125 821.402 166.285 817.84 163.949 818.617 161.785 822.18 164.125"/>
<path transform="matrix(.1,0,0,-.1,0,105.44)" d="M818.617 161.785 822.613 150.43 826.969 150.484 822.18 164.125 818.617 161.785"/>
<path transform="matrix(.1,0,0,-.1,0,105.44)" d="M886.516 203.66C887.082 204.031 888.109 204.707 887.348 205.871 886.586 207.031 885.402 206.258 884.785 205.852 885.363 205.121 885.938 204.391 886.516 203.66"/>
<path transform="matrix(.1,0,0,-.1,0,105.44)" d="M854.289 185.844C853.672 185.438 852.488 184.664 853.25 183.5 854.012 182.336 855.082 183.039 855.609 183.383 855.168 184.203 854.727 185.023 854.289 185.844"/>
<path transform="matrix(.1,0,0,-.1,0,105.44)" d="M855.609 183.383 886.516 203.66 884.785 205.852 854.289 185.844 855.609 183.383"/>
<path transform="matrix(.1,0,0,-.1,0,105.44)" d="M892.809 193.625C893.426 194.027 894.605 194.805 893.844 195.969 893.082 197.129 892.055 196.457 891.488 196.086 891.926 195.266 892.367 194.445 892.809 193.625"/>
<path transform="matrix(.1,0,0,-.1,0,105.44)" d="M860.578 175.805C860 175.426 858.984 174.762 859.746 173.598 860.512 172.434 861.691 173.211 862.309 173.617 861.734 174.348 861.156 175.074 860.578 175.805"/>
<path transform="matrix(.1,0,0,-.1,0,105.44)" d="M862.309 173.617 892.809 193.625 891.488 196.086 860.578 175.805 862.309 173.617"/>
<path transform="matrix(.1,0,0,-.1,0,105.44)" d="M908.707 233.75 908.012 233.297 909.211 231.465 909.906 231.922 908.707 233.75"/>
<path transform="matrix(.1,0,0,-.1,0,105.44)" d="M925.582 211.617C924.902 211.168 924.223 210.723 923.539 210.273 923.941 209.664 924.34 209.055 924.738 208.445 925.02 209.5 925.301 210.559 925.582 211.617"/>
<path transform="matrix(.1,0,0,-.1,0,105.44)" d="M941.273 219.293C940.871 219.902 940.473 220.512 940.074 221.121 939.391 220.676 938.711 220.227 938.027 219.781 939.109 219.617 940.191 219.457 941.273 219.293"/>
<path transform="matrix(.1,0,0,-.1,0,105.44)" d="M915.246 241.836C914.066 237.27 909.531 234.289 908.707 233.75 909.105 233.141 909.508 232.531 909.906 231.922 910.859 232.547 913.441 234.41 915.121 237.008 915.164 238.617 915.207 240.227 915.246 241.836"/>
<path transform="matrix(.1,0,0,-.1,0,105.44)" d="M929.117 214.492C928.758 213.863 927.75 213.035 925.582 211.617 925.301 210.559 925.02 209.5 924.738 208.445 926.484 209.789 929.23 211.629 931.477 213.105 930.691 213.57 929.906 214.031 929.117 214.492"/>
<path transform="matrix(.1,0,0,-.1,0,105.44)" d="M931.477 213.105C931.98 213.438 932.457 213.754 932.895 214.039 931.52 214.762 930.145 215.484 928.77 216.207 929.191 215.563 929.48 215.125 929.117 214.492 929.906 214.031 930.691 213.57 931.477 213.105"/>
<path transform="matrix(.1,0,0,-.1,0,105.44)" d="M937.086 216.758C938.59 217.715 940.094 218.641 941.273 219.293 940.191 219.457 939.109 219.617 938.027 219.781 937.211 219.242 936.535 218.824 935.973 218.504 936.344 217.922 936.715 217.34 937.086 216.758"/>
<path transform="matrix(.1,0,0,-.1,0,105.44)" d="M935.973 218.504C933.551 217.133 933.223 217.629 932.535 218.68 932.656 217.133 932.773 215.586 932.895 214.039 934.078 214.816 935.582 215.801 937.086 216.758 936.715 217.34 936.344 217.922 935.973 218.504"/>
<path transform="matrix(.1,0,0,-.1,0,105.44)" d="M917.527 241.555C916.711 242.797 916.598 242.723 915.246 241.836 915.207 240.227 915.164 238.617 915.121 237.008 915.922 238.523 916.727 240.039 917.527 241.555"/>
<path transform="matrix(.1,0,0,-.1,0,105.44)" d="M928.77 216.207C930.145 215.484 931.52 214.762 932.895 214.039 932.773 215.586 932.656 217.133 932.535 218.68 931.277 217.855 930.023 217.031 928.77 216.207"/>
<path transform="matrix(.1,0,0,-.1,0,105.44)" d="M932.535 218.68 917.527 241.555 915.121 237.008 928.77 216.207 932.535 218.68"/>
<path transform="matrix(.1,0,0,-.1,0,105.44)" d="M1067.75 366.664 563.156 35.6055V712.617L1067.75 1043.68V366.664" fill="#ffffff"/>
<path transform="matrix(.1,0,0,-.1,0,105.44)" stroke-width="5" stroke-linecap="round" stroke-linejoin="round" fill="none" stroke="#ff4040" d="M983.648 875.664V311.488"/>
<path transform="matrix(.1,0,0,-.1,0,105.44)" stroke-width="30" stroke-linecap="round" stroke-linejoin="round" fill="none" stroke="#ff4040" d="M983.648 875.664V875.664"/>
<path transform="matrix(.1,0,0,-.1,0,105.44)" stroke-width="5" stroke-linecap="round" stroke-linejoin="round" fill="none" stroke="#ff4040" d="M899.551 614.367V256.313"/>
<path transform="matrix(.1,0,0,-.1,0,105.44)" stroke-width="30" stroke-linecap="round" stroke-linejoin="round" fill="none" stroke="#ff4040" d="M899.551 614.367V614.367"/>
<path transform="matrix(.1,0,0,-.1,0,105.44)" stroke-width="5" stroke-linecap="round" stroke-linejoin="round" fill="none" stroke="#ff4040" d="M815.453 491.547V201.133"/>
<path transform="matrix(.1,0,0,-.1,0,105.44)" stroke-width="30" stroke-linecap="round" stroke-linejoin="round" fill="none" stroke="#ff4040" d="M815.453 491.547V491.547"/>
<path transform="matrix(.1,0,0,-.1,0,105.44)" stroke-width="5" stroke-linecap="round" stroke-linejoin="round" fill="none" stroke="#ff4040" d="M731.355 504.016V145.957"/>
<path transform="matrix(.1,0,0,-.1,0,105.44)" stroke-width="30" stroke-linecap="round" stroke-linejoin="round" fill="none" stroke="#ff4040" d="M731.355 504.016V504.016"/>
<path transform="matrix(.1,0,0,-.1,0,105.44)" stroke-width="5" stroke-linecap="round" stroke-linejoin="round" fill="none" stroke="#ff4040" d="M647.254 654.961V90.7813"/>
<path transform="matrix(.1,0,0,-.1,0,105.44)" stroke-width="30" stroke-linecap="round" stroke-linejoin="round" fill="none" stroke="#ff4040" d="M647.254 654.961V654.961"/>
<path transform="matrix(.1,0,0,-.1,0,105.44)" stroke-width="5" stroke-linecap="round" stroke-linejoin="round" fill="none" stroke="#000000" d="M1628.41 358.387 1123.81 27.3281V704.34L1628.41 1035.4V358.387Z"/>
<path transform="matrix(.1,0,0,-.1,0,105.44)" d="M1388.61 152.996C1389.46 153.563 1389.48 153.625 1389.57 153.93 1389.67 154.234 1389.45 154.855 1389.28 155.105 1388.82 155.809 1388.2 155.406 1387.51 154.949 1387.87 154.297 1388.24 153.648 1388.61 152.996"/>
<path transform="matrix(.1,0,0,-.1,0,105.44)" d="M1374.57 146.465C1373.75 145.922 1373.13 145.52 1373.89 144.355 1374.36 143.652 1374.94 144.031 1375.67 144.512 1375.3 145.16 1374.94 145.813 1374.57 146.465"/>
<path transform="matrix(.1,0,0,-.1,0,105.44)" d="M1396.89 144.031C1396.51 144.617 1395.82 144.16 1395.65 144.051 1394.99 143.621 1395.03 143.402 1395.17 142.73 1395.75 143.164 1396.32 143.598 1396.89 144.031"/>
<path transform="matrix(.1,0,0,-.1,0,105.44)" d="M1383.78 149.832 1388.61 152.996 1387.51 154.949 1383.01 151.996 1383.78 149.832"/>
<path transform="matrix(.1,0,0,-.1,0,105.44)" d="M1379.45 149.66 1374.57 146.465 1375.67 144.512 1380.22 147.496 1379.45 149.66"/>
<path transform="matrix(.1,0,0,-.1,0,105.44)" d="M1393.14 132.352C1398.09 135.598 1397.44 143.207 1396.89 144.031 1396.32 143.598 1395.75 143.164 1395.17 142.73 1395.79 138.852 1394.5 135.262 1392.38 133.871 1392.63 133.363 1392.89 132.855 1393.14 132.352"/>
<path transform="matrix(.1,0,0,-.1,0,105.44)" d="M1381.61 156.012C1381.14 157.254 1380.4 159.445 1380.23 159.707 1379.77 160.41 1378.74 160.801 1377.76 160.16 1377.07 159.703 1376.39 158.605 1376.79 157.266 1378.4 156.848 1380 156.43 1381.61 156.012"/>
<path transform="matrix(.1,0,0,-.1,0,105.44)" d="M1385.45 133.082C1387.01 130.703 1390.27 130.469 1393.14 132.352 1392.89 132.855 1392.63 133.363 1392.38 133.871 1391.07 133.012 1390.03 133.695 1389.21 134.949 1387.96 134.324 1386.7 133.703 1385.45 133.082"/>
<path transform="matrix(.1,0,0,-.1,0,105.44)" d="M1377.02 156.539C1377.25 155.871 1377.85 154.184 1379.45 149.66 1380.63 150.438 1381.82 151.219 1383.01 151.996 1382.54 153.336 1382.07 154.672 1381.61 156.012 1380.08 156.188 1378.55 156.363 1377.02 156.539"/>
<path transform="matrix(.1,0,0,-.1,0,105.44)" d="M1381.61 156.012C1380.45 156.313 1379.29 156.613 1378.13 156.914 1377.76 156.789 1377.39 156.664 1377.02 156.539 1378.55 156.363 1380.08 156.188 1381.61 156.012"/>
<path transform="matrix(.1,0,0,-.1,0,105.44)" d="M1376.87 156.992C1376.88 156.949 1376.9 156.871 1377.02 156.539 1377.39 156.664 1377.76 156.789 1378.13 156.914 1377.88 156.98 1377.63 157.047 1377.37 157.113 1377.2 157.074 1377.04 157.031 1376.87 156.992"/>
<path transform="matrix(.1,0,0,-.1,0,105.44)" d="M1377.37 157.113C1377.18 157.164 1376.98 157.215 1376.79 157.266 1376.86 157.055 1376.86 157.039 1376.87 156.992 1377.04 157.031 1377.2 157.074 1377.37 157.113"/>
<path transform="matrix(.1,0,0,-.1,0,105.44)" d="M1384.21 136.141C1384.61 135.09 1385.13 133.578 1385.45 133.082 1386.7 133.703 1387.96 134.324 1389.21 134.949 1388.77 135.613 1388.73 135.758 1388.57 136.195 1387.12 136.176 1385.67 136.156 1384.21 136.141"/>
<path transform="matrix(.1,0,0,-.1,0,105.44)" d="M1383.78 149.832 1383.01 151.996 1379.45 149.66 1380.22 147.496 1383.78 149.832"/>
<path transform="matrix(.1,0,0,-.1,0,105.44)" d="M1380.22 147.496 1384.21 136.141 1388.57 136.195 1383.78 149.832 1380.22 147.496"/>
<path transform="matrix(.1,0,0,-.1,0,105.44)" d="M1448.12 189.371C1448.68 189.742 1449.71 190.418 1448.95 191.582 1448.19 192.742 1447 191.969 1446.39 191.563 1446.96 190.832 1447.54 190.102 1448.12 189.371"/>
<path transform="matrix(.1,0,0,-.1,0,105.44)" d="M1415.89 171.555C1415.27 171.148 1414.09 170.375 1414.86 169.211 1415.62 168.047 1416.68 168.746 1417.21 169.094 1416.77 169.914 1416.33 170.734 1415.89 171.555"/>
<path transform="matrix(.1,0,0,-.1,0,105.44)" d="M1417.21 169.094 1448.12 189.371 1446.39 191.563 1415.89 171.555 1417.21 169.094"/>
<path transform="matrix(.1,0,0,-.1,0,105.44)" d="M1454.41 179.336C1455.03 179.738 1456.21 180.516 1455.45 181.68 1454.68 182.84 1453.66 182.168 1453.09 181.797 1453.53 180.977 1453.97 180.156 1454.41 179.336"/>
<path transform="matrix(.1,0,0,-.1,0,105.44)" d="M1422.18 161.516C1421.61 161.137 1420.59 160.469 1421.35 159.309 1422.11 158.145 1423.3 158.922 1423.91 159.324 1423.34 160.055 1422.76 160.785 1422.18 161.516"/>
<path transform="matrix(.1,0,0,-.1,0,105.44)" d="M1423.91 159.324 1454.41 179.336 1453.09 181.797 1422.18 161.516 1423.91 159.324"/>
<path transform="matrix(.1,0,0,-.1,0,105.44)" d="M1470.55 212.949C1471.98 210.781 1474.02 211.598 1474.58 211.969 1475.69 212.691 1476.51 214.297 1475.39 216.012 1474.41 217.5 1472.8 217.637 1471.45 216.938 1471.15 215.609 1470.86 214.281 1470.55 212.949"/>
<path transform="matrix(.1,0,0,-.1,0,105.44)" d="M1483.16 194.797C1482.99 194.16 1482.95 194.137 1483.11 193.824 1483.38 193.406 1483.65 192.988 1483.93 192.57 1483.67 193.313 1483.42 194.055 1483.16 194.797"/>
<path transform="matrix(.1,0,0,-.1,0,105.44)" d="M1475.33 226.551C1469.8 222.922 1467.88 217.027 1470.55 212.949 1470.86 214.281 1471.15 215.609 1471.45 216.938 1471.37 219.559 1472.93 222.359 1475.67 224.156 1475.56 224.953 1475.45 225.754 1475.33 226.551"/>
<path transform="matrix(.1,0,0,-.1,0,105.44)" d="M1502.95 205.055C1501.65 208.023 1500.35 210.992 1499.04 213.961 1498.47 213.586 1497.9 213.215 1497.33 212.84 1497.72 211.973 1499 209.129 1498.61 208.277 1500.06 207.203 1501.51 206.129 1502.95 205.055"/>
<path transform="matrix(.1,0,0,-.1,0,105.44)" d="M1491.56 225.367C1488.07 230.684 1481.18 230.387 1475.33 226.551 1475.45 225.754 1475.56 224.953 1475.67 224.156 1479.64 226.762 1484.54 226.535 1487.21 222.461 1488.66 223.43 1490.11 224.398 1491.56 225.367"/>
<path transform="matrix(.1,0,0,-.1,0,105.44)" d="M1502.95 205.055C1501.51 206.129 1500.06 207.203 1498.61 208.277 1498.45 207.82 1495.01 205.559 1494.41 205.164 1497.25 205.125 1500.11 205.09 1502.95 205.055"/>
<path transform="matrix(.1,0,0,-.1,0,105.44)" d="M1490.61 211.285C1492.6 216.293 1494.46 220.949 1491.56 225.367 1490.11 224.398 1488.66 223.43 1487.21 222.461 1489.51 218.957 1488.88 214.73 1487.5 209.961 1488.54 210.402 1489.57 210.844 1490.61 211.285"/>
<path transform="matrix(.1,0,0,-.1,0,105.44)" d="M1483.93 192.57 1502.95 205.055 1494.41 205.164 1486.38 199.898 1483.93 192.57"/>
<path transform="matrix(.1,0,0,-.1,0,105.44)" d="M1486.38 199.898C1487.75 203.707 1489.24 208.016 1490.61 211.285 1489.57 210.844 1488.54 210.402 1487.5 209.961 1486.06 204.906 1484.61 199.852 1483.16 194.797 1484.24 196.5 1485.31 198.199 1486.38 199.898"/>
<path transform="matrix(.1,0,0,-.1,0,105.44)" d="M1483.16 194.797C1483.42 194.055 1483.67 193.313 1483.93 192.57 1484.75 195.012 1485.56 197.457 1486.38 199.898 1485.31 198.199 1484.24 196.5 1483.16 194.797"/>
<path transform="matrix(.1,0,0,-.1,0,105.44)" d="M1628.41 358.387 1123.81 27.3281V704.34L1628.41 1035.4V358.387" fill="#ffffff"/>
<path transform="matrix(.1,0,0,-.1,0,105.44)" stroke-width="5" stroke-linecap="round" stroke-linejoin="round" fill="none" stroke="#ff4040" d="M1544.3 777.785V303.211"/>
<path transform="matrix(.1,0,0,-.1,0,105.44)" stroke-width="30" stroke-linecap="round" stroke-linejoin="round" fill="none" stroke="#ff4040" d="M1544.3 777.785V777.785"/>
<path transform="matrix(.1,0,0,-.1,0,105.44)" stroke-width="5" stroke-linecap="round" stroke-linejoin="round" fill="none" stroke="#ff4040" d="M1460.21 539.863V248.035"/>
<path transform="matrix(.1,0,0,-.1,0,105.44)" stroke-width="30" stroke-linecap="round" stroke-linejoin="round" fill="none" stroke="#ff4040" d="M1460.21 539.863V539.863"/>
<path transform="matrix(.1,0,0,-.1,0,105.44)" stroke-width="5" stroke-linecap="round" stroke-linejoin="round" fill="none" stroke="#000000" d="M1376.11 391.188V192.859"/>
<path transform="matrix(.1,0,0,-.1,0,105.44)" stroke-width="30" stroke-linecap="round" stroke-linejoin="round" fill="none" stroke="#000000" d="M1376.11 391.188V391.188"/>
<path transform="matrix(.1,0,0,-.1,0,105.44)" stroke-width="5" stroke-linecap="round" stroke-linejoin="round" fill="none" stroke="#ff4040" d="M1292.01 429.508V137.684"/>
<path transform="matrix(.1,0,0,-.1,0,105.44)" stroke-width="30" stroke-linecap="round" stroke-linejoin="round" fill="none" stroke="#ff4040" d="M1292.01 429.508V429.508"/>
<path transform="matrix(.1,0,0,-.1,0,105.44)" stroke-width="5" stroke-linecap="round" stroke-linejoin="round" fill="none" stroke="#ff4040" d="M1207.91 557.082V82.5039"/>
<path transform="matrix(.1,0,0,-.1,0,105.44)" stroke-width="30" stroke-linecap="round" stroke-linejoin="round" fill="none" stroke="#ff4040" d="M1207.91 557.082V557.082"/>
<path transform="matrix(.1,0,0,-.1,0,105.44)" stroke-width="5" stroke-linecap="round" stroke-linejoin="round" fill="none" stroke="#000000" d="M2189.06 350.109 1684.47 19.0547V696.066L2189.06 1027.12V350.109Z"/>
<path transform="matrix(.1,0,0,-.1,0,105.44)" d="M1950.55 139.258C1951.41 139.82 1951.42 139.887 1951.52 140.191 1951.61 140.496 1951.39 141.117 1951.22 141.363 1950.76 142.07 1950.14 141.664 1949.45 141.211 1949.82 140.559 1950.18 139.906 1950.55 139.258"/>
<path transform="matrix(.1,0,0,-.1,0,105.44)" d="M1936.52 132.723C1935.69 132.184 1935.07 131.777 1935.84 130.617 1936.3 129.91 1936.88 130.289 1937.61 130.77 1937.25 131.422 1936.88 132.074 1936.52 132.723"/>
<path transform="matrix(.1,0,0,-.1,0,105.44)" d="M1958.84 130.289C1958.45 130.879 1957.76 130.422 1957.59 130.313 1956.94 129.883 1956.97 129.66 1957.12 128.992 1957.69 129.422 1958.27 129.855 1958.84 130.289"/>
<path transform="matrix(.1,0,0,-.1,0,105.44)" d="M1945.73 136.094 1950.55 139.258 1949.45 141.211 1944.95 138.258 1945.73 136.094"/>
<path transform="matrix(.1,0,0,-.1,0,105.44)" d="M1941.39 135.922 1936.52 132.723 1937.61 130.77 1942.16 133.758 1941.39 135.922"/>
<path transform="matrix(.1,0,0,-.1,0,105.44)" d="M1955.08 118.609C1960.03 121.859 1959.38 129.465 1958.84 130.289 1958.27 129.855 1957.69 129.422 1957.12 128.992 1957.73 125.113 1956.45 121.523 1954.32 120.133 1954.57 119.625 1954.83 119.117 1955.08 118.609"/>
<path transform="matrix(.1,0,0,-.1,0,105.44)" d="M1943.55 142.27C1943.08 143.516 1942.34 145.703 1942.17 145.965 1941.71 146.672 1940.68 147.063 1939.7 146.422 1939.01 145.965 1938.33 144.867 1938.73 143.523 1940.34 143.105 1941.95 142.688 1943.55 142.27"/>
<path transform="matrix(.1,0,0,-.1,0,105.44)" d="M1947.39 119.34C1948.95 116.961 1952.21 116.73 1955.08 118.609 1954.83 119.117 1954.57 119.625 1954.32 120.133 1953.01 119.27 1951.97 119.953 1951.15 121.207 1949.9 120.586 1948.64 119.965 1947.39 119.34"/>
<path transform="matrix(.1,0,0,-.1,0,105.44)" d="M1938.96 142.797C1939.19 142.133 1939.79 140.441 1941.39 135.922 1942.57 136.699 1943.76 137.477 1944.95 138.258 1944.48 139.594 1944.02 140.934 1943.55 142.27 1942.02 142.445 1940.49 142.621 1938.96 142.797"/>
<path transform="matrix(.1,0,0,-.1,0,105.44)" d="M1943.55 142.27C1942.39 142.574 1941.23 142.875 1940.07 143.176 1939.7 143.051 1939.33 142.926 1938.96 142.797 1940.49 142.621 1942.02 142.445 1943.55 142.27"/>
<path transform="matrix(.1,0,0,-.1,0,105.44)" d="M1938.81 143.254C1938.82 143.207 1938.84 143.129 1938.96 142.797 1939.33 142.926 1939.7 143.051 1940.07 143.176 1939.82 143.242 1939.57 143.309 1939.32 143.371 1939.14 143.332 1938.98 143.293 1938.81 143.254"/>
<path transform="matrix(.1,0,0,-.1,0,105.44)" d="M1939.32 143.371C1939.12 143.422 1938.93 143.473 1938.73 143.523 1938.8 143.313 1938.8 143.297 1938.81 143.254 1938.98 143.293 1939.14 143.332 1939.32 143.371"/>
<path transform="matrix(.1,0,0,-.1,0,105.44)" d="M1946.16 122.398C1946.55 121.348 1947.07 119.836 1947.39 119.34 1948.64 119.965 1949.9 120.586 1951.15 121.207 1950.71 121.875 1950.68 122.016 1950.52 122.457 1949.06 122.438 1947.61 122.418 1946.16 122.398"/>
<path transform="matrix(.1,0,0,-.1,0,105.44)" d="M1945.73 136.094 1944.95 138.258 1941.39 135.922 1942.16 133.758 1945.73 136.094"/>
<path transform="matrix(.1,0,0,-.1,0,105.44)" d="M1942.16 133.758 1946.16 122.398 1950.52 122.457 1945.73 136.094 1942.16 133.758"/>
<path transform="matrix(.1,0,0,-.1,0,105.44)" d="M2010.06 175.633C2010.63 176.004 2011.66 176.68 2010.89 177.84 2010.13 179.004 2008.95 178.227 2008.33 177.824 2008.91 177.094 2009.48 176.363 2010.06 175.633"/>
<path transform="matrix(.1,0,0,-.1,0,105.44)" d="M1977.84 157.813C1977.22 157.41 1976.04 156.633 1976.8 155.469 1977.56 154.309 1978.63 155.008 1979.15 155.355 1978.71 156.176 1978.27 156.992 1977.84 157.813"/>
<path transform="matrix(.1,0,0,-.1,0,105.44)" d="M1979.15 155.355 2010.06 175.633 2008.33 177.824 1977.84 157.813 1979.15 155.355"/>
<path transform="matrix(.1,0,0,-.1,0,105.44)" d="M2016.36 165.594C2016.97 166 2018.15 166.777 2017.39 167.938 2016.63 169.102 2015.6 168.426 2015.04 168.055 2015.47 167.234 2015.91 166.414 2016.36 165.594"/>
<path transform="matrix(.1,0,0,-.1,0,105.44)" d="M1984.13 147.777C1983.55 147.398 1982.53 146.73 1983.29 145.566 1984.06 144.406 1985.24 145.18 1985.86 145.586 1985.28 146.316 1984.7 147.047 1984.13 147.777"/>
<path transform="matrix(.1,0,0,-.1,0,105.44)" d="M1985.86 145.586 2016.36 165.594 2015.04 168.055 1984.13 147.777 1985.86 145.586"/>
<path transform="matrix(.1,0,0,-.1,0,105.44)" d="M2032.55 201.262C2033.82 199.316 2035.71 199.828 2036.5 200.34 2037.68 201.117 2038.25 202.742 2037.27 204.246 2036.64 205.199 2035.39 206.043 2033.75 205.32 2033.35 203.969 2032.95 202.613 2032.55 201.262"/>
<path transform="matrix(.1,0,0,-.1,0,105.44)" d="M2045.03 200.18C2043.92 199.379 2043.78 199.23 2042.73 198.488 2042.31 198.156 2041.89 197.82 2042.3 197.191 2042.76 196.488 2043.17 196.758 2043.92 197.246 2044.29 198.227 2044.66 199.203 2045.03 200.18"/>
<path transform="matrix(.1,0,0,-.1,0,105.44)" d="M2037.77 213.129C2032.73 209.824 2030.09 205.012 2032.55 201.262 2032.95 202.613 2033.35 203.969 2033.75 205.32 2034.25 208.395 2037.82 210.91 2038.67 211.465 2038.37 212.02 2038.07 212.574 2037.77 213.129"/>
<path transform="matrix(.1,0,0,-.1,0,105.44)" d="M2045.03 200.18C2044.66 199.203 2044.29 198.227 2043.92 197.246 2044.82 197.836 2045.72 198.43 2046.62 199.02 2046.09 199.406 2045.56 199.793 2045.03 200.18"/>
<path transform="matrix(.1,0,0,-.1,0,105.44)" d="M2046.35 183.367C2047.86 184.711 2047.5 186.328 2046.85 187.32 2045.84 188.859 2044.04 189.102 2042.69 188.219 2041.38 187.355 2040.72 185.695 2041.87 183.941 2043.36 183.75 2044.86 183.559 2046.35 183.367"/>
<path transform="matrix(.1,0,0,-.1,0,105.44)" d="M2051 213.309C2048.76 216.719 2042.92 216.512 2037.77 213.129 2038.07 212.574 2038.37 212.02 2038.67 211.465 2041.67 213.43 2044.79 213.293 2046.65 210.461 2048.1 211.41 2049.55 212.359 2051 213.309"/>
<path transform="matrix(.1,0,0,-.1,0,105.44)" d="M2055.18 186.059C2054.73 185.762 2049.86 182.566 2046.35 183.367 2044.86 183.559 2043.36 183.75 2041.87 183.941 2044.71 179.617 2050.84 180.785 2056.41 184.438 2056 184.977 2055.59 185.516 2055.18 186.059"/>
<path transform="matrix(.1,0,0,-.1,0,105.44)" d="M2049.44 202.121C2053.29 206.965 2052.52 210.984 2051 213.309 2049.55 212.359 2048.1 211.41 2046.65 210.461 2048.24 208.043 2049.16 203.246 2045.03 200.18 2046.5 200.828 2047.97 201.473 2049.44 202.121"/>
<path transform="matrix(.1,0,0,-.1,0,105.44)" d="M2057.14 196.633C2059.93 192.387 2058.82 188.445 2055.18 186.059 2055.59 185.516 2056 184.977 2056.41 184.438 2063.13 188.848 2064.6 195.695 2061.95 199.734 2060.35 198.699 2058.74 197.668 2057.14 196.633"/>
<path transform="matrix(.1,0,0,-.1,0,105.44)" d="M2049.44 202.121C2047.97 201.473 2046.5 200.828 2045.03 200.18 2045.56 199.793 2046.09 199.406 2046.62 199.02 2047.56 200.055 2048.5 201.086 2049.44 202.121"/>
<path transform="matrix(.1,0,0,-.1,0,105.44)" d="M2046.62 199.02C2050.39 201.492 2054.44 200.75 2057.14 196.633 2058.74 197.668 2060.35 198.699 2061.95 199.734 2059.71 203.145 2054.82 204.098 2049.44 202.121 2048.5 201.086 2047.56 200.055 2046.62 199.02"/>
<path transform="matrix(.1,0,0,-.1,0,105.44)" d="M2189.06 350.109 1684.47 19.0547V696.066L2189.06 1027.12V350.109" fill="#ffffff"/>
<path transform="matrix(.1,0,0,-.1,0,105.44)" stroke-width="5" stroke-linecap="round" stroke-linejoin="round" fill="none" stroke="#000000" d="M2104.96 691.594V294.934"/>
<path transform="matrix(.1,0,0,-.1,0,105.44)" stroke-width="30" stroke-linecap="round" stroke-linejoin="round" fill="none" stroke="#000000" d="M2104.96 691.594V691.594"/>
<path transform="matrix(.1,0,0,-.1,0,105.44)" stroke-width="5" stroke-linecap="round" stroke-linejoin="round" fill="none" stroke="#ff4040" d="M2020.86 438.086V239.758"/>
<path transform="matrix(.1,0,0,-.1,0,105.44)" stroke-width="30" stroke-linecap="round" stroke-linejoin="round" fill="none" stroke="#ff4040" d="M2020.86 438.086V438.086"/>
<path transform="matrix(.1,0,0,-.1,0,105.44)" stroke-width="5" stroke-linecap="round" stroke-linejoin="round" fill="none" stroke="#000000" d="M1936.77 320.578V184.582"/>
<path transform="matrix(.1,0,0,-.1,0,105.44)" stroke-width="30" stroke-linecap="round" stroke-linejoin="round" fill="none" stroke="#000000" d="M1936.77 320.578V320.578"/>
<path transform="matrix(.1,0,0,-.1,0,105.44)" stroke-width="5" stroke-linecap="round" stroke-linejoin="round" fill="none" stroke="#ff4040" d="M1852.67 327.734V129.406"/>
<path transform="matrix(.1,0,0,-.1,0,105.44)" stroke-width="30" stroke-linecap="round" stroke-linejoin="round" fill="none" stroke="#ff4040" d="M1852.67 327.734V327.734"/>
<path transform="matrix(.1,0,0,-.1,0,105.44)" stroke-width="5" stroke-linecap="round" stroke-linejoin="round" fill="none" stroke="#000000" d="M1768.57 470.887V74.2305"/>
<path transform="matrix(.1,0,0,-.1,0,105.44)" stroke-width="30" stroke-linecap="round" stroke-linejoin="round" fill="none" stroke="#000000" d="M1768.57 470.887V470.887"/>
<path transform="matrix(.1,0,0,-.1,0,105.44)" stroke-width="5" stroke-linecap="round" stroke-linejoin="round" fill="none" stroke="#000000" d="M2749.72 341.832 2245.13 10.7773V687.789L2749.72 1018.85V341.832Z"/>
<path transform="matrix(.1,0,0,-.1,0,105.44)" d="M2602.55 170.352C2607.09 173.332 2611.63 176.313 2616.18 179.293 2615.88 179.977 2615.59 180.656 2615.3 181.336 2611.05 177.676 2606.8 174.016 2602.55 170.352"/>
<path transform="matrix(.1,0,0,-.1,0,105.44)" d="M2512.82 124.75C2513.68 125.316 2513.69 125.379 2513.79 125.684 2513.88 125.988 2513.66 126.609 2513.49 126.859 2513.03 127.563 2512.41 127.16 2511.72 126.703 2512.09 126.051 2512.45 125.402 2512.82 124.75"/>
<path transform="matrix(.1,0,0,-.1,0,105.44)" d="M2498.79 118.219C2497.96 117.676 2497.35 117.273 2498.11 116.109 2498.57 115.406 2499.15 115.785 2499.88 116.266 2499.52 116.914 2499.15 117.566 2498.79 118.219"/>
<path transform="matrix(.1,0,0,-.1,0,105.44)" d="M2521.11 115.785C2520.72 116.371 2520.03 115.914 2519.86 115.805 2519.21 115.375 2519.24 115.156 2519.39 114.484 2519.96 114.918 2520.54 115.352 2521.11 115.785"/>
<path transform="matrix(.1,0,0,-.1,0,105.44)" d="M2508 121.586 2512.82 124.75 2511.72 126.703 2507.22 123.75 2508 121.586"/>
<path transform="matrix(.1,0,0,-.1,0,105.44)" d="M2503.66 121.414 2498.79 118.219 2499.88 116.266 2504.43 119.25 2503.66 121.414"/>
<path transform="matrix(.1,0,0,-.1,0,105.44)" d="M2517.35 104.105C2522.3 107.352 2521.65 114.961 2521.11 115.785 2520.54 115.352 2519.96 114.918 2519.39 114.484 2520 110.605 2518.71 107.016 2516.59 105.625 2516.84 105.117 2517.1 104.609 2517.35 104.105"/>
<path transform="matrix(.1,0,0,-.1,0,105.44)" d="M2505.82 127.766C2505.35 129.008 2504.61 131.199 2504.44 131.461 2503.98 132.164 2502.95 132.555 2501.97 131.914 2501.28 131.457 2500.6 130.359 2501 129.02 2502.61 128.602 2504.21 128.184 2505.82 127.766"/>
<path transform="matrix(.1,0,0,-.1,0,105.44)" d="M2509.66 104.836C2511.22 102.457 2514.48 102.223 2517.35 104.105 2517.1 104.609 2516.84 105.117 2516.59 105.625 2515.28 104.766 2514.24 105.449 2513.42 106.703 2512.17 106.078 2510.91 105.457 2509.66 104.836"/>
<path transform="matrix(.1,0,0,-.1,0,105.44)" d="M2501.23 128.293C2501.46 127.625 2502.06 125.938 2503.66 121.414 2504.85 122.191 2506.03 122.973 2507.22 123.75 2506.75 125.09 2506.29 126.426 2505.82 127.766 2504.29 127.941 2502.76 128.117 2501.23 128.293"/>
<path transform="matrix(.1,0,0,-.1,0,105.44)" d="M2505.82 127.766C2504.66 128.066 2503.5 128.367 2502.34 128.668 2501.97 128.543 2501.6 128.418 2501.23 128.293 2502.76 128.117 2504.29 127.941 2505.82 127.766"/>
<path transform="matrix(.1,0,0,-.1,0,105.44)" d="M2501.08 128.746C2501.09 128.703 2501.12 128.625 2501.23 128.293 2501.6 128.418 2501.97 128.543 2502.34 128.668 2502.09 128.734 2501.84 128.801 2501.59 128.867 2501.42 128.828 2501.25 128.785 2501.08 128.746"/>
<path transform="matrix(.1,0,0,-.1,0,105.44)" d="M2501.59 128.867C2501.39 128.918 2501.2 128.969 2501 129.02 2501.07 128.809 2501.07 128.793 2501.08 128.746 2501.25 128.785 2501.42 128.828 2501.59 128.867"/>
<path transform="matrix(.1,0,0,-.1,0,105.44)" d="M2508.43 107.895C2508.82 106.844 2509.34 105.332 2509.66 104.836 2510.91 105.457 2512.17 106.078 2513.42 106.703 2512.98 107.367 2512.95 107.512 2512.79 107.949 2511.34 107.93 2509.88 107.91 2508.43 107.895"/>
<path transform="matrix(.1,0,0,-.1,0,105.44)" d="M2508 121.586 2507.22 123.75 2503.66 121.414 2504.43 119.25 2508 121.586"/>
<path transform="matrix(.1,0,0,-.1,0,105.44)" d="M2504.43 119.25 2508.43 107.895 2512.79 107.949 2508 121.586 2504.43 119.25"/>
<path transform="matrix(.1,0,0,-.1,0,105.44)" d="M2572.33 161.125C2572.9 161.496 2573.93 162.172 2573.16 163.336 2572.4 164.496 2571.22 163.723 2570.6 163.316 2571.18 162.586 2571.75 161.855 2572.33 161.125"/>
<path transform="matrix(.1,0,0,-.1,0,105.44)" d="M2540.11 143.309C2539.49 142.902 2538.3 142.129 2539.07 140.965 2539.83 139.801 2540.9 140.5 2541.43 140.848 2540.98 141.668 2540.54 142.488 2540.11 143.309"/>
<path transform="matrix(.1,0,0,-.1,0,105.44)" d="M2541.43 140.848 2572.33 161.125 2570.6 163.316 2540.11 143.309 2541.43 140.848"/>
<path transform="matrix(.1,0,0,-.1,0,105.44)" d="M2578.63 151.09C2579.24 151.492 2580.43 152.27 2579.66 153.434 2578.9 154.594 2577.87 153.922 2577.3 153.551 2577.75 152.73 2578.18 151.91 2578.63 151.09"/>
<path transform="matrix(.1,0,0,-.1,0,105.44)" d="M2546.39 133.27C2545.82 132.891 2544.8 132.223 2545.57 131.063 2546.33 129.898 2547.51 130.676 2548.13 131.078 2547.55 131.809 2546.97 132.539 2546.39 133.27"/>
<path transform="matrix(.1,0,0,-.1,0,105.44)" d="M2548.13 131.078 2578.63 151.09 2577.3 153.551 2546.39 133.27 2548.13 131.078"/>
<path transform="matrix(.1,0,0,-.1,0,105.44)" d="M2615.86 172.008C2615.38 171.691 2614.9 171.379 2614.42 171.063 2614.82 170.453 2615.22 169.844 2615.62 169.234 2615.7 170.156 2615.78 171.082 2615.86 172.008"/>
<path transform="matrix(.1,0,0,-.1,0,105.44)" d="M2629.55 178.367C2629.14 178.977 2628.75 179.586 2628.35 180.195 2627.87 179.883 2627.39 179.566 2626.91 179.254 2627.79 178.957 2628.66 178.664 2629.55 178.367"/>
<path transform="matrix(.1,0,0,-.1,0,105.44)" d="M2620.1 181.867 2625.21 185.227 2624.02 187.055 2618.89 183.695 2620.1 181.867"/>
<path transform="matrix(.1,0,0,-.1,0,105.44)" d="M2606.89 202C2606.23 202.992 2606.04 203.215 2604.97 202.516 2604.16 201.984 2604.14 201.918 2604.07 201.051 2605.01 201.367 2605.95 201.684 2606.89 202"/>
<path transform="matrix(.1,0,0,-.1,0,105.44)" d="M2601.35 172.184 2602.55 170.352 2615.3 181.336 2603.26 173.438 2601.35 172.184"/>
<path transform="matrix(.1,0,0,-.1,0,105.44)" d="M2615.3 181.336C2615.59 180.656 2615.88 179.977 2616.18 179.293 2616.88 178.215 2617.59 177.137 2618.3 176.055 2617.3 177.816 2616.3 179.574 2615.3 181.336"/>
<path transform="matrix(.1,0,0,-.1,0,105.44)" d="M2618.73 174.422C2618.46 173.863 2617.64 173.176 2615.86 172.008 2615.78 171.082 2615.7 170.156 2615.62 169.234 2617.18 170.348 2619.24 171.805 2621.25 173.16 2620.41 173.578 2619.57 174 2618.73 174.422"/>
<path transform="matrix(.1,0,0,-.1,0,105.44)" d="M2621.25 173.16C2621.66 173.438 2622.07 173.711 2622.48 173.977 2621.09 174.668 2619.7 175.363 2618.3 176.055 2618.73 175.406 2619 174.98 2618.73 174.422 2619.57 174 2620.41 173.578 2621.25 173.16"/>
<path transform="matrix(.1,0,0,-.1,0,105.44)" d="M2626.14 176.301C2627.36 177.051 2628.54 177.762 2629.55 178.367 2628.66 178.664 2627.79 178.957 2626.91 179.254 2626.14 178.75 2625.52 178.375 2625.02 178.105 2625.4 177.504 2625.77 176.902 2626.14 176.301"/>
<path transform="matrix(.1,0,0,-.1,0,105.44)" d="M2625.02 178.105C2623.2 177.137 2622.89 177.613 2622.22 178.629 2622.31 177.078 2622.39 175.527 2622.48 173.977 2623.66 174.75 2624.93 175.547 2626.14 176.301 2625.77 176.902 2625.4 177.504 2625.02 178.105"/>
<path transform="matrix(.1,0,0,-.1,0,105.44)" d="M2604.07 201.051 2601.35 172.184 2603.26 173.438 2605.41 196.398 2604.07 201.051"/>
<path transform="matrix(.1,0,0,-.1,0,105.44)" d="M2615.3 181.336 2618.3 176.055 2622.48 173.977 2622.22 178.629 2615.3 181.336"/>
<path transform="matrix(.1,0,0,-.1,0,105.44)" d="M2606.89 202C2605.95 201.684 2605.01 201.367 2604.07 201.051 2604.52 199.5 2604.97 197.949 2605.41 196.398 2605.91 198.266 2606.4 200.133 2606.89 202"/>
<path transform="matrix(.1,0,0,-.1,0,105.44)" d="M2615.3 181.336 2622.22 178.629 2620.1 181.867 2618.89 183.695 2615.3 181.336"/>
<path transform="matrix(.1,0,0,-.1,0,105.44)" d="M2618.89 183.695 2606.89 202 2605.41 196.398 2615.3 181.336 2618.89 183.695"/>
<path transform="matrix(.1,0,0,-.1,0,105.44)" d="M2749.72 341.832 2245.13 10.7773V687.789L2749.72 1018.85V341.832" fill="#ffffff"/>
<path transform="matrix(.1,0,0,-.1,0,105.44)" stroke-width="5" stroke-linecap="round" stroke-linejoin="round" fill="none" stroke="#000000" d="M2665.62 581.32V286.656"/>
<path transform="matrix(.1,0,0,-.1,0,105.44)" stroke-width="30" stroke-linecap="round" stroke-linejoin="round" fill="none" stroke="#000000" d="M2665.62 581.32V581.32"/>
<path transform="matrix(.1,0,0,-.1,0,105.44)" stroke-width="5" stroke-linecap="round" stroke-linejoin="round" fill="none" stroke="#000000" d="M2581.52 367.48V231.48"/>
<path transform="matrix(.1,0,0,-.1,0,105.44)" stroke-width="30" stroke-linecap="round" stroke-linejoin="round" fill="none" stroke="#000000" d="M2581.52 367.48V367.48"/>
<path transform="matrix(.1,0,0,-.1,0,105.44)" stroke-width="5" stroke-linecap="round" stroke-linejoin="round" fill="none" stroke="#000000" d="M2497.42 221.637V176.305"/>
<path transform="matrix(.1,0,0,-.1,0,105.44)" stroke-width="30" stroke-linecap="round" stroke-linejoin="round" fill="none" stroke="#000000" d="M2497.42 221.637V221.637"/>
<path transform="matrix(.1,0,0,-.1,0,105.44)" stroke-width="5" stroke-linecap="round" stroke-linejoin="round" fill="none" stroke="#000000" d="M2413.32 257.125V121.129"/>
<path transform="matrix(.1,0,0,-.1,0,105.44)" stroke-width="30" stroke-linecap="round" stroke-linejoin="round" fill="none" stroke="#000000" d="M2413.32 257.125V257.125"/>
<path transform="matrix(.1,0,0,-.1,0,105.44)" stroke-width="5" stroke-linecap="round" stroke-linejoin="round" fill="none" stroke="#000000" d="M2329.23 360.613V65.9531"/>
<path transform="matrix(.1,0,0,-.1,0,105.44)" stroke-width="30" stroke-linecap="round" stroke-linejoin="round" fill="none" stroke="#000000" d="M2329.23 360.613V360.613"/>
<path transform="matrix(.1,0,0,-.1,0,105.44)" stroke-width="5" stroke-linecap="round" stroke-linejoin="round" fill="none" stroke="#000000" d="M3310.38 333.559 2805.79 2.5V679.512L3310.38 1010.57V333.559Z"/>
<path transform="matrix(.1,0,0,-.1,0,105.44)" d="M3075.41 111.762C3076.27 112.328 3076.28 112.391 3076.38 112.695 3076.47 113 3076.25 113.621 3076.09 113.871 3075.62 114.574 3075 114.172 3074.31 113.715 3074.68 113.063 3075.04 112.414 3075.41 111.762"/>
<path transform="matrix(.1,0,0,-.1,0,105.44)" d="M3061.38 105.23C3060.55 104.688 3059.94 104.285 3060.7 103.121 3061.16 102.418 3061.74 102.797 3062.47 103.277 3062.11 103.926 3061.74 104.578 3061.38 105.23"/>
<path transform="matrix(.1,0,0,-.1,0,105.44)" d="M3083.7 102.797C3083.31 103.383 3082.62 102.926 3082.45 102.816 3081.8 102.387 3081.83 102.168 3081.98 101.496 3082.55 101.93 3083.13 102.363 3083.7 102.797"/>
<path transform="matrix(.1,0,0,-.1,0,105.44)" d="M3070.59 108.598 3075.41 111.762 3074.31 113.715 3069.81 110.762 3070.59 108.598"/>
<path transform="matrix(.1,0,0,-.1,0,105.44)" d="M3066.25 108.426 3061.38 105.23 3062.47 103.277 3067.02 106.262 3066.25 108.426"/>
<path transform="matrix(.1,0,0,-.1,0,105.44)" d="M3079.94 91.1172C3084.89 94.3633 3084.24 101.973 3083.7 102.797 3083.13 102.363 3082.55 101.93 3081.98 101.496 3082.59 97.6172 3081.3 94.0273 3079.18 92.6367 3079.43 92.1289 3079.69 91.6211 3079.94 91.1172"/>
<path transform="matrix(.1,0,0,-.1,0,105.44)" d="M3068.41 114.777C3067.94 116.02 3067.2 118.211 3067.03 118.473 3066.57 119.176 3065.54 119.566 3064.56 118.926 3063.87 118.469 3063.19 117.371 3063.59 116.031 3065.2 115.613 3066.8 115.195 3068.41 114.777"/>
<path transform="matrix(.1,0,0,-.1,0,105.44)" d="M3072.25 91.8477C3073.81 89.4688 3077.07 89.2344 3079.94 91.1172 3079.69 91.6211 3079.43 92.1289 3079.18 92.6367 3077.87 91.7773 3076.83 92.4609 3076.01 93.7148 3074.76 93.0898 3073.5 92.4688 3072.25 91.8477"/>
<path transform="matrix(.1,0,0,-.1,0,105.44)" d="M3063.82 115.305C3064.05 114.637 3064.65 112.949 3066.25 108.426 3067.44 109.203 3068.62 109.984 3069.81 110.762 3069.34 112.102 3068.88 113.438 3068.41 114.777 3066.88 114.953 3065.35 115.129 3063.82 115.305"/>
<path transform="matrix(.1,0,0,-.1,0,105.44)" d="M3068.41 114.777C3067.25 115.078 3066.09 115.379 3064.93 115.68 3064.56 115.555 3064.19 115.43 3063.82 115.305 3065.35 115.129 3066.88 114.953 3068.41 114.777"/>
<path transform="matrix(.1,0,0,-.1,0,105.44)" d="M3063.67 115.758C3063.68 115.711 3063.71 115.637 3063.82 115.305 3064.19 115.43 3064.56 115.555 3064.93 115.68 3064.68 115.746 3064.43 115.813 3064.18 115.879 3064.01 115.84 3063.84 115.797 3063.67 115.758"/>
<path transform="matrix(.1,0,0,-.1,0,105.44)" d="M3064.18 115.879C3063.98 115.93 3063.79 115.98 3063.59 116.031 3063.66 115.82 3063.66 115.805 3063.67 115.758 3063.84 115.797 3064.01 115.84 3064.18 115.879"/>
<path transform="matrix(.1,0,0,-.1,0,105.44)" d="M3071.02 94.9063C3071.41 93.8555 3071.93 92.3438 3072.25 91.8477 3073.5 92.4688 3074.76 93.0898 3076.01 93.7148 3075.57 94.3789 3075.54 94.5234 3075.38 94.9609 3073.93 94.9414 3072.47 94.9219 3071.02 94.9063"/>
<path transform="matrix(.1,0,0,-.1,0,105.44)" d="M3070.59 108.598 3069.81 110.762 3066.25 108.426 3067.02 106.262 3070.59 108.598"/>
<path transform="matrix(.1,0,0,-.1,0,105.44)" d="M3067.02 106.262 3071.02 94.9063 3075.38 94.9609 3070.59 108.598 3067.02 106.262"/>
<path transform="matrix(.1,0,0,-.1,0,105.44)" d="M3134.92 148.137C3135.49 148.508 3136.52 149.184 3135.75 150.348 3134.99 151.508 3133.81 150.734 3133.19 150.328 3133.77 149.598 3134.35 148.867 3134.92 148.137"/>
<path transform="matrix(.1,0,0,-.1,0,105.44)" d="M3102.7 130.32C3102.08 129.914 3100.89 129.141 3101.66 127.977 3102.42 126.813 3103.49 127.512 3104.02 127.859 3103.57 128.68 3103.14 129.5 3102.7 130.32"/>
<path transform="matrix(.1,0,0,-.1,0,105.44)" d="M3104.02 127.859 3134.92 148.137 3133.19 150.328 3102.7 130.32 3104.02 127.859"/>
<path transform="matrix(.1,0,0,-.1,0,105.44)" d="M3141.21 138.102C3141.83 138.504 3143.02 139.281 3142.25 140.445 3141.49 141.605 3140.46 140.934 3139.89 140.563 3140.34 139.742 3140.77 138.922 3141.21 138.102"/>
<path transform="matrix(.1,0,0,-.1,0,105.44)" d="M3108.98 120.281C3108.41 119.902 3107.39 119.234 3108.16 118.074 3108.92 116.91 3110.1 117.688 3110.72 118.09 3110.14 118.82 3109.56 119.551 3108.98 120.281"/>
<path transform="matrix(.1,0,0,-.1,0,105.44)" d="M3110.72 118.09 3141.21 138.102 3139.89 140.563 3108.98 120.281 3110.72 118.09"/>
<path transform="matrix(.1,0,0,-.1,0,105.44)" d="M3171.43 190.406C3171.02 191.031 3170.52 190.816 3170.4 190.738 3170.31 190.68 3170.23 190.629 3169.93 190.125 3170.43 190.219 3170.93 190.313 3171.43 190.406"/>
<path transform="matrix(.1,0,0,-.1,0,105.44)" d="M3156.34 181.289C3155.79 181.148 3155.71 181.098 3155.63 181.047 3155.05 180.668 3155.38 180.172 3155.82 179.504 3155.99 180.098 3156.16 180.691 3156.34 181.289"/>
<path transform="matrix(.1,0,0,-.1,0,105.44)" d="M3164 167.027C3164.46 166.324 3164.82 165.789 3165.59 166.293 3166.04 166.59 3166.04 166.703 3166.1 167.395 3165.4 167.273 3164.7 167.152 3164 167.027"/>
<path transform="matrix(.1,0,0,-.1,0,105.44)" d="M3170.13 157.238C3171.77 158.5 3171.51 160.125 3170.88 161.078 3170.01 162.41 3168.38 162.766 3167.07 161.902 3166.17 161.313 3165.13 159.867 3166.39 157.945 3167.64 157.711 3168.88 157.477 3170.13 157.238"/>
<path transform="matrix(.1,0,0,-.1,0,105.44)" d="M3179.42 158.16C3176.76 156.414 3173 155.633 3170.13 157.238 3168.88 157.477 3167.64 157.711 3166.39 157.945 3169.07 153.871 3175.25 152.992 3180.61 156.512 3180.21 157.063 3179.82 157.609 3179.42 158.16"/>
<path transform="matrix(.1,0,0,-.1,0,105.44)" d="M3169.78 184.742C3170.43 185.879 3172.03 189.492 3171.43 190.406 3170.93 190.313 3170.43 190.219 3169.93 190.125 3168.72 188.57 3166.57 186.32 3163.87 184.547 3165.84 184.613 3167.81 184.676 3169.78 184.742"/>
<path transform="matrix(.1,0,0,-.1,0,105.44)" d="M3164.8 179.457C3167.59 181.289 3169.09 183.465 3169.78 184.742 3167.81 184.676 3165.84 184.613 3163.87 184.547 3164.18 182.852 3164.49 181.156 3164.8 179.457"/>
<path transform="matrix(.1,0,0,-.1,0,105.44)" d="M3159.99 177.066C3162.51 177.957 3164.35 179.164 3164.8 179.457 3164.49 181.156 3164.18 182.852 3163.87 184.547 3161.53 183.012 3159.01 181.953 3156.34 181.289 3157.55 179.879 3158.77 178.473 3159.99 177.066"/>
<path transform="matrix(.1,0,0,-.1,0,105.44)" d="M3159.99 177.066C3158.77 178.473 3157.55 179.879 3156.34 181.289 3156.16 180.691 3155.99 180.098 3155.82 179.504 3157.21 178.691 3158.6 177.879 3159.99 177.066"/>
<path transform="matrix(.1,0,0,-.1,0,105.44)" d="M3164.9 169.582 3159.99 177.066 3155.82 179.504 3164 167.027 3164.9 169.582"/>
<path transform="matrix(.1,0,0,-.1,0,105.44)" d="M3164.9 169.582C3164.6 168.73 3164.3 167.879 3164 167.027 3164.7 167.152 3165.4 167.273 3166.1 167.395 3165.7 168.125 3165.3 168.852 3164.9 169.582"/>
<path transform="matrix(.1,0,0,-.1,0,105.44)" d="M3169.99 175.836C3167.41 174.141 3165.76 172.109 3164.9 169.582 3165.3 168.852 3165.7 168.125 3166.1 167.395 3166.45 170.246 3168.03 172.586 3170.8 174.406 3170.53 174.883 3170.26 175.359 3169.99 175.836"/>
<path transform="matrix(.1,0,0,-.1,0,105.44)" d="M3183.16 163.527C3182.57 160.414 3180.32 158.75 3179.42 158.16 3179.82 157.609 3180.21 157.063 3180.61 156.512 3186.72 160.52 3188.98 167.945 3185.6 173.105 3184.79 169.914 3183.97 166.723 3183.16 163.527"/>
<path transform="matrix(.1,0,0,-.1,0,105.44)" d="M3185.6 173.105C3182.51 177.809 3175.68 179.566 3169.99 175.836 3170.26 175.359 3170.53 174.883 3170.8 174.406 3173.18 175.969 3175.42 175.418 3176.57 174.922 3179.58 174.316 3182.59 173.711 3185.6 173.105"/>
<path transform="matrix(.1,0,0,-.1,0,105.44)" d="M3176.57 174.922C3178.43 174.125 3179.88 172.379 3181.18 170.395 3182.33 168.645 3183.68 166.207 3183.16 163.527 3183.97 166.723 3184.79 169.914 3185.6 173.105 3182.59 173.711 3179.58 174.316 3176.57 174.922"/>
<path transform="matrix(.1,0,0,-.1,0,105.44)" d="M3310.38 333.559 2805.79 2.5V679.512L3310.38 1010.57V333.559" fill="#ffffff"/>
<path transform="matrix(.1,0,0,-.1,0,105.44)" stroke-width="5" stroke-linecap="round" stroke-linejoin="round" fill="none" stroke="#000000" d="M3226.28 459.711V278.383"/>
<path transform="matrix(.1,0,0,-.1,0,105.44)" stroke-width="30" stroke-linecap="round" stroke-linejoin="round" fill="none" stroke="#000000" d="M3226.28 459.711V459.711"/>
<path transform="matrix(.1,0,0,-.1,0,105.44)" stroke-width="5" stroke-linecap="round" stroke-linejoin="round" fill="none" stroke="#000000" d="M3142.18 268.539V223.203"/>
<path transform="matrix(.1,0,0,-.1,0,105.44)" stroke-width="30" stroke-linecap="round" stroke-linejoin="round" fill="none" stroke="#000000" d="M3142.18 268.539V268.539"/>
<path transform="matrix(.1,0,0,-.1,0,105.44)" stroke-width="5" stroke-linecap="round" stroke-linejoin="round" fill="none" stroke="#000000" d="M3058.08 168.027V168.027"/>
<path transform="matrix(.1,0,0,-.1,0,105.44)" stroke-width="30" stroke-linecap="round" stroke-linejoin="round" fill="none" stroke="#000000" d="M3058.08 168.027V168.027"/>
<path transform="matrix(.1,0,0,-.1,0,105.44)" stroke-width="5" stroke-linecap="round" stroke-linejoin="round" fill="none" stroke="#000000" d="M2973.98 158.184V112.852"/>
<path transform="matrix(.1,0,0,-.1,0,105.44)" stroke-width="30" stroke-linecap="round" stroke-linejoin="round" fill="none" stroke="#000000" d="M2973.98 158.184V158.184"/>
<path transform="matrix(.1,0,0,-.1,0,105.44)" stroke-width="5" stroke-linecap="round" stroke-linejoin="round" fill="none" stroke="#000000" d="M2889.88 239.008V57.6758"/>
<path transform="matrix(.1,0,0,-.1,0,105.44)" stroke-width="30" stroke-linecap="round" stroke-linejoin="round" fill="none" stroke="#000000" d="M2889.88 239.008V239.008"/>
</svg>
