<svg xmlns="http://www.w3.org/2000/svg" xmlns:xlink="http://www.w3.org/1999/xlink" version="1.1" width="385.68589pt" height="95.638797pt" viewBox="0 0 385.68589 95.638797">
<defs>
<path id="font_0_1" d="M.7220001 .25045777C.7220001 .26145936 .71299746 .27046205 .70199587 .27046205H.07598877C.06498718 .27046205 .055999757 .26145936 .055999757 .25045777 .055999757 .23945618 .06498718 .23046875 .07598877 .23046875H.70199587C.71299746 .23046875 .7220001 .23945618 .7220001 .25045777Z"/>
<path id="font_0_2" d="M.44898988 .17404175H.42399598C.4189911 .14402771 .4119873 .1000061 .4019928 .084991458 .394989 .07699585 .32899476 .07699585 .30699159 .07699585H.1269989L.23298645 .18003845C.3889923 .31811524 .44898988 .3721466 .44898988 .47216798 .44898988 .5860901 .35899354 .6660156 .23699951 .6660156 .12399292 .6660156 .049987794 .57411196 .049987794 .48516847 .049987794 .4291687 .099990848 .4291687 .102996829 .4291687 .11999512 .4291687 .15499878 .44117738 .15499878 .48217774 .15499878 .5081787 .13699341 .5341797 .101989749 .5341797 .09399414 .5341797 .09199524 .5341797 .08898926 .5331726 .11199951 .59806826 .1659851 .63500979 .22399903 .63500979 .31498719 .63500979 .35798646 .5541382 .35798646 .47216798 .35798646 .39215089 .30799867 .31311036 .25299073 .25108338L.06098938 .036987306C.049987794 .025985718 .049987794 .023986817 .049987794 0H.42099L.44898988 .17404175Z"/>
<path id="font_0_3" d="M.4189911 0V.0309906H.3869934C.29699708 .0309906 .2939911 .041992189 .2939911 .07902527V.64027407C.2939911 .6642761 .2939911 .666275 .2709961 .666275 .20899964 .60227969 .12098694 .60227969 .08898926 .60227969V.57128909C.10899353 .57128909 .16799927 .57128909 .21998596 .5972748V.07902527C.21998596 .042999269 .21699524 .0309906 .1269989 .0309906H.09498596V0C.12998963 .0029907227 .21699524 .0029907227 .25698854 .0029907227 .29699708 .0029907227 .38398744 .0029907227 .4189911 0Z"/>
<path id="font_0_4" d="M.45999146 .31976319C.45999146 .39982606 .45498658 .47988893 .41999818 .5539398 .37399293 .65000918 .2919922 .6660156 .25 .6660156 .18998719 .6660156 .116989139 .64001467 .07598877 .54693606 .04399109 .47789 .038986207 .39982606 .038986207 .31976319 .038986207 .24472046 .042999269 .15464783 .083999637 .07859802 .1269989-.0024719239 .19999695-.022460938 .24899292-.022460938 .30299378-.022460938 .3789978-.0014648438 .4229889 .09359741 .45498658 .16265869 .45999146 .2407074 .45999146 .31976319M.3769989 .3317871C.3769989 .25672914 .3769989 .18867493 .3659973 .12461853 .35099793 .029556275 .2939911-.00047302247 .24899292-.00047302247 .20999146-.00047302247 .15098572 .024551392 .1329956 .12062073 .12199402 .18066406 .12199402 .2727356 .12199402 .3317871 .12199402 .39582826 .12199402 .46188355 .12998963 .5159149 .14898682 .63500979 .22399903 .64401248 .24899292 .64401248 .28199769 .64401248 .34799195 .6259918 .36698915 .52693179 .3769989 .47088624 .3769989 .39482118 .3769989 .3317871Z"/>
<path id="font_0_5" d="M.47299195 0V.035995485H.43499757C.33499146 .035995485 .33499146 .048980714 .33499146 .081954959V.63560488C.33499146 .66259768 .33299256 .66360476 .30499269 .66360476 .24099732 .6006012 .1499939 .5996094 .10899353 .5996094V.56359866C.1329956 .56359866 .19898987 .56359866 .2539978 .5915985V.081954959C.2539978 .048980714 .2539978 .035995485 .1539917 .035995485H.115997318V0L.2939911 .0039978029 .47299195 0Z"/>
<path id="font_0_6" d="M.22200012 .23046875V.27046205H.019989014C.008987427 .27046205 0 .26145936 0 .25045777 0 .23945618 .008987427 .23046875 .019989014 .23046875H.22200012Z"/>
<path id="font_0_7" d="M.22200012 .25045777C.22200012 .26145936 .21299744 .27046205 .20199585 .27046205H0V.23046875H.20199585C.21299744 .23046875 .22200012 .23945618 .22200012 .25045777Z"/>
<path id="font_0_8" d="M.5049896 .18203736H.47099305C.46798707 .16001892 .45799256 .100997928 .44499208 .09098816 .43699647 .084991458 .3600006 .084991458 .34599305 .084991458H.1619873C.2669983 .17803955 .3019867 .20603943 .3619995 .25306703 .43598939 .312088 .5049896 .374115 .5049896 .46914674 .5049896 .5900879 .39898683 .6640625 .2709961 .6640625 .14698792 .6640625 .06298828 .57710269 .06298828 .4851532 .06298828 .43414308 .10598755 .42915345 .115997318 .42915345 .13999939 .42915345 .16899109 .44615174 .16899109 .48214723 .16899109 .5001526 .1619873 .53515627 .10998535 .53515627 .14099121 .6060791 .20899964 .62805178 .2559967 .62805178 .35598756 .62805178 .4079895 .5501404 .4079895 .46914674 .4079895 .38212586 .34599305 .3130951 .31399537 .27708436L.07299805 .038986207C.06298828 .02999878 .06298828 .027999878 .06298828 0H.47499085L.5049896 .18203736Z"/>
</defs>
<path transform="matrix(1,0,0,-1,60.458494,47.819398)" d="M17.92313 0C17.92313 9.89879 9.89879 17.92313 0 17.92313-9.89879 17.92313-17.92313 9.89879-17.92313 0-17.92313-9.89879-9.89879-17.92313 0-17.92313 9.89879-17.92313 17.92313-9.89879 17.92313 0ZM0 0" fill="#bfbfff"/>
<path transform="matrix(1,0,0,-1,60.458494,47.819398)" stroke-width="2.00002" stroke-linecap="butt" stroke-miterlimit="10" stroke-linejoin="miter" fill="none" stroke="#2626ff" d="M17.92313 0C17.92313 9.89879 9.89879 17.92313 0 17.92313-9.89879 17.92313-17.92313 9.89879-17.92313 0-17.92313-9.89879-9.89879-17.92313 0-17.92313 9.89879-17.92313 17.92313-9.89879 17.92313 0ZM0 0"/>
<use data-text="&#x2212;" xlink:href="#font_0_1" transform="matrix(11.95517,0,0,-11.95517,52.823339,51.798284)"/>
<use data-text="2" xlink:href="#font_0_2" transform="matrix(11.95517,0,0,-11.95517,62.12446,51.798284)"/>
<path transform="matrix(1,0,0,-1,60.458494,47.819398)" d="M84.1162 0C84.1162 9.89879 76.09187 17.92313 66.19307 17.92313 56.29427 17.92313 48.26994 9.89879 48.26994 0 48.26994-9.89879 56.29427-17.92313 66.19307-17.92313 76.09187-17.92313 84.1162-9.89879 84.1162 0ZM66.19307 0" fill="#bfbfff"/>
<path transform="matrix(1,0,0,-1,60.458494,47.819398)" stroke-width="2.00002" stroke-linecap="butt" stroke-miterlimit="10" stroke-linejoin="miter" fill="none" stroke="#2626ff" d="M84.1162 0C84.1162 9.89879 76.09187 17.92313 66.19307 17.92313 56.29427 17.92313 48.26994 9.89879 48.26994 0 48.26994-9.89879 56.29427-17.92313 66.19307-17.92313 76.09187-17.92313 84.1162-9.89879 84.1162 0ZM66.19307 0"/>
<use data-text="&#x2212;" xlink:href="#font_0_1" transform="matrix(11.95517,0,0,-11.95517,119.015567,51.798284)"/>
<use data-text="1" xlink:href="#font_0_3" transform="matrix(11.95517,0,0,-11.95517,128.31668,51.798284)"/>
<path transform="matrix(1,0,0,-1,60.458494,47.819398)" d="M150.30928 0C150.30928 9.89879 142.28495 17.92313 132.38616 17.92313 122.48735 17.92313 114.46301 9.89879 114.46301 0 114.46301-9.89879 122.48735-17.92313 132.38616-17.92313 142.28495-17.92313 150.30928-9.89879 150.30928 0ZM132.38616 0" fill="#bfbfff"/>
<path transform="matrix(1,0,0,-1,60.458494,47.819398)" stroke-width="2.00002" stroke-linecap="butt" stroke-miterlimit="10" stroke-linejoin="miter" fill="none" stroke="#2626ff" d="M150.30928 0C150.30928 9.89879 142.28495 17.92313 132.38616 17.92313 122.48735 17.92313 114.46301 9.89879 114.46301 0 114.46301-9.89879 122.48735-17.92313 132.38616-17.92313 142.28495-17.92313 150.30928-9.89879 150.30928 0ZM132.38616 0"/>
<use data-text="0" xlink:href="#font_0_4" transform="matrix(11.95517,0,0,-11.95517,189.85579,51.666849)"/>
<path transform="matrix(1,0,0,-1,60.458494,47.819398)" d="M216.50237 0C216.50237 9.89879 208.47803 17.92313 198.57923 17.92313 188.68042 17.92313 180.6561 9.89879 180.6561 0 180.6561-9.89879 188.68042-17.92313 198.57923-17.92313 208.47803-17.92313 216.50237-9.89879 216.50237 0ZM198.57923 0" fill="#bfbfff"/>
<path transform="matrix(1,0,0,-1,60.458494,47.819398)" stroke-width="2.00002" stroke-linecap="butt" stroke-miterlimit="10" stroke-linejoin="miter" fill="none" stroke="#2626ff" d="M216.50237 0C216.50237 9.89879 208.47803 17.92313 198.57923 17.92313 188.68042 17.92313 180.6561 9.89879 180.6561 0 180.6561-9.89879 188.68042-17.92313 198.57923-17.92313 208.47803-17.92313 216.50237-9.89879 216.50237 0ZM198.57923 0"/>
<use data-text="1" xlink:href="#font_0_3" transform="matrix(11.95517,0,0,-11.95517,256.048,51.798284)"/>
<path transform="matrix(1,0,0,-1,60.458494,47.819398)" d="M282.69544 0C282.69544 9.89879 274.6711 17.92313 264.7723 17.92313 254.8735 17.92313 246.84917 9.89879 246.84917 0 246.84917-9.89879 254.8735-17.92313 264.7723-17.92313 274.6711-17.92313 282.69544-9.89879 282.69544 0ZM264.7723 0" fill="#bfbfff"/>
<path transform="matrix(1,0,0,-1,60.458494,47.819398)" stroke-width="2.00002" stroke-linecap="butt" stroke-miterlimit="10" stroke-linejoin="miter" fill="none" stroke="#2626ff" d="M282.69544 0C282.69544 9.89879 274.6711 17.92313 264.7723 17.92313 254.8735 17.92313 246.84917 9.89879 246.84917 0 246.84917-9.89879 254.8735-17.92313 264.7723-17.92313 274.6711-17.92313 282.69544-9.89879 282.69544 0ZM264.7723 0"/>
<use data-text="2" xlink:href="#font_0_2" transform="matrix(11.95517,0,0,-11.95517,322.24024,51.798284)"/>
<path transform="matrix(1,0,0,-1,60.458494,47.819398)" stroke-width="1" stroke-linecap="butt" stroke-miterlimit="10" stroke-linejoin="miter" fill="none" stroke="#000000" d=""/>
<path transform="matrix(1,0,0,-1,60.458494,47.819398)" stroke-width="1" stroke-linecap="butt" stroke-miterlimit="10" stroke-linejoin="miter" fill="none" stroke="#000000" d="M16.38765 9.46126C27.67368 15.97723 38.5194 15.97723 48.22018 10.37651"/>
<path transform="matrix(.86601,.5,.5,-.86601,108.67867,37.442888)" stroke-width=".8" stroke-linecap="round" stroke-linejoin="round" fill="none" stroke="#000000" d="M-1.73685 2.3158C-1.59212 1.44737 0 .14473 .4342 0 0-.14473-1.59212-1.44737-1.73685-2.3158"/>
<use data-text="1" xlink:href="#font_0_5" transform="matrix(8.36858,0,0,-8.36858,91.17157,17.078873)"/>
<use data-text="&#x2212;" xlink:href="#font_0_6" transform="matrix(11.95517,0,0,-11.95517,91.17157,22.876992)"/>
<use data-text="&#x2212;" xlink:href="#font_0_7" transform="matrix(11.95517,0,0,-11.95517,93.287639,22.876992)"/>
<use data-text="2" xlink:href="#font_0_8" transform="matrix(8.36858,0,0,-8.36858,91.17157,26.894875)"/>
<path transform="matrix(1,0,0,-1,60.458494,47.819398)" stroke-width="1" stroke-linecap="butt" stroke-miterlimit="10" stroke-linejoin="miter" fill="none" stroke="#000000" d="M82.58073 9.46126C93.86674 15.97723 104.71246 15.97723 114.41325 10.37651"/>
<path transform="matrix(.86601,.5,.5,-.86601,174.87175,37.442888)" stroke-width=".8" stroke-linecap="round" stroke-linejoin="round" fill="none" stroke="#000000" d="M-1.73685 2.3158C-1.59212 1.44737 0 .14473 .4342 0 0-.14473-1.59212-1.44737-1.73685-2.3158"/>
<use data-text="1" xlink:href="#font_0_5" transform="matrix(8.36858,0,0,-8.36858,157.36379,17.078873)"/>
<use data-text="&#x2212;" xlink:href="#font_0_6" transform="matrix(11.95517,0,0,-11.95517,157.36379,22.876992)"/>
<use data-text="&#x2212;" xlink:href="#font_0_7" transform="matrix(11.95517,0,0,-11.95517,159.47986,22.876992)"/>
<use data-text="2" xlink:href="#font_0_8" transform="matrix(8.36858,0,0,-8.36858,157.36379,26.894875)"/>
<path transform="matrix(1,0,0,-1,60.458494,47.819398)" stroke-width="1" stroke-linecap="butt" stroke-miterlimit="10" stroke-linejoin="miter" fill="none" stroke="#000000" d="M148.7738 9.46126C160.05983 15.97723 170.90555 15.97723 180.60634 10.37651"/>
<path transform="matrix(.86601,.5,.5,-.86601,241.06484,37.442888)" stroke-width=".8" stroke-linecap="round" stroke-linejoin="round" fill="none" stroke="#000000" d="M-1.73685 2.3158C-1.59212 1.44737 0 .14473 .4342 0 0-.14473-1.59212-1.44737-1.73685-2.3158"/>
<use data-text="1" xlink:href="#font_0_5" transform="matrix(8.36858,0,0,-8.36858,223.55602,17.078873)"/>
<use data-text="&#x2212;" xlink:href="#font_0_6" transform="matrix(11.95517,0,0,-11.95517,223.55602,22.876992)"/>
<use data-text="&#x2212;" xlink:href="#font_0_7" transform="matrix(11.95517,0,0,-11.95517,225.67209,22.876992)"/>
<use data-text="2" xlink:href="#font_0_8" transform="matrix(8.36858,0,0,-8.36858,223.55602,26.894875)"/>
<path transform="matrix(1,0,0,-1,60.458494,47.819398)" stroke-width="1" stroke-linecap="butt" stroke-miterlimit="10" stroke-linejoin="miter" fill="none" stroke="#000000" d="M214.96689 9.46126C226.2529 15.97723 237.09862 15.97723 246.79941 10.37651"/>
<path transform="matrix(.86601,.5,.5,-.86601,307.2579,37.442888)" stroke-width=".8" stroke-linecap="round" stroke-linejoin="round" fill="none" stroke="#000000" d="M-1.73685 2.3158C-1.59212 1.44737 0 .14473 .4342 0 0-.14473-1.59212-1.44737-1.73685-2.3158"/>
<use data-text="1" xlink:href="#font_0_5" transform="matrix(8.36858,0,0,-8.36858,289.74824,17.078873)"/>
<use data-text="&#x2212;" xlink:href="#font_0_6" transform="matrix(11.95517,0,0,-11.95517,289.74824,22.876992)"/>
<use data-text="&#x2212;" xlink:href="#font_0_7" transform="matrix(11.95517,0,0,-11.95517,291.8643,22.876992)"/>
<use data-text="2" xlink:href="#font_0_8" transform="matrix(8.36858,0,0,-8.36858,289.74824,26.894875)"/>
<path transform="matrix(1,0,0,-1,60.458494,47.819398)" stroke-width="1" stroke-linecap="butt" stroke-miterlimit="10" stroke-linejoin="miter" fill="none" stroke="#000000" d="M248.38465-9.46126C237.09862-15.97723 226.2529-15.97723 216.55211-10.37651"/>
<path transform="matrix(-.86601,-.5,-.5,.86601,277.0106,58.195909)" stroke-width=".8" stroke-linecap="round" stroke-linejoin="round" fill="none" stroke="#000000" d="M-1.73685 2.3158C-1.59212 1.44737 0 .14473 .4342 0 0-.14473-1.59212-1.44737-1.73685-2.3158"/>
<use data-text="1" xlink:href="#font_0_5" transform="matrix(8.36858,0,0,-8.36858,289.74824,72.932018)"/>
<use data-text="&#x2212;" xlink:href="#font_0_6" transform="matrix(11.95517,0,0,-11.95517,289.74824,78.73013)"/>
<use data-text="&#x2212;" xlink:href="#font_0_7" transform="matrix(11.95517,0,0,-11.95517,291.8643,78.73013)"/>
<use data-text="2" xlink:href="#font_0_8" transform="matrix(8.36858,0,0,-8.36858,289.74824,82.74802)"/>
<path transform="matrix(1,0,0,-1,60.458494,47.819398)" stroke-width="1" stroke-linecap="butt" stroke-miterlimit="10" stroke-linejoin="miter" fill="none" stroke="#000000" d="M182.19158-9.46126C170.90555-15.97723 160.05983-15.97723 150.35904-10.37651"/>
<path transform="matrix(-.86601,-.5,-.5,.86601,210.81754,58.195909)" stroke-width=".8" stroke-linecap="round" stroke-linejoin="round" fill="none" stroke="#000000" d="M-1.73685 2.3158C-1.59212 1.44737 0 .14473 .4342 0 0-.14473-1.59212-1.44737-1.73685-2.3158"/>
<use data-text="1" xlink:href="#font_0_5" transform="matrix(8.36858,0,0,-8.36858,223.55602,72.932018)"/>
<use data-text="&#x2212;" xlink:href="#font_0_6" transform="matrix(11.95517,0,0,-11.95517,223.55602,78.73013)"/>
<use data-text="&#x2212;" xlink:href="#font_0_7" transform="matrix(11.95517,0,0,-11.95517,225.67209,78.73013)"/>
<use data-text="2" xlink:href="#font_0_8" transform="matrix(8.36858,0,0,-8.36858,223.55602,82.74802)"/>
<path transform="matrix(1,0,0,-1,60.458494,47.819398)" stroke-width="1" stroke-linecap="butt" stroke-miterlimit="10" stroke-linejoin="miter" fill="none" stroke="#000000" d="M115.99849-9.46126C104.71246-15.97723 93.86674-15.97723 84.16595-10.37651"/>
<path transform="matrix(-.86601,-.5,-.5,.86601,144.62444,58.195909)" stroke-width=".8" stroke-linecap="round" stroke-linejoin="round" fill="none" stroke="#000000" d="M-1.73685 2.3158C-1.59212 1.44737 0 .14473 .4342 0 0-.14473-1.59212-1.44737-1.73685-2.3158"/>
<use data-text="1" xlink:href="#font_0_5" transform="matrix(8.36858,0,0,-8.36858,157.36379,72.932018)"/>
<use data-text="&#x2212;" xlink:href="#font_0_6" transform="matrix(11.95517,0,0,-11.95517,157.36379,78.73013)"/>
<use data-text="&#x2212;" xlink:href="#font_0_7" transform="matrix(11.95517,0,0,-11.95517,159.47986,78.73013)"/>
<use data-text="2" xlink:href="#font_0_8" transform="matrix(8.36858,0,0,-8.36858,157.36379,82.74802)"/>
<path transform="matrix(1,0,0,-1,60.458494,47.819398)" stroke-width="1" stroke-linecap="butt" stroke-miterlimit="10" stroke-linejoin="miter" fill="none" stroke="#000000" d="M49.80542-9.46126C38.5194-15.97723 27.67368-15.97723 17.97289-10.37651"/>
<path transform="matrix(-.86601,-.5,-.5,.86601,78.43138,58.195909)" stroke-width=".8" stroke-linecap="round" stroke-linejoin="round" fill="none" stroke="#000000" d="M-1.73685 2.3158C-1.59212 1.44737 0 .14473 .4342 0 0-.14473-1.59212-1.44737-1.73685-2.3158"/>
<use data-text="1" xlink:href="#font_0_5" transform="matrix(8.36858,0,0,-8.36858,91.17157,72.932018)"/>
<use data-text="&#x2212;" xlink:href="#font_0_6" transform="matrix(11.95517,0,0,-11.95517,91.17157,78.73013)"/>
<use data-text="&#x2212;" xlink:href="#font_0_7" transform="matrix(11.95517,0,0,-11.95517,93.287639,78.73013)"/>
<use data-text="2" xlink:href="#font_0_8" transform="matrix(8.36858,0,0,-8.36858,91.17157,82.74802)"/>
<path transform="matrix(1,0,0,-1,60.458494,47.819398)" stroke-width="1" stroke-linecap="butt" stroke-miterlimit="10" stroke-linejoin="miter" fill="none" stroke="#000000" d="M-18.27835-4.89708C-47.79231-12.8054-47.79231 12.8054-20.04648 5.37079"/>
<path transform="matrix(.96593,.25879,.25879,-.96593,40.41201,42.44861)" stroke-width=".8" stroke-linecap="round" stroke-linejoin="round" fill="none" stroke="#000000" d="M-1.73685 2.3158C-1.59212 1.44737 0 .14473 .4342 0 0-.14473-1.59212-1.44737-1.73685-2.3158"/>
<use data-text="1" xlink:href="#font_0_5" transform="matrix(8.36858,0,0,-8.36858,10.796734,45.005445)"/>
<use data-text="&#x2212;" xlink:href="#font_0_6" transform="matrix(11.95517,0,0,-11.95517,10.796734,50.803564)"/>
<use data-text="&#x2212;" xlink:href="#font_0_7" transform="matrix(11.95517,0,0,-11.95517,12.912799,50.803564)"/>
<use data-text="2" xlink:href="#font_0_8" transform="matrix(8.36858,0,0,-8.36858,10.796734,54.821447)"/>
<path transform="matrix(1,0,0,-1,60.458494,47.819398)" stroke-width="1" stroke-linecap="butt" stroke-miterlimit="10" stroke-linejoin="miter" fill="none" stroke="#000000" d="M283.05067 4.89708C312.5646 12.8054 312.5646-12.8054 284.8188-5.37079"/>
<path transform="matrix(-.96593,-.25879,-.25879,.96593,345.27729,53.190187)" stroke-width=".8" stroke-linecap="round" stroke-linejoin="round" fill="none" stroke="#000000" d="M-1.73685 2.3158C-1.59212 1.44737 0 .14473 .4342 0 0-.14473-1.59212-1.44737-1.73685-2.3158"/>
<use data-text="1" xlink:href="#font_0_5" transform="matrix(8.36858,0,0,-8.36858,370.1231,45.005445)"/>
<use data-text="&#x2212;" xlink:href="#font_0_6" transform="matrix(11.95517,0,0,-11.95517,370.1231,50.803564)"/>
<use data-text="&#x2212;" xlink:href="#font_0_7" transform="matrix(11.95517,0,0,-11.95517,372.23918,50.803564)"/>
<use data-text="2" xlink:href="#font_0_8" transform="matrix(8.36858,0,0,-8.36858,370.1231,54.821447)"/>
</svg>
