<svg xmlns="http://www.w3.org/2000/svg" xmlns:xlink="http://www.w3.org/1999/xlink" version="1.1" width="347.61973pt" height="47.02475pt" viewBox="0 0 347.61973 47.02475">
<defs>
<path id="font_1_458" d="M.6049957 .50393679C.6049957 .60002139 .5299988 .65304568 .3939972 .65304568L.1459961 .65270999V.63671877C.20298767 .62971499 .21699524 .62171939 .21699524 .59472659 .21699524 .5797272 .21299744 .56173709 .19999695 .51474L.08198547 .0899353C.06399536 .02998352 .056991579 .023986817 0 .015991211V0H.24499512V.015991211C.18199158 .024978638 .1769867 .02798462 .1769867 .06295776 .1769867 .07395935 .1789856 .0819397 .18899536 .11991882L.24198914 .31278993C.2679901 .3067932 .2919922 .3047943 .33399964 .3047943 .41299439 .3047943 .48098756 .32078553 .522995 .3507843 .57499697 .3867798 .6049957 .4437561 .6049957 .50375369V.50393679M.5019989 .50375369C.5019989 .43876649 .47898866 .3927765 .43499757 .3667755 .4039917 .34979249 .36499024 .34179688 .30299378 .34179688 .2849884 .34179688 .27999879 .34179688 .25099183 .3467865L.32199098 .59472659C.32798768 .61602786 .33999635 .6230469 .36799623 .6230469 .4059906 .6230469 .44400025 .61402896 .46398927 .60002139 .48999024 .58200076 .5019989 .55197146 .5019989 .50393679V.50375369Z"/>
<path id="font_2_1119" d="M.44299317 0V.01499939C.35699464 .015991211 .33898927 .025985718 .33898927 .07397461V.67378237L.32998658 .67578127 .13198853 .58480837V.57081606C.14498902 .57580569 .15699768 .57980349 .1619873 .58180239 .18199158 .58880618 .19999695 .59280398 .21099854 .59280398 .23399353 .59280398 .24398804 .57780459 .24398804 .54582217V.0929718C.24398804 .0599823 .23599243 .036987306 .21798706 .02798462 .20098877 .018997193 .18598938 .015991211 .13999939 .01499939V0H.44299317Z"/>
<path id="font_2_1245" d="M.5329895 .13696289 .5179901 .14196778C.47799684 .084991458 .46299745 .07598877 .4139862 .07598877H.15098572L.33599855 .2519226C.43399049 .34487916 .47599793 .42085267 .47599793 .4988098 .47599793 .59877017 .3869934 .67578127 .272995 .67578127 .21199036 .67578127 .15499878 .6537781 .114990238 .61376956 .07899475 .5797882 .06298828 .5477905 .04399109 .4768219L.066986087 .47183229C.11099243 .5697937 .15098572 .6017761 .22698975 .6017761 .31900025 .6017761 .38198854 .5447998 .38198854 .4608307 .38198854 .38285829 .33099366 .28990174 .23899842 .200943L.042999269 .011993408V0H.47200013L.5329895 .13696289Z"/>
</defs>
<path transform="matrix(1,0,0,-1,-24.61299,17.90616)" stroke-width="1" stroke-linecap="round" stroke-linejoin="round" fill="none" stroke="#000000" d="M28.34645-14.173233H141.73226V14.173218H28.34645V-14.173233Z"/>
<path transform="matrix(1,0,0,-1,-24.61299,17.90616)" d="M42.519685-10.629913H127.55904V10.629929H42.519685V-10.629913Z" fill="#929292"/>
<path transform="matrix(1,0,0,-1,-24.61299,17.90616)" stroke-width=".600006" stroke-linecap="round" stroke-linejoin="round" fill="none" stroke="#000000" d="M42.519685-10.629913H127.55904V10.629929H42.519685V-10.629913Z"/>
<path transform="matrix(1,0,0,-1,-24.61299,17.90616)" d="M59.1929 0C59.1929 .663071 58.92946 1.298904 58.460634 1.767731 57.991807 2.236557 57.355974 2.5 56.6929 2.5 56.02983 2.5 55.393999 2.236557 54.92517 1.767731 54.456346 1.298904 54.1929 .663071 54.1929 0 54.1929-.663071 54.456346-1.298904 54.92517-1.767731 55.393999-2.236557 56.02983-2.5 56.6929-2.5 57.355974-2.5 57.991807-2.236557 58.460634-1.767731 58.92946-1.298904 59.1929-.663071 59.1929 0Z"/>
<path transform="matrix(1,0,0,-1,-24.61299,17.90616)" d="M115.8858 0C115.8858 .663071 115.62236 1.298904 115.153537 1.767731 114.68471 2.236557 114.048877 2.5 113.3858 2.5 112.72273 2.5 112.0869 2.236557 111.61807 1.767731 111.14925 1.298904 110.8858 .663071 110.8858 0 110.8858-.663071 111.14925-1.298904 111.61807-1.767731 112.0869-2.236557 112.72273-2.5 113.3858-2.5 114.048877-2.5 114.68471-2.236557 115.153537-1.767731 115.62236-1.298904 115.8858-.663071 115.8858 0Z"/>
<use data-text="&#x1d443;" xlink:href="#font_1_458" transform="matrix(9.962615,0,0,-9.962614,55.0831,41.58113)"/>
<use data-text="1" xlink:href="#font_2_1119" transform="matrix(7.372329,0,0,-7.3723285,61.166917,43.79162)"/>
<path transform="matrix(1,0,0,-1,-24.612992,17.906159)" stroke-width="1" stroke-linecap="round" stroke-linejoin="round" fill="none" stroke="#000000" d="M255.11806-14.173233H368.50386V14.173218H255.11806V-14.173233Z"/>
<path transform="matrix(1,0,0,-1,-24.612992,17.906159)" d="M269.2913-10.629913H297.63774V10.629929H269.2913V-10.629913Z" fill="#929292"/>
<path transform="matrix(1,0,0,-1,-24.612992,17.906159)" stroke-width=".600006" stroke-linecap="round" stroke-linejoin="round" fill="none" stroke="#000000" d="M269.2913-10.629913H297.63774V10.629929H269.2913V-10.629913Z"/>
<path transform="matrix(1,0,0,-1,-24.612992,17.906159)" d="M325.9842-10.629913H354.33067V10.629929H325.9842V-10.629913Z" fill="#929292"/>
<path transform="matrix(1,0,0,-1,-24.612992,17.906159)" stroke-width=".600006" stroke-linecap="round" stroke-linejoin="round" fill="none" stroke="#000000" d="M325.9842-10.629913H354.33067V10.629929H325.9842V-10.629913Z"/>
<path transform="matrix(1,0,0,-1,-24.612992,17.906159)" d="M285.9645 0C285.9645 .663071 285.70106 1.298904 285.23225 1.767731 284.7634 2.236557 284.1276 2.5 283.4645 2.5 282.80143 2.5 282.16563 2.236557 281.69679 1.767731 281.22795 1.298904 280.9645 .663071 280.9645 0 280.9645-.663071 281.22795-1.298904 281.69679-1.767731 282.16563-2.236557 282.80143-2.5 283.4645-2.5 284.1276-2.5 284.7634-2.236557 285.23225-1.767731 285.70106-1.298904 285.9645-.663071 285.9645 0Z"/>
<path transform="matrix(1,0,0,-1,-24.612992,17.906159)" d="M342.6574 0C342.6574 .663071 342.39399 1.298904 341.92515 1.767731 341.4563 2.236557 340.82048 2.5 340.1574 2.5 339.49436 2.5 338.8585 2.236557 338.38969 1.767731 337.92088 1.298904 337.6574 .663071 337.6574 0 337.6574-.663071 337.92088-1.298904 338.38969-1.767731 338.8585-2.236557 339.49436-2.5 340.1574-2.5 340.82048-2.5 341.4563-2.236557 341.92515-1.767731 342.39399-1.298904 342.6574-.663071 342.6574 0Z"/>
<use data-text="&#x1d443;" xlink:href="#font_1_458" transform="matrix(9.962615,0,0,-9.962614,281.85206,41.58113)"/>
<use data-text="2" xlink:href="#font_2_1245" transform="matrix(7.372329,0,0,-7.3723285,287.93586,43.79162)"/>
</svg>
