<svg xmlns="http://www.w3.org/2000/svg" xmlns:xlink="http://www.w3.org/1999/xlink" xmlns:inkscape="http://www.inkscape.org/namespaces/inkscape" version="1.1" width="337.42826" height="115.27815" viewBox="0 0 337.42826 115.27815">
<defs>
<path id="font_1_1" d="M.5079956 .66700747H.4850006C.47099305 .64601138 .46199037 .64100649 .43998719 .64100649 .4269867 .64100649 .4149933 .64401248 .3939972 .65200808 .37298585 .66101077 .33999635 .6660156 .30899049 .6660156 .20498657 .6660156 .1309967 .59698489 .1309967 .49891664 .1309967 .44488526 .1459961 .41586305 .20599365 .3518219 .21899414 .33880616 .23199463 .32479859 .24499512 .30978395L.28399659 .26776124C.33099366 .21873474 .34399415 .1927185 .34399415 .14968872 .34399415 .073638919 .2889862 .016601563 .21499634 .016601563 .1309967 .016601563 .068984989 .087646488 .068984989 .18571472 .068984989 .1927185 .068984989 .19671631 .070999149 .205719L.050994874 .2077179 .016998291-.015411377H.034988405C.041992189 .007598877 .052993776 .017593384 .07299805 .017593384 .083999637 .017593384 .09799194 .013595581 .125 .0045928957 .17098999-.0124053959 .19799805-.0184021 .22898865-.0184021 .34399415-.0184021 .43099977 .06762695 .43099977 .18170166 .43099977 .24674988 .40899659 .28477479 .31799317 .37683106 .22698975 .4678955 .21899414 .48190309 .21899414 .5309448 .21899414 .5939789 .26098634 .63301089 .32899476 .63301089 .3659973 .63301089 .3959961 .6210022 .4169922 .59698489 .43998719 .57196047 .44799806 .5379486 .44999696 .4709015L.46798707 .4678955 .5079956 .66700747Z"/>
<path id="font_1_2" d="M.33599855 .42848207H.24798584L.27799989 .5314789 .2709961 .5464783H.2669983C.2630005 .5464783 .2599945 .5434723 .2539978 .5374756 .21199036 .48747254 .14299011 .43547059 .10798645 .42747499 .07998657 .41947938 .07299805 .41348268 .07299805 .40248109 .07299805 .40248109 .07299805 .3994751 .07398987 .39648438H.15499878L.068984989 .10029602C.057998659 .067276 .050994874 .036254884 .050994874 .026245118 .050994874 .0052490236 .07398987-.0107421879 .10398865-.0107421879 .1539917-.0107421879 .18998719 .01725769 .2599945 .11029053L.24499512 .11729431C.19198609 .054260255 .17399597 .038253786 .1559906 .038253786 .14199829 .038253786 .13398743 .05026245 .14099121 .06326294L.23799134 .39648438H.32998658L.33599855 .42848207Z"/>
<path id="font_1_3" d="M.56399539 0V.015991211C.5069885 .020980835 .5 .02897644 .48799134 .101882938L.3939972 .66796877H.36799623L.07798767 .16778565C-.0010070801 .034973146-.011001587 .023986817-.05101013 .015991211V0H.13598633V.015991211C.084991458 .020980835 .07699585 .025985718 .07699585 .050949098 .07699585 .06991577 .07998657 .0789032 .09700012 .11286926L.1539917 .22570801H.37399293L.3939972 .09487915C.394989 .08589172 .3959961 .0769043 .3959961 .06892395 .3959961 .030975342 .38198854 .021987915 .31799317 .015991211V0H.56399539M.36898805 .26171876H.1749878L.32499696 .52186587 .36898805 .26171876Z"/>
<path id="font_1_4" d="M.6329956 .63671877V.65270999H.44400025V.63671877L.47099305 .63371279C.5 .6307068 .5130005 .6227112 .5130005 .60572817 .5130005 .57873538 .46798707 .5147705 .36299134 .39282228L.32499696 .34684754 .2939911 .4567871C.2689972 .5427551 .2579956 .5857239 .2579956 .60072329 .2579956 .62571719 .269989 .6307068 .32998658 .63671877V.65270999H.09098816V.63671877C.14698792 .6287079 .1499939 .62571719 .16699219 .57073977L.24398804 .30186463 .18299866 .08996582C.1659851 .035980226 .14399719 .019989014 .07798767 .015991211V0H.36698915V.015991211L.33099366 .018997193C.2919922 .020996094 .27799989 .0309906 .27799989 .05596924 .27799989 .07696533 .2849884 .10595703 .30899049 .18492127L.31498719 .20491028 .34399415 .30586244 .5629883 .57572939C.59498599 .6147156 .6029968 .6227112 .6329956 .63671877Z"/>
<path id="font_1_5" d="M-.07901001 .56877139C-.13301087 .61177065-.19000244 .6507721-.25001527 .6847687-.31001283 .6507721-.3670044 .61177065-.42100526 .56877139L-.41101075 .55078127C-.3560028 .57676699-.30200196 .60476687-.25001527 .6337738-.1980133 .60476687-.14401245 .57676699-.08900452 .55078127L-.07901001 .56877139Z"/>
<path id="font_1_6" d="M.5799866 .22436524V.2763672H.35598756V.5003662H.3039856V.2763672H.07998657V.22436524H.3039856V0H.35598756V.22436524H.5799866Z"/>
<path id="font_1_7" d="M.44299317 0V.01499939C.35699464 .015991211 .33898927 .025985718 .33898927 .07397461V.67378237L.32998658 .67578127 .13198853 .58480837V.57081606C.14498902 .57580569 .15699768 .57980349 .1619873 .58180239 .18199158 .58880618 .19999695 .59280398 .21099854 .59280398 .23399353 .59280398 .24398804 .57780459 .24398804 .54582217V.0929718C.24398804 .0599823 .23599243 .036987306 .21798706 .02798462 .20098877 .018997193 .18598938 .015991211 .13999939 .01499939V0H.44299317Z"/>
<path id="font_2_1" d="M.59298709 .4920807 .58699038 .6621094H.022994996L.016998291 .4920807H.040985109C.06498718 .60209658 .08799744 .6201019 .19999695 .6201019H.2539978V.120010379C.2539978 .034988405 .24299622 .023986817 .1599884 .018997193V0H.45199586V.018997193C.36999513 .022994996 .35598756 .035995485 .35598756 .10900879V.6201019H.4099884C.5239868 .6201019 .54599 .60209658 .56900027 .4920807H.59298709Z"/>
<path id="font_2_2" d="M.25299073 0V.01499939C.18699646 .019989014 .1789856 .02999878 .1789856 .10205078V.4569702L.1749878 .45996095 .019989014 .40527345V.3902588L.027999878 .39126588C.039993287 .39326478 .052993776 .39427186 .06199646 .39427186 .085998538 .39427186 .09498596 .37825013 .09498596 .33422853V.10205078C.09498596 .02999878 .084991458 .018997193 .015991211 .01499939V0H.25299073M.18798828 .5900574C.18798828 .61805728 .1659851 .64105227 .13699341 .64105227 .10899353 .64105227 .085998538 .61805728 .085998538 .5900574 .085998538 .5610504 .10899353 .5390625 .13699341 .5390625 .1659851 .5390625 .18798828 .5610504 .18798828 .5900574Z"/>
<path id="font_2_3" d="M.7749939 0V.01499939L.7489929 .016998291C.71899417 .018997193 .70599368 .036987306 .70599368 .07598877V.28196717C.70599368 .39994813 .6669922 .45996095 .58999636 .45996095 .5319977 .45996095 .48098756 .43395997 .4269867 .3759613 .40899659 .43295289 .375 .45996095 .32099916 .45996095 .2769928 .45996095 .24899292 .44595338 .1659851 .38294984V.45794679L.15899658 .45996095C.10798645 .44102479 .07398987 .43003846 .018997193 .41503907V.3980255C.03199768 .4010315 .039993287 .40203858 .050994874 .40203858 .07699585 .40203858 .085998538 .3860321 .085998538 .33802796V.085006717C.085998538 .0309906 .07199097 .015991211 .015991211 .01499939V0H.23799134V.01499939C.18499756 .016998291 .16999817 .027999878 .16999817 .06700134V.34902955C.16999817 .34902955 .17799378 .36102296 .18499756 .36802674 .20999146 .3909607 .25299073 .40795899 .28799439 .40795899 .33198548 .40795899 .35398866 .37295533 .35398866 .30296327V.08598328C.35398866 .02998352 .34298707 .018997193 .28599549 .01499939V0H.5099945V.01499939C.45298768 .015991211 .43798829 .032989503 .43798829 .09498596V.34695436C.46798707 .3899536 .5009918 .40795899 .5469971 .40795899 .60398867 .40795899 .621994 .38095094 .621994 .29795838V.08699036C.621994 .02998352 .6139984 .021987915 .55599978 .01499939V0H.7749939Z"/>
<path id="font_2_4" d="M.42399598 .15727234 .4079895 .16427613C.3600006 .08824158 .31698609 .05921936 .25299073 .05921936 .19799805 .05921936 .1559906 .085235599 .1269989 .13926697 .10699463 .17828369 .09899902 .21330261 .09700012 .27734376H.40499879C.39698792 .34222413 .3869934 .37112428 .3619995 .40301515 .33198548 .43894959 .28599549 .45996095 .23399353 .45996095 .10998535 .45996095 .024993897 .36016847 .024993897 .21430969 .024993897 .07623291 .09700012-.009765625 .21199036-.009765625 .30799867-.009765625 .38198854 .049224855 .42399598 .15727234M.30299378 .30934144H.09899902C.10998535 .38807679 .14399719 .4239502 .20498657 .4239502 .2659912 .4239502 .2899933 .39604188 .30299378 .30934144Z"/>
<path id="font_2_5" d=""/>
<path id="font_1_8" d="M.29599 .42848207H.21598816L.24398804 .5314789 .23699951 .5464783H.23399353C.22999573 .5464783 .22698975 .5434723 .22200012 .5374756 .18399048 .48747254 .12098694 .43547059 .08898926 .42747499 .06399536 .41947938 .056991579 .41348268 .056991579 .40248109 .056991579 .40248109 .056991579 .3994751 .057998659 .39648438H.13198853L.053985597 .10029602C.04399109 .067276 .036987306 .036254884 .036987306 .026245118 .036987306 .0052490236 .057998659-.0107421879 .084991458-.0107421879 .1309967-.0107421879 .1639862 .01725769 .22698975 .11029053L.21398926 .11729431C.16499329 .054260255 .14898682 .038253786 .1329956 .038253786 .11999512 .038253786 .11299133 .05026245 .11898804 .06326294L.20698548 .39648438H.29100038L.29599 .42848207Z"/>
<path id="font_1_9" d="M.12399292-.15000916V.6499939H.07998657V-.15000916H.12399292Z"/>
<path id="font_1_10" d="M.5799866 .22436524V.2763672H.07998657V.22436524H.5799866Z"/>
<path id="font_1_11" d="M.3939972 0V.01499939C.31498719 .015991211 .29899598 .025985718 .29899598 .07397461V.67378237L.29100038 .67578127 .11099243 .58480837V.57081606C.12298584 .57580569 .13398743 .57980349 .13798523 .58180239 .1559906 .58880618 .17298889 .59280398 .18299866 .59280398 .20399475 .59280398 .21299744 .57780459 .21299744 .54582217V.0929718C.21299744 .0599823 .20498657 .036987306 .18899536 .02798462 .17399597 .018997193 .1599884 .015991211 .117996219 .01499939V0H.3939972Z"/>
</defs>
<path transform="matrix(1.5,0,0,-1.5,60.80522,46.734415)" stroke-width="1.45" stroke-linecap="round" stroke-linejoin="round" fill="none" stroke="#000000" d="M-32.997919 .150507C36.97141 .117682 106.77778-.057634 176.87813 .146086"/>
<path transform="matrix(1.5,0,0,-1.5,60.80522,46.734415)" stroke-width="1.45" stroke-linecap="round" stroke-linejoin="round" fill="none" stroke="#000000" d="M171.33025-2.21903C172.79412-.965285 174.85274-.289013 176.58554 .097699 174.8347 .309385 173.06792 1.146767 171.42966 2.371314"/>
<path transform="matrix(1.5,0,0,-1.5,60.80522,46.734415)" d="M2.230788 .09887C2.096959 .650789 2.008558 1.092261 1.655644 1.584179 1.058597 1.988805 .60031 2.057084 .053458 2.258941-.504507 2.257124-1.24548 2.086893-1.380279 1.517277-1.85684 1.159069-2.19936 .457988-2.329527-.094229-2.272052-.693108-1.970989-1.07621-1.415216-1.377691-1.09246-1.768916-.440833-2.333506 .130887-2.27636 .42521-2.059146 1.194995-1.767737 1.527483-1.588998 2.125365-1.059435 2.184027-.540402 2.230788 .09887Z"/>
<path transform="matrix(1.5,0,0,-1.5,60.80522,46.734415)" d="M43.165929 .103487C43.26111 .749152 43.112096 1.150453 42.615697 1.708444 42.10393 1.939569 41.55929 2.340411 41.07411 2.029671 40.673967 2.186651 40.088388 1.919547 39.46185 1.696822 39.25166 1.209469 39.056375 .516258 38.997995 .109714 39.072675-.519573 38.99039-1.145537 39.45699-1.393409 39.81065-1.787677 40.556066-2.040727 41.185007-2.096906 41.761186-2.336445 42.33597-1.850796 42.68957-1.496903 43.065889-1.21434 43.147954-.56416 43.165929 .103487Z"/>
<path transform="matrix(1.5,0,0,-1.5,60.80522,46.734415)" d="M84.265628 .029699C84.23776 .414283 84.225048 1.022705 83.772449 1.689643 83.494068 1.796641 82.70004 2.100045 82.20487 2.11215 81.61129 2.207094 81.03611 1.945107 80.685527 1.38269 80.09979 1.031622 79.89575 .750189 80.00918-.120143 79.95087-.59479 80.107898-1.058048 80.84635-1.412023 81.23062-1.960447 81.61702-2.346893 82.18009-2.058241 82.76612-2.059117 83.2078-1.779236 83.90727-1.557966 84.08359-1.259912 84.20941-.657249 84.265628 .029699Z"/>
<path transform="matrix(1.5,0,0,-1.5,60.80522,46.734415)" d="M125.64045 .087008C125.59499 .469798 125.11545 .95437 124.760868 1.63958 124.425968 1.930494 123.810039 2.120429 123.415637 2.176506 122.70925 2.074118 122.20206 1.792157 121.63632 1.70576 121.24524 1.173175 121.022388 .467643 121.026927 .011195 120.99687-.688506 121.23476-1.303461 121.83903-1.576567 122.2932-1.932986 122.86651-2.093977 123.26371-2.322331 123.71507-2.034452 124.27931-1.997153 124.91171-1.404597 125.09411-1.005291 125.62467-.688771 125.64045 .087008Z"/>
<path transform="matrix(1.5,0,0,-1.5,60.80522,46.734415)" d="M166.65595-.051234C166.63796 .443224 166.27239 .96344 165.79575 1.522306 165.58112 1.875375 164.84243 2.120191 164.30919 2.33384 163.92873 2.227817 163.18856 1.774573 162.98554 1.393837 162.30197 1.288601 162.14063 .672937 162.09172 .178926 162.29245-.447035 162.61315-1.137805 162.75026-1.442889 163.16582-2.012192 163.76514-2.188167 164.31529-2.263334 165.07294-2.297479 165.69928-2.104239 165.94777-1.506983 166.51802-.952788 166.52727-.472786 166.65595-.051234Z"/>
<use data-text="&#x1d446;" xlink:href="#font_1_1" transform="matrix(21.668686,0,0,-21.668816,52.632036,67.70419)"/>
<use data-text="&#x1d461;" xlink:href="#font_1_2" transform="matrix(15.168086,0,0,-15.168176,63.460428,72.03558)"/>
<use data-text="&#x1d434;" xlink:href="#font_1_3" transform="matrix(21.668692,0,0,-21.668652,113.63514,67.72589)"/>
<use data-text="&#x1d461;" xlink:href="#font_1_2" transform="matrix(15.168089,0,0,-15.16806,126.867458,72.057239)"/>
<use data-text="&#x1d44c;" xlink:href="#font_1_4" transform="matrix(21.668826,0,0,-21.668709,175.33127,67.40103)"/>
<use data-text="&#x1d461;" xlink:href="#font_1_2" transform="matrix(15.168182,0,0,-15.1681,187.37253,71.73239)"/>
<use data-text="&#x0302;" xlink:href="#font_1_5" transform="matrix(21.668677,0,0,-18.418484,251.061,65.868747)"/>
<use data-text="&#x1d446;" xlink:href="#font_1_1" transform="matrix(21.668677,0,0,-21.668816,237.43888,71.29381)"/>
<use data-text="&#x1d461;" xlink:href="#font_1_2" transform="matrix(15.168079,0,0,-15.168176,248.57047,75.62518)"/>
<use data-text="&#x1d446;" xlink:href="#font_1_1" transform="matrix(21.6687,0,0,-21.668816,289.07746,67.70419)"/>
<use data-text="&#x1d461;" xlink:href="#font_1_2" transform="matrix(15.168094,0,0,-15.168176,299.90586,72.03558)"/>
<use data-text="+" xlink:href="#font_1_6" transform="matrix(15.168094,0,0,-15.168176,306.26933,72.03558)"/>
<use data-text="1" xlink:href="#font_1_7" transform="matrix(15.168094,0,0,-15.168176,317.123,72.03558)"/>
<path transform="matrix(1.5,0,0,-1.5,60.80522,46.734415)" stroke-width=".725" stroke-linecap="round" stroke-linejoin="round" fill="none" stroke="#333333" d="M-20.38559-30.651183C-20.716805-13.671547-20.47994 3.588567-20.424834 20.510989"/>
<path transform="matrix(1.5,0,0,-1.5,60.80522,46.734415)" stroke-width=".725" stroke-linecap="round" stroke-linejoin="round" fill="none" stroke="#333333" d="M143.91613-30.780928C144.00553-13.747188 143.86803 3.518034 143.79663 20.418375"/>
<path transform="matrix(1.5,0,0,-1.5,60.80522,46.734415)" stroke-width=".725" stroke-linecap="round" stroke-linejoin="round" fill="none" stroke="#333333" d="M61.695768-30.974055C61.625947-18.34121 61.73021-5.997799 61.79516 6.098664"/>
<path transform="matrix(1.5,0,0,-1.5,60.80522,46.734415)" stroke-width=".725" stroke-linecap="round" stroke-linejoin="round" fill="none" stroke="#333333" d="M143.97527 10.164955C88.92508 10.416683 34.40305 10.188368-20.567284 10.277575"/>
<path transform="matrix(1.5,0,0,-1.5,60.80522,46.734415)" stroke-width=".725" stroke-linecap="round" stroke-linejoin="round" fill="none" stroke="#333333" d="M138.32451 8.070735C139.95975 9.187641 142.02764 10.038829 143.92653 10.426993 141.87674 10.73427 140.01502 11.449227 138.4023 12.356958"/>
<path transform="matrix(1.5,0,0,-1.5,60.80522,46.734415)" stroke-width=".725" stroke-linecap="round" stroke-linejoin="round" fill="none" stroke="#333333" d="M-15.309635 12.426295C-16.915112 11.298136-18.755803 10.618888-20.458729 10.369383-18.566004 10.113999-16.691559 9.308557-15.215321 7.905646"/>
<use data-text="T" xlink:href="#font_2_1" transform="matrix(21.668818,0,0,-21.668807,124.42703,24.55806)" fill="#333333"/>
<use data-text="i" xlink:href="#font_2_2" transform="matrix(21.668818,0,0,-21.668807,137.23352,24.55806)" fill="#333333"/>
<use data-text="m" xlink:href="#font_2_3" transform="matrix(21.668818,0,0,-21.668807,143.25746,24.55806)" fill="#333333"/>
<use data-text="e" xlink:href="#font_2_4" transform="matrix(21.668818,0,0,-21.668807,160.11579,24.55806)" fill="#333333"/>
<use data-text=" " xlink:href="#font_2_5" transform="matrix(21.668818,0,0,-21.668807,169.73676,24.55806)" fill="#333333"/>
<use data-text="&#x1d461;" xlink:href="#font_1_8" transform="matrix(21.668818,0,0,-21.668807,175.12587,24.55806)" fill="#333333"/>
<path transform="matrix(1.5,0,0,-1.5,60.80522,46.734415)" stroke-width=".725" stroke-linecap="round" stroke-linejoin="round" fill="none" stroke="#333333" d="M61.819074-22.524113C34.222738-22.471192 6.983959-22.486962-20.72939-22.649388"/>
<path transform="matrix(1.5,0,0,-1.5,60.80522,46.734415)" stroke-width=".725" stroke-linecap="round" stroke-linejoin="round" fill="none" stroke="#333333" d="M56.273927-24.69168C58.004568-23.630528 59.821287-22.955609 61.532747-22.427525 59.55175-22.411713 57.86925-21.652285 56.13245-20.528136"/>
<path transform="matrix(1.5,0,0,-1.5,60.80522,46.734415)" stroke-width=".725" stroke-linecap="round" stroke-linejoin="round" fill="none" stroke="#333333" d="M-15.033427-20.471798C-16.956988-21.573008-18.65884-22.283267-20.564976-22.594847-18.495099-22.789046-16.91673-23.626986-15.258463-24.904686"/>
<path transform="matrix(1.5,0,0,-1.5,60.80522,46.734415)" stroke-width=".725" stroke-linecap="round" stroke-linejoin="round" fill="none" stroke="#333333" d="M144.01966-22.513283C116.5607-22.441885 88.88683-22.584454 61.491018-22.638697"/>
<path transform="matrix(1.5,0,0,-1.5,60.80522,46.734415)" stroke-width=".725" stroke-linecap="round" stroke-linejoin="round" fill="none" stroke="#333333" d="M138.61226-24.843102C140.17636-23.607344 141.97229-22.845288 143.88007-22.579297 141.99341-22.239293 140.08075-21.50653 138.65384-20.33583"/>
<path transform="matrix(1.5,0,0,-1.5,60.80522,46.734415)" stroke-width=".725" stroke-linecap="round" stroke-linejoin="round" fill="none" stroke="#333333" d="M67.11119-20.289647C65.36486-21.62994 63.41943-22.239489 61.693929-22.78333 63.693-22.970982 65.40336-23.530486 66.87319-24.80182"/>
<use data-text="&#x1d461;" xlink:href="#font_1_8" transform="matrix(21.668597,0,0,-21.668715,65.02987,101.8082)" fill="#333333"/>
<use data-text="|" xlink:href="#font_1_9" transform="matrix(21.668597,0,0,-21.668715,72.04984,101.8082)" fill="#333333"/>
<use data-text="&#x1d461;" xlink:href="#font_1_8" transform="matrix(21.668597,0,0,-21.668715,76.47024,101.8082)" fill="#333333"/>
<use data-text="&#x2212;" xlink:href="#font_1_10" transform="matrix(21.668597,0,0,-21.668715,88.305629,101.8082)" fill="#333333"/>
<use data-text="1" xlink:href="#font_1_11" transform="matrix(21.668597,0,0,-21.668715,107.422107,101.8082)" fill="#333333"/>
<use data-text="&#x1d461;" xlink:href="#font_1_8" transform="matrix(21.668782,0,0,-21.66879,205.71154,101.24512)" fill="#333333"/>
<use data-text="|" xlink:href="#font_1_9" transform="matrix(21.668782,0,0,-21.66879,212.73155,101.24512)" fill="#333333"/>
<use data-text="&#x1d461;" xlink:href="#font_1_8" transform="matrix(21.668782,0,0,-21.66879,217.152,101.24512)" fill="#333333"/>
</svg>
