<svg xmlns="http://www.w3.org/2000/svg" xmlns:xlink="http://www.w3.org/1999/xlink" version="1.1" width="844.845pt" height="146.207pt" viewBox="0 0 844.845 146.207">
<defs>
<path id="font_3_4" d="M.644989 .69506838C.644989 .69807437 .6429901 .7050781 .6339874 .7050781 .6289978 .7050781 .6279907 .70407107 .6159973 .6900635L.56799319 .6330414C.5419922 .68006899 .48999024 .7050781 .4249878 .7050781 .2979889 .7050781 .17799378 .58999636 .17799378 .4689026 .17799378 .38783265 .23098755 .34179688 .28199769 .32678224L.3889923 .2987671C.42599488 .2897644 .48098756 .27474977 .48098756 .19267273 .48098756 .1026001 .39898683 .008529663 .30099488 .008529663 .23699951 .008529663 .12599182 .030548096 .12599182 .15464783 .12599182 .17866516 .1309967 .2026825 .13198853 .20869446 .1329956 .21269226 .13398743 .21369934 .13398743 .21569824 .13398743 .22570801 .1269989 .22669983 .12199402 .22669983 .116989139 .22669983 .114990238 .22570801 .11199951 .22270203 .10798645 .21870423 .051986696-.009475708 .051986696-.012466431 .051986696-.018463135 .056991579-.022460938 .06298828-.022460938 .067993167-.022460938 .068984989-.021469117 .08099365-.007461548L.12998963 .049560548C.17298889-.008468628 .24099732-.022460938 .29899598-.022460938 .43499757-.022460938 .5529938 .11061096 .5529938 .2347107 .5529938 .30377198 .5189972 .33779908 .5039978 .35180665 .48098756 .37483216 .46598817 .37882997 .3769989 .40185548 .35499574 .40785218 .31900025 .41786195 .30999757 .41986085 .2829895 .42886354 .24899292 .457901 .24899292 .51094058 .24899292 .59199526 .32899476 .677063 .42399598 .677063 .5069885 .677063 .56799319 .6340332 .56799319 .52194216 .56799319 .48991395 .56399539 .47190858 .56399539 .4658966 .56399539 .4649048 .56399539 .45588685 .57598879 .45588685 .58599856 .45588685 .58699038 .45889283 .59098818 .47590638L.644989 .69506838Z"/>
<path id="font_4_8" d="M.68699648 .32714845C.70199587 .32714845 .72099307 .32714845 .72099307 .34713746 .72099307 .36714173 .70199587 .36714173 .6879883 .36714173H.08898926C.07499695 .36714173 .055999757 .36714173 .055999757 .34713746 .055999757 .32714845 .07499695 .32714845 .08999634 .32714845H.68699648M.6879883 .13284302C.70199587 .13284302 .72099307 .13284302 .72099307 .15284729 .72099307 .17285156 .70199587 .17285156 .68699648 .17285156H.08999634C.07499695 .17285156 .055999757 .17285156 .055999757 .15284729 .055999757 .13284302 .07499695 .13284302 .08898926 .13284302H.6879883Z"/>
<path id="font_4_4" d="M.2939911 .64004519C.2939911 .66400149 .2939911 .6660156 .2709961 .6660156 .20899964 .60227969 .12098694 .60227969 .08898926 .60227969V.57128909C.10899353 .57128909 .16799927 .57128909 .21998596 .5972748V.07902527C.21998596 .042999269 .21699524 .0309906 .1269989 .0309906H.09498596V0C.12998963 .0029907227 .21699524 .0029907227 .25698854 .0029907227 .29699708 .0029907227 .38398744 .0029907227 .4189911 0V.0309906H.3869934C.29699708 .0309906 .2939911 .041992189 .2939911 .07902527V.64004519Z"/>
<path id="font_4_5" d="M.1269989 .07699585 .23298645 .18003845C.3889923 .31811524 .44898988 .3721466 .44898988 .47216798 .44898988 .5860901 .35899354 .6660156 .23699951 .6660156 .12399292 .6660156 .049987794 .57411196 .049987794 .48516847 .049987794 .4291687 .099990848 .4291687 .102996829 .4291687 .11999512 .4291687 .15499878 .44117738 .15499878 .48217774 .15499878 .5081787 .13699341 .5341797 .101989749 .5341797 .09399414 .5341797 .09199524 .5341797 .08898926 .5331726 .11199951 .59806826 .1659851 .63500979 .22399903 .63500979 .31498719 .63500979 .35798646 .5541382 .35798646 .47216798 .35798646 .39215089 .30799867 .31311036 .25299073 .25108338L.06098938 .036987306C.049987794 .025985718 .049987794 .023986817 .049987794 0H.42099L.44898988 .17404175H.42399598C.4189911 .14402771 .4119873 .1000061 .4019928 .084991458 .394989 .07699585 .32899476 .07699585 .30699159 .07699585H.1269989Z"/>
<path id="font_4_6" d="M.2899933 .35191346C.37199403 .37893678 .42999269 .4490509 .42999269 .52809146 .42999269 .6100464 .34199525 .6660156 .24598694 .6660156 .14498902 .6660156 .068984989 .60606387 .068984989 .53009036 .068984989 .49710084 .09098816 .47808839 .11999512 .47808839 .15098572 .47808839 .17098999 .50009158 .17098999 .5290985 .17098999 .57910159 .12399292 .57910159 .10899353 .57910159 .13999939 .62802127 .20599365 .64100649 .24198914 .64100649 .2829895 .64100649 .33799745 .6190338 .33799745 .5290985 .33799745 .51708987 .33599855 .45906068 .30999757 .4149933 .27999879 .36691285 .24598694 .36390687 .22099304 .36291505 .21299744 .36190797 .18899536 .35990907 .18199158 .35990907 .17399597 .35890199 .16699219 .35791017 .16699219 .3479004 .16699219 .33691407 .17399597 .33691407 .19099427 .33691407H.23498535C.31698609 .33691407 .35398866 .2686615 .35398866 .17037964 .35398866 .034469606 .2849884 .0055389406 .24099732 .0055389406 .19799805 .0055389406 .12298584 .022491456 .08799744 .08137512 .12298584 .07637024 .1539917 .09837341 .1539917 .1363678 .1539917 .17237854 .1269989 .19238281 .09799194 .19238281 .07398987 .19238281 .041992189 .17837525 .041992189 .1343689 .041992189 .043441774 .1349945-.022460938 .24398804-.022460938 .3659973-.022460938 .45700074 .06838989 .45700074 .17037964 .45700074 .252594 .3939972 .33088685 .2899933 .35191346Z"/>
<path id="font_4_7" d="M.2939911 .16503906V.07800293C.2939911 .041992189 .2919922 .0309906 .21798706 .0309906H.19699097V0C.23799134 .0029907227 .2899933 .0029907227 .33198548 .0029907227 .37399293 .0029907227 .4269867 .0029907227 .46798707 0V.0309906H.44699098C.37298585 .0309906 .37098695 .041992189 .37098695 .07800293V.16503906H.47099305V.19602967H.37098695V.65075686C.37098695 .67074587 .37098695 .6767578 .35499574 .6767578 .34599305 .6767578 .34298707 .6767578 .33499146 .66474917L.027999878 .19602967V.16503906H.2939911M.2999878 .19602967H.055999757L.2999878 .5688019V.19602967Z"/>
<path id="font_4_9" d="M.116989139 .21801758C.116989139 .38093568 .19898987 .42323304 .2519989 .42323304 .26098634 .42323304 .32398988 .42222596 .35899354 .38594056 .31799317 .38293458 .31199647 .3529358 .31199647 .3399353 .31199647 .31393434 .32998658 .2939453 .35798646 .2939453 .38398744 .2939453 .4039917 .3109436 .4039917 .34094239 .4039917 .40911866 .32798768 .4482422 .25099183 .4482422 .12599182 .4482422 .033996583 .3399353 .033996583 .21601868 .033996583 .08816528 .1329956-.0107421879 .24899292-.0107421879 .3829956-.0107421879 .4149933 .10914612 .4149933 .119140628 .4149933 .12911988 .40499879 .12911988 .4019928 .12911988 .3929901 .12911988 .3909912 .12512207 .3889923 .119140628 .3600006 .026229859 .29499818 .014251709 .2579956 .014251709 .20498657 .014251709 .116989139 .0572052 .116989139 .21801758Z"/>
<path id="font_3_5" d="M.9169922 .5666046C.94200137 .61061099 .96598818 .64660647 1.0289917 .6516113 1.0379944 .65260317 1.0479889 .65260317 1.0479889 .6716156 1.0479889 .6756134 1.0439911 .6826172 1.0359955 .6826172 1.0119934 .6826172 .98399356 .6796112 .95899966 .6796112 .9249878 .6796112 .8880005 .6826172 .8549957 .6826172 .848999 .6826172 .83599856 .6826172 .83599856 .66360476 .83599856 .65260317 .8450012 .6516113 .8509979 .6516113 .875 .65060427 .9099884 .64260867 .9099884 .61260989 .9099884 .6016083 .9049988 .5935974 .8969879 .5796051L.6269989 .108551029 .58999636 .604599C.58898928 .6246033 .58699038 .65060427 .6599884 .6516113 .6769867 .6516113 .68699648 .6516113 .68699648 .6716156 .68699648 .6816101 .6759949 .6826172 .6719971 .6826172 .6319885 .6826172 .58999636 .6796112 .5499878 .6796112 .5269928 .6796112 .46798707 .6826172 .44499208 .6826172 .43899537 .6826172 .42599488 .6826172 .42599488 .6626129 .42599488 .6516113 .43598939 .6516113 .44999696 .6516113 .49398805 .6516113 .5009918 .6456146 .5029907 .6266022L.5089874 .54959109 .2559967 .108551029 .21798706 .6156006C.21798706 .62760928 .21798706 .65060427 .2939911 .6516113 .3039856 .6516113 .31498719 .6516113 .31498719 .6716156 .31498719 .6826172 .30299378 .6826172 .30099488 .6826172 .26098634 .6826172 .21899414 .6796112 .17799378 .6796112 .14299011 .6796112 .10699463 .6826172 .07299805 .6826172 .067993167 .6826172 .054992677 .6826172 .054992677 .66360476 .054992677 .6516113 .06399536 .6516113 .07998657 .6516113 .12998963 .6516113 .1309967 .64260867 .1329956 .61460879L.17799378 .0035247803C.1789856-.014465332 .17999268-.022460938 .19400025-.022460938 .20599365-.022460938 .20899964-.016464234 .21798706-.0014648438L.5119934 .5085907 .548996 .0035247803C.5509949-.017471314 .5529938-.022460938 .5649872-.022460938 .5779877-.022460938 .58399966-.012466431 .58898928-.0034637452L.9169922 .5666046Z"/>
<path id="font_4_1" d="M.33099366-.2400055C.33099366-.23701477 .33099366-.23500061 .31399537-.21800232 .18899536-.0920105 .15699768 .09700012 .15699768 .25 .15699768 .42399598 .19499207 .59799197 .31799317 .72299197 .33099366 .73498538 .33099366 .7369995 .33099366 .73999026 .33099366 .746994 .32699586 .75 .32099916 .75 .31098939 .75 .22099304 .6819916 .1619873 .5549927 .11099243 .44499208 .09899902 .33399964 .09899902 .25 .09899902 .17199707 .10998535 .050994874 .16499329-.06201172 .22499085-.18501282 .31098939-.25 .32099916-.25 .32699586-.25 .33099366-.24700928 .33099366-.2400055Z"/>
<path id="font_3_1" d="M.20298767 .0009918213C.20298767 .066986087 .17799378 .10598755 .13899231 .10598755 .10598755 .10598755 .085998538 .08099365 .085998538 .052993776 .085998538 .025985718 .10598755 0 .13899231 0 .15098572 0 .1639862 .0039978029 .17399597 .0129852299 .1769867 .01499939 .17799378 .015991211 .1789856 .015991211 .17999268 .015991211 .18099976 .01499939 .18099976 .0009918213 .18099976-.07316589 .1459961-.13328552 .11299133-.16635132 .101989749-.17736817 .101989749-.17936707 .101989749-.18237305 .101989749-.18936157 .10699463-.19335938 .11199951-.19335938 .12298584-.19335938 .20298767-.116256717 .20298767 .0009918213Z"/>
<path id="font_4_2" d="M.2889862 .25C.2889862 .32798768 .27799989 .44898988 .22299195 .56199648 .16299439 .68499758 .07699585 .75 .066986087 .75 .06098938 .75 .056991579 .74598696 .056991579 .73999026 .056991579 .7369995 .056991579 .73498538 .07598877 .71699526 .17399597 .6179962 .23098755 .45899964 .23098755 .25 .23098755 .07899475 .19400025-.09700012 .069992069-.2230072 .056991579-.23500061 .056991579-.23701477 .056991579-.2400055 .056991579-.2460022 .06098938-.25 .066986087-.25 .07699585-.25 .16699219-.18200684 .22599793-.055007936 .2769928 .054992677 .2889862 .16600037 .2889862 .25Z"/>
<path id="font_4_10" d="M.37998963 .055252077V-.0107421879L.5269928 .00024414063V.03125C.45700074 .03125 .44898988 .038253786 .44898988 .087265018V.69433596L.30499269 .68333438V.6523285C.375 .6523285 .3829956 .6453247 .3829956 .596344V.38035584C.35398866 .41636659 .31098939 .4423828 .25698854 .4423828 .13899231 .4423828 .033996583 .3443451 .033996583 .21531677 .033996583 .088272098 .13198853-.0107421879 .24598694-.0107421879 .30999757-.0107421879 .35499574 .023254395 .37998963 .055252077M.37998963 .323349V.118270877C.37998963 .1002655 .37998963 .0982666 .36898805 .08126831 .33898927 .0332489 .2939911 .011245728 .25099183 .011245728 .20599365 .011245728 .16999817 .037246705 .1459961 .07527161 .11999512 .11627197 .116989139 .17329407 .116989139 .21430969 .116989139 .25131227 .11898804 .31134034 .147995 .35635377 .16899109 .38735963 .20698548 .42037965 .26098634 .42037965 .29599 .42037965 .33799745 .405365 .36898805 .36035157 .37998963 .34335328 .37998963 .34135438 .37998963 .323349Z"/>
<path id="font_4_3" d="M.45999146 .31976319C.45999146 .39982606 .45498658 .47988893 .41999818 .5539398 .37399293 .65000918 .2919922 .6660156 .25 .6660156 .18998719 .6660156 .116989139 .64001467 .07598877 .54693606 .04399109 .47789 .038986207 .39982606 .038986207 .31976319 .038986207 .24472046 .042999269 .15464783 .083999637 .07859802 .1269989-.0024719239 .19999695-.022460938 .24899292-.022460938 .30299378-.022460938 .3789978-.0014648438 .4229889 .09359741 .45498658 .16265869 .45999146 .2407074 .45999146 .31976319M.24899292-.00047302247C.20999146-.00047302247 .15098572 .024551392 .1329956 .12062073 .12199402 .18066406 .12199402 .2727356 .12199402 .3317871 .12199402 .39582826 .12199402 .46188355 .12998963 .5159149 .14898682 .63500979 .22399903 .64401248 .24899292 .64401248 .28199769 .64401248 .34799195 .6259918 .36698915 .52693179 .3769989 .47088624 .3769989 .39482118 .3769989 .3317871 .3769989 .25672914 .3769989 .18867493 .3659973 .12461853 .35099793 .029556275 .2939911-.00047302247 .24899292-.00047302247Z"/>
<path id="font_3_2" d="M.1789856 .114868167C.13899231 .047973634 .099990848 .033981325 .055999757 .0309906 .04399109 .02999878 .034988405 .02999878 .034988405 .010986328 .034988405 .004989624 .039993287 0 .04798889 0 .07499695 0 .10598755 .0029907227 .13398743 .0029907227 .16699219 .0029907227 .20199585 0 .23399353 0 .23999024 0 .25299073 0 .25299073 .018997193 .25299073 .02999878 .24398804 .0309906 .23699951 .0309906 .21398926 .032989503 .18998719 .04096985 .18998719 .06593323 .18998719 .077926639 .19599915 .088897708 .20399475 .102890018L.27999879 .23068238H.5309906C.5329895 .2097168 .5469971 .07392883 .5469971 .063949588 .5469971 .033981325 .49499513 .0309906 .47499085 .0309906 .46099855 .0309906 .45098878 .0309906 .45098878 .010986328 .45098878 0 .46299745 0 .46499635 0 .5059967 0 .548996 .0029907227 .58999636 .0029907227 .61499026 .0029907227 .6779938 0 .7029877 0 .70899966 0 .72099307 0 .72099307 .019989014 .72099307 .0309906 .71099856 .0309906 .69799807 .0309906 .6359863 .0309906 .6359863 .037979127 .6329956 .06694031L.57199099 .691803C.56999209 .71180728 .56999209 .7158203 .5529938 .7158203 .5369873 .7158203 .5329895 .7088165 .5269928 .69880679L.1789856 .114868167M.29899598 .26168824 .49598695 .5917816 .5279999 .26168824H.29899598Z"/>
<path id="font_5_1" d="M.6589966 .23046875C.6759949 .23046875 .69400027 .23046875 .69400027 .25045777 .69400027 .27046205 .6759949 .27046205 .6589966 .27046205H.117996219C.100997928 .27046205 .08299255 .27046205 .08299255 .25045777 .08299255 .23046875 .100997928 .23046875 .117996219 .23046875H.6589966Z"/>
</defs>
<path transform="matrix(1,0,0,-1,432.262,15.160004)" stroke-width=".79701" stroke-linecap="butt" stroke-dasharray="2.98883,2.98883" stroke-miterlimit="10" stroke-linejoin="miter" fill="none" stroke="#000000" d="M-247.03829-65.88565H-390.76496C-392.96589-65.88565-394.75007-67.66982-394.75007-69.87076V-71.86331C-394.75007-74.06425-392.96589-75.84842-390.76496-75.84842H-247.03829C-244.83734-75.84842-243.05318-74.06425-243.05318-71.86331V-69.87076C-243.05318-67.66982-244.83734-65.88565-247.03829-65.88565ZM-394.75007-75.84842"/>
<use data-text="S" xlink:href="#font_3_4" transform="matrix(9.9626,0,0,-9.9626,100.889987,89.43)"/>
<use data-text="=" xlink:href="#font_4_8" transform="matrix(9.9626,0,0,-9.9626,110.34099,89.43)"/>
<use data-text="1" xlink:href="#font_4_4" transform="matrix(9.9626,0,0,-9.9626,120.86149,89.43)"/>
<path transform="matrix(1,0,0,-1,432.262,15.160004)" stroke-width=".79701" stroke-linecap="butt" stroke-dasharray="2.98883,2.98883" stroke-miterlimit="10" stroke-linejoin="miter" fill="none" stroke="#000000" d="M-34.43713-65.88565H-178.16379C-180.36473-65.88565-182.1489-67.66982-182.1489-69.87076V-71.86331C-182.1489-74.06425-180.36473-75.84842-178.16379-75.84842H-34.43713C-32.23619-75.84842-30.45203-74.06425-30.45203-71.86331V-69.87076C-30.45203-67.66982-32.23619-65.88565-34.43713-65.88565ZM-182.1489-75.84842"/>
<use data-text="S" xlink:href="#font_3_4" transform="matrix(9.9626,0,0,-9.9626,313.48899,89.43)"/>
<use data-text="=" xlink:href="#font_4_8" transform="matrix(9.9626,0,0,-9.9626,322.939,89.43)"/>
<use data-text="2" xlink:href="#font_4_5" transform="matrix(9.9626,0,0,-9.9626,333.4595,89.43)"/>
<path transform="matrix(1,0,0,-1,432.262,15.160004)" stroke-width=".79701" stroke-linecap="butt" stroke-dasharray="2.98883,2.98883" stroke-miterlimit="10" stroke-linejoin="miter" fill="none" stroke="#000000" d="M178.16399-65.88565H34.43733C32.23639-65.88565 30.45222-67.66982 30.45222-69.87076V-71.86331C30.45222-74.06425 32.23639-75.84842 34.43733-75.84842H178.16399C180.36493-75.84842 182.1491-74.06425 182.1491-71.86331V-69.87076C182.1491-67.66982 180.36493-65.88565 178.16399-65.88565ZM30.45222-75.84842"/>
<use data-text="S" xlink:href="#font_3_4" transform="matrix(9.9626,0,0,-9.9626,526.087,89.43)"/>
<use data-text="=" xlink:href="#font_4_8" transform="matrix(9.9626,0,0,-9.9626,535.53799,89.43)"/>
<use data-text="3" xlink:href="#font_4_6" transform="matrix(9.9626,0,0,-9.9626,546.0585,89.43)"/>
<path transform="matrix(1,0,0,-1,432.262,15.160004)" stroke-width=".79701" stroke-linecap="butt" stroke-dasharray="2.98883,2.98883" stroke-miterlimit="10" stroke-linejoin="miter" fill="none" stroke="#000000" d="M390.7651-65.88565H247.03849C244.83754-65.88565 243.05338-67.66982 243.05338-69.87076V-71.86331C243.05338-74.06425 244.83754-75.84842 247.03849-75.84842H390.7651C392.96607-75.84842 394.75025-74.06425 394.75025-71.86331V-69.87076C394.75025-67.66982 392.96607-65.88565 390.7651-65.88565ZM243.05338-75.84842"/>
<use data-text="S" xlink:href="#font_3_4" transform="matrix(9.9626,0,0,-9.9626,738.68606,89.43)"/>
<use data-text="=" xlink:href="#font_4_8" transform="matrix(9.9626,0,0,-9.9626,748.13607,89.43)"/>
<use data-text="4" xlink:href="#font_4_7" transform="matrix(9.9626,0,0,-9.9626,758.65658,89.43)"/>
<path transform="matrix(1,0,0,-1,432.262,15.160004)" d="M1.19553 0C1.19553 .66026 .66026 1.19553 0 1.19553-.66026 1.19553-1.19553 .66026-1.19553 0-1.19553-.66026-.66026-1.19553 0-1.19553 .66026-1.19553 1.19553-.66026 1.19553 0ZM0 0"/>
<path transform="matrix(1,0,0,-1,432.262,15.160004)" stroke-width=".3985" stroke-linecap="butt" stroke-miterlimit="10" stroke-linejoin="miter" fill="none" stroke="#000000" d="M1.19553 0C1.19553 .66026 .66026 1.19553 0 1.19553-.66026 1.19553-1.19553 .66026-1.19553 0-1.19553-.66026-.66026-1.19553 0-1.19553 .66026-1.19553 1.19553-.66026 1.19553 0ZM0 0"/>
<use data-text="c" xlink:href="#font_4_9" transform="matrix(9.9626,0,0,-9.9626,430.048,10.445007)"/>
<path transform="matrix(1,0,0,-1,432.262,15.160004)" stroke-width=".3985" stroke-linecap="butt" stroke-miterlimit="10" stroke-linejoin="miter" fill="none" stroke="#000000" d="M-1.17618-.21382-389.76866-70.86703"/>
<use data-text="W" xlink:href="#font_3_5" transform="matrix(9.9626,0,0,-9.9626,89.91,63.771005)"/>
<use data-text="=" xlink:href="#font_4_8" transform="matrix(9.9626,0,0,-9.9626,103.47,63.771005)"/>
<use data-text="(" xlink:href="#font_4_1" transform="matrix(9.9626,0,0,-9.9626,113.9905,63.771005)"/>
<use data-text="2" xlink:href="#font_4_5" transform="matrix(9.9626,0,0,-9.9626,117.86595,63.771005)"/>
<use data-text="," xlink:href="#font_3_1" transform="matrix(9.9626,0,0,-9.9626,122.842,63.771005)"/>
<use data-text="1" xlink:href="#font_4_4" transform="matrix(9.9626,0,0,-9.9626,127.270008,63.771005)"/>
<use data-text=")" xlink:href="#font_4_2" transform="matrix(9.9626,0,0,-9.9626,132.2513,63.771005)"/>
<path transform="matrix(1,0,0,-1,432.262,15.160004)" stroke-width=".3985" stroke-linecap="butt" stroke-miterlimit="10" stroke-linejoin="miter" fill="none" stroke="#000000" d="M-1.16698-.25932-318.9016-70.86703"/>
<use data-text="(" xlink:href="#font_4_1" transform="matrix(9.9626,0,0,-9.9626,167.138,71.574)"/>
<use data-text="3" xlink:href="#font_4_6" transform="matrix(9.9626,0,0,-9.9626,171.01346,71.574)"/>
<use data-text="," xlink:href="#font_3_1" transform="matrix(9.9626,0,0,-9.9626,175.994,71.574)"/>
<use data-text="1" xlink:href="#font_4_4" transform="matrix(9.9626,0,0,-9.9626,180.422,71.574)"/>
<use data-text=")" xlink:href="#font_4_2" transform="matrix(9.9626,0,0,-9.9626,185.40329,71.574)"/>
<path transform="matrix(1,0,0,-1,432.262,15.160004)" stroke-width=".3985" stroke-linecap="butt" stroke-miterlimit="10" stroke-linejoin="miter" fill="none" stroke="#000000" d="M-1.14948-.3284-248.03456-70.86703"/>
<use data-text="(" xlink:href="#font_4_1" transform="matrix(9.9626,0,0,-9.9626,220.29199,71.592)"/>
<use data-text="4" xlink:href="#font_4_7" transform="matrix(9.9626,0,0,-9.9626,224.16745,71.592)"/>
<use data-text="," xlink:href="#font_3_1" transform="matrix(9.9626,0,0,-9.9626,229.148,71.592)"/>
<use data-text="1" xlink:href="#font_4_4" transform="matrix(9.9626,0,0,-9.9626,233.57599,71.592)"/>
<use data-text=")" xlink:href="#font_4_2" transform="matrix(9.9626,0,0,-9.9626,238.55728,71.592)"/>
<path transform="matrix(1,0,0,-1,432.262,15.160004)" stroke-width=".3985" stroke-linecap="butt" stroke-miterlimit="10" stroke-linejoin="miter" fill="none" stroke="#000000" d="M-1.10997-.44397-177.16751-70.86703"/>
<use data-text="(" xlink:href="#font_4_1" transform="matrix(9.9626,0,0,-9.9626,273.452,71.62)"/>
<use data-text="1" xlink:href="#font_4_4" transform="matrix(9.9626,0,0,-9.9626,277.32746,71.62)"/>
<use data-text="," xlink:href="#font_3_1" transform="matrix(9.9626,0,0,-9.9626,282.307,71.62)"/>
<use data-text="2" xlink:href="#font_4_5" transform="matrix(9.9626,0,0,-9.9626,286.73503,71.62)"/>
<use data-text=")" xlink:href="#font_4_2" transform="matrix(9.9626,0,0,-9.9626,291.7163,71.62)"/>
<path transform="matrix(1,0,0,-1,432.262,15.160004)" stroke-width=".3985" stroke-linecap="butt" stroke-miterlimit="10" stroke-linejoin="miter" fill="none" stroke="#000000" d="M-.99469-.66312-106.30046-70.86703"/>
<use data-text="(" xlink:href="#font_4_1" transform="matrix(9.9626,0,0,-9.9626,326.63,71.675)"/>
<use data-text="3" xlink:href="#font_4_6" transform="matrix(9.9626,0,0,-9.9626,330.50547,71.675)"/>
<use data-text="," xlink:href="#font_3_1" transform="matrix(9.9626,0,0,-9.9626,335.486,71.675)"/>
<use data-text="2" xlink:href="#font_4_5" transform="matrix(9.9626,0,0,-9.9626,339.913,71.675)"/>
<use data-text=")" xlink:href="#font_4_2" transform="matrix(9.9626,0,0,-9.9626,344.8943,71.675)"/>
<path transform="matrix(1,0,0,-1,432.262,15.160004)" stroke-width=".3985" stroke-linecap="butt" stroke-miterlimit="10" stroke-linejoin="miter" fill="none" stroke="#000000" d="M-.5346-1.06923-35.43341-70.86703"/>
<use data-text="(" xlink:href="#font_4_1" transform="matrix(9.9626,0,0,-9.9626,379.895,71.777)"/>
<use data-text="4" xlink:href="#font_4_7" transform="matrix(9.9626,0,0,-9.9626,383.77046,71.777)"/>
<use data-text="," xlink:href="#font_3_1" transform="matrix(9.9626,0,0,-9.9626,388.75,71.777)"/>
<use data-text="2" xlink:href="#font_4_5" transform="matrix(9.9626,0,0,-9.9626,393.178,71.777)"/>
<use data-text=")" xlink:href="#font_4_2" transform="matrix(9.9626,0,0,-9.9626,398.1593,71.777)"/>
<path transform="matrix(1,0,0,-1,432.262,15.160004)" stroke-width=".3985" stroke-linecap="butt" stroke-miterlimit="10" stroke-linejoin="miter" fill="none" stroke="#000000" d="M.5346-1.06923 35.43361-70.86703"/>
<use data-text="(" xlink:href="#font_4_1" transform="matrix(9.9626,0,0,-9.9626,433.311,71.777)"/>
<use data-text="1" xlink:href="#font_4_4" transform="matrix(9.9626,0,0,-9.9626,437.18647,71.777)"/>
<use data-text="," xlink:href="#font_3_1" transform="matrix(9.9626,0,0,-9.9626,442.167,71.777)"/>
<use data-text="3" xlink:href="#font_4_6" transform="matrix(9.9626,0,0,-9.9626,446.595,71.777)"/>
<use data-text=")" xlink:href="#font_4_2" transform="matrix(9.9626,0,0,-9.9626,451.5763,71.777)"/>
<path transform="matrix(1,0,0,-1,432.262,15.160004)" stroke-width=".3985" stroke-linecap="butt" stroke-miterlimit="10" stroke-linejoin="miter" fill="none" stroke="#000000" d="M.99469-.66312 106.30066-70.86703"/>
<use data-text="(" xlink:href="#font_4_1" transform="matrix(9.9626,0,0,-9.9626,486.576,71.675)"/>
<use data-text="2" xlink:href="#font_4_5" transform="matrix(9.9626,0,0,-9.9626,490.45146,71.675)"/>
<use data-text="," xlink:href="#font_3_1" transform="matrix(9.9626,0,0,-9.9626,495.43199,71.675)"/>
<use data-text="3" xlink:href="#font_4_6" transform="matrix(9.9626,0,0,-9.9626,499.86,71.675)"/>
<use data-text=")" xlink:href="#font_4_2" transform="matrix(9.9626,0,0,-9.9626,504.84129,71.675)"/>
<path transform="matrix(1,0,0,-1,432.262,15.160004)" stroke-width=".3985" stroke-linecap="butt" stroke-miterlimit="10" stroke-linejoin="miter" fill="none" stroke="#000000" d="M1.10997-.44397 177.16771-70.86703"/>
<use data-text="(" xlink:href="#font_4_1" transform="matrix(9.9626,0,0,-9.9626,539.755,71.62)"/>
<use data-text="4" xlink:href="#font_4_7" transform="matrix(9.9626,0,0,-9.9626,543.63046,71.62)"/>
<use data-text="," xlink:href="#font_3_1" transform="matrix(9.9626,0,0,-9.9626,548.61,71.62)"/>
<use data-text="3" xlink:href="#font_4_6" transform="matrix(9.9626,0,0,-9.9626,553.03799,71.62)"/>
<use data-text=")" xlink:href="#font_4_2" transform="matrix(9.9626,0,0,-9.9626,558.0193,71.62)"/>
<path transform="matrix(1,0,0,-1,432.262,15.160004)" stroke-width=".3985" stroke-linecap="butt" stroke-miterlimit="10" stroke-linejoin="miter" fill="none" stroke="#000000" d="M1.14948-.3284 248.03476-70.86703"/>
<use data-text="(" xlink:href="#font_4_1" transform="matrix(9.9626,0,0,-9.9626,592.914,71.592)"/>
<use data-text="1" xlink:href="#font_4_4" transform="matrix(9.9626,0,0,-9.9626,596.7894,71.592)"/>
<use data-text="," xlink:href="#font_3_1" transform="matrix(9.9626,0,0,-9.9626,601.77,71.592)"/>
<use data-text="4" xlink:href="#font_4_7" transform="matrix(9.9626,0,0,-9.9626,606.198,71.592)"/>
<use data-text=")" xlink:href="#font_4_2" transform="matrix(9.9626,0,0,-9.9626,611.1793,71.592)"/>
<path transform="matrix(1,0,0,-1,432.262,15.160004)" stroke-width=".3985" stroke-linecap="butt" stroke-miterlimit="10" stroke-linejoin="miter" fill="none" stroke="#000000" d="M1.16698-.25932 318.90184-70.86703"/>
<use data-text="(" xlink:href="#font_4_1" transform="matrix(9.9626,0,0,-9.9626,646.068,71.574)"/>
<use data-text="2" xlink:href="#font_4_5" transform="matrix(9.9626,0,0,-9.9626,649.9434,71.574)"/>
<use data-text="," xlink:href="#font_3_1" transform="matrix(9.9626,0,0,-9.9626,654.924,71.574)"/>
<use data-text="4" xlink:href="#font_4_7" transform="matrix(9.9626,0,0,-9.9626,659.352,71.574)"/>
<use data-text=")" xlink:href="#font_4_2" transform="matrix(9.9626,0,0,-9.9626,664.3333,71.574)"/>
<path transform="matrix(1,0,0,-1,432.262,15.160004)" stroke-width=".3985" stroke-linecap="butt" stroke-miterlimit="10" stroke-linejoin="miter" fill="none" stroke="#000000" d="M1.17618-.21382 389.76884-70.86703"/>
<use data-text="(" xlink:href="#font_4_1" transform="matrix(9.9626,0,0,-9.9626,699.22,71.563)"/>
<use data-text="3" xlink:href="#font_4_6" transform="matrix(9.9626,0,0,-9.9626,703.0954,71.563)"/>
<use data-text="," xlink:href="#font_3_1" transform="matrix(9.9626,0,0,-9.9626,708.076,71.563)"/>
<use data-text="4" xlink:href="#font_4_7" transform="matrix(9.9626,0,0,-9.9626,712.503,71.563)"/>
<use data-text=")" xlink:href="#font_4_2" transform="matrix(9.9626,0,0,-9.9626,717.4843,71.563)"/>
<path transform="matrix(1,0,0,-1,432.262,15.160004)" d="M-388.57313-70.86703C-388.57313-70.20677-389.10838-69.67151-389.76866-69.67151-390.42893-69.67151-390.9642-70.20677-390.9642-70.86703-390.9642-71.52731-390.42893-72.06258-389.76866-72.06258-389.10838-72.06258-388.57313-71.52731-388.57313-70.86703ZM-389.76866-70.86703"/>
<path transform="matrix(1,0,0,-1,432.262,15.160004)" stroke-width=".3985" stroke-linecap="butt" stroke-miterlimit="10" stroke-linejoin="miter" fill="none" stroke="#000000" d="M-388.57313-70.86703C-388.57313-70.20677-389.10838-69.67151-389.76866-69.67151-390.42893-69.67151-390.9642-70.20677-390.9642-70.86703-390.9642-71.52731-390.42893-72.06258-389.76866-72.06258-389.10838-72.06258-388.57313-71.52731-388.57313-70.86703ZM-389.76866-70.86703"/>
<use data-text="d" xlink:href="#font_4_10" transform="matrix(9.9626,0,0,-9.9626,39.730989,81.311)"/>
<path transform="matrix(1,0,0,-1,432.262,15.160004)" d="M-402.7465-113.38727C-402.7465-112.72699-403.28178-112.19173-403.94203-112.19173-404.6023-112.19173-405.13758-112.72699-405.13758-113.38727-405.13758-114.04753-404.6023-114.5828-403.94203-114.5828-403.28178-114.5828-402.7465-114.04753-402.7465-113.38727ZM-403.94203-113.38727"/>
<path transform="matrix(1,0,0,-1,432.262,15.160004)" stroke-width=".3985" stroke-linecap="butt" stroke-miterlimit="10" stroke-linejoin="miter" fill="none" stroke="#000000" d="M-402.7465-113.38727C-402.7465-112.72699-403.28178-112.19173-403.94203-112.19173-404.6023-112.19173-405.13758-112.72699-405.13758-113.38727-405.13758-114.04753-404.6023-114.5828-403.94203-114.5828-403.28178-114.5828-402.7465-114.04753-402.7465-113.38727ZM-403.94203-113.38727"/>
<path transform="matrix(1,0,0,-1,432.262,15.160004)" stroke-width="8.76709" stroke-linecap="butt" stroke-miterlimit="10" stroke-linejoin="miter" fill="none" stroke="#fff799" d="M-390.14668-72.00116-403.564-112.25314"/>
<path transform="matrix(1,0,0,-1,432.262,15.160004)" stroke-width="7.9701" stroke-linecap="butt" stroke-miterlimit="10" stroke-linejoin="miter" fill="none" stroke="#fff799" d="M-390.14668-72.00116-403.564-112.25314"/>
<path transform="matrix(1,0,0,-1,432.262,15.160004)" stroke-width=".3985" stroke-linecap="butt" stroke-miterlimit="10" stroke-linejoin="miter" fill="none" stroke="#000000" d="M-390.14668-72.00116-403.564-112.25314"/>
<use data-text="0" xlink:href="#font_4_3" transform="matrix(9.9626,0,0,-9.9626,25.834992,139.22101)"/>
<use data-text="A" xlink:href="#font_3_2" transform="matrix(9.9626,0,0,-9.9626,6.154999,110.154)"/>
<use data-text="=" xlink:href="#font_4_8" transform="matrix(9.9626,0,0,-9.9626,16.394999,110.154)"/>
<use data-text="0" xlink:href="#font_4_3" transform="matrix(9.9626,0,0,-9.9626,26.915507,110.154)"/>
<path transform="matrix(1,0,0,-1,432.262,15.160004)" d="M-374.3997-113.38727C-374.3997-112.72699-374.93495-112.19173-375.5952-112.19173-376.2555-112.19173-376.79078-112.72699-376.79078-113.38727-376.79078-114.04753-376.2555-114.5828-375.5952-114.5828-374.93495-114.5828-374.3997-114.04753-374.3997-113.38727ZM-375.5952-113.38727"/>
<path transform="matrix(1,0,0,-1,432.262,15.160004)" stroke-width=".3985" stroke-linecap="butt" stroke-miterlimit="10" stroke-linejoin="miter" fill="none" stroke="#000000" d="M-374.3997-113.38727C-374.3997-112.72699-374.93495-112.19173-375.5952-112.19173-376.2555-112.19173-376.79078-112.72699-376.79078-113.38727-376.79078-114.04753-376.2555-114.5828-375.5952-114.5828-374.93495-114.5828-374.3997-114.04753-374.3997-113.38727ZM-375.5952-113.38727"/>
<path transform="matrix(1,0,0,-1,432.262,15.160004)" stroke-width=".3985" stroke-linecap="butt" stroke-miterlimit="10" stroke-linejoin="miter" fill="none" stroke="#000000" d="M-389.39064-72.00116-375.97325-112.25314"/>
<use data-text="&#x2212;" xlink:href="#font_5_1" transform="matrix(9.9626,0,0,-9.9626,50.307008,139.22101)"/>
<use data-text="1" xlink:href="#font_4_4" transform="matrix(9.9626,0,0,-9.9626,58.055009,139.22101)"/>
<use data-text="1" xlink:href="#font_4_4" transform="matrix(9.9626,0,0,-9.9626,41.083986,109.96)"/>
<path transform="matrix(1,0,0,-1,432.262,15.160004)" d="M-317.7061-70.86703C-317.7061-70.20677-318.24134-69.67151-318.9016-69.67151-319.56187-69.67151-320.09715-70.20677-320.09715-70.86703-320.09715-71.52731-319.56187-72.06258-318.9016-72.06258-318.24134-72.06258-317.7061-71.52731-317.7061-70.86703ZM-318.9016-70.86703"/>
<path transform="matrix(1,0,0,-1,432.262,15.160004)" stroke-width=".3985" stroke-linecap="butt" stroke-miterlimit="10" stroke-linejoin="miter" fill="none" stroke="#000000" d="M-317.7061-70.86703C-317.7061-70.20677-318.24134-69.67151-318.9016-69.67151-319.56187-69.67151-320.09715-70.20677-320.09715-70.86703-320.09715-71.52731-319.56187-72.06258-318.9016-72.06258-318.24134-72.06258-317.7061-71.52731-317.7061-70.86703ZM-318.9016-70.86703"/>
<use data-text="d" xlink:href="#font_4_10" transform="matrix(9.9626,0,0,-9.9626,110.596988,81.311)"/>
<path transform="matrix(1,0,0,-1,432.262,15.160004)" d="M-331.87947-113.38727C-331.87947-112.72699-332.41474-112.19173-333.07499-112.19173-333.73527-112.19173-334.2705-112.72699-334.2705-113.38727-334.2705-114.04753-333.73527-114.5828-333.07499-114.5828-332.41474-114.5828-331.87947-114.04753-331.87947-113.38727ZM-333.07499-113.38727"/>
<path transform="matrix(1,0,0,-1,432.262,15.160004)" stroke-width=".3985" stroke-linecap="butt" stroke-miterlimit="10" stroke-linejoin="miter" fill="none" stroke="#000000" d="M-331.87947-113.38727C-331.87947-112.72699-332.41474-112.19173-333.07499-112.19173-333.73527-112.19173-334.2705-112.72699-334.2705-113.38727-334.2705-114.04753-333.73527-114.5828-333.07499-114.5828-332.41474-114.5828-331.87947-114.04753-331.87947-113.38727ZM-333.07499-113.38727"/>
<path transform="matrix(1,0,0,-1,432.262,15.160004)" stroke-width="8.76709" stroke-linecap="butt" stroke-miterlimit="10" stroke-linejoin="miter" fill="none" stroke="#fff799" d="M-319.27964-72.00116-332.69697-112.25314"/>
<path transform="matrix(1,0,0,-1,432.262,15.160004)" stroke-width="7.9701" stroke-linecap="butt" stroke-miterlimit="10" stroke-linejoin="miter" fill="none" stroke="#fff799" d="M-319.27964-72.00116-332.69697-112.25314"/>
<path transform="matrix(1,0,0,-1,432.262,15.160004)" stroke-width=".3985" stroke-linecap="butt" stroke-miterlimit="10" stroke-linejoin="miter" fill="none" stroke="#000000" d="M-319.27964-72.00116-332.69697-112.25314"/>
<use data-text="0" xlink:href="#font_4_3" transform="matrix(9.9626,0,0,-9.9626,96.70099,139.22101)"/>
<use data-text="0" xlink:href="#font_4_3" transform="matrix(9.9626,0,0,-9.9626,97.77701,109.96)"/>
<path transform="matrix(1,0,0,-1,432.262,15.160004)" d="M-303.53266-113.38727C-303.53266-112.72699-304.06794-112.19173-304.72819-112.19173-305.38844-112.19173-305.9237-112.72699-305.9237-113.38727-305.9237-114.04753-305.38844-114.5828-304.72819-114.5828-304.06794-114.5828-303.53266-114.04753-303.53266-113.38727ZM-304.72819-113.38727"/>
<path transform="matrix(1,0,0,-1,432.262,15.160004)" stroke-width=".3985" stroke-linecap="butt" stroke-miterlimit="10" stroke-linejoin="miter" fill="none" stroke="#000000" d="M-303.53266-113.38727C-303.53266-112.72699-304.06794-112.19173-304.72819-112.19173-305.38844-112.19173-305.9237-112.72699-305.9237-113.38727-305.9237-114.04753-305.38844-114.5828-304.72819-114.5828-304.06794-114.5828-303.53266-114.04753-303.53266-113.38727ZM-304.72819-113.38727"/>
<path transform="matrix(1,0,0,-1,432.262,15.160004)" stroke-width=".3985" stroke-linecap="butt" stroke-miterlimit="10" stroke-linejoin="miter" fill="none" stroke="#000000" d="M-318.52357-72.00116-305.1062-112.25314"/>
<use data-text="&#x2212;" xlink:href="#font_5_1" transform="matrix(9.9626,0,0,-9.9626,121.173007,139.22101)"/>
<use data-text="1" xlink:href="#font_4_4" transform="matrix(9.9626,0,0,-9.9626,128.92099,139.22101)"/>
<use data-text="1" xlink:href="#font_4_4" transform="matrix(9.9626,0,0,-9.9626,111.94998,109.96)"/>
<path transform="matrix(1,0,0,-1,432.262,15.160004)" d="M-246.83904-70.86703C-246.83904-70.20677-247.3743-69.67151-248.03456-69.67151-248.69483-69.67151-249.23009-70.20677-249.23009-70.86703-249.23009-71.52731-248.69483-72.06258-248.03456-72.06258-247.3743-72.06258-246.83904-71.52731-246.83904-70.86703ZM-248.03456-70.86703"/>
<path transform="matrix(1,0,0,-1,432.262,15.160004)" stroke-width=".3985" stroke-linecap="butt" stroke-miterlimit="10" stroke-linejoin="miter" fill="none" stroke="#000000" d="M-246.83904-70.86703C-246.83904-70.20677-247.3743-69.67151-248.03456-69.67151-248.69483-69.67151-249.23009-70.20677-249.23009-70.86703-249.23009-71.52731-248.69483-72.06258-248.03456-72.06258-247.3743-72.06258-246.83904-71.52731-246.83904-70.86703ZM-248.03456-70.86703"/>
<use data-text="d" xlink:href="#font_4_10" transform="matrix(9.9626,0,0,-9.9626,181.463,81.311)"/>
<path transform="matrix(1,0,0,-1,432.262,15.160004)" d="M-261.0124-113.38727C-261.0124-112.72699-261.54768-112.19173-262.20796-112.19173-262.86824-112.19173-263.40348-112.72699-263.40348-113.38727-263.40348-114.04753-262.86824-114.5828-262.20796-114.5828-261.54768-114.5828-261.0124-114.04753-261.0124-113.38727ZM-262.20796-113.38727"/>
<path transform="matrix(1,0,0,-1,432.262,15.160004)" stroke-width=".3985" stroke-linecap="butt" stroke-miterlimit="10" stroke-linejoin="miter" fill="none" stroke="#000000" d="M-261.0124-113.38727C-261.0124-112.72699-261.54768-112.19173-262.20796-112.19173-262.86824-112.19173-263.40348-112.72699-263.40348-113.38727-263.40348-114.04753-262.86824-114.5828-262.20796-114.5828-261.54768-114.5828-261.0124-114.04753-261.0124-113.38727ZM-262.20796-113.38727"/>
<path transform="matrix(1,0,0,-1,432.262,15.160004)" stroke-width="8.76709" stroke-linecap="butt" stroke-miterlimit="10" stroke-linejoin="miter" fill="none" stroke="#fff799" d="M-248.41259-72.00116-261.8299-112.25314"/>
<path transform="matrix(1,0,0,-1,432.262,15.160004)" stroke-width="7.9701" stroke-linecap="butt" stroke-miterlimit="10" stroke-linejoin="miter" fill="none" stroke="#fff799" d="M-248.41259-72.00116-261.8299-112.25314"/>
<path transform="matrix(1,0,0,-1,432.262,15.160004)" stroke-width=".3985" stroke-linecap="butt" stroke-miterlimit="10" stroke-linejoin="miter" fill="none" stroke="#000000" d="M-248.41259-72.00116-261.8299-112.25314"/>
<use data-text="0" xlink:href="#font_4_3" transform="matrix(9.9626,0,0,-9.9626,167.56699,139.22101)"/>
<use data-text="0" xlink:href="#font_4_3" transform="matrix(9.9626,0,0,-9.9626,168.643,109.96)"/>
<path transform="matrix(1,0,0,-1,432.262,15.160004)" d="M-232.6656-113.38727C-232.6656-112.72699-233.20087-112.19173-233.86113-112.19173-234.5214-112.19173-235.05666-112.72699-235.05666-113.38727-235.05666-114.04753-234.5214-114.5828-233.86113-114.5828-233.20087-114.5828-232.6656-114.04753-232.6656-113.38727ZM-233.86113-113.38727"/>
<path transform="matrix(1,0,0,-1,432.262,15.160004)" stroke-width=".3985" stroke-linecap="butt" stroke-miterlimit="10" stroke-linejoin="miter" fill="none" stroke="#000000" d="M-232.6656-113.38727C-232.6656-112.72699-233.20087-112.19173-233.86113-112.19173-234.5214-112.19173-235.05666-112.72699-235.05666-113.38727-235.05666-114.04753-234.5214-114.5828-233.86113-114.5828-233.20087-114.5828-232.6656-114.04753-232.6656-113.38727ZM-233.86113-113.38727"/>
<path transform="matrix(1,0,0,-1,432.262,15.160004)" stroke-width=".3985" stroke-linecap="butt" stroke-miterlimit="10" stroke-linejoin="miter" fill="none" stroke="#000000" d="M-247.65653-72.00116-234.23917-112.25314"/>
<use data-text="&#x2212;" xlink:href="#font_5_1" transform="matrix(9.9626,0,0,-9.9626,192.03899,139.22101)"/>
<use data-text="1" xlink:href="#font_4_4" transform="matrix(9.9626,0,0,-9.9626,199.78798,139.22101)"/>
<use data-text="1" xlink:href="#font_4_4" transform="matrix(9.9626,0,0,-9.9626,182.816,109.96)"/>
<path transform="matrix(1,0,0,-1,432.262,15.160004)" d="M-175.97199-70.86703C-175.97199-70.20677-176.50725-69.67151-177.16751-69.67151-177.82778-69.67151-178.36304-70.20677-178.36304-70.86703-178.36304-71.52731-177.82778-72.06258-177.16751-72.06258-176.50725-72.06258-175.97199-71.52731-175.97199-70.86703ZM-177.16751-70.86703"/>
<path transform="matrix(1,0,0,-1,432.262,15.160004)" stroke-width=".3985" stroke-linecap="butt" stroke-miterlimit="10" stroke-linejoin="miter" fill="none" stroke="#000000" d="M-175.97199-70.86703C-175.97199-70.20677-176.50725-69.67151-177.16751-69.67151-177.82778-69.67151-178.36304-70.20677-178.36304-70.86703-178.36304-71.52731-177.82778-72.06258-177.16751-72.06258-176.50725-72.06258-175.97199-71.52731-175.97199-70.86703ZM-177.16751-70.86703"/>
<use data-text="d" xlink:href="#font_4_10" transform="matrix(9.9626,0,0,-9.9626,252.329,81.311)"/>
<path transform="matrix(1,0,0,-1,432.262,15.160004)" d="M-190.14537-113.38727C-190.14537-112.72699-190.68064-112.19173-191.3409-112.19173-192.00116-112.19173-192.53643-112.72699-192.53643-113.38727-192.53643-114.04753-192.00116-114.5828-191.3409-114.5828-190.68064-114.5828-190.14537-114.04753-190.14537-113.38727ZM-191.3409-113.38727"/>
<path transform="matrix(1,0,0,-1,432.262,15.160004)" stroke-width=".3985" stroke-linecap="butt" stroke-miterlimit="10" stroke-linejoin="miter" fill="none" stroke="#000000" d="M-190.14537-113.38727C-190.14537-112.72699-190.68064-112.19173-191.3409-112.19173-192.00116-112.19173-192.53643-112.72699-192.53643-113.38727-192.53643-114.04753-192.00116-114.5828-191.3409-114.5828-190.68064-114.5828-190.14537-114.04753-190.14537-113.38727ZM-191.3409-113.38727"/>
<path transform="matrix(1,0,0,-1,432.262,15.160004)" stroke-width="8.76709" stroke-linecap="butt" stroke-miterlimit="10" stroke-linejoin="miter" fill="none" stroke="#fff799" d="M-177.54553-72.00116-190.96286-112.25314"/>
<path transform="matrix(1,0,0,-1,432.262,15.160004)" stroke-width="7.9701" stroke-linecap="butt" stroke-miterlimit="10" stroke-linejoin="miter" fill="none" stroke="#fff799" d="M-177.54553-72.00116-190.96286-112.25314"/>
<path transform="matrix(1,0,0,-1,432.262,15.160004)" stroke-width=".3985" stroke-linecap="butt" stroke-miterlimit="10" stroke-linejoin="miter" fill="none" stroke="#000000" d="M-177.54553-72.00116-190.96286-112.25314"/>
<use data-text="0" xlink:href="#font_4_3" transform="matrix(9.9626,0,0,-9.9626,238.433,139.22101)"/>
<use data-text="0" xlink:href="#font_4_3" transform="matrix(9.9626,0,0,-9.9626,239.50899,109.96)"/>
<path transform="matrix(1,0,0,-1,432.262,15.160004)" d="M-161.79856-113.38727C-161.79856-112.72699-162.33382-112.19173-162.99408-112.19173-163.65436-112.19173-164.18962-112.72699-164.18962-113.38727-164.18962-114.04753-163.65436-114.5828-162.99408-114.5828-162.33382-114.5828-161.79856-114.04753-161.79856-113.38727ZM-162.99408-113.38727"/>
<path transform="matrix(1,0,0,-1,432.262,15.160004)" stroke-width=".3985" stroke-linecap="butt" stroke-miterlimit="10" stroke-linejoin="miter" fill="none" stroke="#000000" d="M-161.79856-113.38727C-161.79856-112.72699-162.33382-112.19173-162.99408-112.19173-163.65436-112.19173-164.18962-112.72699-164.18962-113.38727-164.18962-114.04753-163.65436-114.5828-162.99408-114.5828-162.33382-114.5828-161.79856-114.04753-161.79856-113.38727ZM-162.99408-113.38727"/>
<path transform="matrix(1,0,0,-1,432.262,15.160004)" stroke-width=".3985" stroke-linecap="butt" stroke-miterlimit="10" stroke-linejoin="miter" fill="none" stroke="#000000" d="M-176.78949-72.00116-163.37212-112.25314"/>
<use data-text="1" xlink:href="#font_4_4" transform="matrix(9.9626,0,0,-9.9626,266.779,139.22101)"/>
<use data-text="1" xlink:href="#font_4_4" transform="matrix(9.9626,0,0,-9.9626,253.68199,109.96)"/>
<path transform="matrix(1,0,0,-1,432.262,15.160004)" d="M-105.10493-70.86703C-105.10493-70.20677-105.6402-69.67151-106.30046-69.67151-106.96074-69.67151-107.49599-70.20677-107.49599-70.86703-107.49599-71.52731-106.96074-72.06258-106.30046-72.06258-105.6402-72.06258-105.10493-71.52731-105.10493-70.86703ZM-106.30046-70.86703"/>
<path transform="matrix(1,0,0,-1,432.262,15.160004)" stroke-width=".3985" stroke-linecap="butt" stroke-miterlimit="10" stroke-linejoin="miter" fill="none" stroke="#000000" d="M-105.10493-70.86703C-105.10493-70.20677-105.6402-69.67151-106.30046-69.67151-106.96074-69.67151-107.49599-70.20677-107.49599-70.86703-107.49599-71.52731-106.96074-72.06258-106.30046-72.06258-105.6402-72.06258-105.10493-71.52731-105.10493-70.86703ZM-106.30046-70.86703"/>
<use data-text="d" xlink:href="#font_4_10" transform="matrix(9.9626,0,0,-9.9626,323.195,81.311)"/>
<path transform="matrix(1,0,0,-1,432.262,15.160004)" d="M-119.27832-113.38727C-119.27832-112.72699-119.81358-112.19173-120.47385-112.19173-121.13411-112.19173-121.66937-112.72699-121.66937-113.38727-121.66937-114.04753-121.13411-114.5828-120.47385-114.5828-119.81358-114.5828-119.27832-114.04753-119.27832-113.38727ZM-120.47385-113.38727"/>
<path transform="matrix(1,0,0,-1,432.262,15.160004)" stroke-width=".3985" stroke-linecap="butt" stroke-miterlimit="10" stroke-linejoin="miter" fill="none" stroke="#000000" d="M-119.27832-113.38727C-119.27832-112.72699-119.81358-112.19173-120.47385-112.19173-121.13411-112.19173-121.66937-112.72699-121.66937-113.38727-121.66937-114.04753-121.13411-114.5828-120.47385-114.5828-119.81358-114.5828-119.27832-114.04753-119.27832-113.38727ZM-120.47385-113.38727"/>
<path transform="matrix(1,0,0,-1,432.262,15.160004)" stroke-width="8.76709" stroke-linecap="butt" stroke-miterlimit="10" stroke-linejoin="miter" fill="none" stroke="#fff799" d="M-106.6785-72.00116-120.09583-112.25314"/>
<path transform="matrix(1,0,0,-1,432.262,15.160004)" stroke-width="7.9701" stroke-linecap="butt" stroke-miterlimit="10" stroke-linejoin="miter" fill="none" stroke="#fff799" d="M-106.6785-72.00116-120.09583-112.25314"/>
<path transform="matrix(1,0,0,-1,432.262,15.160004)" stroke-width=".3985" stroke-linecap="butt" stroke-miterlimit="10" stroke-linejoin="miter" fill="none" stroke="#000000" d="M-106.6785-72.00116-120.09583-112.25314"/>
<use data-text="0" xlink:href="#font_4_3" transform="matrix(9.9626,0,0,-9.9626,309.299,139.22101)"/>
<use data-text="0" xlink:href="#font_4_3" transform="matrix(9.9626,0,0,-9.9626,310.375,109.96)"/>
<path transform="matrix(1,0,0,-1,432.262,15.160004)" d="M-90.9315-113.38727C-90.9315-112.72699-91.46677-112.19173-92.12703-112.19173-92.78731-112.19173-93.32257-112.72699-93.32257-113.38727-93.32257-114.04753-92.78731-114.5828-92.12703-114.5828-91.46677-114.5828-90.9315-114.04753-90.9315-113.38727ZM-92.12703-113.38727"/>
<path transform="matrix(1,0,0,-1,432.262,15.160004)" stroke-width=".3985" stroke-linecap="butt" stroke-miterlimit="10" stroke-linejoin="miter" fill="none" stroke="#000000" d="M-90.9315-113.38727C-90.9315-112.72699-91.46677-112.19173-92.12703-112.19173-92.78731-112.19173-93.32257-112.72699-93.32257-113.38727-93.32257-114.04753-92.78731-114.5828-92.12703-114.5828-91.46677-114.5828-90.9315-114.04753-90.9315-113.38727ZM-92.12703-113.38727"/>
<path transform="matrix(1,0,0,-1,432.262,15.160004)" stroke-width=".3985" stroke-linecap="butt" stroke-miterlimit="10" stroke-linejoin="miter" fill="none" stroke="#000000" d="M-105.92244-72.00116-92.50507-112.25314"/>
<use data-text="&#x2212;" xlink:href="#font_5_1" transform="matrix(9.9626,0,0,-9.9626,333.771,139.22101)"/>
<use data-text="1" xlink:href="#font_4_4" transform="matrix(9.9626,0,0,-9.9626,341.52,139.22101)"/>
<use data-text="1" xlink:href="#font_4_4" transform="matrix(9.9626,0,0,-9.9626,324.548,109.96)"/>
<path transform="matrix(1,0,0,-1,432.262,15.160004)" d="M-34.23788-70.86703C-34.23788-70.20677-34.77315-69.67151-35.43341-69.67151-36.09369-69.67151-36.62895-70.20677-36.62895-70.86703-36.62895-71.52731-36.09369-72.06258-35.43341-72.06258-34.77315-72.06258-34.23788-71.52731-34.23788-70.86703ZM-35.43341-70.86703"/>
<path transform="matrix(1,0,0,-1,432.262,15.160004)" stroke-width=".3985" stroke-linecap="butt" stroke-miterlimit="10" stroke-linejoin="miter" fill="none" stroke="#000000" d="M-34.23788-70.86703C-34.23788-70.20677-34.77315-69.67151-35.43341-69.67151-36.09369-69.67151-36.62895-70.20677-36.62895-70.86703-36.62895-71.52731-36.09369-72.06258-35.43341-72.06258-34.77315-72.06258-34.23788-71.52731-34.23788-70.86703ZM-35.43341-70.86703"/>
<use data-text="d" xlink:href="#font_4_10" transform="matrix(9.9626,0,0,-9.9626,394.06199,81.311)"/>
<path transform="matrix(1,0,0,-1,432.262,15.160004)" d="M-48.41127-113.38727C-48.41127-112.72699-48.94653-112.19173-49.6068-112.19173-50.26706-112.19173-50.80232-112.72699-50.80232-113.38727-50.80232-114.04753-50.26706-114.5828-49.6068-114.5828-48.94653-114.5828-48.41127-114.04753-48.41127-113.38727ZM-49.6068-113.38727"/>
<path transform="matrix(1,0,0,-1,432.262,15.160004)" stroke-width=".3985" stroke-linecap="butt" stroke-miterlimit="10" stroke-linejoin="miter" fill="none" stroke="#000000" d="M-48.41127-113.38727C-48.41127-112.72699-48.94653-112.19173-49.6068-112.19173-50.26706-112.19173-50.80232-112.72699-50.80232-113.38727-50.80232-114.04753-50.26706-114.5828-49.6068-114.5828-48.94653-114.5828-48.41127-114.04753-48.41127-113.38727ZM-49.6068-113.38727"/>
<path transform="matrix(1,0,0,-1,432.262,15.160004)" stroke-width="8.76709" stroke-linecap="butt" stroke-miterlimit="10" stroke-linejoin="miter" fill="none" stroke="#fff799" d="M-35.81145-72.00116-49.22878-112.25314"/>
<path transform="matrix(1,0,0,-1,432.262,15.160004)" stroke-width="7.9701" stroke-linecap="butt" stroke-miterlimit="10" stroke-linejoin="miter" fill="none" stroke="#fff799" d="M-35.81145-72.00116-49.22878-112.25314"/>
<path transform="matrix(1,0,0,-1,432.262,15.160004)" stroke-width=".3985" stroke-linecap="butt" stroke-miterlimit="10" stroke-linejoin="miter" fill="none" stroke="#000000" d="M-35.81145-72.00116-49.22878-112.25314"/>
<use data-text="0" xlink:href="#font_4_3" transform="matrix(9.9626,0,0,-9.9626,380.16499,139.22101)"/>
<use data-text="0" xlink:href="#font_4_3" transform="matrix(9.9626,0,0,-9.9626,381.241,109.96)"/>
<path transform="matrix(1,0,0,-1,432.262,15.160004)" d="M-20.06445-113.38727C-20.06445-112.72699-20.59972-112.19173-21.26-112.19173-21.92026-112.19173-22.45552-112.72699-22.45552-113.38727-22.45552-114.04753-21.92026-114.5828-21.26-114.5828-20.59972-114.5828-20.06445-114.04753-20.06445-113.38727ZM-21.26-113.38727"/>
<path transform="matrix(1,0,0,-1,432.262,15.160004)" stroke-width=".3985" stroke-linecap="butt" stroke-miterlimit="10" stroke-linejoin="miter" fill="none" stroke="#000000" d="M-20.06445-113.38727C-20.06445-112.72699-20.59972-112.19173-21.26-112.19173-21.92026-112.19173-22.45552-112.72699-22.45552-113.38727-22.45552-114.04753-21.92026-114.5828-21.26-114.5828-20.59972-114.5828-20.06445-114.04753-20.06445-113.38727ZM-21.26-113.38727"/>
<path transform="matrix(1,0,0,-1,432.262,15.160004)" stroke-width=".3985" stroke-linecap="butt" stroke-miterlimit="10" stroke-linejoin="miter" fill="none" stroke="#000000" d="M-35.05539-72.00116-21.63802-112.25314"/>
<use data-text="&#x2212;" xlink:href="#font_5_1" transform="matrix(9.9626,0,0,-9.9626,404.637,139.22101)"/>
<use data-text="1" xlink:href="#font_4_4" transform="matrix(9.9626,0,0,-9.9626,412.386,139.22101)"/>
<use data-text="1" xlink:href="#font_4_4" transform="matrix(9.9626,0,0,-9.9626,395.41499,109.96)"/>
<path transform="matrix(1,0,0,-1,432.262,15.160004)" d="M36.62915-70.86703C36.62915-70.20677 36.09389-69.67151 35.43361-69.67151 34.77335-69.67151 34.23808-70.20677 34.23808-70.86703 34.23808-71.52731 34.77335-72.06258 35.43361-72.06258 36.09389-72.06258 36.62915-71.52731 36.62915-70.86703ZM35.43361-70.86703"/>
<path transform="matrix(1,0,0,-1,432.262,15.160004)" stroke-width=".3985" stroke-linecap="butt" stroke-miterlimit="10" stroke-linejoin="miter" fill="none" stroke="#000000" d="M36.62915-70.86703C36.62915-70.20677 36.09389-69.67151 35.43361-69.67151 34.77335-69.67151 34.23808-70.20677 34.23808-70.86703 34.23808-71.52731 34.77335-72.06258 35.43361-72.06258 36.09389-72.06258 36.62915-71.52731 36.62915-70.86703ZM35.43361-70.86703"/>
<use data-text="d" xlink:href="#font_4_10" transform="matrix(9.9626,0,0,-9.9626,464.92799,81.311)"/>
<path transform="matrix(1,0,0,-1,432.262,15.160004)" d="M22.45576-113.38727C22.45576-112.72699 21.9205-112.19173 21.26024-112.19173 20.59996-112.19173 20.0647-112.72699 20.0647-113.38727 20.0647-114.04753 20.59996-114.5828 21.26024-114.5828 21.9205-114.5828 22.45576-114.04753 22.45576-113.38727ZM21.26024-113.38727"/>
<path transform="matrix(1,0,0,-1,432.262,15.160004)" stroke-width=".3985" stroke-linecap="butt" stroke-miterlimit="10" stroke-linejoin="miter" fill="none" stroke="#000000" d="M22.45576-113.38727C22.45576-112.72699 21.9205-112.19173 21.26024-112.19173 20.59996-112.19173 20.0647-112.72699 20.0647-113.38727 20.0647-114.04753 20.59996-114.5828 21.26024-114.5828 21.9205-114.5828 22.45576-114.04753 22.45576-113.38727ZM21.26024-113.38727"/>
<path transform="matrix(1,0,0,-1,432.262,15.160004)" stroke-width=".3985" stroke-linecap="butt" stroke-miterlimit="10" stroke-linejoin="miter" fill="none" stroke="#000000" d="M35.05559-72.00116 21.63826-112.25314"/>
<use data-text="0" xlink:href="#font_4_3" transform="matrix(9.9626,0,0,-9.9626,451.031,139.22101)"/>
<use data-text="0" xlink:href="#font_4_3" transform="matrix(9.9626,0,0,-9.9626,452.107,109.96)"/>
<path transform="matrix(1,0,0,-1,432.262,15.160004)" d="M50.80257-113.38727C50.80257-112.72699 50.2673-112.19173 49.60704-112.19173 48.94678-112.19173 48.41151-112.72699 48.41151-113.38727 48.41151-114.04753 48.94678-114.5828 49.60704-114.5828 50.2673-114.5828 50.80257-114.04753 50.80257-113.38727ZM49.60704-113.38727"/>
<path transform="matrix(1,0,0,-1,432.262,15.160004)" stroke-width=".3985" stroke-linecap="butt" stroke-miterlimit="10" stroke-linejoin="miter" fill="none" stroke="#000000" d="M50.80257-113.38727C50.80257-112.72699 50.2673-112.19173 49.60704-112.19173 48.94678-112.19173 48.41151-112.72699 48.41151-113.38727 48.41151-114.04753 48.94678-114.5828 49.60704-114.5828 50.2673-114.5828 50.80257-114.04753 50.80257-113.38727ZM49.60704-113.38727"/>
<path transform="matrix(1,0,0,-1,432.262,15.160004)" stroke-width="8.76709" stroke-linecap="butt" stroke-miterlimit="10" stroke-linejoin="miter" fill="none" stroke="#fff799" d="M35.81165-72.00116 49.22902-112.25314"/>
<path transform="matrix(1,0,0,-1,432.262,15.160004)" stroke-width="7.9701" stroke-linecap="butt" stroke-miterlimit="10" stroke-linejoin="miter" fill="none" stroke="#fff799" d="M35.81165-72.00116 49.22902-112.25314"/>
<path transform="matrix(1,0,0,-1,432.262,15.160004)" stroke-width=".3985" stroke-linecap="butt" stroke-miterlimit="10" stroke-linejoin="miter" fill="none" stroke="#000000" d="M35.81165-72.00116 49.22902-112.25314"/>
<use data-text="1" xlink:href="#font_4_4" transform="matrix(9.9626,0,0,-9.9626,479.378,139.22101)"/>
<use data-text="1" xlink:href="#font_4_4" transform="matrix(9.9626,0,0,-9.9626,466.281,109.96)"/>
<path transform="matrix(1,0,0,-1,432.262,15.160004)" d="M107.49619-70.86703C107.49619-70.20677 106.96092-69.67151 106.30066-69.67151 105.6404-69.67151 105.10513-70.20677 105.10513-70.86703 105.10513-71.52731 105.6404-72.06258 106.30066-72.06258 106.96092-72.06258 107.49619-71.52731 107.49619-70.86703ZM106.30066-70.86703"/>
<path transform="matrix(1,0,0,-1,432.262,15.160004)" stroke-width=".3985" stroke-linecap="butt" stroke-miterlimit="10" stroke-linejoin="miter" fill="none" stroke="#000000" d="M107.49619-70.86703C107.49619-70.20677 106.96092-69.67151 106.30066-69.67151 105.6404-69.67151 105.10513-70.20677 105.10513-70.86703 105.10513-71.52731 105.6404-72.06258 106.30066-72.06258 106.96092-72.06258 107.49619-71.52731 107.49619-70.86703ZM106.30066-70.86703"/>
<use data-text="d" xlink:href="#font_4_10" transform="matrix(9.9626,0,0,-9.9626,535.794,81.311)"/>
<path transform="matrix(1,0,0,-1,432.262,15.160004)" d="M93.32281-113.38727C93.32281-112.72699 92.78755-112.19173 92.12727-112.19173 91.46701-112.19173 90.93175-112.72699 90.93175-113.38727 90.93175-114.04753 91.46701-114.5828 92.12727-114.5828 92.78755-114.5828 93.32281-114.04753 93.32281-113.38727ZM92.12727-113.38727"/>
<path transform="matrix(1,0,0,-1,432.262,15.160004)" stroke-width=".3985" stroke-linecap="butt" stroke-miterlimit="10" stroke-linejoin="miter" fill="none" stroke="#000000" d="M93.32281-113.38727C93.32281-112.72699 92.78755-112.19173 92.12727-112.19173 91.46701-112.19173 90.93175-112.72699 90.93175-113.38727 90.93175-114.04753 91.46701-114.5828 92.12727-114.5828 92.78755-114.5828 93.32281-114.04753 93.32281-113.38727ZM92.12727-113.38727"/>
<path transform="matrix(1,0,0,-1,432.262,15.160004)" stroke-width=".3985" stroke-linecap="butt" stroke-miterlimit="10" stroke-linejoin="miter" fill="none" stroke="#000000" d="M105.92264-72.00116 92.50531-112.25314"/>
<use data-text="0" xlink:href="#font_4_3" transform="matrix(9.9626,0,0,-9.9626,521.897,139.22101)"/>
<use data-text="0" xlink:href="#font_4_3" transform="matrix(9.9626,0,0,-9.9626,522.974,109.96)"/>
<path transform="matrix(1,0,0,-1,432.262,15.160004)" d="M121.66962-113.38727C121.66962-112.72699 121.13435-112.19173 120.47409-112.19173 119.81383-112.19173 119.27856-112.72699 119.27856-113.38727 119.27856-114.04753 119.81383-114.5828 120.47409-114.5828 121.13435-114.5828 121.66962-114.04753 121.66962-113.38727ZM120.47409-113.38727"/>
<path transform="matrix(1,0,0,-1,432.262,15.160004)" stroke-width=".3985" stroke-linecap="butt" stroke-miterlimit="10" stroke-linejoin="miter" fill="none" stroke="#000000" d="M121.66962-113.38727C121.66962-112.72699 121.13435-112.19173 120.47409-112.19173 119.81383-112.19173 119.27856-112.72699 119.27856-113.38727 119.27856-114.04753 119.81383-114.5828 120.47409-114.5828 121.13435-114.5828 121.66962-114.04753 121.66962-113.38727ZM120.47409-113.38727"/>
<path transform="matrix(1,0,0,-1,432.262,15.160004)" stroke-width="8.76709" stroke-linecap="butt" stroke-miterlimit="10" stroke-linejoin="miter" fill="none" stroke="#fff799" d="M106.6787-72.00116 120.09607-112.25314"/>
<path transform="matrix(1,0,0,-1,432.262,15.160004)" stroke-width="7.9701" stroke-linecap="butt" stroke-miterlimit="10" stroke-linejoin="miter" fill="none" stroke="#fff799" d="M106.6787-72.00116 120.09607-112.25314"/>
<path transform="matrix(1,0,0,-1,432.262,15.160004)" stroke-width=".3985" stroke-linecap="butt" stroke-miterlimit="10" stroke-linejoin="miter" fill="none" stroke="#000000" d="M106.6787-72.00116 120.09607-112.25314"/>
<use data-text="1" xlink:href="#font_4_4" transform="matrix(9.9626,0,0,-9.9626,550.244,139.22101)"/>
<use data-text="1" xlink:href="#font_4_4" transform="matrix(9.9626,0,0,-9.9626,537.147,109.96)"/>
<path transform="matrix(1,0,0,-1,432.262,15.160004)" d="M178.36324-70.86703C178.36324-70.20677 177.82798-69.67151 177.16771-69.67151 176.50745-69.67151 175.97219-70.20677 175.97219-70.86703 175.97219-71.52731 176.50745-72.06258 177.16771-72.06258 177.82798-72.06258 178.36324-71.52731 178.36324-70.86703ZM177.16771-70.86703"/>
<path transform="matrix(1,0,0,-1,432.262,15.160004)" stroke-width=".3985" stroke-linecap="butt" stroke-miterlimit="10" stroke-linejoin="miter" fill="none" stroke="#000000" d="M178.36324-70.86703C178.36324-70.20677 177.82798-69.67151 177.16771-69.67151 176.50745-69.67151 175.97219-70.20677 175.97219-70.86703 175.97219-71.52731 176.50745-72.06258 177.16771-72.06258 177.82798-72.06258 178.36324-71.52731 178.36324-70.86703ZM177.16771-70.86703"/>
<use data-text="d" xlink:href="#font_4_10" transform="matrix(9.9626,0,0,-9.9626,606.66,81.311)"/>
<path transform="matrix(1,0,0,-1,432.262,15.160004)" d="M164.18985-113.38727C164.18985-112.72699 163.6546-112.19173 162.99433-112.19173 162.33406-112.19173 161.7988-112.72699 161.7988-113.38727 161.7988-114.04753 162.33406-114.5828 162.99433-114.5828 163.6546-114.5828 164.18985-114.04753 164.18985-113.38727ZM162.99433-113.38727"/>
<path transform="matrix(1,0,0,-1,432.262,15.160004)" stroke-width=".3985" stroke-linecap="butt" stroke-miterlimit="10" stroke-linejoin="miter" fill="none" stroke="#000000" d="M164.18985-113.38727C164.18985-112.72699 163.6546-112.19173 162.99433-112.19173 162.33406-112.19173 161.7988-112.72699 161.7988-113.38727 161.7988-114.04753 162.33406-114.5828 162.99433-114.5828 163.6546-114.5828 164.18985-114.04753 164.18985-113.38727ZM162.99433-113.38727"/>
<path transform="matrix(1,0,0,-1,432.262,15.160004)" stroke-width=".3985" stroke-linecap="butt" stroke-miterlimit="10" stroke-linejoin="miter" fill="none" stroke="#000000" d="M176.78969-72.00116 163.37236-112.25314"/>
<use data-text="0" xlink:href="#font_4_3" transform="matrix(9.9626,0,0,-9.9626,592.764,139.22101)"/>
<use data-text="0" xlink:href="#font_4_3" transform="matrix(9.9626,0,0,-9.9626,593.83999,109.96)"/>
<path transform="matrix(1,0,0,-1,432.262,15.160004)" d="M192.53667-113.38727C192.53667-112.72699 192.0014-112.19173 191.34114-112.19173 190.68087-112.19173 190.14562-112.72699 190.14562-113.38727 190.14562-114.04753 190.68087-114.5828 191.34114-114.5828 192.0014-114.5828 192.53667-114.04753 192.53667-113.38727ZM191.34114-113.38727"/>
<path transform="matrix(1,0,0,-1,432.262,15.160004)" stroke-width=".3985" stroke-linecap="butt" stroke-miterlimit="10" stroke-linejoin="miter" fill="none" stroke="#000000" d="M192.53667-113.38727C192.53667-112.72699 192.0014-112.19173 191.34114-112.19173 190.68087-112.19173 190.14562-112.72699 190.14562-113.38727 190.14562-114.04753 190.68087-114.5828 191.34114-114.5828 192.0014-114.5828 192.53667-114.04753 192.53667-113.38727ZM191.34114-113.38727"/>
<path transform="matrix(1,0,0,-1,432.262,15.160004)" stroke-width="8.76709" stroke-linecap="butt" stroke-miterlimit="10" stroke-linejoin="miter" fill="none" stroke="#fff799" d="M177.54573-72.00116 190.9631-112.25314"/>
<path transform="matrix(1,0,0,-1,432.262,15.160004)" stroke-width="7.9701" stroke-linecap="butt" stroke-miterlimit="10" stroke-linejoin="miter" fill="none" stroke="#fff799" d="M177.54573-72.00116 190.9631-112.25314"/>
<path transform="matrix(1,0,0,-1,432.262,15.160004)" stroke-width=".3985" stroke-linecap="butt" stroke-miterlimit="10" stroke-linejoin="miter" fill="none" stroke="#000000" d="M177.54573-72.00116 190.9631-112.25314"/>
<use data-text="&#x2212;" xlink:href="#font_5_1" transform="matrix(9.9626,0,0,-9.9626,617.23599,139.22101)"/>
<use data-text="1" xlink:href="#font_4_4" transform="matrix(9.9626,0,0,-9.9626,624.98397,139.22101)"/>
<use data-text="1" xlink:href="#font_4_4" transform="matrix(9.9626,0,0,-9.9626,608.013,109.96)"/>
<path transform="matrix(1,0,0,-1,432.262,15.160004)" d="M249.23029-70.86703C249.23029-70.20677 248.69503-69.67151 248.03476-69.67151 247.3745-69.67151 246.83924-70.20677 246.83924-70.86703 246.83924-71.52731 247.3745-72.06258 248.03476-72.06258 248.69503-72.06258 249.23029-71.52731 249.23029-70.86703ZM248.03476-70.86703"/>
<path transform="matrix(1,0,0,-1,432.262,15.160004)" stroke-width=".3985" stroke-linecap="butt" stroke-miterlimit="10" stroke-linejoin="miter" fill="none" stroke="#000000" d="M249.23029-70.86703C249.23029-70.20677 248.69503-69.67151 248.03476-69.67151 247.3745-69.67151 246.83924-70.20677 246.83924-70.86703 246.83924-71.52731 247.3745-72.06258 248.03476-72.06258 248.69503-72.06258 249.23029-71.52731 249.23029-70.86703ZM248.03476-70.86703"/>
<use data-text="d" xlink:href="#font_4_10" transform="matrix(9.9626,0,0,-9.9626,677.526,81.311)"/>
<path transform="matrix(1,0,0,-1,432.262,15.160004)" d="M235.0569-113.38727C235.0569-112.72699 234.52164-112.19173 233.86138-112.19173 233.20111-112.19173 232.66585-112.72699 232.66585-113.38727 232.66585-114.04753 233.20111-114.5828 233.86138-114.5828 234.52164-114.5828 235.0569-114.04753 235.0569-113.38727ZM233.86138-113.38727"/>
<path transform="matrix(1,0,0,-1,432.262,15.160004)" stroke-width=".3985" stroke-linecap="butt" stroke-miterlimit="10" stroke-linejoin="miter" fill="none" stroke="#000000" d="M235.0569-113.38727C235.0569-112.72699 234.52164-112.19173 233.86138-112.19173 233.20111-112.19173 232.66585-112.72699 232.66585-113.38727 232.66585-114.04753 233.20111-114.5828 233.86138-114.5828 234.52164-114.5828 235.0569-114.04753 235.0569-113.38727ZM233.86138-113.38727"/>
<path transform="matrix(1,0,0,-1,432.262,15.160004)" stroke-width=".3985" stroke-linecap="butt" stroke-miterlimit="10" stroke-linejoin="miter" fill="none" stroke="#000000" d="M247.65673-72.00116 234.2394-112.25314"/>
<use data-text="0" xlink:href="#font_4_3" transform="matrix(9.9626,0,0,-9.9626,663.63,139.22101)"/>
<use data-text="0" xlink:href="#font_4_3" transform="matrix(9.9626,0,0,-9.9626,664.706,109.96)"/>
<path transform="matrix(1,0,0,-1,432.262,15.160004)" d="M263.40373-113.38727C263.40373-112.72699 262.86845-112.19173 262.2082-112.19173 261.5479-112.19173 261.01268-112.72699 261.01268-113.38727 261.01268-114.04753 261.5479-114.5828 262.2082-114.5828 262.86845-114.5828 263.40373-114.04753 263.40373-113.38727ZM262.2082-113.38727"/>
<path transform="matrix(1,0,0,-1,432.262,15.160004)" stroke-width=".3985" stroke-linecap="butt" stroke-miterlimit="10" stroke-linejoin="miter" fill="none" stroke="#000000" d="M263.40373-113.38727C263.40373-112.72699 262.86845-112.19173 262.2082-112.19173 261.5479-112.19173 261.01268-112.72699 261.01268-113.38727 261.01268-114.04753 261.5479-114.5828 262.2082-114.5828 262.86845-114.5828 263.40373-114.04753 263.40373-113.38727ZM262.2082-113.38727"/>
<path transform="matrix(1,0,0,-1,432.262,15.160004)" stroke-width="8.76709" stroke-linecap="butt" stroke-miterlimit="10" stroke-linejoin="miter" fill="none" stroke="#fff799" d="M248.41278-72.00116 261.83015-112.25314"/>
<path transform="matrix(1,0,0,-1,432.262,15.160004)" stroke-width="7.9701" stroke-linecap="butt" stroke-miterlimit="10" stroke-linejoin="miter" fill="none" stroke="#fff799" d="M248.41278-72.00116 261.83015-112.25314"/>
<path transform="matrix(1,0,0,-1,432.262,15.160004)" stroke-width=".3985" stroke-linecap="butt" stroke-miterlimit="10" stroke-linejoin="miter" fill="none" stroke="#000000" d="M248.41278-72.00116 261.83015-112.25314"/>
<use data-text="1" xlink:href="#font_4_4" transform="matrix(9.9626,0,0,-9.9626,691.97598,139.22101)"/>
<use data-text="1" xlink:href="#font_4_4" transform="matrix(9.9626,0,0,-9.9626,678.879,109.96)"/>
<path transform="matrix(1,0,0,-1,432.262,15.160004)" d="M320.09736-70.86703C320.09736-70.20677 319.56208-69.67151 318.90184-69.67151 318.24153-69.67151 317.70628-70.20677 317.70628-70.86703 317.70628-71.52731 318.24153-72.06258 318.90184-72.06258 319.56208-72.06258 320.09736-71.52731 320.09736-70.86703ZM318.90184-70.86703"/>
<path transform="matrix(1,0,0,-1,432.262,15.160004)" stroke-width=".3985" stroke-linecap="butt" stroke-miterlimit="10" stroke-linejoin="miter" fill="none" stroke="#000000" d="M320.09736-70.86703C320.09736-70.20677 319.56208-69.67151 318.90184-69.67151 318.24153-69.67151 317.70628-70.20677 317.70628-70.86703 317.70628-71.52731 318.24153-72.06258 318.90184-72.06258 319.56208-72.06258 320.09736-71.52731 320.09736-70.86703ZM318.90184-70.86703"/>
<use data-text="d" xlink:href="#font_4_10" transform="matrix(9.9626,0,0,-9.9626,748.39199,81.311)"/>
<path transform="matrix(1,0,0,-1,432.262,15.160004)" d="M305.92396-113.38727C305.92396-112.72699 305.3887-112.19173 304.72843-112.19173 304.06816-112.19173 303.5329-112.72699 303.5329-113.38727 303.5329-114.04753 304.06816-114.5828 304.72843-114.5828 305.3887-114.5828 305.92396-114.04753 305.92396-113.38727ZM304.72843-113.38727"/>
<path transform="matrix(1,0,0,-1,432.262,15.160004)" stroke-width=".3985" stroke-linecap="butt" stroke-miterlimit="10" stroke-linejoin="miter" fill="none" stroke="#000000" d="M305.92396-113.38727C305.92396-112.72699 305.3887-112.19173 304.72843-112.19173 304.06816-112.19173 303.5329-112.72699 303.5329-113.38727 303.5329-114.04753 304.06816-114.5828 304.72843-114.5828 305.3887-114.5828 305.92396-114.04753 305.92396-113.38727ZM304.72843-113.38727"/>
<path transform="matrix(1,0,0,-1,432.262,15.160004)" stroke-width=".3985" stroke-linecap="butt" stroke-miterlimit="10" stroke-linejoin="miter" fill="none" stroke="#000000" d="M318.52378-72.00116 305.10646-112.25314"/>
<use data-text="0" xlink:href="#font_4_3" transform="matrix(9.9626,0,0,-9.9626,734.496,139.22101)"/>
<use data-text="0" xlink:href="#font_4_3" transform="matrix(9.9626,0,0,-9.9626,735.572,109.96)"/>
<path transform="matrix(1,0,0,-1,432.262,15.160004)" d="M334.27079-113.38727C334.27079-112.72699 333.7355-112.19173 333.07524-112.19173 332.41496-112.19173 331.8797-112.72699 331.8797-113.38727 331.8797-114.04753 332.41496-114.5828 333.07524-114.5828 333.7355-114.5828 334.27079-114.04753 334.27079-113.38727ZM333.07524-113.38727"/>
<path transform="matrix(1,0,0,-1,432.262,15.160004)" stroke-width=".3985" stroke-linecap="butt" stroke-miterlimit="10" stroke-linejoin="miter" fill="none" stroke="#000000" d="M334.27079-113.38727C334.27079-112.72699 333.7355-112.19173 333.07524-112.19173 332.41496-112.19173 331.8797-112.72699 331.8797-113.38727 331.8797-114.04753 332.41496-114.5828 333.07524-114.5828 333.7355-114.5828 334.27079-114.04753 334.27079-113.38727ZM333.07524-113.38727"/>
<path transform="matrix(1,0,0,-1,432.262,15.160004)" stroke-width="8.76709" stroke-linecap="butt" stroke-miterlimit="10" stroke-linejoin="miter" fill="none" stroke="#fff799" d="M319.27983-72.00116 332.6972-112.25314"/>
<path transform="matrix(1,0,0,-1,432.262,15.160004)" stroke-width="7.9701" stroke-linecap="butt" stroke-miterlimit="10" stroke-linejoin="miter" fill="none" stroke="#fff799" d="M319.27983-72.00116 332.6972-112.25314"/>
<path transform="matrix(1,0,0,-1,432.262,15.160004)" stroke-width=".3985" stroke-linecap="butt" stroke-miterlimit="10" stroke-linejoin="miter" fill="none" stroke="#000000" d="M319.27983-72.00116 332.6972-112.25314"/>
<use data-text="1" xlink:href="#font_4_4" transform="matrix(9.9626,0,0,-9.9626,762.842,139.22101)"/>
<use data-text="1" xlink:href="#font_4_4" transform="matrix(9.9626,0,0,-9.9626,749.745,109.96)"/>
<path transform="matrix(1,0,0,-1,432.262,15.160004)" d="M390.9644-70.86703C390.9644-70.20677 390.4291-69.67151 389.76884-69.67151 389.10859-69.67151 388.57334-70.20677 388.57334-70.86703 388.57334-71.52731 389.10859-72.06258 389.76884-72.06258 390.4291-72.06258 390.9644-71.52731 390.9644-70.86703ZM389.76884-70.86703"/>
<path transform="matrix(1,0,0,-1,432.262,15.160004)" stroke-width=".3985" stroke-linecap="butt" stroke-miterlimit="10" stroke-linejoin="miter" fill="none" stroke="#000000" d="M390.9644-70.86703C390.9644-70.20677 390.4291-69.67151 389.76884-69.67151 389.10859-69.67151 388.57334-70.20677 388.57334-70.86703 388.57334-71.52731 389.10859-72.06258 389.76884-72.06258 390.4291-72.06258 390.9644-71.52731 390.9644-70.86703ZM389.76884-70.86703"/>
<use data-text="d" xlink:href="#font_4_10" transform="matrix(9.9626,0,0,-9.9626,819.258,81.311)"/>
<path transform="matrix(1,0,0,-1,432.262,15.160004)" d="M376.791-113.38727C376.791-112.72699 376.25575-112.19173 375.59547-112.19173 374.9352-112.19173 374.39997-112.72699 374.39997-113.38727 374.39997-114.04753 374.9352-114.5828 375.59547-114.5828 376.25575-114.5828 376.791-114.04753 376.791-113.38727ZM375.59547-113.38727"/>
<path transform="matrix(1,0,0,-1,432.262,15.160004)" stroke-width=".3985" stroke-linecap="butt" stroke-miterlimit="10" stroke-linejoin="miter" fill="none" stroke="#000000" d="M376.791-113.38727C376.791-112.72699 376.25575-112.19173 375.59547-112.19173 374.9352-112.19173 374.39997-112.72699 374.39997-113.38727 374.39997-114.04753 374.9352-114.5828 375.59547-114.5828 376.25575-114.5828 376.791-114.04753 376.791-113.38727ZM375.59547-113.38727"/>
<path transform="matrix(1,0,0,-1,432.262,15.160004)" stroke-width=".3985" stroke-linecap="butt" stroke-miterlimit="10" stroke-linejoin="miter" fill="none" stroke="#000000" d="M389.3908-72.00116 375.9735-112.25314"/>
<use data-text="0" xlink:href="#font_4_3" transform="matrix(9.9626,0,0,-9.9626,805.362,139.22101)"/>
<use data-text="0" xlink:href="#font_4_3" transform="matrix(9.9626,0,0,-9.9626,806.438,109.96)"/>
<path transform="matrix(1,0,0,-1,432.262,15.160004)" d="M405.1378-113.38727C405.1378-112.72699 404.60255-112.19173 403.9423-112.19173 403.282-112.19173 402.74678-112.72699 402.74678-113.38727 402.74678-114.04753 403.282-114.5828 403.9423-114.5828 404.60255-114.5828 405.1378-114.04753 405.1378-113.38727ZM403.9423-113.38727"/>
<path transform="matrix(1,0,0,-1,432.262,15.160004)" stroke-width=".3985" stroke-linecap="butt" stroke-miterlimit="10" stroke-linejoin="miter" fill="none" stroke="#000000" d="M405.1378-113.38727C405.1378-112.72699 404.60255-112.19173 403.9423-112.19173 403.282-112.19173 402.74678-112.72699 402.74678-113.38727 402.74678-114.04753 403.282-114.5828 403.9423-114.5828 404.60255-114.5828 405.1378-114.04753 405.1378-113.38727ZM403.9423-113.38727"/>
<path transform="matrix(1,0,0,-1,432.262,15.160004)" stroke-width="8.76709" stroke-linecap="butt" stroke-miterlimit="10" stroke-linejoin="miter" fill="none" stroke="#fff799" d="M390.14689-72.00116 403.56425-112.25314"/>
<path transform="matrix(1,0,0,-1,432.262,15.160004)" stroke-width="7.9701" stroke-linecap="butt" stroke-miterlimit="10" stroke-linejoin="miter" fill="none" stroke="#fff799" d="M390.14689-72.00116 403.56425-112.25314"/>
<path transform="matrix(1,0,0,-1,432.262,15.160004)" stroke-width=".3985" stroke-linecap="butt" stroke-miterlimit="10" stroke-linejoin="miter" fill="none" stroke="#000000" d="M390.14689-72.00116 403.56425-112.25314"/>
<use data-text="1" xlink:href="#font_4_4" transform="matrix(9.9626,0,0,-9.9626,833.708,139.22101)"/>
<use data-text="1" xlink:href="#font_4_4" transform="matrix(9.9626,0,0,-9.9626,820.61099,109.96)"/>
</svg>
