<svg xmlns="http://www.w3.org/2000/svg" xmlns:xlink="http://www.w3.org/1999/xlink" version="1.1" width="682.906pt" height="160.38pt" viewBox="0 0 682.906 160.38">
<defs>
<path id="font_0_7" d="M.116989139 .21801758C.116989139 .38093568 .19898987 .42323304 .2519989 .42323304 .26098634 .42323304 .32398988 .42222596 .35899354 .38594056 .31799317 .38293458 .31199647 .3529358 .31199647 .3399353 .31199647 .31393434 .32998658 .2939453 .35798646 .2939453 .38398744 .2939453 .4039917 .3109436 .4039917 .34094239 .4039917 .40911866 .32798768 .4482422 .25099183 .4482422 .12599182 .4482422 .033996583 .3399353 .033996583 .21601868 .033996583 .08816528 .1329956-.0107421879 .24899292-.0107421879 .3829956-.0107421879 .4149933 .10914612 .4149933 .119140628 .4149933 .12911988 .40499879 .12911988 .4019928 .12911988 .3929901 .12911988 .3909912 .12512207 .3889923 .119140628 .3600006 .026229859 .29499818 .014251709 .2579956 .014251709 .20498657 .014251709 .116989139 .0572052 .116989139 .21801758Z"/>
<path id="font_1_3" d="M.644989 .69506838C.644989 .69807437 .6429901 .7050781 .6339874 .7050781 .6289978 .7050781 .6279907 .70407107 .6159973 .6900635L.56799319 .6330414C.5419922 .68006899 .48999024 .7050781 .4249878 .7050781 .2979889 .7050781 .17799378 .58999636 .17799378 .4689026 .17799378 .38783265 .23098755 .34179688 .28199769 .32678224L.3889923 .2987671C.42599488 .2897644 .48098756 .27474977 .48098756 .19267273 .48098756 .1026001 .39898683 .008529663 .30099488 .008529663 .23699951 .008529663 .12599182 .030548096 .12599182 .15464783 .12599182 .17866516 .1309967 .2026825 .13198853 .20869446 .1329956 .21269226 .13398743 .21369934 .13398743 .21569824 .13398743 .22570801 .1269989 .22669983 .12199402 .22669983 .116989139 .22669983 .114990238 .22570801 .11199951 .22270203 .10798645 .21870423 .051986696-.009475708 .051986696-.012466431 .051986696-.018463135 .056991579-.022460938 .06298828-.022460938 .067993167-.022460938 .068984989-.021469117 .08099365-.007461548L.12998963 .049560548C.17298889-.008468628 .24099732-.022460938 .29899598-.022460938 .43499757-.022460938 .5529938 .11061096 .5529938 .2347107 .5529938 .30377198 .5189972 .33779908 .5039978 .35180665 .48098756 .37483216 .46598817 .37882997 .3769989 .40185548 .35499574 .40785218 .31900025 .41786195 .30999757 .41986085 .2829895 .42886354 .24899292 .457901 .24899292 .51094058 .24899292 .59199526 .32899476 .677063 .42399598 .677063 .5069885 .677063 .56799319 .6340332 .56799319 .52194216 .56799319 .48991395 .56399539 .47190858 .56399539 .4658966 .56399539 .4649048 .56399539 .45588685 .57598879 .45588685 .58599856 .45588685 .58699038 .45889283 .59098818 .47590638L.644989 .69506838Z"/>
<path id="font_0_6" d="M.68699648 .32714845C.70199587 .32714845 .72099307 .32714845 .72099307 .34713746 .72099307 .36714173 .70199587 .36714173 .6879883 .36714173H.08898926C.07499695 .36714173 .055999757 .36714173 .055999757 .34713746 .055999757 .32714845 .07499695 .32714845 .08999634 .32714845H.68699648M.6879883 .13284302C.70199587 .13284302 .72099307 .13284302 .72099307 .15284729 .72099307 .17285156 .70199587 .17285156 .68699648 .17285156H.08999634C.07499695 .17285156 .055999757 .17285156 .055999757 .15284729 .055999757 .13284302 .07499695 .13284302 .08898926 .13284302H.6879883Z"/>
<path id="font_0_2" d="M.2939911 .64004519C.2939911 .66400149 .2939911 .6660156 .2709961 .6660156 .20899964 .60227969 .12098694 .60227969 .08898926 .60227969V.57128909C.10899353 .57128909 .16799927 .57128909 .21998596 .5972748V.07902527C.21998596 .042999269 .21699524 .0309906 .1269989 .0309906H.09498596V0C.12998963 .0029907227 .21699524 .0029907227 .25698854 .0029907227 .29699708 .0029907227 .38398744 .0029907227 .4189911 0V.0309906H.3869934C.29699708 .0309906 .2939911 .041992189 .2939911 .07902527V.64004519Z"/>
<path id="font_0_3" d="M.1269989 .07699585 .23298645 .18003845C.3889923 .31811524 .44898988 .3721466 .44898988 .47216798 .44898988 .5860901 .35899354 .6660156 .23699951 .6660156 .12399292 .6660156 .049987794 .57411196 .049987794 .48516847 .049987794 .4291687 .099990848 .4291687 .102996829 .4291687 .11999512 .4291687 .15499878 .44117738 .15499878 .48217774 .15499878 .5081787 .13699341 .5341797 .101989749 .5341797 .09399414 .5341797 .09199524 .5341797 .08898926 .5331726 .11199951 .59806826 .1659851 .63500979 .22399903 .63500979 .31498719 .63500979 .35798646 .5541382 .35798646 .47216798 .35798646 .39215089 .30799867 .31311036 .25299073 .25108338L.06098938 .036987306C.049987794 .025985718 .049987794 .023986817 .049987794 0H.42099L.44898988 .17404175H.42399598C.4189911 .14402771 .4119873 .1000061 .4019928 .084991458 .394989 .07699585 .32899476 .07699585 .30699159 .07699585H.1269989Z"/>
<path id="font_0_4" d="M.2899933 .35191346C.37199403 .37893678 .42999269 .4490509 .42999269 .52809146 .42999269 .6100464 .34199525 .6660156 .24598694 .6660156 .14498902 .6660156 .068984989 .60606387 .068984989 .53009036 .068984989 .49710084 .09098816 .47808839 .11999512 .47808839 .15098572 .47808839 .17098999 .50009158 .17098999 .5290985 .17098999 .57910159 .12399292 .57910159 .10899353 .57910159 .13999939 .62802127 .20599365 .64100649 .24198914 .64100649 .2829895 .64100649 .33799745 .6190338 .33799745 .5290985 .33799745 .51708987 .33599855 .45906068 .30999757 .4149933 .27999879 .36691285 .24598694 .36390687 .22099304 .36291505 .21299744 .36190797 .18899536 .35990907 .18199158 .35990907 .17399597 .35890199 .16699219 .35791017 .16699219 .3479004 .16699219 .33691407 .17399597 .33691407 .19099427 .33691407H.23498535C.31698609 .33691407 .35398866 .2686615 .35398866 .17037964 .35398866 .034469606 .2849884 .0055389406 .24099732 .0055389406 .19799805 .0055389406 .12298584 .022491456 .08799744 .08137512 .12298584 .07637024 .1539917 .09837341 .1539917 .1363678 .1539917 .17237854 .1269989 .19238281 .09799194 .19238281 .07398987 .19238281 .041992189 .17837525 .041992189 .1343689 .041992189 .043441774 .1349945-.022460938 .24398804-.022460938 .3659973-.022460938 .45700074 .06838989 .45700074 .17037964 .45700074 .252594 .3939972 .33088685 .2899933 .35191346Z"/>
<path id="font_0_5" d="M.2939911 .16503906V.07800293C.2939911 .041992189 .2919922 .0309906 .21798706 .0309906H.19699097V0C.23799134 .0029907227 .2899933 .0029907227 .33198548 .0029907227 .37399293 .0029907227 .4269867 .0029907227 .46798707 0V.0309906H.44699098C.37298585 .0309906 .37098695 .041992189 .37098695 .07800293V.16503906H.47099305V.19602967H.37098695V.65075686C.37098695 .67074587 .37098695 .6767578 .35499574 .6767578 .34599305 .6767578 .34298707 .6767578 .33499146 .66474917L.027999878 .19602967V.16503906H.2939911M.2999878 .19602967H.055999757L.2999878 .5688019V.19602967Z"/>
<path id="font_0_8" d="M.37998963 .055252077V-.0107421879L.5269928 .00024414063V.03125C.45700074 .03125 .44898988 .038253786 .44898988 .087265018V.69433596L.30499269 .68333438V.6523285C.375 .6523285 .3829956 .6453247 .3829956 .596344V.38035584C.35398866 .41636659 .31098939 .4423828 .25698854 .4423828 .13899231 .4423828 .033996583 .3443451 .033996583 .21531677 .033996583 .088272098 .13198853-.0107421879 .24598694-.0107421879 .30999757-.0107421879 .35499574 .023254395 .37998963 .055252077M.37998963 .323349V.118270877C.37998963 .1002655 .37998963 .0982666 .36898805 .08126831 .33898927 .0332489 .2939911 .011245728 .25099183 .011245728 .20599365 .011245728 .16999817 .037246705 .1459961 .07527161 .11999512 .11627197 .116989139 .17329407 .116989139 .21430969 .116989139 .25131227 .11898804 .31134034 .147995 .35635377 .16899109 .38735963 .20698548 .42037965 .26098634 .42037965 .29599 .42037965 .33799745 .405365 .36898805 .36035157 .37998963 .34335328 .37998963 .34135438 .37998963 .323349Z"/>
<path id="font_1_1" d="M.1789856 .114868167C.13899231 .047973634 .099990848 .033981325 .055999757 .0309906 .04399109 .02999878 .034988405 .02999878 .034988405 .010986328 .034988405 .004989624 .039993287 0 .04798889 0 .07499695 0 .10598755 .0029907227 .13398743 .0029907227 .16699219 .0029907227 .20199585 0 .23399353 0 .23999024 0 .25299073 0 .25299073 .018997193 .25299073 .02999878 .24398804 .0309906 .23699951 .0309906 .21398926 .032989503 .18998719 .04096985 .18998719 .06593323 .18998719 .077926639 .19599915 .088897708 .20399475 .102890018L.27999879 .23068238H.5309906C.5329895 .2097168 .5469971 .07392883 .5469971 .063949588 .5469971 .033981325 .49499513 .0309906 .47499085 .0309906 .46099855 .0309906 .45098878 .0309906 .45098878 .010986328 .45098878 0 .46299745 0 .46499635 0 .5059967 0 .548996 .0029907227 .58999636 .0029907227 .61499026 .0029907227 .6779938 0 .7029877 0 .70899966 0 .72099307 0 .72099307 .019989014 .72099307 .0309906 .71099856 .0309906 .69799807 .0309906 .6359863 .0309906 .6359863 .037979127 .6329956 .06694031L.57199099 .691803C.56999209 .71180728 .56999209 .7158203 .5529938 .7158203 .5369873 .7158203 .5329895 .7088165 .5269928 .69880679L.1789856 .114868167M.29899598 .26168824 .49598695 .5917816 .5279999 .26168824H.29899598Z"/>
<path id="font_0_1" d="M.45999146 .31976319C.45999146 .39982606 .45498658 .47988893 .41999818 .5539398 .37399293 .65000918 .2919922 .6660156 .25 .6660156 .18998719 .6660156 .116989139 .64001467 .07598877 .54693606 .04399109 .47789 .038986207 .39982606 .038986207 .31976319 .038986207 .24472046 .042999269 .15464783 .083999637 .07859802 .1269989-.0024719239 .19999695-.022460938 .24899292-.022460938 .30299378-.022460938 .3789978-.0014648438 .4229889 .09359741 .45498658 .16265869 .45999146 .2407074 .45999146 .31976319M.24899292-.00047302247C.20999146-.00047302247 .15098572 .024551392 .1329956 .12062073 .12199402 .18066406 .12199402 .2727356 .12199402 .3317871 .12199402 .39582826 .12199402 .46188355 .12998963 .5159149 .14898682 .63500979 .22399903 .64401248 .24899292 .64401248 .28199769 .64401248 .34799195 .6259918 .36698915 .52693179 .3769989 .47088624 .3769989 .39482118 .3769989 .3317871 .3769989 .25672914 .3769989 .18867493 .3659973 .12461853 .35099793 .029556275 .2939911-.00047302247 .24899292-.00047302247Z"/>
<path id="font_1_2" d="M.15899658 .07795715C.14898682 .038986207 .14698792 .0309906 .067993167 .0309906 .050994874 .0309906 .039993287 .0309906 .039993287 .011993408 .039993287 0 .04899597 0 .067993167 0H.39898683C.6069946 0 .80400088 .21087647 .80400088 .42974855 .80400088 .5706482 .71899417 .6826172 .56900027 .6826172H.23298645C.21398926 .6826172 .20298767 .6826172 .20298767 .66360476 .20298767 .6516113 .21199036 .6516113 .23199463 .6516113 .24499512 .6516113 .2630005 .65060427 .2749939 .6496124 .29100038 .6476135 .29699708 .64460757 .29699708 .6336212 .29699708 .6296234 .29599 .62661746 .29299928 .614624L.15899658 .07795715M.375 .6136322C.38398744 .64860537 .38598634 .6516113 .42900086 .6516113H.5359955C.6339874 .6516113 .71699526 .5986328 .71699526 .46672059 .71699526 .41775514 .69699099 .25386048 .6119995 .1439209 .58299258 .10694885 .5039978 .0309906 .3809967 .0309906H.2679901C.2539978 .0309906 .2519989 .0309906 .24598694 .03199768 .23599243 .032989503 .23298645 .033996583 .23298645 .041992189 .23298645 .04498291 .23298645 .04698181 .23799134 .064971927L.375 .6136322Z"/>
<path id="font_2_1" d="M.6589966 .23046875C.6759949 .23046875 .69400027 .23046875 .69400027 .25045777 .69400027 .27046205 .6759949 .27046205 .6589966 .27046205H.117996219C.100997928 .27046205 .08299255 .27046205 .08299255 .25045777 .08299255 .23046875 .100997928 .23046875 .117996219 .23046875H.6589966Z"/>
</defs>
<path transform="matrix(1,0,0,-1,348.276,15.160004)" d="M1.19553 0C1.19553 .66026 .66026 1.19553 0 1.19553-.66026 1.19553-1.19553 .66026-1.19553 0-1.19553-.66026-.66026-1.19553 0-1.19553 .66026-1.19553 1.19553-.66026 1.19553 0ZM0 0"/>
<path transform="matrix(1,0,0,-1,348.276,15.160004)" stroke-width=".3985" stroke-linecap="butt" stroke-miterlimit="10" stroke-linejoin="miter" fill="none" stroke="#000000" d="M1.19553 0C1.19553 .66026 .66026 1.19553 0 1.19553-.66026 1.19553-1.19553 .66026-1.19553 0-1.19553-.66026-.66026-1.19553 0-1.19553 .66026-1.19553 1.19553-.66026 1.19553 0ZM0 0"/>
<use data-text="c" xlink:href="#font_0_7" transform="matrix(9.9626,0,0,-9.9626,346.062,10.445007)"/>
<path transform="matrix(1,0,0,-1,348.276,15.160004)" stroke-width=".3985" stroke-linecap="butt" stroke-miterlimit="10" stroke-linejoin="miter" fill="none" stroke="#000000" d="M-1.1792-.1965-255.12137-42.52022"/>
<use data-text="S" xlink:href="#font_1_3" transform="matrix(9.9626,0,0,-9.9626,191.659,31.92601)"/>
<use data-text="=" xlink:href="#font_0_6" transform="matrix(9.9626,0,0,-9.9626,201.11,31.92601)"/>
<use data-text="1" xlink:href="#font_0_2" transform="matrix(9.9626,0,0,-9.9626,211.63051,31.92601)"/>
<path transform="matrix(1,0,0,-1,348.276,15.160004)" stroke-width=".3985" stroke-linecap="butt" stroke-miterlimit="10" stroke-linejoin="miter" fill="none" stroke="#000000" d="M-1.06923-.5346-85.04045-42.52022"/>
<use data-text="2" xlink:href="#font_0_3" transform="matrix(9.9626,0,0,-9.9626,296.72,39.361009)"/>
<path transform="matrix(1,0,0,-1,348.276,15.160004)" stroke-width=".3985" stroke-linecap="butt" stroke-miterlimit="10" stroke-linejoin="miter" fill="none" stroke="#000000" d="M1.06923-.5346 85.04045-42.52022"/>
<use data-text="3" xlink:href="#font_0_4" transform="matrix(9.9626,0,0,-9.9626,394.85,39.361009)"/>
<path transform="matrix(1,0,0,-1,348.276,15.160004)" stroke-width=".3985" stroke-linecap="butt" stroke-miterlimit="10" stroke-linejoin="miter" fill="none" stroke="#000000" d="M1.1792-.1965 255.12137-42.52022"/>
<use data-text="4" xlink:href="#font_0_5" transform="matrix(9.9626,0,0,-9.9626,479.944,31.92601)"/>
<path transform="matrix(1,0,0,-1,348.276,15.160004)" d="M-253.92584-42.52022C-253.92584-41.85995-254.4611-41.32469-255.12137-41.32469-255.78165-41.32469-256.3169-41.85995-256.3169-42.52022-256.3169-43.18048-255.78165-43.71574-255.12137-43.71574-254.4611-43.71574-253.92584-43.18048-253.92584-42.52022ZM-255.12137-42.52022"/>
<path transform="matrix(1,0,0,-1,348.276,15.160004)" stroke-width=".3985" stroke-linecap="butt" stroke-miterlimit="10" stroke-linejoin="miter" fill="none" stroke="#000000" d="M-253.92584-42.52022C-253.92584-41.85995-254.4611-41.32469-255.12137-41.32469-255.78165-41.32469-256.3169-41.85995-256.3169-42.52022-256.3169-43.18048-255.78165-43.71574-255.12137-43.71574-254.4611-43.71574-253.92584-43.18048-253.92584-42.52022ZM-255.12137-42.52022"/>
<use data-text="d" xlink:href="#font_0_8" transform="matrix(9.9626,0,0,-9.9626,90.390018,52.964006)"/>
<path transform="matrix(1,0,0,-1,348.276,15.160004)" stroke-width="8.76709" stroke-linecap="butt" stroke-miterlimit="10" stroke-linejoin="miter" fill="none" stroke="#fff799" d="M-255.96674-43.36559-297.6416-85.04044"/>
<path transform="matrix(1,0,0,-1,348.276,15.160004)" stroke-width="7.9701" stroke-linecap="butt" stroke-miterlimit="10" stroke-linejoin="miter" fill="none" stroke="#fff799" d="M-255.96674-43.36559-297.6416-85.04044"/>
<path transform="matrix(1,0,0,-1,348.276,15.160004)" stroke-width=".3985" stroke-linecap="butt" stroke-miterlimit="10" stroke-linejoin="miter" fill="none" stroke="#000000" d="M-255.96674-43.36559-297.6416-85.04044"/>
<use data-text="A" xlink:href="#font_1_1" transform="matrix(9.9626,0,0,-9.9626,42.217988,82.23)"/>
<use data-text="=" xlink:href="#font_0_6" transform="matrix(9.9626,0,0,-9.9626,52.45799,82.23)"/>
<use data-text="0" xlink:href="#font_0_1" transform="matrix(9.9626,0,0,-9.9626,62.978498,82.23)"/>
<path transform="matrix(1,0,0,-1,348.276,15.160004)" stroke-width=".3985" stroke-linecap="butt" stroke-miterlimit="10" stroke-linejoin="miter" fill="none" stroke="#000000" d="M-254.276-43.36559-212.60112-85.04044"/>
<use data-text="1" xlink:href="#font_0_2" transform="matrix(9.9626,0,0,-9.9626,118.36,82.036)"/>
<path transform="matrix(1,0,0,-1,348.276,15.160004)" d="M-83.84492-42.52022C-83.84492-41.85995-84.38019-41.32469-85.04045-41.32469-85.70071-41.32469-86.23598-41.85995-86.23598-42.52022-86.23598-43.18048-85.70071-43.71574-85.04045-43.71574-84.38019-43.71574-83.84492-43.18048-83.84492-42.52022ZM-85.04045-42.52022"/>
<path transform="matrix(1,0,0,-1,348.276,15.160004)" stroke-width=".3985" stroke-linecap="butt" stroke-miterlimit="10" stroke-linejoin="miter" fill="none" stroke="#000000" d="M-83.84492-42.52022C-83.84492-41.85995-84.38019-41.32469-85.04045-41.32469-85.70071-41.32469-86.23598-41.85995-86.23598-42.52022-86.23598-43.18048-85.70071-43.71574-85.04045-43.71574-84.38019-43.71574-83.84492-43.18048-83.84492-42.52022ZM-85.04045-42.52022"/>
<use data-text="d" xlink:href="#font_0_8" transform="matrix(9.9626,0,0,-9.9626,260.469,52.964006)"/>
<path transform="matrix(1,0,0,-1,348.276,15.160004)" stroke-width="8.76709" stroke-linecap="butt" stroke-miterlimit="10" stroke-linejoin="miter" fill="none" stroke="#fff799" d="M-85.88582-43.36559-127.56065-85.04044"/>
<path transform="matrix(1,0,0,-1,348.276,15.160004)" stroke-width="7.9701" stroke-linecap="butt" stroke-miterlimit="10" stroke-linejoin="miter" fill="none" stroke="#fff799" d="M-85.88582-43.36559-127.56065-85.04044"/>
<path transform="matrix(1,0,0,-1,348.276,15.160004)" stroke-width=".3985" stroke-linecap="butt" stroke-miterlimit="10" stroke-linejoin="miter" fill="none" stroke="#000000" d="M-85.88582-43.36559-127.56065-85.04044"/>
<use data-text="0" xlink:href="#font_0_1" transform="matrix(9.9626,0,0,-9.9626,233.05301,82.036)"/>
<path transform="matrix(1,0,0,-1,348.276,15.160004)" stroke-width=".3985" stroke-linecap="butt" stroke-miterlimit="10" stroke-linejoin="miter" fill="none" stroke="#000000" d="M-84.19508-43.36559-42.5202-85.04044"/>
<use data-text="1" xlink:href="#font_0_2" transform="matrix(9.9626,0,0,-9.9626,288.439,82.036)"/>
<path transform="matrix(1,0,0,-1,348.276,15.160004)" d="M86.23598-42.52022C86.23598-41.85995 85.70071-41.32469 85.04045-41.32469 84.38019-41.32469 83.84492-41.85995 83.84492-42.52022 83.84492-43.18048 84.38019-43.71574 85.04045-43.71574 85.70071-43.71574 86.23598-43.18048 86.23598-42.52022ZM85.04045-42.52022"/>
<path transform="matrix(1,0,0,-1,348.276,15.160004)" stroke-width=".3985" stroke-linecap="butt" stroke-miterlimit="10" stroke-linejoin="miter" fill="none" stroke="#000000" d="M86.23598-42.52022C86.23598-41.85995 85.70071-41.32469 85.04045-41.32469 84.38019-41.32469 83.84492-41.85995 83.84492-42.52022 83.84492-43.18048 84.38019-43.71574 85.04045-43.71574 85.70071-43.71574 86.23598-43.18048 86.23598-42.52022ZM85.04045-42.52022"/>
<use data-text="d" xlink:href="#font_0_8" transform="matrix(9.9626,0,0,-9.9626,430.548,52.964006)"/>
<path transform="matrix(1,0,0,-1,348.276,15.160004)" stroke-width=".3985" stroke-linecap="butt" stroke-miterlimit="10" stroke-linejoin="miter" fill="none" stroke="#000000" d="M84.19508-43.36559 42.52025-85.04044"/>
<use data-text="0" xlink:href="#font_0_1" transform="matrix(9.9626,0,0,-9.9626,403.131,82.036)"/>
<path transform="matrix(1,0,0,-1,348.276,15.160004)" stroke-width="8.76709" stroke-linecap="butt" stroke-miterlimit="10" stroke-linejoin="miter" fill="none" stroke="#fff799" d="M85.88582-43.36559 127.5607-85.04044"/>
<path transform="matrix(1,0,0,-1,348.276,15.160004)" stroke-width="7.9701" stroke-linecap="butt" stroke-miterlimit="10" stroke-linejoin="miter" fill="none" stroke="#fff799" d="M85.88582-43.36559 127.5607-85.04044"/>
<path transform="matrix(1,0,0,-1,348.276,15.160004)" stroke-width=".3985" stroke-linecap="butt" stroke-miterlimit="10" stroke-linejoin="miter" fill="none" stroke="#000000" d="M85.88582-43.36559 127.5607-85.04044"/>
<use data-text="1" xlink:href="#font_0_2" transform="matrix(9.9626,0,0,-9.9626,458.517,82.036)"/>
<path transform="matrix(1,0,0,-1,348.276,15.160004)" d="M256.3169-42.52022C256.3169-41.85995 255.78165-41.32469 255.12137-41.32469 254.4611-41.32469 253.92584-41.85995 253.92584-42.52022 253.92584-43.18048 254.4611-43.71574 255.12137-43.71574 255.78165-43.71574 256.3169-43.18048 256.3169-42.52022ZM255.12137-42.52022"/>
<path transform="matrix(1,0,0,-1,348.276,15.160004)" stroke-width=".3985" stroke-linecap="butt" stroke-miterlimit="10" stroke-linejoin="miter" fill="none" stroke="#000000" d="M256.3169-42.52022C256.3169-41.85995 255.78165-41.32469 255.12137-41.32469 254.4611-41.32469 253.92584-41.85995 253.92584-42.52022 253.92584-43.18048 254.4611-43.71574 255.12137-43.71574 255.78165-43.71574 256.3169-43.18048 256.3169-42.52022ZM255.12137-42.52022"/>
<use data-text="d" xlink:href="#font_0_8" transform="matrix(9.9626,0,0,-9.9626,600.626,52.964006)"/>
<path transform="matrix(1,0,0,-1,348.276,15.160004)" stroke-width=".3985" stroke-linecap="butt" stroke-miterlimit="10" stroke-linejoin="miter" fill="none" stroke="#000000" d="M254.276-43.36559 212.60117-85.04044"/>
<use data-text="0" xlink:href="#font_0_1" transform="matrix(9.9626,0,0,-9.9626,573.21,82.036)"/>
<path transform="matrix(1,0,0,-1,348.276,15.160004)" stroke-width="8.76709" stroke-linecap="butt" stroke-miterlimit="10" stroke-linejoin="miter" fill="none" stroke="#fff799" d="M255.96674-43.36559 297.64164-85.04044"/>
<path transform="matrix(1,0,0,-1,348.276,15.160004)" stroke-width="7.9701" stroke-linecap="butt" stroke-miterlimit="10" stroke-linejoin="miter" fill="none" stroke="#fff799" d="M255.96674-43.36559 297.64164-85.04044"/>
<path transform="matrix(1,0,0,-1,348.276,15.160004)" stroke-width=".3985" stroke-linecap="butt" stroke-miterlimit="10" stroke-linejoin="miter" fill="none" stroke="#000000" d="M255.96674-43.36559 297.64164-85.04044"/>
<use data-text="1" xlink:href="#font_0_2" transform="matrix(9.9626,0,0,-9.9626,628.596,82.036)"/>
<path transform="matrix(1,0,0,-1,348.276,15.160004)" d="M-296.44606-85.04044C-296.44606-84.38017-296.98133-83.84491-297.6416-83.84491-298.30186-83.84491-298.8371-84.38017-298.8371-85.04044-298.8371-85.7007-298.30186-86.23596-297.6416-86.23596-296.98133-86.23596-296.44606-85.7007-296.44606-85.04044ZM-297.6416-85.04044"/>
<path transform="matrix(1,0,0,-1,348.276,15.160004)" stroke-width=".3985" stroke-linecap="butt" stroke-miterlimit="10" stroke-linejoin="miter" fill="none" stroke="#000000" d="M-296.44606-85.04044C-296.44606-84.38017-296.98133-83.84491-297.6416-83.84491-298.30186-83.84491-298.8371-84.38017-298.8371-85.04044-298.8371-85.7007-298.30186-86.23596-297.6416-86.23596-296.98133-86.23596-296.44606-85.7007-296.44606-85.04044ZM-297.6416-85.04044"/>
<use data-text="c" xlink:href="#font_0_7" transform="matrix(9.9626,0,0,-9.9626,48.42401,95.484)"/>
<path transform="matrix(1,0,0,-1,348.276,15.160004)" d="M-324.79283-127.56065C-324.79283-126.90039-325.3281-126.36513-325.98838-126.36513-326.64863-126.36513-327.18388-126.90039-327.18388-127.56065-327.18388-128.22093-326.64863-128.7562-325.98838-128.7562-325.3281-128.7562-324.79283-128.22093-324.79283-127.56065ZM-325.98838-127.56065"/>
<path transform="matrix(1,0,0,-1,348.276,15.160004)" stroke-width=".3985" stroke-linecap="butt" stroke-miterlimit="10" stroke-linejoin="miter" fill="none" stroke="#000000" d="M-324.79283-127.56065C-324.79283-126.90039-325.3281-126.36513-325.98838-126.36513-326.64863-126.36513-327.18388-126.90039-327.18388-127.56065-327.18388-128.22093-326.64863-128.7562-325.98838-128.7562-325.3281-128.7562-324.79283-128.22093-324.79283-127.56065ZM-325.98838-127.56065"/>
<path transform="matrix(1,0,0,-1,348.276,15.160004)" stroke-width=".3985" stroke-linecap="butt" stroke-miterlimit="10" stroke-linejoin="miter" fill="none" stroke="#000000" d="M-298.30467-86.03513-325.32524-126.56596"/>
<use data-text="0" xlink:href="#font_0_1" transform="matrix(9.9626,0,0,-9.9626,19.800995,153.395)"/>
<use data-text="D" xlink:href="#font_1_2" transform="matrix(9.9626,0,0,-9.9626,6.154999,124.327)"/>
<use data-text="=" xlink:href="#font_0_6" transform="matrix(9.9626,0,0,-9.9626,17.447999,124.327)"/>
<use data-text="2" xlink:href="#font_0_3" transform="matrix(9.9626,0,0,-9.9626,27.968504,124.327)"/>
<path transform="matrix(1,0,0,-1,348.276,15.160004)" d="M-296.446-127.56065C-296.446-126.90039-296.9813-126.36513-297.64158-126.36513-298.30183-126.36513-298.83708-126.90039-298.83708-127.56065-298.83708-128.22093-298.30183-128.7562-297.64158-128.7562-296.9813-128.7562-296.446-128.22093-296.446-127.56065ZM-297.64158-127.56065"/>
<path transform="matrix(1,0,0,-1,348.276,15.160004)" stroke-width=".3985" stroke-linecap="butt" stroke-miterlimit="10" stroke-linejoin="miter" fill="none" stroke="#000000" d="M-296.446-127.56065C-296.446-126.90039-296.9813-126.36513-297.64158-126.36513-298.30183-126.36513-298.83708-126.90039-298.83708-127.56065-298.83708-128.22093-298.30183-128.7562-297.64158-128.7562-296.9813-128.7562-296.446-128.22093-296.446-127.56065ZM-297.64158-127.56065"/>
<path transform="matrix(1,0,0,-1,348.276,15.160004)" stroke-width=".3985" stroke-linecap="butt" stroke-miterlimit="10" stroke-linejoin="miter" fill="none" stroke="#000000" d="M-297.6416-86.23596-297.64158-126.36513"/>
<use data-text="0" xlink:href="#font_0_1" transform="matrix(9.9626,0,0,-9.9626,48.147005,153.395)"/>
<use data-text="3" xlink:href="#font_0_4" transform="matrix(9.9626,0,0,-9.9626,42.136995,124.133)"/>
<path transform="matrix(1,0,0,-1,348.276,15.160004)" d="M-268.0992-127.56065C-268.0992-126.90039-268.6345-126.36513-269.29475-126.36513-269.955-126.36513-270.49028-126.90039-270.49028-127.56065-270.49028-128.22093-269.955-128.7562-269.29475-128.7562-268.6345-128.7562-268.0992-128.22093-268.0992-127.56065ZM-269.29475-127.56065"/>
<path transform="matrix(1,0,0,-1,348.276,15.160004)" stroke-width=".3985" stroke-linecap="butt" stroke-miterlimit="10" stroke-linejoin="miter" fill="none" stroke="#000000" d="M-268.0992-127.56065C-268.0992-126.90039-268.6345-126.36513-269.29475-126.36513-269.955-126.36513-270.49028-126.90039-270.49028-127.56065-270.49028-128.22093-269.955-128.7562-269.29475-128.7562-268.6345-128.7562-268.0992-128.22093-268.0992-127.56065ZM-269.29475-127.56065"/>
<path transform="matrix(1,0,0,-1,348.276,15.160004)" stroke-width=".3985" stroke-linecap="butt" stroke-miterlimit="10" stroke-linejoin="miter" fill="none" stroke="#000000" d="M-296.97846-86.03513-269.95787-126.56596"/>
<use data-text="0" xlink:href="#font_0_1" transform="matrix(9.9626,0,0,-9.9626,76.49399,153.395)"/>
<use data-text="4" xlink:href="#font_0_5" transform="matrix(9.9626,0,0,-9.9626,68.33099,124.133)"/>
<path transform="matrix(1,0,0,-1,348.276,15.160004)" d="M-211.4056-85.04044C-211.4056-84.38017-211.94086-83.84491-212.60112-83.84491-213.26139-83.84491-213.79665-84.38017-213.79665-85.04044-213.79665-85.7007-213.26139-86.23596-212.60112-86.23596-211.94086-86.23596-211.4056-85.7007-211.4056-85.04044ZM-212.60112-85.04044"/>
<path transform="matrix(1,0,0,-1,348.276,15.160004)" stroke-width=".3985" stroke-linecap="butt" stroke-miterlimit="10" stroke-linejoin="miter" fill="none" stroke="#000000" d="M-211.4056-85.04044C-211.4056-84.38017-211.94086-83.84491-212.60112-83.84491-213.26139-83.84491-213.79665-84.38017-213.79665-85.04044-213.79665-85.7007-213.26139-86.23596-212.60112-86.23596-211.94086-86.23596-211.4056-85.7007-211.4056-85.04044ZM-212.60112-85.04044"/>
<use data-text="c" xlink:href="#font_0_7" transform="matrix(9.9626,0,0,-9.9626,133.463,95.484)"/>
<path transform="matrix(1,0,0,-1,348.276,15.160004)" d="M-239.75237-127.56065C-239.75237-126.90039-240.28763-126.36513-240.9479-126.36513-241.60817-126.36513-242.14344-126.90039-242.14344-127.56065-242.14344-128.22093-241.60817-128.7562-240.9479-128.7562-240.28763-128.7562-239.75237-128.22093-239.75237-127.56065ZM-240.9479-127.56065"/>
<path transform="matrix(1,0,0,-1,348.276,15.160004)" stroke-width=".3985" stroke-linecap="butt" stroke-miterlimit="10" stroke-linejoin="miter" fill="none" stroke="#000000" d="M-239.75237-127.56065C-239.75237-126.90039-240.28763-126.36513-240.9479-126.36513-241.60817-126.36513-242.14344-126.90039-242.14344-127.56065-242.14344-128.22093-241.60817-128.7562-240.9479-128.7562-240.28763-128.7562-239.75237-128.22093-239.75237-127.56065ZM-240.9479-127.56065"/>
<path transform="matrix(1,0,0,-1,348.276,15.160004)" stroke-width=".3985" stroke-linecap="butt" stroke-miterlimit="10" stroke-linejoin="miter" fill="none" stroke="#000000" d="M-213.26422-86.03513-240.28478-126.56596"/>
<use data-text="&#x2212;" xlink:href="#font_2_1" transform="matrix(9.9626,0,0,-9.9626,100.966,153.395)"/>
<use data-text="1" xlink:href="#font_0_2" transform="matrix(9.9626,0,0,-9.9626,108.715007,153.395)"/>
<use data-text="2" xlink:href="#font_0_3" transform="matrix(9.9626,0,0,-9.9626,113.003009,124.133)"/>
<path transform="matrix(1,0,0,-1,348.276,15.160004)" d="M-211.40557-127.56065C-211.40557-126.90039-211.94083-126.36513-212.60109-126.36513-213.26136-126.36513-213.79662-126.90039-213.79662-127.56065-213.79662-128.22093-213.26136-128.7562-212.60109-128.7562-211.94083-128.7562-211.40557-128.22093-211.40557-127.56065ZM-212.60109-127.56065"/>
<path transform="matrix(1,0,0,-1,348.276,15.160004)" stroke-width=".3985" stroke-linecap="butt" stroke-miterlimit="10" stroke-linejoin="miter" fill="none" stroke="#000000" d="M-211.40557-127.56065C-211.40557-126.90039-211.94083-126.36513-212.60109-126.36513-213.26136-126.36513-213.79662-126.90039-213.79662-127.56065-213.79662-128.22093-213.26136-128.7562-212.60109-128.7562-211.94083-128.7562-211.40557-128.22093-211.40557-127.56065ZM-212.60109-127.56065"/>
<path transform="matrix(1,0,0,-1,348.276,15.160004)" stroke-width=".3985" stroke-linecap="butt" stroke-miterlimit="10" stroke-linejoin="miter" fill="none" stroke="#000000" d="M-212.60112-86.23596-212.60109-126.36513"/>
<use data-text="&#x2212;" xlink:href="#font_2_1" transform="matrix(9.9626,0,0,-9.9626,129.312,153.395)"/>
<use data-text="1" xlink:href="#font_0_2" transform="matrix(9.9626,0,0,-9.9626,137.06099,153.395)"/>
<use data-text="3" xlink:href="#font_0_4" transform="matrix(9.9626,0,0,-9.9626,127.175998,124.133)"/>
<path transform="matrix(1,0,0,-1,348.276,15.160004)" d="M-183.05875-127.56065C-183.05875-126.90039-183.59401-126.36513-184.25428-126.36513-184.91455-126.36513-185.44982-126.90039-185.44982-127.56065-185.44982-128.22093-184.91455-128.7562-184.25428-128.7562-183.59401-128.7562-183.05875-128.22093-183.05875-127.56065ZM-184.25428-127.56065"/>
<path transform="matrix(1,0,0,-1,348.276,15.160004)" stroke-width=".3985" stroke-linecap="butt" stroke-miterlimit="10" stroke-linejoin="miter" fill="none" stroke="#000000" d="M-183.05875-127.56065C-183.05875-126.90039-183.59401-126.36513-184.25428-126.36513-184.91455-126.36513-185.44982-126.90039-185.44982-127.56065-185.44982-128.22093-184.91455-128.7562-184.25428-128.7562-183.59401-128.7562-183.05875-128.22093-183.05875-127.56065ZM-184.25428-127.56065"/>
<path transform="matrix(1,0,0,-1,348.276,15.160004)" stroke-width=".3985" stroke-linecap="butt" stroke-miterlimit="10" stroke-linejoin="miter" fill="none" stroke="#000000" d="M-211.93799-86.03513-184.9174-126.56596"/>
<use data-text="&#x2212;" xlink:href="#font_2_1" transform="matrix(9.9626,0,0,-9.9626,157.659,153.395)"/>
<use data-text="1" xlink:href="#font_0_2" transform="matrix(9.9626,0,0,-9.9626,165.40799,153.395)"/>
<use data-text="4" xlink:href="#font_0_5" transform="matrix(9.9626,0,0,-9.9626,153.37,124.133)"/>
<path transform="matrix(1,0,0,-1,348.276,15.160004)" d="M-126.36513-85.04044C-126.36513-84.38017-126.90039-83.84491-127.56065-83.84491-128.22093-83.84491-128.7562-84.38017-128.7562-85.04044-128.7562-85.7007-128.22093-86.23596-127.56065-86.23596-126.90039-86.23596-126.36513-85.7007-126.36513-85.04044ZM-127.56065-85.04044"/>
<path transform="matrix(1,0,0,-1,348.276,15.160004)" stroke-width=".3985" stroke-linecap="butt" stroke-miterlimit="10" stroke-linejoin="miter" fill="none" stroke="#000000" d="M-126.36513-85.04044C-126.36513-84.38017-126.90039-83.84491-127.56065-83.84491-128.22093-83.84491-128.7562-84.38017-128.7562-85.04044-128.7562-85.7007-128.22093-86.23596-127.56065-86.23596-126.90039-86.23596-126.36513-85.7007-126.36513-85.04044ZM-127.56065-85.04044"/>
<use data-text="c" xlink:href="#font_0_7" transform="matrix(9.9626,0,0,-9.9626,218.503,95.484)"/>
<path transform="matrix(1,0,0,-1,348.276,15.160004)" d="M-154.71192-127.56065C-154.71192-126.90039-155.24718-126.36513-155.90744-126.36513-156.5677-126.36513-157.10297-126.90039-157.10297-127.56065-157.10297-128.22093-156.5677-128.7562-155.90744-128.7562-155.24718-128.7562-154.71192-128.22093-154.71192-127.56065ZM-155.90744-127.56065"/>
<path transform="matrix(1,0,0,-1,348.276,15.160004)" stroke-width=".3985" stroke-linecap="butt" stroke-miterlimit="10" stroke-linejoin="miter" fill="none" stroke="#000000" d="M-154.71192-127.56065C-154.71192-126.90039-155.24718-126.36513-155.90744-126.36513-156.5677-126.36513-157.10297-126.90039-157.10297-127.56065-157.10297-128.22093-156.5677-128.7562-155.90744-128.7562-155.24718-128.7562-154.71192-128.22093-154.71192-127.56065ZM-155.90744-127.56065"/>
<path transform="matrix(1,0,0,-1,348.276,15.160004)" stroke-width=".3985" stroke-linecap="butt" stroke-miterlimit="10" stroke-linejoin="miter" fill="none" stroke="#000000" d="M-128.22376-86.03513-155.24431-126.56596"/>
<use data-text="0" xlink:href="#font_0_1" transform="matrix(9.9626,0,0,-9.9626,189.88,153.395)"/>
<use data-text="1" xlink:href="#font_0_2" transform="matrix(9.9626,0,0,-9.9626,198.042,124.133)"/>
<path transform="matrix(1,0,0,-1,348.276,15.160004)" d="M-126.3651-127.56065C-126.3651-126.90039-126.90036-126.36513-127.56062-126.36513-128.2209-126.36513-128.75617-126.90039-128.75617-127.56065-128.75617-128.22093-128.2209-128.7562-127.56062-128.7562-126.90036-128.7562-126.3651-128.22093-126.3651-127.56065ZM-127.56062-127.56065"/>
<path transform="matrix(1,0,0,-1,348.276,15.160004)" stroke-width=".3985" stroke-linecap="butt" stroke-miterlimit="10" stroke-linejoin="miter" fill="none" stroke="#000000" d="M-126.3651-127.56065C-126.3651-126.90039-126.90036-126.36513-127.56062-126.36513-128.2209-126.36513-128.75617-126.90039-128.75617-127.56065-128.75617-128.22093-128.2209-128.7562-127.56062-128.7562-126.90036-128.7562-126.3651-128.22093-126.3651-127.56065ZM-127.56062-127.56065"/>
<path transform="matrix(1,0,0,-1,348.276,15.160004)" stroke-width=".3985" stroke-linecap="butt" stroke-miterlimit="10" stroke-linejoin="miter" fill="none" stroke="#000000" d="M-127.56065-86.23596-127.56062-126.36513"/>
<use data-text="0" xlink:href="#font_0_1" transform="matrix(9.9626,0,0,-9.9626,218.226,153.395)"/>
<use data-text="3" xlink:href="#font_0_4" transform="matrix(9.9626,0,0,-9.9626,212.216,124.133)"/>
<path transform="matrix(1,0,0,-1,348.276,15.160004)" d="M-98.0183-127.56065C-98.0183-126.90039-98.55356-126.36513-99.21382-126.36513-99.87408-126.36513-100.40935-126.90039-100.40935-127.56065-100.40935-128.22093-99.87408-128.7562-99.21382-128.7562-98.55356-128.7562-98.0183-128.22093-98.0183-127.56065ZM-99.21382-127.56065"/>
<path transform="matrix(1,0,0,-1,348.276,15.160004)" stroke-width=".3985" stroke-linecap="butt" stroke-miterlimit="10" stroke-linejoin="miter" fill="none" stroke="#000000" d="M-98.0183-127.56065C-98.0183-126.90039-98.55356-126.36513-99.21382-126.36513-99.87408-126.36513-100.40935-126.90039-100.40935-127.56065-100.40935-128.22093-99.87408-128.7562-99.21382-128.7562-98.55356-128.7562-98.0183-128.22093-98.0183-127.56065ZM-99.21382-127.56065"/>
<path transform="matrix(1,0,0,-1,348.276,15.160004)" stroke-width=".3985" stroke-linecap="butt" stroke-miterlimit="10" stroke-linejoin="miter" fill="none" stroke="#000000" d="M-126.89754-86.03513-99.87694-126.56596"/>
<use data-text="0" xlink:href="#font_0_1" transform="matrix(9.9626,0,0,-9.9626,246.573,153.395)"/>
<use data-text="4" xlink:href="#font_0_5" transform="matrix(9.9626,0,0,-9.9626,238.41,124.133)"/>
<path transform="matrix(1,0,0,-1,348.276,15.160004)" d="M-41.32468-85.04044C-41.32468-84.38017-41.85994-83.84491-42.5202-83.84491-43.18047-83.84491-43.71573-84.38017-43.71573-85.04044-43.71573-85.7007-43.18047-86.23596-42.5202-86.23596-41.85994-86.23596-41.32468-85.7007-41.32468-85.04044ZM-42.5202-85.04044"/>
<path transform="matrix(1,0,0,-1,348.276,15.160004)" stroke-width=".3985" stroke-linecap="butt" stroke-miterlimit="10" stroke-linejoin="miter" fill="none" stroke="#000000" d="M-41.32468-85.04044C-41.32468-84.38017-41.85994-83.84491-42.5202-83.84491-43.18047-83.84491-43.71573-84.38017-43.71573-85.04044-43.71573-85.7007-43.18047-86.23596-42.5202-86.23596-41.85994-86.23596-41.32468-85.7007-41.32468-85.04044ZM-42.5202-85.04044"/>
<use data-text="c" xlink:href="#font_0_7" transform="matrix(9.9626,0,0,-9.9626,303.542,95.484)"/>
<path transform="matrix(1,0,0,-1,348.276,15.160004)" d="M-69.67145-127.56065C-69.67145-126.90039-70.20671-126.36513-70.86697-126.36513-71.52725-126.36513-72.06252-126.90039-72.06252-127.56065-72.06252-128.22093-71.52725-128.7562-70.86697-128.7562-70.20671-128.7562-69.67145-128.22093-69.67145-127.56065ZM-70.86697-127.56065"/>
<path transform="matrix(1,0,0,-1,348.276,15.160004)" stroke-width=".3985" stroke-linecap="butt" stroke-miterlimit="10" stroke-linejoin="miter" fill="none" stroke="#000000" d="M-69.67145-127.56065C-69.67145-126.90039-70.20671-126.36513-70.86697-126.36513-71.52725-126.36513-72.06252-126.90039-72.06252-127.56065-72.06252-128.22093-71.52725-128.7562-70.86697-128.7562-70.20671-128.7562-69.67145-128.22093-69.67145-127.56065ZM-70.86697-127.56065"/>
<path transform="matrix(1,0,0,-1,348.276,15.160004)" stroke-width=".3985" stroke-linecap="butt" stroke-miterlimit="10" stroke-linejoin="miter" fill="none" stroke="#000000" d="M-43.18329-86.03513-70.20386-126.56596"/>
<use data-text="1" xlink:href="#font_0_2" transform="matrix(9.9626,0,0,-9.9626,274.919,153.395)"/>
<use data-text="1" xlink:href="#font_0_2" transform="matrix(9.9626,0,0,-9.9626,283.082,124.133)"/>
<path transform="matrix(1,0,0,-1,348.276,15.160004)" d="M-41.32465-127.56065C-41.32465-126.90039-41.85991-126.36513-42.52017-126.36513-43.18044-126.36513-43.7157-126.90039-43.7157-127.56065-43.7157-128.22093-43.18044-128.7562-42.52017-128.7562-41.85991-128.7562-41.32465-128.22093-41.32465-127.56065ZM-42.52017-127.56065"/>
<path transform="matrix(1,0,0,-1,348.276,15.160004)" stroke-width=".3985" stroke-linecap="butt" stroke-miterlimit="10" stroke-linejoin="miter" fill="none" stroke="#000000" d="M-41.32465-127.56065C-41.32465-126.90039-41.85991-126.36513-42.52017-126.36513-43.18044-126.36513-43.7157-126.90039-43.7157-127.56065-43.7157-128.22093-43.18044-128.7562-42.52017-128.7562-41.85991-128.7562-41.32465-128.22093-41.32465-127.56065ZM-42.52017-127.56065"/>
<path transform="matrix(1,0,0,-1,348.276,15.160004)" stroke-width=".3985" stroke-linecap="butt" stroke-miterlimit="10" stroke-linejoin="miter" fill="none" stroke="#000000" d="M-42.5202-86.23596-42.52017-126.36513"/>
<use data-text="&#x2212;" xlink:href="#font_2_1" transform="matrix(9.9626,0,0,-9.9626,299.391,153.395)"/>
<use data-text="1" xlink:href="#font_0_2" transform="matrix(9.9626,0,0,-9.9626,307.13999,153.395)"/>
<use data-text="3" xlink:href="#font_0_4" transform="matrix(9.9626,0,0,-9.9626,297.255,124.133)"/>
<path transform="matrix(1,0,0,-1,348.276,15.160004)" d="M-12.97783-127.56065C-12.97783-126.90039-13.51309-126.36513-14.17336-126.36513-14.83363-126.36513-15.36888-126.90039-15.36888-127.56065-15.36888-128.22093-14.83363-128.7562-14.17336-128.7562-13.51309-128.7562-12.97783-128.22093-12.97783-127.56065ZM-14.17336-127.56065"/>
<path transform="matrix(1,0,0,-1,348.276,15.160004)" stroke-width=".3985" stroke-linecap="butt" stroke-miterlimit="10" stroke-linejoin="miter" fill="none" stroke="#000000" d="M-12.97783-127.56065C-12.97783-126.90039-13.51309-126.36513-14.17336-126.36513-14.83363-126.36513-15.36888-126.90039-15.36888-127.56065-15.36888-128.22093-14.83363-128.7562-14.17336-128.7562-13.51309-128.7562-12.97783-128.22093-12.97783-127.56065ZM-14.17336-127.56065"/>
<path transform="matrix(1,0,0,-1,348.276,15.160004)" stroke-width=".3985" stroke-linecap="butt" stroke-miterlimit="10" stroke-linejoin="miter" fill="none" stroke="#000000" d="M-41.85707-86.03513-14.83649-126.56596"/>
<use data-text="&#x2212;" xlink:href="#font_2_1" transform="matrix(9.9626,0,0,-9.9626,327.738,153.395)"/>
<use data-text="1" xlink:href="#font_0_2" transform="matrix(9.9626,0,0,-9.9626,335.486,153.395)"/>
<use data-text="4" xlink:href="#font_0_5" transform="matrix(9.9626,0,0,-9.9626,323.449,124.133)"/>
<path transform="matrix(1,0,0,-1,348.276,15.160004)" d="M43.71577-85.04044C43.71577-84.38017 43.18051-83.84491 42.52025-83.84491 41.85997-83.84491 41.32472-84.38017 41.32472-85.04044 41.32472-85.7007 41.85997-86.23596 42.52025-86.23596 43.18051-86.23596 43.71577-85.7007 43.71577-85.04044ZM42.52025-85.04044"/>
<path transform="matrix(1,0,0,-1,348.276,15.160004)" stroke-width=".3985" stroke-linecap="butt" stroke-miterlimit="10" stroke-linejoin="miter" fill="none" stroke="#000000" d="M43.71577-85.04044C43.71577-84.38017 43.18051-83.84491 42.52025-83.84491 41.85997-83.84491 41.32472-84.38017 41.32472-85.04044 41.32472-85.7007 41.85997-86.23596 42.52025-86.23596 43.18051-86.23596 43.71577-85.7007 43.71577-85.04044ZM42.52025-85.04044"/>
<use data-text="c" xlink:href="#font_0_7" transform="matrix(9.9626,0,0,-9.9626,388.582,95.484)"/>
<path transform="matrix(1,0,0,-1,348.276,15.160004)" d="M15.36899-127.56065C15.36899-126.90039 14.83374-126.36513 14.17346-126.36513 13.5132-126.36513 12.97794-126.90039 12.97794-127.56065 12.97794-128.22093 13.5132-128.7562 14.17346-128.7562 14.83374-128.7562 15.36899-128.22093 15.36899-127.56065ZM14.17346-127.56065"/>
<path transform="matrix(1,0,0,-1,348.276,15.160004)" stroke-width=".3985" stroke-linecap="butt" stroke-miterlimit="10" stroke-linejoin="miter" fill="none" stroke="#000000" d="M15.36899-127.56065C15.36899-126.90039 14.83374-126.36513 14.17346-126.36513 13.5132-126.36513 12.97794-126.90039 12.97794-127.56065 12.97794-128.22093 13.5132-128.7562 14.17346-128.7562 14.83374-128.7562 15.36899-128.22093 15.36899-127.56065ZM14.17346-127.56065"/>
<path transform="matrix(1,0,0,-1,348.276,15.160004)" stroke-width=".3985" stroke-linecap="butt" stroke-miterlimit="10" stroke-linejoin="miter" fill="none" stroke="#000000" d="M41.85715-86.03513 14.8366-126.56596"/>
<use data-text="0" xlink:href="#font_0_1" transform="matrix(9.9626,0,0,-9.9626,359.958,153.395)"/>
<use data-text="1" xlink:href="#font_0_2" transform="matrix(9.9626,0,0,-9.9626,368.121,124.133)"/>
<path transform="matrix(1,0,0,-1,348.276,15.160004)" d="M43.7158-127.56065C43.7158-126.90039 43.18054-126.36513 42.52028-126.36513 41.86-126.36513 41.32475-126.90039 41.32475-127.56065 41.32475-128.22093 41.86-128.7562 42.52028-128.7562 43.18054-128.7562 43.7158-128.22093 43.7158-127.56065ZM42.52028-127.56065"/>
<path transform="matrix(1,0,0,-1,348.276,15.160004)" stroke-width=".3985" stroke-linecap="butt" stroke-miterlimit="10" stroke-linejoin="miter" fill="none" stroke="#000000" d="M43.7158-127.56065C43.7158-126.90039 43.18054-126.36513 42.52028-126.36513 41.86-126.36513 41.32475-126.90039 41.32475-127.56065 41.32475-128.22093 41.86-128.7562 42.52028-128.7562 43.18054-128.7562 43.7158-128.22093 43.7158-127.56065ZM42.52028-127.56065"/>
<path transform="matrix(1,0,0,-1,348.276,15.160004)" stroke-width=".3985" stroke-linecap="butt" stroke-miterlimit="10" stroke-linejoin="miter" fill="none" stroke="#000000" d="M42.52025-86.23596 42.52028-126.36513"/>
<use data-text="0" xlink:href="#font_0_1" transform="matrix(9.9626,0,0,-9.9626,388.305,153.395)"/>
<use data-text="2" xlink:href="#font_0_3" transform="matrix(9.9626,0,0,-9.9626,382.294,124.133)"/>
<path transform="matrix(1,0,0,-1,348.276,15.160004)" d="M72.06262-127.56065C72.06262-126.90039 71.52736-126.36513 70.86708-126.36513 70.20682-126.36513 69.67155-126.90039 69.67155-127.56065 69.67155-128.22093 70.20682-128.7562 70.86708-128.7562 71.52736-128.7562 72.06262-128.22093 72.06262-127.56065ZM70.86708-127.56065"/>
<path transform="matrix(1,0,0,-1,348.276,15.160004)" stroke-width=".3985" stroke-linecap="butt" stroke-miterlimit="10" stroke-linejoin="miter" fill="none" stroke="#000000" d="M72.06262-127.56065C72.06262-126.90039 71.52736-126.36513 70.86708-126.36513 70.20682-126.36513 69.67155-126.90039 69.67155-127.56065 69.67155-128.22093 70.20682-128.7562 70.86708-128.7562 71.52736-128.7562 72.06262-128.22093 72.06262-127.56065ZM70.86708-127.56065"/>
<path transform="matrix(1,0,0,-1,348.276,15.160004)" stroke-width=".3985" stroke-linecap="butt" stroke-miterlimit="10" stroke-linejoin="miter" fill="none" stroke="#000000" d="M43.18336-86.03513 70.20396-126.56596"/>
<use data-text="0" xlink:href="#font_0_1" transform="matrix(9.9626,0,0,-9.9626,416.651,153.395)"/>
<use data-text="4" xlink:href="#font_0_5" transform="matrix(9.9626,0,0,-9.9626,408.489,124.133)"/>
<path transform="matrix(1,0,0,-1,348.276,15.160004)" d="M128.75624-85.04044C128.75624-84.38017 128.22098-83.84491 127.5607-83.84491 126.90044-83.84491 126.36517-84.38017 126.36517-85.04044 126.36517-85.7007 126.90044-86.23596 127.5607-86.23596 128.22098-86.23596 128.75624-85.7007 128.75624-85.04044ZM127.5607-85.04044"/>
<path transform="matrix(1,0,0,-1,348.276,15.160004)" stroke-width=".3985" stroke-linecap="butt" stroke-miterlimit="10" stroke-linejoin="miter" fill="none" stroke="#000000" d="M128.75624-85.04044C128.75624-84.38017 128.22098-83.84491 127.5607-83.84491 126.90044-83.84491 126.36517-84.38017 126.36517-85.04044 126.36517-85.7007 126.90044-86.23596 127.5607-86.23596 128.22098-86.23596 128.75624-85.7007 128.75624-85.04044ZM127.5607-85.04044"/>
<use data-text="c" xlink:href="#font_0_7" transform="matrix(9.9626,0,0,-9.9626,473.621,95.484)"/>
<path transform="matrix(1,0,0,-1,348.276,15.160004)" d="M100.40945-127.56065C100.40945-126.90039 99.87419-126.36513 99.21393-126.36513 98.55367-126.36513 98.0184-126.90039 98.0184-127.56065 98.0184-128.22093 98.55367-128.7562 99.21393-128.7562 99.87419-128.7562 100.40945-128.22093 100.40945-127.56065ZM99.21393-127.56065"/>
<path transform="matrix(1,0,0,-1,348.276,15.160004)" stroke-width=".3985" stroke-linecap="butt" stroke-miterlimit="10" stroke-linejoin="miter" fill="none" stroke="#000000" d="M100.40945-127.56065C100.40945-126.90039 99.87419-126.36513 99.21393-126.36513 98.55367-126.36513 98.0184-126.90039 98.0184-127.56065 98.0184-128.22093 98.55367-128.7562 99.21393-128.7562 99.87419-128.7562 100.40945-128.22093 100.40945-127.56065ZM99.21393-127.56065"/>
<path transform="matrix(1,0,0,-1,348.276,15.160004)" stroke-width=".3985" stroke-linecap="butt" stroke-miterlimit="10" stroke-linejoin="miter" fill="none" stroke="#000000" d="M126.89761-86.03513 99.87704-126.56596"/>
<use data-text="1" xlink:href="#font_0_2" transform="matrix(9.9626,0,0,-9.9626,444.998,153.395)"/>
<use data-text="1" xlink:href="#font_0_2" transform="matrix(9.9626,0,0,-9.9626,453.161,124.133)"/>
<path transform="matrix(1,0,0,-1,348.276,15.160004)" d="M128.75627-127.56065C128.75627-126.90039 128.22101-126.36513 127.56073-126.36513 126.90047-126.36513 126.3652-126.90039 126.3652-127.56065 126.3652-128.22093 126.90047-128.7562 127.56073-128.7562 128.22101-128.7562 128.75627-128.22093 128.75627-127.56065ZM127.56073-127.56065"/>
<path transform="matrix(1,0,0,-1,348.276,15.160004)" stroke-width=".3985" stroke-linecap="butt" stroke-miterlimit="10" stroke-linejoin="miter" fill="none" stroke="#000000" d="M128.75627-127.56065C128.75627-126.90039 128.22101-126.36513 127.56073-126.36513 126.90047-126.36513 126.3652-126.90039 126.3652-127.56065 126.3652-128.22093 126.90047-128.7562 127.56073-128.7562 128.22101-128.7562 128.75627-128.22093 128.75627-127.56065ZM127.56073-127.56065"/>
<path transform="matrix(1,0,0,-1,348.276,15.160004)" stroke-width=".3985" stroke-linecap="butt" stroke-miterlimit="10" stroke-linejoin="miter" fill="none" stroke="#000000" d="M127.5607-86.23596 127.56073-126.36513"/>
<use data-text="1" xlink:href="#font_0_2" transform="matrix(9.9626,0,0,-9.9626,473.344,153.395)"/>
<use data-text="2" xlink:href="#font_0_3" transform="matrix(9.9626,0,0,-9.9626,467.33399,124.133)"/>
<path transform="matrix(1,0,0,-1,348.276,15.160004)" d="M157.10308-127.56065C157.10308-126.90039 156.56781-126.36513 155.90755-126.36513 155.24729-126.36513 154.71202-126.90039 154.71202-127.56065 154.71202-128.22093 155.24729-128.7562 155.90755-128.7562 156.56781-128.7562 157.10308-128.22093 157.10308-127.56065ZM155.90755-127.56065"/>
<path transform="matrix(1,0,0,-1,348.276,15.160004)" stroke-width=".3985" stroke-linecap="butt" stroke-miterlimit="10" stroke-linejoin="miter" fill="none" stroke="#000000" d="M157.10308-127.56065C157.10308-126.90039 156.56781-126.36513 155.90755-126.36513 155.24729-126.36513 154.71202-126.90039 154.71202-127.56065 154.71202-128.22093 155.24729-128.7562 155.90755-128.7562 156.56781-128.7562 157.10308-128.22093 157.10308-127.56065ZM155.90755-127.56065"/>
<path transform="matrix(1,0,0,-1,348.276,15.160004)" stroke-width=".3985" stroke-linecap="butt" stroke-miterlimit="10" stroke-linejoin="miter" fill="none" stroke="#000000" d="M128.22383-86.03513 155.24442-126.56596"/>
<use data-text="&#x2212;" xlink:href="#font_2_1" transform="matrix(9.9626,0,0,-9.9626,497.81599,153.395)"/>
<use data-text="1" xlink:href="#font_0_2" transform="matrix(9.9626,0,0,-9.9626,505.56498,153.395)"/>
<use data-text="4" xlink:href="#font_0_5" transform="matrix(9.9626,0,0,-9.9626,493.528,124.133)"/>
<path transform="matrix(1,0,0,-1,348.276,15.160004)" d="M213.79669-85.04044C213.79669-84.38017 213.26143-83.84491 212.60117-83.84491 211.9409-83.84491 211.40564-84.38017 211.40564-85.04044 211.40564-85.7007 211.9409-86.23596 212.60117-86.23596 213.26143-86.23596 213.79669-85.7007 213.79669-85.04044ZM212.60117-85.04044"/>
<path transform="matrix(1,0,0,-1,348.276,15.160004)" stroke-width=".3985" stroke-linecap="butt" stroke-miterlimit="10" stroke-linejoin="miter" fill="none" stroke="#000000" d="M213.79669-85.04044C213.79669-84.38017 213.26143-83.84491 212.60117-83.84491 211.9409-83.84491 211.40564-84.38017 211.40564-85.04044 211.40564-85.7007 211.9409-86.23596 212.60117-86.23596 213.26143-86.23596 213.79669-85.7007 213.79669-85.04044ZM212.60117-85.04044"/>
<use data-text="c" xlink:href="#font_0_7" transform="matrix(9.9626,0,0,-9.9626,558.66006,95.484)"/>
<path transform="matrix(1,0,0,-1,348.276,15.160004)" d="M185.44992-127.56065C185.44992-126.90039 184.91466-126.36513 184.25438-126.36513 183.59412-126.36513 183.05886-126.90039 183.05886-127.56065 183.05886-128.22093 183.59412-128.7562 184.25438-128.7562 184.91466-128.7562 185.44992-128.22093 185.44992-127.56065ZM184.25438-127.56065"/>
<path transform="matrix(1,0,0,-1,348.276,15.160004)" stroke-width=".3985" stroke-linecap="butt" stroke-miterlimit="10" stroke-linejoin="miter" fill="none" stroke="#000000" d="M185.44992-127.56065C185.44992-126.90039 184.91466-126.36513 184.25438-126.36513 183.59412-126.36513 183.05886-126.90039 183.05886-127.56065 183.05886-128.22093 183.59412-128.7562 184.25438-128.7562 184.91466-128.7562 185.44992-128.22093 185.44992-127.56065ZM184.25438-127.56065"/>
<path transform="matrix(1,0,0,-1,348.276,15.160004)" stroke-width=".3985" stroke-linecap="butt" stroke-miterlimit="10" stroke-linejoin="miter" fill="none" stroke="#000000" d="M211.93807-86.03513 184.91751-126.56596"/>
<use data-text="0" xlink:href="#font_0_1" transform="matrix(9.9626,0,0,-9.9626,530.037,153.395)"/>
<use data-text="1" xlink:href="#font_0_2" transform="matrix(9.9626,0,0,-9.9626,538.2,124.133)"/>
<path transform="matrix(1,0,0,-1,348.276,15.160004)" d="M213.79673-127.56065C213.79673-126.90039 213.26146-126.36513 212.6012-126.36513 211.94094-126.36513 211.40567-126.90039 211.40567-127.56065 211.40567-128.22093 211.94094-128.7562 212.6012-128.7562 213.26146-128.7562 213.79673-128.22093 213.79673-127.56065ZM212.6012-127.56065"/>
<path transform="matrix(1,0,0,-1,348.276,15.160004)" stroke-width=".3985" stroke-linecap="butt" stroke-miterlimit="10" stroke-linejoin="miter" fill="none" stroke="#000000" d="M213.79673-127.56065C213.79673-126.90039 213.26146-126.36513 212.6012-126.36513 211.94094-126.36513 211.40567-126.90039 211.40567-127.56065 211.40567-128.22093 211.94094-128.7562 212.6012-128.7562 213.26146-128.7562 213.79673-128.22093 213.79673-127.56065ZM212.6012-127.56065"/>
<path transform="matrix(1,0,0,-1,348.276,15.160004)" stroke-width=".3985" stroke-linecap="butt" stroke-miterlimit="10" stroke-linejoin="miter" fill="none" stroke="#000000" d="M212.60117-86.23596 212.6012-126.36513"/>
<use data-text="0" xlink:href="#font_0_1" transform="matrix(9.9626,0,0,-9.9626,558.38406,153.395)"/>
<use data-text="2" xlink:href="#font_0_3" transform="matrix(9.9626,0,0,-9.9626,552.373,124.133)"/>
<path transform="matrix(1,0,0,-1,348.276,15.160004)" d="M242.14354-127.56065C242.14354-126.90039 241.60828-126.36513 240.948-126.36513 240.28774-126.36513 239.75247-126.90039 239.75247-127.56065 239.75247-128.22093 240.28774-128.7562 240.948-128.7562 241.60828-128.7562 242.14354-128.22093 242.14354-127.56065ZM240.948-127.56065"/>
<path transform="matrix(1,0,0,-1,348.276,15.160004)" stroke-width=".3985" stroke-linecap="butt" stroke-miterlimit="10" stroke-linejoin="miter" fill="none" stroke="#000000" d="M242.14354-127.56065C242.14354-126.90039 241.60828-126.36513 240.948-126.36513 240.28774-126.36513 239.75247-126.90039 239.75247-127.56065 239.75247-128.22093 240.28774-128.7562 240.948-128.7562 241.60828-128.7562 242.14354-128.22093 242.14354-127.56065ZM240.948-127.56065"/>
<path transform="matrix(1,0,0,-1,348.276,15.160004)" stroke-width=".3985" stroke-linecap="butt" stroke-miterlimit="10" stroke-linejoin="miter" fill="none" stroke="#000000" d="M213.2643-86.03513 240.28488-126.56596"/>
<use data-text="0" xlink:href="#font_0_1" transform="matrix(9.9626,0,0,-9.9626,586.73,153.395)"/>
<use data-text="3" xlink:href="#font_0_4" transform="matrix(9.9626,0,0,-9.9626,578.567,124.133)"/>
<path transform="matrix(1,0,0,-1,348.276,15.160004)" d="M298.83717-85.04044C298.83717-84.38017 298.3019-83.84491 297.64164-83.84491 296.98136-83.84491 296.44609-84.38017 296.44609-85.04044 296.44609-85.7007 296.98136-86.23596 297.64164-86.23596 298.3019-86.23596 298.83717-85.7007 298.83717-85.04044ZM297.64164-85.04044"/>
<path transform="matrix(1,0,0,-1,348.276,15.160004)" stroke-width=".3985" stroke-linecap="butt" stroke-miterlimit="10" stroke-linejoin="miter" fill="none" stroke="#000000" d="M298.83717-85.04044C298.83717-84.38017 298.3019-83.84491 297.64164-83.84491 296.98136-83.84491 296.44609-84.38017 296.44609-85.04044 296.44609-85.7007 296.98136-86.23596 297.64164-86.23596 298.3019-86.23596 298.83717-85.7007 298.83717-85.04044ZM297.64164-85.04044"/>
<use data-text="c" xlink:href="#font_0_7" transform="matrix(9.9626,0,0,-9.9626,643.7,95.484)"/>
<path transform="matrix(1,0,0,-1,348.276,15.160004)" d="M270.49037-127.56065C270.49037-126.90039 269.9551-126.36513 269.29487-126.36513 268.63459-126.36513 268.09934-126.90039 268.09934-127.56065 268.09934-128.22093 268.63459-128.7562 269.29487-128.7562 269.9551-128.7562 270.49037-128.22093 270.49037-127.56065ZM269.29487-127.56065"/>
<path transform="matrix(1,0,0,-1,348.276,15.160004)" stroke-width=".3985" stroke-linecap="butt" stroke-miterlimit="10" stroke-linejoin="miter" fill="none" stroke="#000000" d="M270.49037-127.56065C270.49037-126.90039 269.9551-126.36513 269.29487-126.36513 268.63459-126.36513 268.09934-126.90039 268.09934-127.56065 268.09934-128.22093 268.63459-128.7562 269.29487-128.7562 269.9551-128.7562 270.49037-128.22093 270.49037-127.56065ZM269.29487-127.56065"/>
<path transform="matrix(1,0,0,-1,348.276,15.160004)" stroke-width=".3985" stroke-linecap="butt" stroke-miterlimit="10" stroke-linejoin="miter" fill="none" stroke="#000000" d="M296.97853-86.03513 269.95799-126.56596"/>
<use data-text="1" xlink:href="#font_0_2" transform="matrix(9.9626,0,0,-9.9626,615.077,153.395)"/>
<use data-text="1" xlink:href="#font_0_2" transform="matrix(9.9626,0,0,-9.9626,623.239,124.133)"/>
<path transform="matrix(1,0,0,-1,348.276,15.160004)" d="M298.8372-127.56065C298.8372-126.90039 298.30195-126.36513 297.64167-126.36513 296.98139-126.36513 296.4461-126.90039 296.4461-127.56065 296.4461-128.22093 296.98139-128.7562 297.64167-128.7562 298.30195-128.7562 298.8372-128.22093 298.8372-127.56065ZM297.64167-127.56065"/>
<path transform="matrix(1,0,0,-1,348.276,15.160004)" stroke-width=".3985" stroke-linecap="butt" stroke-miterlimit="10" stroke-linejoin="miter" fill="none" stroke="#000000" d="M298.8372-127.56065C298.8372-126.90039 298.30195-126.36513 297.64167-126.36513 296.98139-126.36513 296.4461-126.90039 296.4461-127.56065 296.4461-128.22093 296.98139-128.7562 297.64167-128.7562 298.30195-128.7562 298.8372-128.22093 298.8372-127.56065ZM297.64167-127.56065"/>
<path transform="matrix(1,0,0,-1,348.276,15.160004)" stroke-width=".3985" stroke-linecap="butt" stroke-miterlimit="10" stroke-linejoin="miter" fill="none" stroke="#000000" d="M297.64164-86.23596 297.64167-126.36513"/>
<use data-text="1" xlink:href="#font_0_2" transform="matrix(9.9626,0,0,-9.9626,643.423,153.395)"/>
<use data-text="2" xlink:href="#font_0_3" transform="matrix(9.9626,0,0,-9.9626,637.41299,124.133)"/>
<path transform="matrix(1,0,0,-1,348.276,15.160004)" d="M327.184-127.56065C327.184-126.90039 326.64875-126.36513 325.98847-126.36513 325.3282-126.36513 324.79295-126.90039 324.79295-127.56065 324.79295-128.22093 325.3282-128.7562 325.98847-128.7562 326.64875-128.7562 327.184-128.22093 327.184-127.56065ZM325.98847-127.56065"/>
<path transform="matrix(1,0,0,-1,348.276,15.160004)" stroke-width=".3985" stroke-linecap="butt" stroke-miterlimit="10" stroke-linejoin="miter" fill="none" stroke="#000000" d="M327.184-127.56065C327.184-126.90039 326.64875-126.36513 325.98847-126.36513 325.3282-126.36513 324.79295-126.90039 324.79295-127.56065 324.79295-128.22093 325.3282-128.7562 325.98847-128.7562 326.64875-128.7562 327.184-128.22093 327.184-127.56065ZM325.98847-127.56065"/>
<path transform="matrix(1,0,0,-1,348.276,15.160004)" stroke-width=".3985" stroke-linecap="butt" stroke-miterlimit="10" stroke-linejoin="miter" fill="none" stroke="#000000" d="M298.30476-86.03513 325.32533-126.56596"/>
<use data-text="1" xlink:href="#font_0_2" transform="matrix(9.9626,0,0,-9.9626,671.77,153.395)"/>
<use data-text="3" xlink:href="#font_0_4" transform="matrix(9.9626,0,0,-9.9626,663.607,124.133)"/>
</svg>
