<svg xmlns="http://www.w3.org/2000/svg" xmlns:xlink="http://www.w3.org/1999/xlink" version="1.1" width="159.99494pt" height="43.64222pt" viewBox="0 0 159.99494 43.64222">
<defs>
<path id="font_1_4" d="M.9059906 .63671877V.65270999H.72099307V.63671877C.776001 .63171389 .7859955 .6247101 .7859955 .5967102 .7859955 .5797119 .7789917 .5567169 .7649994 .52970889L.5779877 .16171265 .5379944 .56370547 .5369873 .577713C.5369873 .6187134 .5519867 .63171389 .6049957 .63671877V.65270999H.36698915V.63671877C.4249878 .6347046 .43499757 .62771609 .44198609 .57870486L.45098878 .5097046 .2789917 .16171265 .23498535 .5677185 .23399353 .5817108C.23399353 .6207123 .24598694 .62971499 .30699159 .63671877V.65270999H.070999149V.63671877C.102996829 .6327057 .11199951 .62971499 .12199402 .6217041 .13398743 .6097107 .13798523 .5927124 .1499939 .49871827L.21199036-.018295289H.23098755L.45298768 .43571473H.45799256L.5079956-.018295289H.5279999L.83099368 .5647125C.8580017 .6157074 .8679962 .6247101 .9059906 .63671877Z"/>
<path id="font_1_2" d="M.33599855 .42848207H.24798584L.27799989 .5314789 .2709961 .5464783H.2669983C.2630005 .5464783 .2599945 .5434723 .2539978 .5374756 .21199036 .48747254 .14299011 .43547059 .10798645 .42747499 .07998657 .41947938 .07299805 .41348268 .07299805 .40248109 .07299805 .40248109 .07299805 .3994751 .07398987 .39648438H.15499878L.068984989 .10029602C.057998659 .067276 .050994874 .036254884 .050994874 .026245118 .050994874 .0052490236 .07398987-.0107421879 .10398865-.0107421879 .1539917-.0107421879 .18998719 .01725769 .2599945 .11029053L.24499512 .11729431C.19198609 .054260255 .17399597 .038253786 .1559906 .038253786 .14199829 .038253786 .13398743 .05026245 .14099121 .06326294L.23799134 .39648438H.32998658L.33599855 .42848207Z"/>
<path id="font_1_1" d="M.5079956 .66700747H.4850006C.47099305 .64601138 .46199037 .64100649 .43998719 .64100649 .4269867 .64100649 .4149933 .64401248 .3939972 .65200808 .37298585 .66101077 .33999635 .6660156 .30899049 .6660156 .20498657 .6660156 .1309967 .59698489 .1309967 .49891664 .1309967 .44488526 .1459961 .41586305 .20599365 .3518219 .21899414 .33880616 .23199463 .32479859 .24499512 .30978395L.28399659 .26776124C.33099366 .21873474 .34399415 .1927185 .34399415 .14968872 .34399415 .073638919 .2889862 .016601563 .21499634 .016601563 .1309967 .016601563 .068984989 .087646488 .068984989 .18571472 .068984989 .1927185 .068984989 .19671631 .070999149 .205719L.050994874 .2077179 .016998291-.015411377H.034988405C.041992189 .007598877 .052993776 .017593384 .07299805 .017593384 .083999637 .017593384 .09799194 .013595581 .125 .0045928957 .17098999-.0124053959 .19799805-.0184021 .22898865-.0184021 .34399415-.0184021 .43099977 .06762695 .43099977 .18170166 .43099977 .24674988 .40899659 .28477479 .31799317 .37683106 .22698975 .4678955 .21899414 .48190309 .21899414 .5309448 .21899414 .5939789 .26098634 .63301089 .32899476 .63301089 .3659973 .63301089 .3959961 .6210022 .4169922 .59698489 .43998719 .57196047 .44799806 .5379486 .44999696 .4709015L.46798707 .4678955 .5079956 .66700747Z"/>
<path id="font_1_3" d="M.56399539 0V.015991211C.5069885 .020980835 .5 .02897644 .48799134 .101882938L.3939972 .66796877H.36799623L.07798767 .16778565C-.0010070801 .034973146-.011001587 .023986817-.05101013 .015991211V0H.13598633V.015991211C.084991458 .020980835 .07699585 .025985718 .07699585 .050949098 .07699585 .06991577 .07998657 .0789032 .09700012 .11286926L.1539917 .22570801H.37399293L.3939972 .09487915C.394989 .08589172 .3959961 .0769043 .3959961 .06892395 .3959961 .030975342 .38198854 .021987915 .31799317 .015991211V0H.56399539M.36898805 .26171876H.1749878L.32499696 .52186587 .36898805 .26171876Z"/>
</defs>
<path transform="matrix(1.5,0,0,-1.5,21.648404,15.841633)" stroke-width="1" stroke-linecap="round" stroke-linejoin="round" fill="none" stroke="#000000" d="M-7.118065 .088993C21.90414 .039612 50.851324-.06397 80.0101-.083259"/>
<path transform="matrix(1.5,0,0,-1.5,21.648404,15.841633)" d="M79.932979-3.229866C81.23384-1.716595 83.06106-.532619 84.91773-.072937 83.12745 .544107 81.28068 1.575876 80.06499 3.246853Z"/>
<path transform="matrix(1.5,0,0,-1.5,21.648404,15.841633)" stroke-width="1" stroke-linecap="round" stroke-linejoin="round" fill="none" stroke="#000000" d="M79.932979-3.229866C81.23384-1.716595 83.06106-.532619 84.91773-.072937 83.12745 .544107 81.28068 1.575876 80.06499 3.246853Z"/>
<path transform="matrix(1.5,0,0,-1.5,21.648404,15.841633)" d="M1.436267-.022649C1.444447 .434882 1.26715 .798794 .944604 1.024507 .824811 1.457125 .505615 1.428675-.064204 1.61792-.410414 1.433632-.85335 1.274886-1.178762 1.101452-1.453529 .862048-1.526259 .480455-1.376147 .013537-1.501323-.348255-1.41538-.838576-1.086062-1.049548-.695568-1.256539-.490593-1.486082-.018901-1.436389 .297949-1.378034 .899738-1.355916 1.123785-1.151293 1.228175-.902166 1.422505-.483285 1.436267-.022649Z"/>
<path transform="matrix(1.5,0,0,-1.5,21.648404,15.841633)" d="M29.920247 .114967C29.76633 .32224 29.601538 .747031 29.311528 1.000851 29.21226 1.436305 28.804259 1.490538 28.358218 1.400459 27.863493 1.485503 27.67696 1.226509 27.213858 1.144292 27.058737 .882481 26.894745 .42652 26.731698 .091597 26.845795-.369503 26.94009-.783667 27.189967-1.074938 27.667977-1.463761 27.907782-1.379011 28.231429-1.421185 28.852005-1.477593 29.219325-1.408411 29.469357-1.153296 29.755726-.737247 29.863635-.390065 29.920247 .114967Z"/>
<path transform="matrix(1.5,0,0,-1.5,21.648404,15.841633)" d="M58.2677-.098371C58.159925 .402232 58.099416 .812269 57.69582 1.088649 57.49995 1.243106 57.01534 1.511789 56.808107 1.516586 56.394765 1.62339 55.987604 1.438862 55.72686 .974975 55.425035 .7497 55.122617 .345209 55.114606-.089151 55.24167-.477575 55.316778-.796118 55.71274-1.178173 55.91841-1.270992 56.393106-1.429786 56.658834-1.401499 57.203256-1.604566 57.562475-1.307344 57.740236-.972378 57.96412-.735334 58.262186-.312283 58.2677-.098371Z"/>
<use data-text="&#x1d44a;" xlink:href="#font_1_4" transform="matrix(14.944035,0,0,-14.943942,13.522877,30.094468)"/>
<use data-text="&#x1d461;" xlink:href="#font_1_2" transform="matrix(10.460782,0,0,-10.460717,25.96442,33.081617)"/>
<use data-text="&#x1d446;" xlink:href="#font_1_1" transform="matrix(14.943919,0,0,-14.944012,58.52881,30.30355)"/>
<use data-text="&#x1d461;" xlink:href="#font_1_2" transform="matrix(10.460701,0,0,-10.460766,65.996669,33.29071)"/>
<use data-text="&#x1d434;" xlink:href="#font_1_3" transform="matrix(14.943953,0,0,-14.943896,100.599948,30.318516)"/>
<use data-text="&#x1d461;" xlink:href="#font_1_2" transform="matrix(10.460725,0,0,-10.460686,109.72569,33.30565)"/>
</svg>
