<svg xmlns="http://www.w3.org/2000/svg" xmlns:xlink="http://www.w3.org/1999/xlink" version="1.1" width="159.88999pt" height="43.769048pt" viewBox="0 0 159.88999 43.769048">
<defs>
<path id="font_0_1" d="M.5079956 .66700747H.4850006C.47099305 .64601138 .46199037 .64100649 .43998719 .64100649 .4269867 .64100649 .4149933 .64401248 .3939972 .65200808 .37298585 .66101077 .33999635 .6660156 .30899049 .6660156 .20498657 .6660156 .1309967 .59698489 .1309967 .49891664 .1309967 .44488526 .1459961 .41586305 .20599365 .3518219 .21899414 .33880616 .23199463 .32479859 .24499512 .30978395L.28399659 .26776124C.33099366 .21873474 .34399415 .1927185 .34399415 .14968872 .34399415 .073638919 .2889862 .016601563 .21499634 .016601563 .1309967 .016601563 .068984989 .087646488 .068984989 .18571472 .068984989 .1927185 .068984989 .19671631 .070999149 .205719L.050994874 .2077179 .016998291-.015411377H.034988405C.041992189 .007598877 .052993776 .017593384 .07299805 .017593384 .083999637 .017593384 .09799194 .013595581 .125 .0045928957 .17098999-.0124053959 .19799805-.0184021 .22898865-.0184021 .34399415-.0184021 .43099977 .06762695 .43099977 .18170166 .43099977 .24674988 .40899659 .28477479 .31799317 .37683106 .22698975 .4678955 .21899414 .48190309 .21899414 .5309448 .21899414 .5939789 .26098634 .63301089 .32899476 .63301089 .3659973 .63301089 .3959961 .6210022 .4169922 .59698489 .43998719 .57196047 .44799806 .5379486 .44999696 .4709015L.46798707 .4678955 .5079956 .66700747Z"/>
<path id="font_0_2" d="M.33599855 .42848207H.24798584L.27799989 .5314789 .2709961 .5464783H.2669983C.2630005 .5464783 .2599945 .5434723 .2539978 .5374756 .21199036 .48747254 .14299011 .43547059 .10798645 .42747499 .07998657 .41947938 .07299805 .41348268 .07299805 .40248109 .07299805 .40248109 .07299805 .3994751 .07398987 .39648438H.15499878L.068984989 .10029602C.057998659 .067276 .050994874 .036254884 .050994874 .026245118 .050994874 .0052490236 .07398987-.0107421879 .10398865-.0107421879 .1539917-.0107421879 .18998719 .01725769 .2599945 .11029053L.24499512 .11729431C.19198609 .054260255 .17399597 .038253786 .1559906 .038253786 .14199829 .038253786 .13398743 .05026245 .14099121 .06326294L.23799134 .39648438H.32998658L.33599855 .42848207Z"/>
<path id="font_0_3" d="M.56399539 0V.015991211C.5069885 .020980835 .5 .02897644 .48799134 .101882938L.3939972 .66796877H.36799623L.07798767 .16778565C-.0010070801 .034973146-.011001587 .023986817-.05101013 .015991211V0H.13598633V.015991211C.084991458 .020980835 .07699585 .025985718 .07699585 .050949098 .07699585 .06991577 .07998657 .0789032 .09700012 .11286926L.1539917 .22570801H.37399293L.3939972 .09487915C.394989 .08589172 .3959961 .0769043 .3959961 .06892395 .3959961 .030975342 .38198854 .021987915 .31799317 .015991211V0H.56399539M.36898805 .26171876H.1749878L.32499696 .52186587 .36898805 .26171876Z"/>
<path id="font_0_4" d="M.9059906 .63671877V.65270999H.72099307V.63671877C.776001 .63171389 .7859955 .6247101 .7859955 .5967102 .7859955 .5797119 .7789917 .5567169 .7649994 .52970889L.5779877 .16171265 .5379944 .56370547 .5369873 .577713C.5369873 .6187134 .5519867 .63171389 .6049957 .63671877V.65270999H.36698915V.63671877C.4249878 .6347046 .43499757 .62771609 .44198609 .57870486L.45098878 .5097046 .2789917 .16171265 .23498535 .5677185 .23399353 .5817108C.23399353 .6207123 .24598694 .62971499 .30699159 .63671877V.65270999H.070999149V.63671877C.102996829 .6327057 .11199951 .62971499 .12199402 .6217041 .13398743 .6097107 .13798523 .5927124 .1499939 .49871827L.21199036-.018295289H.23098755L.45298768 .43571473H.45799256L.5079956-.018295289H.5279999L.83099368 .5647125C.8580017 .6157074 .8679962 .6247101 .9059906 .63671877Z"/>
</defs>
<path transform="matrix(1.5,0,0,-1.5,21.469082,15.96846)" stroke-width="1" stroke-linecap="round" stroke-linejoin="round" fill="none" stroke="#000000" d="M-6.998515-.075326C22.019768 .113162 51.03233 .058492 80.05433 .03504"/>
<path transform="matrix(1.5,0,0,-1.5,21.469082,15.96846)" d="M79.93578-3.122934C81.18313-1.701791 83.12402-.546462 84.967319-.102147 82.93593 .584422 81.186229 1.553591 79.892368 3.331404Z"/>
<path transform="matrix(1.5,0,0,-1.5,21.469082,15.96846)" stroke-width="1" stroke-linecap="round" stroke-linejoin="round" fill="none" stroke="#000000" d="M79.93578-3.122934C81.18313-1.701791 83.12402-.546462 84.967319-.102147 82.93593 .584422 81.186229 1.553591 79.892368 3.331404Z"/>
<path transform="matrix(1.5,0,0,-1.5,21.469082,15.96846)" d="M1.447801-.076105C1.506411 .452441 1.297397 .805688 .981836 1.03133 .719467 1.23242 .348125 1.598161-.007931 1.46095-.375678 1.480713-.747844 1.229246-1.046692 .988243-1.286034 .85644-1.483527 .294697-1.493008 .025973-1.444404-.331929-1.263435-.807945-1.100455-.983733-.694081-1.310791-.349522-1.462659 .074028-1.56667 .48794-1.571644 .656578-1.368723 1.095401-1.047045 1.221635-.719657 1.395061-.290889 1.447801-.076105Z"/>
<path transform="matrix(1.5,0,0,-1.5,21.469082,15.96846)" d="M29.801554 .068102C29.76246 .416177 29.668837 .845027 29.403622 .986262 29.089722 1.341231 28.715565 1.424568 28.381527 1.599296 27.890666 1.448767 27.626456 1.270576 27.36221 1.009649 27.105769 .873929 26.907145 .48254 26.760079-.092798 26.876002-.418446 27.082196-.744781 27.30725-.996031 27.46909-1.261208 27.837397-1.574865 28.413815-1.40323 28.83914-1.464053 29.218682-1.269038 29.470072-.949391 29.644343-.699821 29.806708-.48049 29.801554 .068102Z"/>
<path transform="matrix(1.5,0,0,-1.5,21.469082,15.96846)" d="M58.162145-.010497C58.13049 .341245 57.92143 .705722 57.744604 1.099526 57.494047 1.373189 57.188734 1.517495 56.607995 1.614142 56.407106 1.623611 55.809164 1.33378 55.57412 1.114582 55.25513 .720466 55.101865 .437267 55.311845 .028039 55.250757-.283565 55.455026-.861336 55.6768-1.076579 55.893957-1.313858 56.299917-1.599646 56.743925-1.619707 57.010568-1.592416 57.375074-1.458669 57.6728-.964141 58.0799-.669674 58.148477-.290864 58.162145-.010497Z"/>
<use data-text="&#x1d446;" xlink:href="#font_0_1" transform="matrix(14.943919,0,0,-14.944012,15.830322,30.430382)"/>
<use data-text="&#x1d461;" xlink:href="#font_0_2" transform="matrix(10.460701,0,0,-10.460766,23.298178,33.41754)"/>
<use data-text="&#x1d434;" xlink:href="#font_0_3" transform="matrix(14.943953,0,0,-14.943896,57.90144,30.445347)"/>
<use data-text="&#x1d461;" xlink:href="#font_0_2" transform="matrix(10.460725,0,0,-10.460686,67.027179,33.43248)"/>
<use data-text="&#x1d44a;" xlink:href="#font_0_4" transform="matrix(14.944035,0,0,-14.943942,98.38191,30.221299)"/>
<use data-text="&#x1d461;" xlink:href="#font_0_2" transform="matrix(10.460782,0,0,-10.460717,110.82345,33.208448)"/>
</svg>
