<svg xmlns="http://www.w3.org/2000/svg" xmlns:xlink="http://www.w3.org/1999/xlink" version="1.1" width="167.27039pt" height="51.80027pt" viewBox="0 0 167.27039 51.80027">
<defs>
<path id="font_1_483" d="M.48298646 .4263916H.4099884L.394989 .37937928C.3789978 .42539979 .35899354 .44140626 .31799317 .44140626 .18499756 .44140626 .024993897 .25733949 .024993897 .105270389 .024993897 .03425598 .06399536-.0107421879 .1269989-.0107421879 .19799805-.0107421879 .24398804 .025253296 .33299256 .1532898L.24598694-.1355896C.23298645-.17555237 .21699524-.1845398 .1519928-.1885376V-.20452881H.3929901V-.18652344H.37599183C.33898927-.18652344 .31900025-.17654419 .31698609-.16156006 .31698609-.15856934 .31799317-.15457154 .32099916-.14657593L.48298646 .4263916M.37998963 .359375C.37998963 .27633668 .31399537 .13728333 .24598694 .07826233 .21998596 .055252077 .19198609 .042251588 .16699219 .042251588 .13198853 .042251588 .11099243 .072265628 .11099243 .119277957 .11099243 .1933136 .16299439 .30334474 .22799683 .3703766 .25898744 .4013977 .2919922 .41940309 .32099916 .41940309 .35398866 .41940309 .37998963 .39237977 .37998963 .359375Z"/>
<path id="font_1_18" d="M.3939972 0V.01499939C.31498719 .015991211 .29899598 .025985718 .29899598 .07397461V.67378237L.29100038 .67578127 .11099243 .58480837V.57081606C.12298584 .57580569 .13398743 .57980349 .13798523 .58180239 .1559906 .58880618 .17298889 .59280398 .18299866 .59280398 .20399475 .59280398 .21299744 .57780459 .21299744 .54582217V.0929718C.21299744 .0599823 .20498657 .036987306 .18899536 .02798462 .17399597 .018997193 .1599884 .015991211 .117996219 .01499939V0H.3939972Z"/>
<path id="font_1_482" d="M.46899415 .31636048C.46899415 .39439393 .42599488 .44140626 .35398866 .44140626 .2889862 .44140626 .24099732 .4093933 .18299866 .32836915L.21398926 .4373932C.21398926 .4373932 .21199036 .44140626 .20899964 .44140626H.20799256L.053985597 .41929627 .055999757 .40429688C.085998538 .40429688 .12098694 .40429688 .12098694 .37728883 .12098694 .36528016 .085998538 .2272644 .049987794 .09425354L-.008010864-.12957764C-.018005372-.17550659-.03201294-.18748474-.07501221-.18847656V-.20448303H.12998963V-.18948365C.08299255-.18948365 .06599426-.18148804 .06599426-.15953064 .06599426-.14555359 .08299255-.07066345 .102996829 .0062561037 .12799073-.0067443849 .1459961-.0107421879 .16899109-.0107421879 .31498719-.0107421879 .46899415 .15626526 .46899415 .31628419V.31636048M.3789978 .3132782C.3789978 .24726868 .35198976 .16426087 .30999757 .103256229 .2669983 .040252687 .21798706 .008255005 .16499329 .008255005 .13699341 .008255005 .116989139 .023254395 .116989139 .04525757 .116989139 .07925415 .1519928 .20927429 .18199158 .28427125 .20899964 .35238648 .2669983 .4013977 .31698609 .39839173 .3600006 .39639283 .3789978 .37039186 .3789978 .31336976V.3132782Z"/>
<path id="font_1_17" d="M.47599793 .3300476C.47599793 .53486636 .3849945 .67578127 .2539978 .67578127 .19898987 .67578127 .15699768 .6587677 .11999512 .62379458 .06199646 .5678406 .023986817 .4529419 .023986817 .3360443 .023986817 .22714234 .056991579 .11022949 .10398865 .05429077 .14099121 .010314941 .19198609-.013671875 .25-.013671875 .30099488-.013671875 .34399415 .003326416 .37998963 .03829956 .43798829 .09324646 .47599793 .20915222 .47599793 .3300476M.37998963 .3280487C.37998963 .11923218 .33599855 .012313843 .25 .012313843 .1639862 .012313843 .11999512 .11923218 .11999512 .32704164 .11999512 .53886416 .16499329 .6497803 .25099183 .6497803 .33499146 .6497803 .37998963 .53686526 .37998963 .3280487Z"/>
</defs>
<path transform="matrix(1.25,0,0,-1.25,48.202539,34.68071)" stroke-width="1" stroke-linecap="round" stroke-linejoin="round" fill="none" stroke="#000000" d="M-8.972504 4.330261C-19.309525 8.324402-28.34645 8.18335-28.34645 0-28.34645-7.244843-21.263474-8.186279-12.466034-5.535416"/>
<path transform="matrix(1.25,0,0,-1.25,48.202539,34.68071)" d="M-11.975311-6.972473C-10.975739-6.16713-9.971176-5.28215-8.972504-4.330261-10.351761-4.297165-11.687866-4.21257-12.964142-4.075226L-11.975311-6.972473Z"/>
<path transform="matrix(1.25,0,0,-1.25,48.202539,34.68071)" stroke-width="1" stroke-linecap="round" stroke-linejoin="round" fill="none" stroke="#000000" d="M-11.975311-6.972473C-10.975739-6.16713-9.971176-5.28215-8.972504-4.330261-10.351761-4.297165-11.687866-4.21257-12.964142-4.075226L-11.975311-6.972473Z"/>
<use data-text="&#x1d45e;" xlink:href="#font_1_483" transform="matrix(9.962616,0,0,-9.962668,4.0414125,35.85563)"/>
<path transform="matrix(1.25,0,0,-1.25,48.202539,34.68071)" stroke-width="1" stroke-linecap="round" stroke-linejoin="round" fill="none" stroke="#000000" d="M66.41655-2.169373C74.971378-6.448074 85.03935-13.177475 85.03935 0 85.03935 11.515411 77.35094 7.828934 69.70256 3.860489"/>
<path transform="matrix(1.25,0,0,-1.25,48.202539,34.68071)" d="M69.00116 5.221939C68.13469 4.19397 67.27133 3.155212 66.41655 2.169373 67.71808 2.262024 69.063068 2.386017 70.40265 2.500198L69.00116 5.221939Z"/>
<path transform="matrix(1.25,0,0,-1.25,48.202539,34.68071)" stroke-width="1" stroke-linecap="round" stroke-linejoin="round" fill="none" stroke="#000000" d="M69.00116 5.221939C68.13469 4.19397 67.27133 3.155212 66.41655 2.169373 67.71808 2.262024 69.063068 2.386017 70.40265 2.500198L69.00116 5.221939Z"/>
<use data-text="1" xlink:href="#font_1_18" transform="matrix(9.962616,0,0,-9.962668,158.25045,38.046197)"/>
<path transform="matrix(1.25,0,0,-1.25,48.202539,34.68071)" stroke-width="1" stroke-linecap="round" stroke-linejoin="round" fill="none" stroke="#000000" d="M6.203934 7.794525C17.663514 18.378296 35.266069 19.160508 47.633699 10.141235"/>
<path transform="matrix(1.25,0,0,-1.25,48.202539,34.68071)" d="M46.65587 8.940506C47.943284 8.642029 49.223115 8.261093 50.48854 7.794922 49.9234 9.019363 49.287797 10.193695 48.588548 11.315109L46.65587 8.940506Z"/>
<path transform="matrix(1.25,0,0,-1.25,48.202539,34.68071)" stroke-width="1" stroke-linecap="round" stroke-linejoin="round" fill="none" stroke="#000000" d="M46.65587 8.940506C47.943284 8.642029 49.223115 8.261093 50.48854 7.794922 49.9234 9.019363 49.287797 10.193695 48.588548 11.315109L46.65587 8.940506Z"/>
<use data-text="&#x1d45d;" xlink:href="#font_1_482" transform="matrix(9.962616,0,0,-9.962668,81.14591,8.432457)"/>
<path transform="matrix(1.25,0,0,-1.25,48.202539,34.68071)" stroke-width="1" stroke-linecap="round" stroke-linejoin="round" fill="none" stroke="#000000" d="M9.962646 0C9.962646 2.64238 8.912811 5.176208 7.04451 7.04451 5.176208 8.912811 2.64238 9.962646 0 9.962646-2.64238 9.962646-5.176208 8.912811-7.04451 7.04451-8.912811 5.176208-9.962646 2.64238-9.962646 0-9.962646-2.64238-8.912811-5.176208-7.04451-7.04451-5.176208-8.912811-2.64238-9.962646 0-9.962646 2.64238-9.962646 5.176208-8.912811 7.04451-7.04451 8.912811-5.176208 9.962646-2.64238 9.962646 0Z"/>
<path transform="matrix(1.25,0,0,-1.25,48.202539,34.68071)" stroke-width="1" stroke-linecap="round" stroke-linejoin="round" fill="none" stroke="#000000" d="M66.65555 0C66.65555 2.64238 65.60571 5.176208 63.73741 7.04451 61.86911 8.912811 59.33528 9.962646 56.6929 9.962646 54.05052 9.962646 51.516695 8.912811 49.64839 7.04451 47.78009 5.176208 46.730257 2.64238 46.730257 0 46.730257-2.64238 47.78009-5.176208 49.64839-7.04451 51.516695-8.912811 54.05052-9.962646 56.6929-9.962646 59.33528-9.962646 61.86911-8.912811 63.73741-7.04451 65.60571-5.176208 66.65555-2.64238 66.65555 0Z"/>
<use data-text="0" xlink:href="#font_1_17" transform="matrix(12.453261,0,0,-12.453315,45.090978,38.800439)"/>
<use data-text="1" xlink:href="#font_1_18" transform="matrix(12.453261,0,0,-12.453279,115.956249,38.887559)"/>
</svg>
