<svg xmlns="http://www.w3.org/2000/svg" xmlns:xlink="http://www.w3.org/1999/xlink" version="1.1" width="309.00099pt" height="69.36142pt" viewBox="0 0 309.00099 69.36142">
<defs>
<path id="font_1_483" d="M.48298646 .4263916H.4099884L.394989 .37937928C.3789978 .42539979 .35899354 .44140626 .31799317 .44140626 .18499756 .44140626 .024993897 .25733949 .024993897 .105270389 .024993897 .03425598 .06399536-.0107421879 .1269989-.0107421879 .19799805-.0107421879 .24398804 .025253296 .33299256 .1532898L.24598694-.1355896C.23298645-.17555237 .21699524-.1845398 .1519928-.1885376V-.20452881H.3929901V-.18652344H.37599183C.33898927-.18652344 .31900025-.17654419 .31698609-.16156006 .31698609-.15856934 .31799317-.15457154 .32099916-.14657593L.48298646 .4263916M.37998963 .359375C.37998963 .27633668 .31399537 .13728333 .24598694 .07826233 .21998596 .055252077 .19198609 .042251588 .16699219 .042251588 .13198853 .042251588 .11099243 .072265628 .11099243 .119277957 .11099243 .1933136 .16299439 .30334474 .22799683 .3703766 .25898744 .4013977 .2919922 .41940309 .32099916 .41940309 .35398866 .41940309 .37998963 .39237977 .37998963 .359375Z"/>
<path id="font_1_18" d="M.3939972 0V.01499939C.31498719 .015991211 .29899598 .025985718 .29899598 .07397461V.67378237L.29100038 .67578127 .11099243 .58480837V.57081606C.12298584 .57580569 .13398743 .57980349 .13798523 .58180239 .1559906 .58880618 .17298889 .59280398 .18299866 .59280398 .20399475 .59280398 .21299744 .57780459 .21299744 .54582217V.0929718C.21299744 .0599823 .20498657 .036987306 .18899536 .02798462 .17399597 .018997193 .1599884 .015991211 .117996219 .01499939V0H.3939972Z"/>
<path id="font_1_482" d="M.46899415 .31636048C.46899415 .39439393 .42599488 .44140626 .35398866 .44140626 .2889862 .44140626 .24099732 .4093933 .18299866 .32836915L.21398926 .4373932C.21398926 .4373932 .21199036 .44140626 .20899964 .44140626H.20799256L.053985597 .41929627 .055999757 .40429688C.085998538 .40429688 .12098694 .40429688 .12098694 .37728883 .12098694 .36528016 .085998538 .2272644 .049987794 .09425354L-.008010864-.12957764C-.018005372-.17550659-.03201294-.18748474-.07501221-.18847656V-.20448303H.12998963V-.18948365C.08299255-.18948365 .06599426-.18148804 .06599426-.15953064 .06599426-.14555359 .08299255-.07066345 .102996829 .0062561037 .12799073-.0067443849 .1459961-.0107421879 .16899109-.0107421879 .31498719-.0107421879 .46899415 .15626526 .46899415 .31628419V.31636048M.3789978 .3132782C.3789978 .24726868 .35198976 .16426087 .30999757 .103256229 .2669983 .040252687 .21798706 .008255005 .16499329 .008255005 .13699341 .008255005 .116989139 .023254395 .116989139 .04525757 .116989139 .07925415 .1519928 .20927429 .18199158 .28427125 .20899964 .35238648 .2669983 .4013977 .31698609 .39839173 .3600006 .39639283 .3789978 .37039186 .3789978 .31336976V.3132782Z"/>
<path id="font_1_17" d="M.47599793 .3300476C.47599793 .53486636 .3849945 .67578127 .2539978 .67578127 .19898987 .67578127 .15699768 .6587677 .11999512 .62379458 .06199646 .5678406 .023986817 .4529419 .023986817 .3360443 .023986817 .22714234 .056991579 .11022949 .10398865 .05429077 .14099121 .010314941 .19198609-.013671875 .25-.013671875 .30099488-.013671875 .34399415 .003326416 .37998963 .03829956 .43798829 .09324646 .47599793 .20915222 .47599793 .3300476M.37998963 .3280487C.37998963 .11923218 .33599855 .012313843 .25 .012313843 .1639862 .012313843 .11999512 .11923218 .11999512 .32704164 .11999512 .53886416 .16499329 .6497803 .25099183 .6497803 .33499146 .6497803 .37998963 .53686526 .37998963 .3280487Z"/>
<path id="font_1_19" d="M.47499085 .13696289 .46199037 .14196778C.4249878 .084991458 .4119873 .07598877 .36698915 .07598877H.12799073L.29599 .2519226C.3849945 .34487916 .42399598 .42085267 .42399598 .4988098 .42399598 .59877017 .34298707 .67578127 .23899842 .67578127 .18399048 .67578127 .13198853 .6537781 .09498596 .61376956 .06298828 .5797882 .04798889 .5477905 .0309906 .4768219L.051986696 .47183229C.09199524 .5697937 .12799073 .6017761 .19699097 .6017761 .2809906 .6017761 .33799745 .5447998 .33799745 .4608307 .33799745 .38285829 .2919922 .28990174 .20799256 .200943L.02999878 .011993408V0H.41999818L.47499085 .13696289Z"/>
<path id="font_1_20" d="M.43199159 .21916199C.43199159 .27011109 .41600038 .31707765 .3869934 .34806825 .36698915 .3700409 .34799195 .3820343 .3039856 .40100099 .37298585 .44795228 .397995 .48490907 .397995 .53886416 .397995 .61976626 .33399964 .67578127 .24198914 .67578127 .19198609 .67578127 .147995 .6587677 .11199951 .62677 .08198547 .5997925 .066986087 .573822 .04499817 .5138855L.05999756 .5098877C.100997928 .58280947 .1459961 .61576846 .20899964 .61576846 .27398683 .61576846 .31900025 .5718231 .31900025 .5088959 .31900025 .4729309 .3039856 .43696595 .2789917 .41200257 .24899292 .3820343 .22099304 .36705018 .15299988 .34306336V.33007813C.21199036 .33007813 .23498535 .32806397 .25898744 .31907655 .32099916 .29708863 .3600006 .24014282 .3600006 .17120362 .3600006 .087265018 .30299378 .022323609 .22898865 .022323609 .20199585 .022323609 .18199158 .029312134 .14498902 .05329895 .114990238 .0712738 .09799194 .07827759 .08099365 .07827759 .057998659 .07827759 .042999269 .06428528 .042999269 .043304445 .042999269 .00831604 .085998538-.013671875 .1559906-.013671875 .23298645-.013671875 .31199647 .012313843 .35899354 .05329895 .4059906 .0942688 .43199159 .15222168 .43199159 .21916199Z"/>
</defs>
<path transform="matrix(1.25,0,0,-1.25,48.202539,34.680719)" stroke-width="1" stroke-linecap="round" stroke-linejoin="round" fill="none" stroke="#000000" d="M-8.972504 4.330261C-19.309525 8.324402-28.34645 8.18335-28.34645 0-28.34645-7.244843-21.263474-8.186279-12.466034-5.535416"/>
<path transform="matrix(1.25,0,0,-1.25,48.202539,34.680719)" d="M-11.975311-6.972473C-10.975739-6.16713-9.971176-5.28215-8.972504-4.330261-10.351761-4.297165-11.687866-4.21257-12.964142-4.075226L-11.975311-6.972473Z"/>
<path transform="matrix(1.25,0,0,-1.25,48.202539,34.680719)" stroke-width="1" stroke-linecap="round" stroke-linejoin="round" fill="none" stroke="#000000" d="M-11.975311-6.972473C-10.975739-6.16713-9.971176-5.28215-8.972504-4.330261-10.351761-4.297165-11.687866-4.21257-12.964142-4.075226L-11.975311-6.972473Z"/>
<use data-text="&#x1d45e;" xlink:href="#font_1_483" transform="matrix(9.962616,0,0,-9.962668,4.0414125,35.855634)"/>
<path transform="matrix(1.25,0,0,-1.25,48.202539,34.680719)" stroke-width="1" stroke-linecap="round" stroke-linejoin="round" fill="none" stroke="#000000" d="M179.80236-2.169373C188.35718-6.448074 198.42516-13.177475 198.42516 0 198.42516 11.515411 190.73674 7.828934 183.08837 3.860489"/>
<path transform="matrix(1.25,0,0,-1.25,48.202539,34.680719)" d="M182.38697 5.221939C181.5205 4.19397 180.65714 3.155212 179.80236 2.169373 181.10388 2.262024 182.44887 2.386017 183.78845 2.500198L182.38697 5.221939Z"/>
<path transform="matrix(1.25,0,0,-1.25,48.202539,34.680719)" stroke-width="1" stroke-linecap="round" stroke-linejoin="round" fill="none" stroke="#000000" d="M182.38697 5.221939C181.5205 4.19397 180.65714 3.155212 179.80236 2.169373 181.10388 2.262024 182.44887 2.386017 183.78845 2.500198L182.38697 5.221939Z"/>
<use data-text="1" xlink:href="#font_1_18" transform="matrix(9.962616,0,0,-9.962668,299.98109,38.046205)"/>
<path transform="matrix(1.25,0,0,-1.25,48.202547,34.680719)" stroke-width="1" stroke-linecap="round" stroke-linejoin="round" fill="none" stroke="#000000" d="M6.203934 7.794525C17.663514 18.378296 35.266069 19.160508 47.633699 10.141235"/>
<path transform="matrix(1.25,0,0,-1.25,48.202547,34.680719)" d="M46.65587 8.940506C47.943284 8.642029 49.223115 8.261093 50.48854 7.794922 49.9234 9.019363 49.287797 10.193695 48.588548 11.315109L46.65587 8.940506Z"/>
<path transform="matrix(1.25,0,0,-1.25,48.202547,34.680719)" stroke-width="1" stroke-linecap="round" stroke-linejoin="round" fill="none" stroke="#000000" d="M46.65587 8.940506C47.943284 8.642029 49.223115 8.261093 50.48854 7.794922 49.9234 9.019363 49.287797 10.193695 48.588548 11.315109L46.65587 8.940506Z"/>
<use data-text="&#x1d45d;" xlink:href="#font_1_482" transform="matrix(9.962616,0,0,-9.962668,81.14592,8.432465)"/>
<path transform="matrix(1.25,0,0,-1.25,48.202547,34.680719)" stroke-width="1" stroke-linecap="round" stroke-linejoin="round" fill="none" stroke="#000000" d="M62.896837 7.794525C74.356418 18.378296 91.95897 19.160508 104.3266 10.141235"/>
<path transform="matrix(1.25,0,0,-1.25,48.202547,34.680719)" d="M103.34877 8.940506C104.636188 8.642029 105.916019 8.261093 107.18144 7.794922 106.6163 9.019363 105.9807 10.193695 105.28145 11.315109L103.34877 8.940506Z"/>
<path transform="matrix(1.25,0,0,-1.25,48.202547,34.680719)" stroke-width="1" stroke-linecap="round" stroke-linejoin="round" fill="none" stroke="#000000" d="M103.34877 8.940506C104.636188 8.642029 105.916019 8.261093 107.18144 7.794922 106.6163 9.019363 105.9807 10.193695 105.28145 11.315109L103.34877 8.940506Z"/>
<use data-text="&#x1d45d;" xlink:href="#font_1_482" transform="matrix(9.962616,0,0,-9.962668,152.01123,8.432465)"/>
<path transform="matrix(1.25,0,0,-1.25,48.202547,34.680719)" stroke-width="1" stroke-linecap="round" stroke-linejoin="round" fill="none" stroke="#000000" d="M119.58974 7.794525C131.04932 18.378296 148.65187 19.160508 161.0195 10.141235"/>
<path transform="matrix(1.25,0,0,-1.25,48.202547,34.680719)" d="M160.04167 8.940506C161.32909 8.642029 162.60892 8.261093 163.87435 7.794922 163.3092 9.019363 162.6736 10.193695 161.97435 11.315109L160.04167 8.940506Z"/>
<path transform="matrix(1.25,0,0,-1.25,48.202547,34.680719)" stroke-width="1" stroke-linecap="round" stroke-linejoin="round" fill="none" stroke="#000000" d="M160.04167 8.940506C161.32909 8.642029 162.60892 8.261093 163.87435 7.794922 163.3092 9.019363 162.6736 10.193695 161.97435 11.315109L160.04167 8.940506Z"/>
<use data-text="&#x1d45d;" xlink:href="#font_1_482" transform="matrix(9.962616,0,0,-9.962668,222.87654,8.432465)"/>
<path transform="matrix(1.25,0,0,-1.25,48.202547,34.680719)" stroke-width="1" stroke-linecap="round" stroke-linejoin="round" fill="none" stroke="#000000" d="M50.488969-7.794525C39.02939-18.378296 21.426835-19.160508 9.059204-10.141235"/>
<path transform="matrix(1.25,0,0,-1.25,48.202547,34.680719)" d="M10.037033-8.940506C8.749619-8.642029 7.469788-8.261093 6.204361-7.794922 6.769501-9.019363 7.405106-10.193695 8.104355-11.315109L10.037033-8.940506Z"/>
<path transform="matrix(1.25,0,0,-1.25,48.202547,34.680719)" stroke-width="1" stroke-linecap="round" stroke-linejoin="round" fill="none" stroke="#000000" d="M10.037033-8.940506C8.749619-8.642029 7.469788-8.261093 6.204361-7.794922 6.769501-9.019363 7.405106-10.193695 8.104355-11.315109L10.037033-8.940506Z"/>
<use data-text="&#x1d45e;" xlink:href="#font_1_483" transform="matrix(9.962616,0,0,-9.962668,81.14588,63.27878)"/>
<path transform="matrix(1.25,0,0,-1.25,48.202547,34.680719)" stroke-width="1" stroke-linecap="round" stroke-linejoin="round" fill="none" stroke="#000000" d="M107.18187-7.794525C95.72229-18.378296 78.119739-19.160508 65.752109-10.141235"/>
<path transform="matrix(1.25,0,0,-1.25,48.202547,34.680719)" d="M66.729938-8.940506C65.44252-8.642029 64.16269-8.261093 62.897264-7.794922 63.462404-9.019363 64.09801-10.193695 64.79726-11.315109L66.729938-8.940506Z"/>
<path transform="matrix(1.25,0,0,-1.25,48.202547,34.680719)" stroke-width="1" stroke-linecap="round" stroke-linejoin="round" fill="none" stroke="#000000" d="M66.729938-8.940506C65.44252-8.642029 64.16269-8.261093 62.897264-7.794922 63.462404-9.019363 64.09801-10.193695 64.79726-11.315109L66.729938-8.940506Z"/>
<use data-text="&#x1d45e;" xlink:href="#font_1_483" transform="matrix(9.962616,0,0,-9.962668,152.0112,63.27878)"/>
<path transform="matrix(1.25,0,0,-1.25,48.202547,34.680719)" stroke-width="1" stroke-linecap="round" stroke-linejoin="round" fill="none" stroke="#000000" d="M9.962646 0C9.962646 2.64238 8.912811 5.176208 7.04451 7.04451 5.176208 8.912811 2.64238 9.962646 0 9.962646-2.64238 9.962646-5.176208 8.912811-7.04451 7.04451-8.912811 5.176208-9.962646 2.64238-9.962646 0-9.962646-2.64238-8.912811-5.176208-7.04451-7.04451-5.176208-8.912811-2.64238-9.962646 0-9.962646 2.64238-9.962646 5.176208-8.912811 7.04451-7.04451 8.912811-5.176208 9.962646-2.64238 9.962646 0Z"/>
<path transform="matrix(1.25,0,0,-1.25,48.202547,34.680719)" stroke-width="1" stroke-linecap="round" stroke-linejoin="round" fill="none" stroke="#000000" d="M66.65555 0C66.65555 2.64238 65.60571 5.176208 63.73741 7.04451 61.86911 8.912811 59.33528 9.962646 56.6929 9.962646 54.05052 9.962646 51.516695 8.912811 49.64839 7.04451 47.78009 5.176208 46.730257 2.64238 46.730257 0 46.730257-2.64238 47.78009-5.176208 49.64839-7.04451 51.516695-8.912811 54.05052-9.962646 56.6929-9.962646 59.33528-9.962646 61.86911-8.912811 63.73741-7.04451 65.60571-5.176208 66.65555-2.64238 66.65555 0Z"/>
<path transform="matrix(1.25,0,0,-1.25,48.202547,34.680719)" stroke-width="1" stroke-linecap="round" stroke-linejoin="round" fill="none" stroke="#000000" d="M123.34845 0C123.34845 2.64238 122.298618 5.176208 120.43031 7.04451 118.56201 8.912811 116.02818 9.962646 113.3858 9.962646 110.74342 9.962646 108.209598 8.912811 106.34129 7.04451 104.47299 5.176208 103.42316 2.64238 103.42316 0 103.42316-2.64238 104.47299-5.176208 106.34129-7.04451 108.209598-8.912811 110.74342-9.962646 113.3858-9.962646 116.02818-9.962646 118.56201-8.912811 120.43031-7.04451 122.298618-5.176208 123.34845-2.64238 123.34845 0Z"/>
<path transform="matrix(1.25,0,0,-1.25,48.202547,34.680719)" stroke-width="1" stroke-linecap="round" stroke-linejoin="round" fill="none" stroke="#000000" d="M180.04135 0C180.04135 2.64238 178.99152 5.176208 177.12322 7.04451 175.25492 8.912811 172.72109 9.962646 170.0787 9.962646 167.43633 9.962646 164.9025 8.912811 163.0342 7.04451 161.1659 5.176208 160.11606 2.64238 160.11606 0 160.11606-2.64238 161.1659-5.176208 163.0342-7.04451 164.9025-8.912811 167.43633-9.962646 170.0787-9.962646 172.72109-9.962646 175.25492-8.912811 177.12322-7.04451 178.99152-5.176208 180.04135-2.64238 180.04135 0Z"/>
<use data-text="0" xlink:href="#font_1_17" transform="matrix(12.453261,0,0,-12.453315,45.090986,38.800447)"/>
<use data-text="1" xlink:href="#font_1_18" transform="matrix(12.453261,0,0,-12.453279,115.95625,38.88756)"/>
<use data-text="2" xlink:href="#font_1_19" transform="matrix(12.453261,0,0,-12.453279,186.82157,38.88756)"/>
<use data-text="3" xlink:href="#font_1_20" transform="matrix(12.453261,0,0,-12.453315,257.6869,38.800447)"/>
</svg>
